<svg width="116" height="142" viewBox="0 0 116 142" fill="none" xmlns="http://www.w3.org/2000/svg">
<path d="M21.1829 124.34L20.5977 139.413L35.7219 140" stroke="#FF7581" stroke-width="4" stroke-linecap="round" stroke-linejoin="round"/>
<path d="M22.1435 138.127C29.9897 131.776 35.9598 124.791 40.3417 117.409C63.3704 78.6131 43.0938 20.828 2 2" stroke="url(#paint0_linear_4185_45892)" stroke-width="4" stroke-linecap="round" stroke-linejoin="round"/>
<path d="M68.909 67.7808C68.5852 67.7816 68.3221 67.7744 68.1198 67.7591C67.9222 67.7605 67.8234 67.7612 67.8234 67.7612C67.8333 67.6684 67.7956 67.598 67.7101 67.55C67.6413 67.4973 67.5128 67.4883 67.3245 67.5231C67.0274 67.4264 66.7032 67.2653 66.3519 67.0398C66.0006 66.8143 65.6803 66.5711 65.3911 66.3102C65.1019 66.0492 64.9029 65.853 64.794 65.7215C64.6069 65.504 64.5732 65.3514 64.6926 65.2639C64.8074 65.1597 64.9449 65.0401 65.1051 64.9052C65.2512 64.7202 65.4151 64.5662 65.5966 64.4433C65.7948 64.3157 66.0005 64.375 66.2136 64.6213C66.5382 64.9443 66.9633 65.1761 67.4888 65.3168C68.031 65.4527 68.6012 65.4638 69.1993 65.3501C69.8142 65.2316 70.3869 64.963 70.9175 64.5441C71.2666 64.2482 71.4133 63.937 71.3578 63.6105C71.2975 63.2674 71.0647 62.9186 70.6593 62.5643C70.5718 62.4448 70.4662 62.3574 70.3427 62.302C70.2358 62.242 70.0719 62.171 69.8509 62.0889C69.6465 62.0022 69.3437 61.8531 68.9423 61.6417C68.6592 61.5951 68.3951 61.5521 68.1501 61.5128C67.9217 61.4689 67.6743 61.4212 67.4079 61.3699C67.1035 61.3113 66.7516 61.212 66.3522 61.072C65.9482 60.9153 65.5646 60.7348 65.2013 60.5307C64.8333 60.3098 64.5368 60.087 64.3117 59.8621C63.9744 59.6866 63.7116 59.3913 63.5231 58.9761C63.33 58.5442 63.2049 58.0662 63.1479 57.5422C63.1076 57.0134 63.1398 56.5183 63.2444 56.0569C63.279 55.7952 63.3783 55.4433 63.5424 55.0012C63.7018 54.5425 63.8922 54.066 64.1136 53.5719C64.3351 53.0777 64.5515 52.6299 64.763 52.2286C64.9865 51.8059 65.1736 51.5103 65.3244 51.342C65.4205 51.1711 65.5249 50.9978 65.6377 50.8221C65.7457 50.6298 65.7998 50.5336 65.7998 50.5336C65.7931 50.4455 65.8064 50.3967 65.8398 50.3874C65.8898 50.3733 65.9149 50.3663 65.9149 50.3663C65.9843 50.2928 66.1444 50.1579 66.3954 49.9615C66.6463 49.7651 66.8942 49.4615 67.1391 49.0508C68.1075 48.2031 68.9581 47.5775 69.691 47.1739C70.4193 46.7536 71.0087 46.4803 71.4593 46.3539C71.8812 46.2536 72.3229 46.2557 72.7843 46.3604C73.241 46.4483 73.6557 46.611 74.0283 46.8485C74.4177 47.0814 74.6935 47.391 74.856 47.7775C75.0851 48.1453 75.1625 48.6457 75.088 49.2787C75.0255 49.8903 74.8642 50.5026 74.6041 51.1156C74.356 51.7072 74.0561 52.1784 73.7044 52.5291C73.2932 52.8604 72.8997 52.9978 72.5238 52.9412C72.1646 52.8799 71.9488 52.6884 71.8766 52.3666C71.8391 52.2331 71.8364 52.0629 71.8683 51.8559C71.917 51.6442 72.0844 51.2462 72.3706 50.6619C72.6846 49.7277 72.8115 49.089 72.7513 48.7459C72.691 48.4028 72.487 48.253 72.1392 48.2965C72.0297 48.2912 71.8401 48.3534 71.5704 48.483C71.3007 48.6127 71.0107 48.766 70.7003 48.9431C70.4019 49.0988 70.1393 49.2535 69.9124 49.4071C69.7021 49.5561 69.6017 49.6473 69.611 49.6807C69.611 49.6807 69.6181 49.7057 69.6321 49.7558C69.6461 49.8058 69.6174 49.8319 69.546 49.8339C69.5126 49.8433 69.4122 49.9345 69.2447 50.1075C69.0892 50.2591 68.9013 50.4558 68.6811 50.6976C68.4609 50.9394 68.243 51.1895 68.0275 51.448C67.8239 51.6851 67.6491 51.8962 67.503 52.0812C67.3568 52.2662 67.2801 52.3777 67.2728 52.4158C67.2909 52.6087 67.1458 52.8294 66.8374 53.0779C66.5598 53.3718 66.3473 53.7375 66.2 54.1748C66.0526 54.6122 65.8916 55.1614 65.717 55.8225C65.5409 56.2859 65.4577 56.7593 65.4672 57.2427C65.4721 57.7094 65.5704 58.0599 65.7621 58.2941C65.9205 58.5377 66.2207 58.7416 66.6627 58.9056C67.1168 59.0483 67.7231 59.2203 68.4817 59.4216C69.138 59.5795 69.7657 59.7635 70.3647 59.9736C70.9637 60.1836 71.4852 60.4064 71.9293 60.6419C72.3687 60.8607 72.6689 61.0645 72.8299 61.2534C73.1098 61.4809 73.3179 61.7736 73.4542 62.1314C73.6073 62.4845 73.7079 62.8434 73.7561 63.2079C73.8164 63.551 73.8435 63.8404 73.8376 64.0761C73.7957 64.3759 73.6917 64.7111 73.5256 65.0817C73.3762 65.4477 73.1991 65.6504 72.9941 65.6899C72.8246 65.7914 72.6991 65.8896 72.6177 65.9845C72.553 66.0746 72.4692 66.1611 72.3664 66.244C72.2683 66.3435 72.014 66.4958 71.6035 66.701C71.1977 66.9228 70.7431 67.1313 70.2398 67.3265C69.7411 67.5384 69.2975 67.6898 68.909 67.7808ZM78.9651 63.2321C78.7721 63.2502 78.5414 63.1979 78.273 63.0751C77.9998 62.9357 77.7387 62.7749 77.4896 62.5928C77.2525 62.3892 77.0855 62.2111 76.9886 62.0582C76.9793 62.0248 76.9425 61.9901 76.8784 61.9541C76.831 61.9134 76.8073 61.893 76.8073 61.893C76.7265 61.8617 76.6239 61.6564 76.4996 61.2773C76.3872 60.8767 76.2882 60.4274 76.2025 59.9294C76.1168 59.4314 76.0676 59.0311 76.0548 58.7287C76.0633 58.4383 76.0879 58.0443 76.1284 57.5469C76.1642 57.0328 76.189 56.5758 76.2029 56.1758L76.4715 54.5343L75.3929 54.5398C75.2668 54.5392 75.1479 54.5005 75.0364 54.4238C74.9415 54.3423 74.8847 54.2683 74.866 54.2015C74.8286 54.068 74.8498 53.855 74.9298 53.5625C75.0098 53.2701 75.0832 53.1145 75.15 53.0957C75.2381 53.089 75.3906 53.0552 75.6076 52.9944C75.8412 52.9289 76.0642 52.8573 76.2765 52.7798C76.4888 52.7022 76.6176 52.6481 76.663 52.6174C76.7204 52.5653 76.7754 52.5048 76.8281 52.436C76.8762 52.3505 76.9005 52.2447 76.9011 52.1185C76.9331 51.9115 76.9684 51.7486 77.0071 51.6298C77.0457 51.5109 77.0954 51.3349 77.156 51.1019C77.212 50.8522 77.2523 50.6429 77.2769 50.4739C77.3183 50.3003 77.3849 50.0566 77.4769 49.7428C77.5276 49.6025 77.5796 49.4349 77.6329 49.2399C77.6863 49.045 77.7716 48.868 77.8891 48.709C78.0018 48.5334 78.2181 48.3737 78.5378 48.23C78.8696 48.065 79.191 48.0558 79.5022 48.2026C79.6826 48.332 79.8021 48.4695 79.8609 48.615C79.9198 48.7606 79.9068 48.9712 79.8222 49.247C79.7682 49.5682 79.6822 49.8713 79.5642 50.1564C79.4581 50.4202 79.3698 50.715 79.2992 51.0409C79.1351 51.4829 79.1436 51.7056 79.3245 51.7088C79.5055 51.7121 79.9634 51.5477 80.6983 51.2155C81.1589 50.9963 81.5234 50.9481 81.7919 51.0708C82.0603 51.1935 82.251 51.3921 82.364 51.6664C82.5264 52.0529 82.5526 52.3066 82.4425 52.4275C82.3323 52.5484 81.9602 52.6978 81.326 52.8757C80.9442 53.0548 80.6138 53.1925 80.3347 53.2887C80.051 53.3683 79.8424 53.4268 79.7089 53.4643C79.4966 53.5418 79.3571 53.59 79.2903 53.6087C79.2236 53.6274 79.1281 53.6722 79.0039 53.743C78.8798 53.8138 78.796 53.9003 78.7527 54.0025C78.7213 54.0833 78.691 54.1998 78.6617 54.3521C78.6137 54.4375 78.5627 54.6409 78.5087 54.962C78.4548 55.2832 78.3745 55.6388 78.2679 56.0287C78.2308 56.7952 78.2201 57.5273 78.2358 58.225C78.2635 58.9013 78.3078 59.5729 78.3689 60.2399C78.4077 60.571 78.4816 60.8024 78.5905 60.9338C78.7114 61.0439 78.9518 61.0665 79.3116 61.0016C79.4999 60.9668 79.7669 60.8919 80.1127 60.7769C80.4538 60.6452 80.7318 60.5133 80.9467 60.381C81.1069 60.246 81.2754 60.1088 81.4523 59.9691C81.6245 59.8128 81.78 59.6612 81.9188 59.5143C82.0456 59.3887 82.1724 59.2631 82.2992 59.1375C82.4213 58.9953 82.4824 58.9241 82.4824 58.9241C82.5284 58.7672 82.6522 58.7595 82.8539 58.9009C83.0676 59.021 83.2359 59.1718 83.3589 59.3534C83.415 59.5537 83.4412 59.8074 83.4373 60.1145C83.4288 60.4049 83.1996 60.7752 82.7498 61.2254C82.1298 61.9034 81.4584 62.3977 80.7355 62.7085C80.0125 63.0193 79.4224 63.1938 78.9651 63.2321ZM85.9216 60.6868C85.8174 60.5721 85.6298 60.4807 85.3587 60.4127C85.1043 60.34 84.9677 60.2703 84.949 60.2036C84.9302 60.1368 84.8604 60.0484 84.7395 59.9383C84.6306 59.8068 84.5335 59.717 84.448 59.669C84.3365 59.5923 84.2936 59.3432 84.3195 58.9219C84.3406 58.484 84.4052 57.9438 84.513 57.3015C84.6209 56.6591 84.7515 56.0014 84.9047 55.3284C85.0008 55.1574 85.0852 54.9447 85.1578 54.6903C85.2305 54.4359 85.2908 54.266 85.3389 54.1805C85.3202 54.1137 85.3288 54.0483 85.3648 53.9842C85.3962 53.9034 85.4452 53.8536 85.512 53.8349L85.5999 53.3782C85.6146 53.302 85.6773 53.1404 85.788 52.8934C85.9154 52.6416 86.0715 52.3638 86.2563 52.0599C86.4364 51.7394 86.6212 51.4355 86.8107 51.1483C87.0169 50.8565 87.1894 50.6371 87.3282 50.4901C87.6131 50.1582 87.9415 49.9491 88.3134 49.8628C88.7019 49.7718 89.0601 49.7973 89.388 49.9394C89.4521 49.9754 89.5887 50.0451 89.7977 50.1485C90.0234 50.2472 90.2705 50.358 90.5389 50.4807C90.8241 50.5987 91.0712 50.7095 91.2802 50.8129L92.4382 51.3792L92.3637 52.7503C92.3339 53.4787 92.4394 54.0792 92.6799 54.5518C92.9205 55.0244 93.2007 55.4138 93.5207 55.7201C93.6556 55.8803 93.8039 55.9918 93.9655 56.0544C94.1438 56.1124 94.3544 56.1254 94.5974 56.0932C94.7356 56.0725 94.8748 56.0874 95.0151 56.1381C95.1553 56.1888 95.2512 56.3059 95.3027 56.4895C95.415 56.89 95.4218 57.2032 95.3231 57.4289C95.2364 57.6332 95.1143 57.7755 94.9567 57.8557C94.4247 58.0769 93.8826 58.1659 93.3305 58.1228C92.7783 58.0796 92.1943 57.7304 91.5784 57.075C91.4836 56.9936 91.3403 56.8358 91.1486 56.6015C90.9688 56.3459 90.8589 56.1787 90.8188 56.0999C90.7755 56.2021 90.7141 56.3363 90.6347 56.5026C90.5674 56.6475 90.4977 56.784 90.4256 56.9123C89.5777 58.4463 88.7797 59.5162 88.0315 60.1221C87.2953 60.7066 86.592 60.8949 85.9216 60.6868ZM86.7157 58.2228C86.8372 58.2068 87.0044 58.0969 87.2173 57.8931C87.4255 57.6727 87.6914 57.3371 88.015 56.8863C88.4467 56.2432 88.8017 55.7115 89.0799 55.2915C89.3581 54.8714 89.6023 54.3619 89.8123 53.7629L90.1103 52.7072C89.8357 52.3701 89.6153 52.1619 89.449 52.0826C89.2828 52.0032 89.1329 51.9822 88.9993 52.0197C88.7824 52.0805 88.5635 52.2949 88.3427 52.6629C88.1171 53.0142 87.8874 53.5107 87.6533 54.1524C87.4312 54.7728 87.1966 55.5407 86.9493 56.4561C86.8353 56.8841 86.769 57.2898 86.7505 57.673C86.7273 58.0396 86.7157 58.2228 86.7157 58.2228ZM98.4959 57.1601C98.4505 57.1908 98.3397 57.2129 98.1634 57.2263C98.0039 57.235 97.8336 57.2378 97.6527 57.2345C97.4884 57.2266 97.3849 57.2106 97.3422 57.1866C97.2567 57.1386 97.1322 57.0475 96.9685 56.9134C96.8002 56.7625 96.6656 56.5393 96.5646 56.2435C96.4804 55.9431 96.5216 55.5445 96.6883 55.0477C96.7249 54.8574 96.7549 54.579 96.7781 54.2124C96.8013 53.8459 96.8198 53.4627 96.8336 53.0627C96.8595 52.6414 96.8804 52.2665 96.8962 51.938C96.9288 51.6049 96.9537 51.3728 96.971 51.242C96.9248 50.9489 96.852 50.7533 96.7525 50.6552C96.6649 50.5357 96.502 50.5004 96.2637 50.5493C96.0968 50.5961 95.9469 50.5751 95.814 50.4864C95.6978 50.3929 95.5975 50.196 95.5133 49.8956C95.4811 49.6526 95.4834 49.4359 95.52 49.2456C95.5686 49.034 95.66 48.8463 95.7942 48.6827C95.9377 48.5524 96.1299 48.4355 96.3709 48.3319C96.6285 48.2236 96.8849 48.1427 97.1399 48.0892C97.3949 48.0357 97.5865 48.045 97.7148 48.117C97.8503 48.151 97.9842 48.2755 98.1165 48.4904C98.2608 48.6839 98.3908 48.8905 98.5064 49.1101C98.622 49.3297 98.7045 49.4956 98.754 49.6078C98.8834 49.4274 99.0155 49.1924 99.1502 48.9025C99.297 48.5913 99.4484 48.2968 99.6045 48.019C99.82 47.7606 100.086 47.488 100.401 47.2015C100.712 46.8982 100.951 46.7232 101.118 46.6764C101.302 46.6249 101.553 46.6535 101.871 46.7622C102.185 46.8542 102.394 46.9576 102.498 47.0724C102.745 47.3093 102.946 47.5769 103.102 47.8753C103.269 48.1523 103.294 48.4333 103.176 48.7185C103.07 48.9823 102.897 49.2648 102.658 49.566C102.413 49.8505 102.054 50.0142 101.58 50.0572C101.471 50.0519 101.327 49.9571 101.15 49.7729C100.989 49.5841 100.886 49.4419 100.841 49.3465C100.827 49.2964 100.766 49.3675 100.658 49.5598C100.562 49.7308 100.442 49.9445 100.297 50.201C100.17 50.4527 100.046 50.6855 99.9263 50.8992C99.7408 51.3292 99.5738 51.8891 99.4253 52.5789C99.2767 53.2686 99.1048 54.0999 98.9096 55.0728C98.8263 55.5462 98.7718 55.9935 98.7459 56.4148C98.7154 56.8195 98.6321 57.0679 98.4959 57.1601ZM108.411 56.5663C107.589 56.779 106.997 56.6928 106.637 56.3077C106.299 55.9347 106.086 55.4003 105.999 54.7046C106.01 54.3595 105.989 54.0594 105.935 53.8043C105.894 53.528 105.922 53.34 106.02 53.2405C106.02 53.2405 106.021 53.2131 106.024 53.1583C106.043 53.0989 106.021 53.0512 105.957 53.0152C105.896 52.7982 105.887 52.4767 105.929 52.0507C105.935 51.9413 105.944 51.8127 105.956 51.6652C105.981 51.4962 105.993 51.4118 105.993 51.4118C105.872 51.3017 105.842 51.1932 105.902 51.0863C105.962 50.9795 106.024 50.881 106.089 50.7908C106.166 50.6793 106.148 50.5851 106.037 50.5084C105.985 50.451 105.984 50.2891 106.036 50.0227C106.082 49.7396 106.143 49.4435 106.219 49.1343C106.294 48.8251 106.336 48.5884 106.343 48.4242C106.334 48.3908 106.343 48.2623 106.37 48.0386C106.398 47.8149 106.432 47.5532 106.474 47.2534C106.516 46.9536 106.557 46.6812 106.596 46.4361C106.652 46.1864 106.687 46.0235 106.702 45.9474C106.845 45.8171 106.762 45.7774 106.452 45.8283C106.143 45.8792 105.823 45.9598 105.494 46.0701C104.972 46.1985 104.548 46.2905 104.221 46.3461C103.912 46.3969 103.64 46.392 103.407 46.3314C103.141 46.1539 103.039 45.8856 103.1 45.5263C103.157 45.1504 103.35 44.9073 103.679 44.797C103.891 44.7195 104.056 44.6643 104.173 44.6315C104.306 44.5941 104.471 44.5389 104.666 44.4661C104.874 44.3718 105.196 44.2365 105.632 44.06L106.881 43.6018L106.837 43.1552C106.91 42.9008 106.962 42.7332 106.993 42.6524C107.024 42.5716 107.039 42.4954 107.037 42.424C107.03 42.3359 107.015 42.187 106.993 41.9774C106.993 41.9774 107.03 41.8228 107.106 41.5136C107.176 41.1878 107.186 40.87 107.135 40.5602C107.242 40.1702 107.333 39.8207 107.408 39.5115C107.479 39.1857 107.521 38.9847 107.536 38.9086C107.703 38.4118 107.915 38.1092 108.173 38.001C108.447 37.888 108.733 37.8799 109.03 37.9765C109.203 38.0179 109.376 38.0866 109.547 38.1826C109.713 38.262 109.841 38.3971 109.93 38.5881C110.015 38.7623 110.008 39.0253 109.909 39.3772C109.894 39.4533 109.879 39.5926 109.864 39.7949C109.844 39.9805 109.834 40.1364 109.833 40.2626C109.766 40.4075 109.694 40.6345 109.619 40.9437C109.556 41.2315 109.536 41.5159 109.561 41.797C109.507 42.1181 109.473 42.3168 109.458 42.3929C109.444 42.469 109.403 42.5164 109.336 42.5352C109.416 42.6927 109.54 42.748 109.707 42.7012C109.869 42.6377 110.14 42.5438 110.519 42.4195C110.827 42.2971 111.034 42.2029 111.142 42.1368C111.261 42.0493 111.416 42.0238 111.606 42.0605C111.723 42.1539 111.814 42.3174 111.879 42.5511C111.957 42.7633 111.992 42.9873 111.987 43.223C111.976 43.442 111.919 43.5929 111.816 43.6758C111.733 43.6992 111.572 43.7984 111.333 43.9734C111.106 44.1271 110.803 44.2661 110.424 44.3904L109.132 44.8877L108.945 45.8582C108.889 46.108 108.845 46.3363 108.813 46.5433C108.777 46.7336 108.746 46.8501 108.722 46.8929C108.75 46.993 108.734 47.1596 108.673 47.3926C108.629 47.621 108.582 47.8684 108.531 48.1348C108.51 48.4466 108.466 48.7381 108.398 49.0092C108.346 49.2756 108.321 49.4088 108.321 49.4088C108.254 49.4275 108.235 49.4869 108.263 49.5871C108.402 49.7639 108.42 49.9212 108.314 50.0587C108.245 50.1322 108.191 50.2284 108.152 50.3472C108.125 50.4447 108.112 50.4935 108.112 50.4935C108.197 50.5415 108.229 50.6226 108.207 50.7368C108.202 50.8463 108.182 50.9688 108.148 51.1044C108.186 51.2379 108.198 51.4415 108.185 51.7153C108.188 51.9843 108.179 52.239 108.156 52.4794C108.257 52.7751 108.327 52.9624 108.367 53.0411C108.408 53.1199 108.459 53.1416 108.521 53.1062C108.609 53.0995 108.726 53.0667 108.871 53.0079C109.017 52.949 109.123 52.9103 109.19 52.8916C109.407 52.7045 109.454 53.3214 109.331 54.7422C109.181 55.2344 109.01 55.6514 108.817 55.9933C108.63 56.3519 108.495 56.5429 108.411 56.5663Z" fill="url(#paint1_linear_4185_45892)"/>
<rect x="95.5997" y="22.1164" width="3" height="3" transform="rotate(-32.2205 95.5997 22.1164)" stroke="url(#paint2_linear_4185_45892)"/>
<rect x="91.9318" y="82.1164" width="3" height="3" transform="rotate(-32.2205 91.9318 82.1164)" stroke="url(#paint3_linear_4185_45892)"/>
<defs>
<linearGradient id="paint0_linear_4185_45892" x1="-1130.42" y1="533.21" x2="-1110.99" y2="582.405" gradientUnits="userSpaceOnUse">
<stop stop-color="#FFB347"/>
<stop offset="1" stop-color="#FF7283"/>
</linearGradient>
<linearGradient id="paint1_linear_4185_45892" x1="62.666" y1="71.931" x2="112.787" y2="57.6024" gradientUnits="userSpaceOnUse">
<stop stop-color="#FFB347"/>
<stop offset="1" stop-color="#FF7283"/>
</linearGradient>
<linearGradient id="paint2_linear_4185_45892" x1="96.9102" y1="21.96" x2="96.9102" y2="25.96" gradientUnits="userSpaceOnUse">
<stop stop-color="#7CA1FF"/>
<stop offset="1" stop-color="#5AB9FE"/>
</linearGradient>
<linearGradient id="paint3_linear_4185_45892" x1="91.2422" y1="85.96" x2="95.2522" y2="85.9499" gradientUnits="userSpaceOnUse">
<stop stop-color="#FFB347"/>
<stop offset="1" stop-color="#FF7283"/>
</linearGradient>
</defs>
</svg>
