<svg width="310" height="183" viewBox="0 0 310 183" fill="none" xmlns="http://www.w3.org/2000/svg">
<path d="M179.658 119.686C179.354 119.758 179.072 119.659 178.812 119.388C178.553 119.118 178.413 118.878 178.394 118.671C178.362 118.395 178.369 117.988 178.415 117.452C178.46 116.916 178.521 116.368 178.597 115.808C178.674 115.249 178.753 114.803 178.834 114.471C178.854 114.186 178.871 113.937 178.886 113.723C178.915 113.489 178.932 113.336 178.936 113.265C178.975 113.187 179.02 112.994 179.071 112.686C179.139 112.374 179.183 112.076 179.202 111.791C179.212 111.648 179.235 111.38 179.27 110.986C179.32 110.572 179.376 110.096 179.438 109.556C179.517 109.014 179.59 108.481 179.655 107.959C179.738 107.434 179.805 106.972 179.858 106.576C179.91 106.179 179.943 105.918 179.956 105.792C180.056 105.563 180.123 105.348 180.158 105.148C180.193 104.949 180.213 104.813 180.218 104.742C180.308 104.655 180.353 104.559 180.351 104.454C180.347 104.331 180.339 104.236 180.327 104.167C180.312 104.082 180.325 104.009 180.367 103.949C180.426 103.885 180.45 103.82 180.438 103.751C180.497 103.688 180.538 103.672 180.561 103.703C180.584 103.734 180.631 103.699 180.701 103.599L180.674 102.705L182.947 102.272C182.949 102.483 182.944 102.748 182.93 103.068C182.914 103.37 182.822 103.791 182.654 104.332C182.629 104.689 182.582 105.014 182.511 105.309C182.457 105.6 182.446 105.787 182.479 105.869C182.45 105.909 182.404 106.094 182.339 106.422C182.292 106.748 182.231 107.146 182.156 107.617C182.099 108.085 182.033 108.555 181.958 109.026C181.901 109.494 181.843 109.91 181.784 110.272C181.739 110.615 181.707 110.832 181.689 110.923C181.601 111.221 181.519 111.649 181.442 112.209C181.366 112.768 181.237 113.531 181.057 114.496C180.969 114.794 180.872 115.234 180.764 115.816C180.674 116.396 180.608 116.918 180.568 117.384C180.499 118.083 180.413 118.591 180.311 118.909C180.227 119.223 180.129 119.417 180.019 119.489C179.911 119.579 179.791 119.644 179.658 119.686ZM177.207 104.594C176.52 104.787 176.027 104.787 175.728 104.594C175.447 104.398 175.316 104.157 175.336 103.872C175.35 103.658 175.439 103.466 175.603 103.296C175.78 103.106 176.124 102.912 176.635 102.715C176.817 102.647 177.048 102.562 177.329 102.459C177.627 102.353 177.908 102.25 178.172 102.149C178.722 101.98 179.173 101.838 179.522 101.723C179.888 101.605 180.264 101.493 180.651 101.389C181.037 101.285 181.526 101.162 182.117 101.021C182.606 100.898 183.019 100.798 183.357 100.72C183.709 100.621 183.886 100.572 183.886 100.572C183.937 100.563 184.119 100.548 184.432 100.527C184.745 100.507 185.086 100.49 185.453 100.477C185.82 100.464 186.096 100.476 186.278 100.514C186.686 100.529 187.029 100.626 187.307 100.805C187.586 100.984 187.785 101.213 187.905 101.491C187.993 101.686 188.021 101.848 187.991 101.977C187.959 102.089 187.88 102.191 187.756 102.283C187.384 102.473 187.078 102.633 186.838 102.765C186.611 102.876 186.371 102.91 186.117 102.867C186.016 102.797 185.9 102.739 185.768 102.692C185.654 102.642 185.457 102.624 185.178 102.639C184.913 102.634 184.496 102.664 183.927 102.731C183.458 102.868 183.045 102.968 182.686 103.032C182.328 103.096 182.156 103.171 182.172 103.256L180.675 103.603L179.444 103.956C179.276 104.003 179.042 104.072 178.741 104.161C178.437 104.233 178.143 104.312 177.859 104.398C177.572 104.467 177.355 104.532 177.207 104.594Z" fill="url(#paint0_linear_10_10)"/>
<path d="M187.373 116.72C187.152 116.76 186.965 116.75 186.813 116.689C186.679 116.625 186.504 116.533 186.289 116.413C185.904 116.129 185.574 115.81 185.299 115.454C185.042 115.095 184.913 114.766 184.912 114.467C184.939 114.321 184.933 114.19 184.895 114.074C184.871 113.937 184.858 113.869 184.858 113.869C184.758 113.799 184.723 113.752 184.754 113.729C184.782 113.689 184.807 113.631 184.829 113.557C184.932 113.539 184.949 113.439 184.882 113.257C184.823 113.127 184.823 112.828 184.88 112.359C184.952 111.871 185.079 111.399 185.262 110.944C185.334 110.755 185.448 110.506 185.604 110.196C185.757 109.869 185.929 109.548 186.119 109.232C186.323 108.896 186.513 108.625 186.687 108.418C187.05 107.983 187.39 107.623 187.709 107.337C188.045 107.048 188.393 106.827 188.753 106.674C189.113 106.522 189.49 106.41 189.882 106.34C190.292 106.267 190.649 106.344 190.953 106.571C191.376 106.672 191.69 106.853 191.895 107.116C192.118 107.375 192.295 107.731 192.429 108.182C192.571 108.685 192.632 109.326 192.612 110.104C192.59 110.865 192.324 111.793 191.814 112.888C191.497 113.579 191.164 114.132 190.815 114.546C190.467 114.961 190.071 115.357 189.628 115.736C189.312 116.039 188.954 116.253 188.554 116.377C188.153 116.502 187.76 116.616 187.373 116.72ZM189.428 113.13C189.745 112.739 189.946 112.333 190.03 111.913C190.13 111.49 190.227 110.998 190.321 110.435C190.371 110.32 190.383 110.142 190.358 109.9C190.349 109.655 190.317 109.423 190.26 109.204C190.201 108.969 190.117 108.843 190.008 108.827C189.833 108.735 189.675 108.737 189.534 108.833C189.389 108.911 189.213 109.057 189.004 109.271C188.568 109.789 188.179 110.369 187.836 111.012C187.506 111.634 187.328 112.362 187.3 113.194C187.325 113.63 187.425 113.947 187.601 114.144C187.791 114.321 188.041 114.338 188.35 114.195C188.673 114.032 189.032 113.677 189.428 113.13Z" fill="url(#paint1_linear_10_10)"/>
<path d="M202.958 114.143C202.764 114.142 202.539 114.068 202.284 113.92C202.026 113.755 201.782 113.57 201.551 113.365C201.335 113.139 201.186 112.946 201.105 112.784C201.099 112.75 201.065 112.712 201.005 112.67C200.962 112.625 200.94 112.602 200.94 112.602C200.863 112.563 200.781 112.349 200.694 111.96C200.621 111.55 200.566 111.093 200.529 110.589C200.492 110.085 200.482 109.682 200.498 109.38C200.535 109.091 200.598 108.702 200.686 108.21C200.772 107.702 200.841 107.249 200.893 106.853L201.32 105.244L200.246 105.146C200.121 105.133 200.006 105.083 199.902 104.996C199.816 104.906 199.767 104.827 199.755 104.759C199.73 104.622 199.772 104.412 199.88 104.129C199.988 103.845 200.076 103.697 200.144 103.685C200.233 103.687 200.388 103.668 200.61 103.628C200.848 103.585 201.077 103.536 201.296 103.479C201.515 103.422 201.648 103.381 201.696 103.354C201.759 103.308 201.819 103.253 201.878 103.19C201.934 103.109 201.969 103.006 201.982 102.881C202.034 102.678 202.085 102.519 202.135 102.404C202.185 102.29 202.251 102.119 202.334 101.893C202.414 101.65 202.474 101.446 202.515 101.28C202.573 101.111 202.663 100.875 202.785 100.571C202.849 100.436 202.917 100.275 202.989 100.086C203.061 99.8967 203.163 99.7287 203.296 99.5818C203.425 99.4178 203.656 99.2797 203.988 99.1674C204.334 99.035 204.655 99.0569 204.95 99.2329C205.117 99.3791 205.223 99.5275 205.267 99.6781C205.311 99.8286 205.278 100.037 205.167 100.303C205.082 100.618 204.967 100.911 204.822 101.184C204.691 101.436 204.575 101.721 204.473 102.039C204.267 102.463 204.253 102.686 204.433 102.706C204.613 102.727 205.085 102.607 205.848 102.347C206.328 102.174 206.695 102.161 206.95 102.309C207.206 102.457 207.376 102.673 207.462 102.957C207.586 103.357 207.588 103.612 207.466 103.722C207.345 103.832 206.96 103.945 206.312 104.061C205.914 104.202 205.572 104.307 205.285 104.376C204.995 104.428 204.782 104.466 204.645 104.491C204.427 104.548 204.283 104.582 204.215 104.594C204.147 104.606 204.047 104.642 203.917 104.7C203.786 104.759 203.695 104.837 203.642 104.935C203.603 105.012 203.561 105.125 203.517 105.274C203.461 105.354 203.391 105.552 203.306 105.866C203.221 106.181 203.107 106.527 202.963 106.905C202.851 107.664 202.77 108.392 202.718 109.088C202.68 109.764 202.659 110.437 202.655 111.107C202.661 111.44 202.712 111.678 202.808 111.819C202.918 111.94 203.155 111.986 203.519 111.956C203.71 111.939 203.983 111.891 204.338 111.809C204.69 111.711 204.98 111.607 205.206 111.496C205.379 111.377 205.56 111.256 205.749 111.134C205.936 110.995 206.105 110.859 206.258 110.726C206.396 110.613 206.534 110.501 206.673 110.388C206.808 110.258 206.876 110.193 206.876 110.193C206.937 110.041 207.061 110.046 207.248 110.206C207.449 110.346 207.602 110.512 207.706 110.705C207.743 110.91 207.744 111.165 207.711 111.47C207.674 111.758 207.41 112.105 206.919 112.51C206.236 113.125 205.52 113.552 204.77 113.792C204.021 114.032 203.417 114.149 202.958 114.143Z" fill="url(#paint2_linear_10_10)"/>
<path d="M217.751 111.047C217.361 111.328 216.957 111.479 216.538 111.502C216.134 111.503 215.763 111.35 215.426 111.04C215.103 110.711 214.878 110.187 214.751 109.471C214.717 109.283 214.686 109.06 214.658 108.801C214.643 108.521 214.644 108.231 214.661 107.928C214.674 107.609 214.705 107.287 214.753 106.961C214.776 106.798 214.817 106.633 214.875 106.464C214.95 106.292 214.954 106.212 214.885 106.224C214.817 106.236 214.739 106.294 214.652 106.398C214.582 106.499 214.526 106.579 214.484 106.639C214.124 107.091 213.802 107.554 213.516 108.028C213.245 108.481 213.008 108.929 212.805 109.37C212.616 109.791 212.473 110.178 212.377 110.529C212.299 110.878 212.279 111.163 212.319 111.385C212.364 111.641 212.268 111.843 212.03 111.991C211.793 112.139 211.569 112.171 211.36 112.085C211.003 111.955 210.653 111.718 210.31 111.375C209.984 111.028 209.79 110.534 209.729 109.894C209.637 109.083 209.578 108.354 209.551 107.707C209.524 107.06 209.539 106.353 209.596 105.586C209.667 104.798 209.768 103.838 209.901 102.705C210.017 102.068 210.121 101.468 210.214 100.906C210.305 100.326 210.385 99.8364 210.455 99.4365C210.541 99.0336 210.594 98.7865 210.613 98.695C210.683 98.5944 210.757 98.3698 210.836 98.0212C210.912 97.6554 210.971 97.2928 211.012 96.9332C211.071 96.5705 211.094 96.355 211.082 96.2868C211.058 96.1502 211.062 96.0262 211.095 95.9147C211.145 95.8001 211.188 95.6955 211.224 95.601C211.284 95.3438 211.34 95.1664 211.393 95.0689C211.46 94.9512 211.528 94.8863 211.596 94.8741C211.681 94.8588 211.826 94.8771 212.028 94.9288C212.248 94.9775 212.456 95.0548 212.651 95.1608C212.86 95.2467 212.993 95.3548 213.052 95.4852C213.214 95.7028 213.326 95.938 213.389 96.1909C213.448 96.4268 213.442 96.7361 213.369 97.1189C213.297 97.5016 213.146 98.0393 212.917 98.7317C212.738 99.3096 212.588 99.8999 212.467 100.503C212.345 101.106 212.237 101.732 212.141 102.383C212.102 102.655 212.052 103.016 211.991 103.467C211.927 103.901 211.867 104.352 211.81 104.82C211.766 105.268 211.732 105.67 211.708 106.027C211.683 106.383 211.68 106.613 211.698 106.715C211.719 106.835 211.798 106.882 211.935 106.858C212.068 106.816 212.186 106.69 212.29 106.477C212.333 106.329 212.422 106.181 212.554 106.034C212.683 105.87 212.795 105.709 212.89 105.551C212.997 105.356 213.124 105.131 213.272 104.875C213.434 104.6 213.608 104.34 213.793 104.095C213.993 103.831 214.174 103.613 214.337 103.443C214.518 103.27 214.676 103.171 214.813 103.147C215.137 103.089 215.427 103.134 215.682 103.282C215.937 103.43 216.176 103.686 216.4 104.051C216.46 104.093 216.524 104.153 216.59 104.229C216.653 104.288 216.696 104.333 216.72 104.364C216.817 104.417 216.908 104.682 216.993 105.16C217.076 105.621 217.053 106.285 216.926 107.153C216.885 107.812 216.875 108.298 216.895 108.611C216.933 108.922 217.02 109.065 217.156 109.04C217.156 109.04 217.233 108.974 217.385 108.841C217.554 108.705 217.731 108.559 217.914 108.403C218.351 107.99 218.691 107.823 218.935 107.903C219.178 107.983 219.316 108.117 219.349 108.304C219.377 108.458 219.349 108.648 219.266 108.874C219.2 109.097 219.173 109.243 219.185 109.311C219.185 109.311 219.187 109.32 219.19 109.337C219.19 109.337 219.196 109.371 219.208 109.439C219.214 109.473 219.125 109.612 218.939 109.857C218.754 110.101 218.543 110.35 218.306 110.604C218.084 110.838 217.899 110.985 217.751 111.047Z" fill="url(#paint3_linear_10_10)"/>
<path d="M224.123 110.805C223.184 110.973 222.411 110.829 221.802 110.375C221.209 109.917 220.813 109.125 220.613 107.999C220.503 107.385 220.494 106.691 220.585 105.917C220.693 105.141 220.873 104.369 221.123 103.602C221.391 102.832 221.71 102.15 222.079 101.556C222.446 100.945 222.841 100.495 223.265 100.208C223.421 100.092 223.589 100 223.771 99.9326C223.967 99.8448 224.158 99.7841 224.346 99.7505C224.551 99.7139 224.776 99.6912 225.021 99.6826C225.279 99.6539 225.527 99.6623 225.764 99.708C226.178 99.7572 226.56 99.9265 226.911 100.216C227.279 100.502 227.521 100.97 227.636 101.618C227.667 101.789 227.683 101.98 227.686 102.19C227.685 102.384 227.659 102.583 227.607 102.786C227.485 103.388 227.24 103.987 226.87 104.581C226.518 105.173 226.112 105.615 225.654 105.908C225.53 106.001 225.402 106.077 225.272 106.135C225.155 106.174 225.029 106.205 224.893 106.23C224.534 106.294 224.201 106.3 223.893 106.25C223.601 106.196 223.321 106.106 223.052 105.978L222.815 105.835L222.733 106.114C222.671 106.46 222.634 106.748 222.623 106.979C222.628 107.207 222.64 107.372 222.658 107.475C222.695 107.679 222.741 107.891 222.798 108.11C222.851 108.312 222.933 108.473 223.043 108.594C223.126 108.667 223.223 108.72 223.335 108.753C223.464 108.783 223.613 108.783 223.784 108.752C223.886 108.734 223.98 108.717 224.065 108.702C224.165 108.667 224.247 108.634 224.312 108.605C224.607 108.482 224.835 108.327 224.995 108.139C225.169 107.932 225.357 107.749 225.557 107.59L225.651 107.52L225.611 107.448C225.874 107.242 226.054 107.114 226.15 107.061C226.243 106.992 226.312 106.935 226.357 106.892C226.413 106.811 226.484 106.764 226.569 106.748C226.802 106.671 227.045 106.698 227.297 106.829C227.563 106.94 227.718 107.115 227.76 107.354C227.778 107.456 227.73 107.632 227.616 107.882C227.519 108.128 227.38 108.382 227.197 108.643C227.029 108.885 226.845 109.085 226.644 109.244C226.596 109.27 226.549 109.305 226.504 109.348C226.456 109.375 226.41 109.409 226.365 109.453L226.39 109.448C226.273 109.68 226.138 109.81 225.984 109.838L225.779 109.874C225.732 110.006 225.533 110.174 225.182 110.377C224.834 110.598 224.481 110.741 224.123 110.805ZM224.355 104.398C224.509 104.37 224.64 104.32 224.751 104.248C224.878 104.172 224.995 104.089 225.103 104C225.461 103.636 225.658 103.214 225.696 102.731C225.733 102.249 225.628 101.907 225.381 101.705C225.337 101.66 225.289 101.633 225.234 101.625C225.177 101.6 225.114 101.594 225.046 101.606C224.859 101.64 224.656 101.738 224.438 101.9C224.238 102.059 224.046 102.269 223.864 102.531C223.682 102.792 223.524 103.094 223.391 103.434L223.154 104.031C223.185 104.008 223.209 103.995 223.226 103.992C223.257 103.969 223.282 103.956 223.299 103.953C223.452 103.925 223.564 103.958 223.633 104.051C223.702 104.145 223.78 104.236 223.867 104.326C223.97 104.414 224.133 104.437 224.355 104.398Z" fill="url(#paint4_linear_10_10)"/>
<path d="M237.382 107.085C237.034 107.006 236.733 106.849 236.48 106.612C236.24 106.356 236.084 106.023 236.011 105.613C235.981 105.443 235.963 105.147 235.959 104.725C235.954 104.303 235.966 103.825 235.994 103.292C236.022 102.759 236.057 102.26 236.097 101.795C236.213 101.457 236.269 101.13 236.266 100.814C236.279 100.494 236.28 100.3 236.268 100.232C236.265 100.021 236.276 99.7375 236.301 99.3809C236.325 99.0243 236.356 98.7019 236.393 98.4136C236.443 98.1052 236.483 97.9309 236.511 97.8906C236.581 97.79 236.717 97.7129 236.919 97.6592C237.12 97.6055 237.33 97.5944 237.546 97.6261C237.76 97.6406 237.917 97.7271 238.015 97.8856C238.239 98.0567 238.396 98.3456 238.486 98.7521C238.594 99.1555 238.602 99.6471 238.511 100.227C238.419 100.596 238.336 101.024 238.265 101.512C238.194 102 238.133 102.452 238.083 102.865C238.048 103.259 238.034 103.526 238.041 103.665L237.115 103.805C237.357 103.48 237.579 103.149 237.784 102.813C237.985 102.46 238.13 102.188 238.219 101.996C238.439 101.552 238.629 101.183 238.788 100.89C238.961 100.578 239.185 100.203 239.459 99.7666C239.731 99.313 240.049 98.9743 240.414 98.7505C240.776 98.5097 241.051 98.3724 241.239 98.3388C241.626 98.3399 241.994 98.4766 242.342 98.749C242.703 99.0012 242.973 99.4283 243.151 100.03C243.193 100.269 243.218 100.556 243.225 100.889C243.248 101.219 243.26 101.384 243.26 101.384C243.26 101.384 243.366 101.189 243.578 100.799C243.808 100.406 244.123 99.9533 244.525 99.4412C244.806 99.1443 245.098 98.9513 245.399 98.8622C245.697 98.7561 245.988 98.8096 246.273 99.0228C246.759 99.1823 247.157 99.5424 247.468 100.103C247.78 100.664 247.968 101.326 248.033 102.089C248.061 102.541 248.125 102.9 248.225 103.164C248.339 103.407 248.448 103.626 248.553 103.818C248.829 104.086 248.912 104.353 248.801 104.619C248.687 104.868 248.57 105.004 248.451 105.025C248.28 105.056 248.018 105.067 247.665 105.06C247.311 105.053 246.974 104.99 246.654 104.871C246.351 104.749 246.173 104.543 246.121 104.253L245.839 102.666C245.772 102.291 245.706 102.021 245.642 101.856C245.591 101.672 245.527 101.56 245.45 101.521C245.244 101.452 245.027 101.57 244.8 101.875C244.572 102.18 244.339 102.6 244.1 103.136C243.875 103.652 243.635 104.232 243.38 104.876C243.15 105.463 242.943 105.834 242.76 105.991C242.573 106.13 242.376 106.156 242.167 106.07C241.77 106.018 241.502 105.899 241.363 105.712C241.239 105.506 241.186 105.26 241.206 104.974C241.239 104.669 241.275 104.275 241.312 103.793C241.367 103.308 241.416 102.841 241.459 102.393C241.499 101.928 241.518 101.59 241.516 101.38C241.424 101.255 241.296 101.234 241.135 101.316C240.988 101.377 240.839 101.483 240.69 101.633C240.509 101.806 240.313 101.991 240.102 102.187C239.907 102.381 239.701 102.752 239.482 103.302C239.335 103.663 239.168 104.062 238.982 104.501C238.793 104.922 238.615 105.306 238.448 105.653C238.298 105.997 238.165 106.24 238.05 106.384C237.985 106.713 237.909 106.929 237.822 107.033C237.732 107.119 237.585 107.137 237.382 107.085Z" fill="url(#paint5_linear_10_10)"/>
<path d="M252.447 105.023C251.733 104.869 251.193 104.508 250.828 103.939C250.463 103.371 250.248 102.564 250.186 101.519C250.125 100.983 250.046 100.637 249.947 100.478C249.846 100.303 249.686 100.146 249.468 100.009C249.404 99.9503 249.265 99.8608 249.05 99.7408C248.832 99.6037 248.724 99.491 248.726 99.4026C248.688 99.2862 248.687 99.1366 248.725 98.9537C248.76 98.7538 248.801 98.6407 248.85 98.6145C248.96 98.5419 249.069 98.4608 249.176 98.3712C249.3 98.2785 249.4 98.2431 249.474 98.2651C249.542 98.2528 249.652 98.2772 249.804 98.3381C249.973 98.3959 250.063 98.459 250.075 98.5272C250.165 98.6345 250.258 98.565 250.355 98.3187C250.469 98.0694 250.581 97.7588 250.691 97.387C250.813 97.0834 250.981 96.7893 251.194 96.5046C251.407 96.2199 251.625 95.9607 251.848 95.7272C252.084 95.4736 252.287 95.2788 252.457 95.1428C252.536 95.0934 252.689 95.0132 252.916 94.9022C253.159 94.7882 253.415 94.6897 253.682 94.6067C253.946 94.5066 254.147 94.4529 254.287 94.4456C254.597 94.4077 254.944 94.4776 255.328 94.6555C255.712 94.8333 256.016 95.0079 256.24 95.179C256.489 95.2929 256.676 95.5059 256.802 95.8179C256.942 96.1098 257.034 96.4279 257.078 96.7723C257.122 97.1166 257.105 97.4189 257.028 97.6792C257.008 97.859 256.871 98.13 256.619 98.4921C256.366 98.8542 256.078 99.2139 255.754 99.5712C255.445 99.9084 255.171 100.151 254.933 100.299C254.721 100.39 254.464 100.48 254.163 100.569C253.859 100.641 253.569 100.693 253.293 100.725C253.03 100.737 252.844 100.726 252.732 100.693C252.601 100.646 252.503 100.69 252.439 100.825C252.389 100.939 252.381 101.24 252.415 101.727C252.431 101.918 252.46 102.08 252.501 102.214C252.56 102.344 252.612 102.44 252.658 102.502C252.814 102.686 252.961 102.818 253.099 102.899C253.233 102.963 253.46 102.949 253.778 102.857C254.096 102.765 254.385 102.51 254.646 102.094C254.92 101.657 255.174 101.304 255.407 101.033C255.454 100.902 255.586 100.799 255.801 100.725C256.031 100.631 256.316 100.598 256.655 100.625C256.864 100.711 256.983 100.883 257.011 101.142C257.057 101.398 256.987 101.798 256.802 102.342C256.773 102.471 256.659 102.676 256.463 102.957C256.281 103.219 256.074 103.493 255.844 103.781C255.628 104.049 255.443 104.249 255.291 104.382C254.828 104.747 254.347 104.965 253.849 105.036C253.351 105.108 252.884 105.103 252.447 105.023ZM253.315 98.9248C253.559 98.8107 253.76 98.7043 253.919 98.6055C254.094 98.5036 254.253 98.3607 254.397 98.1765C254.54 97.9924 254.695 97.7269 254.862 97.3801C254.897 97.1802 254.902 97.0119 254.878 96.8754C254.871 96.7358 254.847 96.652 254.807 96.624C254.646 96.5119 254.485 96.4968 254.323 96.5785C254.176 96.6401 254.02 96.7559 253.857 96.926C253.747 96.9986 253.596 97.1401 253.405 97.3504C253.227 97.5406 253.054 97.7564 252.886 97.9979C252.732 98.2192 252.61 98.4258 252.521 98.6178C252.446 98.7897 252.446 98.8866 252.52 98.9086C252.498 98.9829 252.6 99.0088 252.824 98.9862C253.066 98.9605 253.23 98.94 253.315 98.9248Z" fill="url(#paint6_linear_10_10)"/>
<path d="M264.17 102.635C263.709 103.017 263.194 103.285 262.623 103.44C262.066 103.575 261.523 103.593 260.995 103.493C260.464 103.377 260.009 103.15 259.632 102.813C259.422 102.621 259.198 102.301 258.959 101.85C258.718 101.383 258.573 100.722 258.527 99.8675C258.489 99.0642 258.587 98.2279 258.819 97.3587C259.069 96.4864 259.421 95.6928 259.874 94.9777C260.328 94.2626 260.868 93.7346 261.494 93.3937C261.717 93.2656 261.946 93.1631 262.178 93.0863C262.425 92.9893 262.756 92.9212 263.172 92.882C263.573 92.863 263.941 92.9028 264.276 93.0014C264.607 93.083 264.857 93.1969 265.023 93.3431C265.345 93.5673 265.571 93.7997 265.702 94.0404C265.833 94.2811 265.911 94.5225 265.937 94.7644C265.949 95.3258 265.806 95.9588 265.509 96.6635C265.229 97.3651 264.758 97.9336 264.096 98.369C263.828 98.5404 263.5 98.6782 263.114 98.7826C262.727 98.8869 262.181 98.9319 261.474 98.9175C261.049 98.9055 260.784 98.997 260.678 99.192C260.589 99.3841 260.597 99.726 260.702 100.218C260.791 100.519 260.908 100.78 261.053 101C261.212 101.201 261.452 101.316 261.775 101.347C262.179 101.345 262.462 101.303 262.624 101.221C262.782 101.122 262.979 100.99 263.213 100.825C263.335 100.715 263.446 100.598 263.547 100.475C263.665 100.348 263.775 100.223 263.876 100.099C263.995 99.972 264.092 99.8754 264.168 99.8089C264.241 99.7254 264.319 99.6674 264.401 99.6351C264.483 99.6028 264.567 99.579 264.652 99.5637C264.843 99.5472 265.041 99.6175 265.245 99.7747C265.449 99.9319 265.592 100.091 265.673 100.253C265.697 100.389 265.647 100.601 265.522 100.887C265.394 101.157 265.209 101.454 264.968 101.779C264.74 102.084 264.474 102.369 264.17 102.635ZM262.82 96.9862C262.93 96.9136 263.08 96.7636 263.268 96.5362C263.474 96.3058 263.652 96.0714 263.803 95.833C263.951 95.5776 264.015 95.3901 263.993 95.2707C263.96 95.083 263.803 94.9437 263.523 94.853C263.26 94.7592 262.94 94.7901 262.562 94.9457C262.432 95.0042 262.287 95.1271 262.126 95.3143C261.966 95.5014 261.81 95.7142 261.659 95.9526C261.505 96.1739 261.376 96.3906 261.273 96.6027C261.167 96.7978 261.097 96.9511 261.064 97.0627C261.148 97.1358 261.296 97.1796 261.51 97.1942C261.724 97.2087 261.951 97.1946 262.189 97.1519C262.445 97.1061 262.656 97.0508 262.82 96.9862Z" fill="url(#paint7_linear_10_10)"/>
<path d="M269.691 102.201C269.497 102.201 269.272 102.127 269.017 101.979C268.759 101.814 268.515 101.628 268.284 101.423C268.068 101.198 267.919 101.004 267.838 100.843C267.832 100.809 267.798 100.77 267.738 100.728C267.695 100.683 267.673 100.661 267.673 100.661C267.596 100.622 267.514 100.408 267.427 100.018C267.354 99.6086 267.299 99.1518 267.262 98.6478C267.225 98.1437 267.215 97.7405 267.231 97.4382C267.268 97.1499 267.331 96.7601 267.419 96.2689C267.505 95.7605 267.574 95.3079 267.626 94.9111L268.053 93.3028L266.979 93.2045C266.854 93.1917 266.739 93.1418 266.635 93.0547C266.549 92.9645 266.5 92.8853 266.487 92.817C266.463 92.6805 266.505 92.4705 266.613 92.187C266.721 91.9036 266.809 91.7558 266.877 91.7436C266.966 91.7453 267.121 91.7264 267.343 91.6867C267.581 91.644 267.81 91.5942 268.029 91.5375C268.248 91.4807 268.381 91.4392 268.429 91.413C268.492 91.3666 268.552 91.3118 268.611 91.2484C268.667 91.1679 268.702 91.0649 268.715 90.9393C268.767 90.7363 268.818 90.5775 268.868 90.4629C268.918 90.3483 268.984 90.178 269.067 89.9518C269.147 89.7086 269.207 89.5041 269.248 89.3383C269.306 89.1695 269.396 88.9332 269.518 88.6297C269.582 88.495 269.65 88.3331 269.722 88.1441C269.794 87.9552 269.896 87.7872 270.029 87.6403C270.158 87.4763 270.389 87.3382 270.721 87.2259C271.067 87.0935 271.388 87.1154 271.683 87.2914C271.85 87.4376 271.956 87.586 272 87.7365C272.044 87.8871 272.011 88.0955 271.9 88.3619C271.815 88.6764 271.7 88.97 271.555 89.2424C271.424 89.4948 271.308 89.7798 271.206 90.0974C271 90.5217 270.986 90.7441 271.166 90.7648C271.346 90.7854 271.818 90.6658 272.581 90.4059C273.061 90.2321 273.428 90.2191 273.683 90.3672C273.939 90.5152 274.109 90.7312 274.195 91.0152C274.319 91.4156 274.32 91.6706 274.199 91.7804C274.078 91.8901 273.693 92.003 273.045 92.1191C272.647 92.2606 272.305 92.3658 272.018 92.4348C271.728 92.4867 271.515 92.5249 271.378 92.5493C271.16 92.6061 271.016 92.6405 270.948 92.6528C270.88 92.665 270.78 92.7004 270.65 92.7589C270.519 92.8175 270.428 92.8955 270.375 92.9931C270.336 93.0705 270.294 93.1835 270.25 93.3323C270.194 93.4127 270.124 93.6102 270.039 93.9248C269.954 94.2393 269.84 94.5855 269.696 94.9635C269.584 95.7229 269.503 96.4507 269.451 97.1468C269.413 97.8227 269.392 98.4956 269.388 99.1654C269.394 99.4988 269.445 99.7362 269.541 99.8776C269.65 99.9988 269.887 100.044 270.252 100.014C270.443 99.9979 270.716 99.9491 271.071 99.8679C271.423 99.7696 271.713 99.665 271.939 99.554C272.112 99.4351 272.293 99.3147 272.482 99.1927C272.669 99.0537 272.838 98.9177 272.991 98.7848C273.129 98.672 273.267 98.5592 273.406 98.4464C273.541 98.3165 273.609 98.2516 273.609 98.2516C273.67 98.0998 273.794 98.104 273.981 98.2643C274.182 98.4044 274.335 98.5707 274.439 98.7633C274.476 98.9681 274.477 99.2231 274.444 99.5285C274.407 99.8168 274.143 100.163 273.652 100.568C272.969 101.183 272.253 101.611 271.503 101.851C270.754 102.091 270.149 102.207 269.691 102.201Z" fill="url(#paint8_linear_10_10)"/>
<path d="M278.154 100.634C277.745 100.707 277.349 100.558 276.965 100.187C276.596 99.7948 276.323 99.2978 276.145 98.6957C276.138 98.5561 276.12 98.3568 276.092 98.0978C276.08 97.8357 276.067 97.5651 276.053 97.286C276.063 96.9495 276.083 96.5147 276.111 95.9813C276.139 95.448 276.176 94.9132 276.221 94.3768C276.263 93.8234 276.302 93.3498 276.338 92.9561C276.37 92.5452 276.389 92.3042 276.394 92.2329C276.454 91.9756 276.673 91.8747 277.053 91.93C277.433 91.9854 277.785 92.1864 278.111 92.5331C278.238 92.6513 278.326 92.8027 278.377 92.9874C278.445 93.169 278.468 93.4466 278.446 93.8202C278.442 94.1908 278.399 94.7442 278.319 95.4805C278.253 96.1967 278.207 96.7772 278.181 97.2222C278.168 97.647 278.212 98.0883 278.311 98.546C278.382 99.3432 278.41 99.8929 278.393 100.195C278.374 100.48 278.294 100.627 278.154 100.634ZM278.617 89.59C278.558 89.6534 278.494 89.6912 278.426 89.7034C278.372 89.6955 278.269 89.6611 278.117 89.6002C277.995 89.6045 277.827 89.5552 277.615 89.4523C277.417 89.3292 277.236 89.2031 277.073 89.0739C276.926 88.9417 276.849 88.8586 276.843 88.8244C276.796 88.6568 276.756 88.3823 276.723 88.0007C276.707 87.6162 276.739 87.2495 276.818 86.9009C276.91 86.5321 277.083 86.3163 277.336 86.2534C277.404 86.2412 277.555 86.2494 277.789 86.278C278.04 86.3035 278.303 86.3445 278.577 86.4011C278.759 86.6327 278.947 86.9425 279.139 87.3307C279.331 87.7189 279.411 88.1184 279.379 88.5292C279.36 88.9199 279.106 89.2735 278.617 89.59Z" fill="url(#paint9_linear_10_10)"/>
<path d="M289.512 98.5226C289.256 98.5684 288.995 98.5359 288.728 98.425C288.459 98.2971 288.222 98.1019 288.017 97.8392C287.808 97.5595 287.668 97.2149 287.595 96.8054C287.549 96.5494 287.528 96.1834 287.531 95.7074C287.549 95.2113 287.587 94.588 287.647 93.8377C287.639 93.5927 287.637 93.4346 287.642 93.3632C287.664 93.2889 287.669 93.2176 287.657 93.1493C287.651 93.1152 287.638 93.0911 287.617 93.0771C287.611 93.043 287.591 93.029 287.557 93.0351C287.421 93.0595 287.25 93.1869 287.044 93.4174C286.853 93.6277 286.633 93.8783 286.386 94.1691C286.341 94.2124 286.289 94.2658 286.229 94.3292C286.187 94.3895 286.137 94.4514 286.078 94.5148C286.036 94.5752 285.985 94.637 285.926 94.7004C285.773 94.8334 285.544 95.0769 285.237 95.4312C284.948 95.7823 284.644 96.1536 284.327 96.545C284.026 96.9333 283.759 97.2629 283.525 97.5336C283.407 97.6604 283.303 97.7671 283.213 97.8537C283.14 97.9372 283.086 97.982 283.052 97.9881C283.018 97.9942 282.874 97.976 282.62 97.9334C282.379 97.8707 282.133 97.7739 281.881 97.6429C281.643 97.4918 281.503 97.2968 281.46 97.0579C281.433 96.9044 281.438 96.5865 281.475 96.1044C281.53 95.6192 281.62 95.0396 281.746 94.3654C281.873 93.6913 282.032 93.0025 282.223 92.2991C282.264 92.1333 282.279 91.9193 282.268 91.6573C282.256 91.3952 282.246 91.1416 282.238 90.8966C282.243 90.6315 282.295 90.4285 282.393 90.2877C282.429 90.1932 282.478 90.1228 282.541 90.0764C282.617 90.01 282.698 89.9691 282.783 89.9539C282.953 89.9233 283.123 89.937 283.292 89.9948C283.458 90.0356 283.624 90.1291 283.791 90.2753C284.095 90.5026 284.29 90.8024 284.374 91.1747C284.472 91.527 284.508 91.8814 284.484 92.238C284.459 92.5945 284.415 92.8929 284.353 93.1331C284.287 93.3561 284.251 93.4506 284.245 93.4165C284.307 93.3702 284.385 93.268 284.481 93.1102C284.593 92.9492 284.794 92.7459 285.085 92.5002C285.468 92.0795 285.767 91.7795 285.981 91.6002C286.193 91.4039 286.352 91.2609 286.459 91.1713C286.584 91.0786 286.689 90.9805 286.777 90.8768C286.85 90.7933 286.902 90.7399 286.933 90.7168C286.981 90.6905 287.005 90.6774 287.005 90.6774C287.056 90.6683 287.136 90.6189 287.243 90.5292C287.367 90.4366 287.489 90.3795 287.608 90.3582C287.779 90.3276 287.966 90.3382 288.169 90.39C288.369 90.4246 288.549 90.498 288.71 90.6101C288.868 90.7051 288.959 90.8209 288.983 90.9574C288.992 91.0086 289.017 91.0482 289.057 91.0763C289.097 91.1043 289.139 91.1408 289.182 91.1859C289.286 91.273 289.405 91.4013 289.541 91.5707C289.691 91.72 289.801 91.9909 289.871 92.3833C289.919 92.6564 289.931 93.0681 289.906 93.6185C289.881 94.1689 289.845 94.7122 289.8 95.2486C289.758 95.802 289.765 96.2409 289.823 96.5651C289.895 96.8692 289.972 97.102 290.053 97.2635C290.132 97.4079 290.18 97.5313 290.198 97.6337C290.223 97.7702 290.183 97.9446 290.08 98.1567C289.974 98.3518 289.785 98.4737 289.512 98.5226Z" fill="url(#paint10_linear_10_10)"/>
<path d="M297.363 102.427C297.084 102.635 296.689 102.741 296.179 102.744C295.686 102.744 295.178 102.659 294.654 102.489C294.151 102.332 293.726 102.118 293.378 101.846C293.194 101.702 293.021 101.522 292.859 101.304C292.697 101.087 292.579 100.87 292.505 100.655C292.435 100.456 292.453 100.312 292.56 100.222C292.696 100.092 292.866 100.009 293.071 99.9724C293.292 99.9327 293.485 99.9247 293.647 99.9484C293.827 99.969 293.923 100.014 293.935 100.082C294.153 100.219 294.358 100.332 294.55 100.421C294.762 100.524 294.96 100.594 295.142 100.632C295.399 100.691 295.616 100.67 295.791 100.568C295.987 100.481 296.155 100.336 296.295 100.135C296.398 99.9228 296.475 99.6625 296.526 99.3541C296.596 99.0597 296.634 98.7272 296.639 98.3566L296.656 98.0101C296.692 97.1233 296.728 96.2892 296.765 95.5078C296.816 94.7063 296.871 94.1242 296.929 93.7615C296.895 93.7676 296.854 93.7838 296.806 93.81C296.758 93.8363 296.711 93.871 296.666 93.9143C296.573 93.9838 296.479 94.0533 296.386 94.1228C296.293 94.1924 296.2 94.2619 296.106 94.3314C295.906 94.4905 295.726 94.6195 295.568 94.7183C295.406 94.8 295.26 94.8702 295.13 94.9287C294.92 95.0367 294.763 95.0913 294.657 95.0925C294.552 95.0938 294.465 95.1005 294.397 95.1127C294.226 95.1433 293.995 95.1318 293.704 95.0782C293.41 95.0076 293.154 94.9038 292.936 94.7667C292.755 94.6406 292.616 94.5069 292.521 94.3655C292.422 94.2071 292.348 94.0355 292.297 93.8509C292.247 93.6662 292.205 93.48 292.171 93.2923C292.126 93.0363 292.182 92.5597 292.339 91.8624C292.494 91.148 292.779 90.4278 293.196 89.7017C293.462 89.3195 293.831 88.9189 294.302 88.5001C294.773 88.0812 295.262 87.712 295.768 87.3924C296.289 87.0528 296.728 86.8509 297.087 86.7868C297.155 86.7745 297.233 86.7693 297.322 86.7711C297.427 86.7699 297.528 86.7958 297.626 86.8487C297.928 86.8651 298.247 86.9753 298.583 87.1794C298.915 87.3664 299.227 87.6363 299.519 87.9891C299.704 88.2377 299.867 88.5079 300.007 88.7998C300.164 89.0887 300.273 89.4038 300.334 89.7451C300.382 90.0181 300.374 90.2662 300.308 90.4893C300.256 90.6922 300.19 90.8184 300.111 90.8678C300.083 90.9081 300.045 90.9413 299.997 90.9675C299.946 90.9767 299.887 90.9959 299.822 91.0252C299.788 91.0313 299.723 91.0605 299.627 91.113C299.533 91.1825 299.448 91.2947 299.37 91.4495C299.306 91.5842 299.258 91.8128 299.228 92.1352C299.226 92.2236 299.224 92.312 299.222 92.4004C299.22 92.4888 299.21 92.5787 299.191 92.6701C299.194 92.6872 299.176 92.7344 299.137 92.8118C299.112 92.8691 299.099 92.942 299.097 93.0303C299.101 93.1528 299.085 93.2613 299.049 93.3558C299.027 93.4302 299.007 93.5131 298.988 93.6045C298.983 93.6758 298.985 93.7371 298.994 93.7883C299 93.8224 299.006 93.8565 299.012 93.8907L298.96 94.1905C298.939 94.3704 298.915 94.5331 298.888 94.6788C298.879 94.8214 298.877 94.9098 298.883 94.9439L298.872 95.4742C298.871 95.668 298.862 95.8633 298.844 96.0602C298.843 96.254 298.841 96.4393 298.837 96.6161C298.834 96.7928 298.821 96.9711 298.801 97.1509C298.693 98.7198 298.511 99.9233 298.255 100.761C298.017 101.597 297.719 102.152 297.363 102.427ZM294.084 92.7651C294.185 93.1344 294.53 93.24 295.118 93.082C295.703 92.9068 296.305 92.4294 296.923 91.6496C297.17 91.3588 297.378 91.04 297.545 90.6931C297.729 90.3432 297.835 89.9985 297.862 89.659C297.899 89.3707 297.883 89.18 297.813 89.0867C297.758 88.9734 297.601 88.9311 297.342 88.9598C297 89.0209 296.664 89.1603 296.333 89.378C296.016 89.5755 295.685 89.8374 295.338 90.1636C295.171 90.5105 295.018 90.7403 294.88 90.8531C294.741 90.9659 294.646 91.0269 294.595 91.0361C294.558 91.0251 294.577 91.0306 294.651 91.0525C294.629 91.1269 294.605 91.1927 294.58 91.25C294.555 91.3073 294.53 91.3646 294.505 91.4219C294.433 91.6109 294.357 91.7742 294.276 91.912C294.195 92.0498 294.131 92.1845 294.084 92.3162C294.054 92.4448 294.054 92.5944 294.084 92.7651Z" fill="url(#paint11_linear_10_10)"/>
<path d="M301.676 98.7231C301.488 98.7567 301.318 98.743 301.166 98.6821C301.032 98.6182 300.92 98.5326 300.83 98.4253C300.809 98.3059 300.825 98.1974 300.878 98.0998C300.931 98.0023 301.007 97.8831 301.105 97.7423C301.262 97.5381 301.403 97.2927 301.528 97.0062C301.656 96.7368 301.766 96.4618 301.857 96.1814C301.965 95.898 302.048 95.6718 302.106 95.503C302.14 95.3031 302.169 95.069 302.192 94.8008C302.214 94.5326 302.233 94.2389 302.246 93.9195C302.222 93.783 302.2 93.6635 302.182 93.5611C302.178 93.4386 302.204 93.3371 302.26 93.2566C302.375 93.1128 302.519 92.9814 302.692 92.8625C302.878 92.7234 303.08 92.7225 303.299 92.8595C303.531 92.9765 303.756 93.35 303.973 93.9801C304.109 94.3434 304.169 94.6847 304.156 95.004C304.142 95.3234 304.064 95.7248 303.921 96.2082C303.908 96.3337 303.815 96.5529 303.642 96.8656C303.486 97.1753 303.317 97.4609 303.135 97.7224C302.972 97.998 302.866 98.1403 302.815 98.1495C302.746 98.1617 302.69 98.1894 302.645 98.2327C302.602 98.2931 302.545 98.365 302.472 98.4485C302.416 98.529 302.319 98.5815 302.183 98.6059C302.049 98.6474 301.88 98.6864 301.676 98.7231Z" fill="url(#paint12_linear_10_10)"/>
<path d="M182.469 143.404C182.213 143.449 181.923 143.307 181.601 142.978C181.275 142.631 180.985 142.19 180.731 141.654C180.494 141.116 180.344 140.57 180.281 140.018C180.184 139.472 180.132 139.032 180.125 138.699C180.133 138.345 180.142 138 180.152 137.664C180.185 137.552 180.196 137.462 180.184 137.394C180.189 137.323 180.186 137.209 180.176 137.052C180.182 136.893 180.196 136.626 180.218 136.252C180.234 135.95 180.26 135.699 180.295 135.499C180.347 135.296 180.392 135.156 180.431 135.078C180.587 134.769 180.789 134.565 181.036 134.468C181.28 134.354 181.514 134.339 181.74 134.421C181.984 134.501 182.143 134.657 182.22 134.89C182.338 134.957 182.424 135.144 182.479 135.452C182.547 135.739 182.585 136.049 182.591 136.382C182.595 136.699 182.558 136.934 182.48 137.089C182.461 137.18 182.458 137.41 182.47 137.777C182.5 138.142 182.524 138.525 182.543 138.927C182.579 139.325 182.592 139.648 182.584 139.897C182.587 140.213 182.639 140.406 182.74 140.476C182.854 140.526 183.011 140.419 183.21 140.154C183.424 139.869 183.682 139.392 183.985 138.721C184.235 138.148 184.411 137.703 184.513 137.385C184.632 137.065 184.713 136.777 184.756 136.523C184.816 136.266 184.876 135.965 184.938 135.619C184.975 135.331 185.012 135.095 185.05 134.912C185.105 134.726 185.16 134.593 185.216 134.513C185.355 134.206 185.583 134.051 185.899 134.047C186.23 134.023 186.509 134.061 186.738 134.161C186.979 134.329 187.149 134.589 187.247 134.942C187.359 135.274 187.349 135.663 187.217 136.109C187.129 136.407 187.051 136.755 186.981 137.155C186.928 137.552 186.893 137.946 186.874 138.336C186.873 138.724 186.897 139.054 186.945 139.327C187.006 139.669 187.085 139.866 187.183 139.919C187.294 139.952 187.418 139.956 187.555 139.931C187.759 139.895 187.944 139.791 188.107 139.621C188.267 139.434 188.493 139.121 188.785 138.681C188.911 138.5 189.057 138.236 189.225 137.889C189.392 137.543 189.547 137.18 189.691 136.802C189.852 136.421 189.978 136.09 190.069 135.81C190.174 135.51 190.22 135.325 190.208 135.257C190.19 135.155 190.241 134.996 190.361 134.781C190.439 134.626 190.498 134.51 190.537 134.432C190.59 134.335 190.694 134.228 190.849 134.112C190.974 134.019 191.126 133.983 191.305 134.004C191.482 134.008 191.642 134.067 191.786 134.182C191.884 134.235 191.974 134.395 192.056 134.662C192.153 134.909 192.22 135.135 192.256 135.339C192.239 135.536 192.209 135.815 192.167 136.174C192.123 136.517 192.068 136.852 192.003 137.181C191.953 137.489 191.894 137.702 191.827 137.82C191.771 137.9 191.674 138.05 191.537 138.268C191.397 138.469 191.276 138.684 191.176 138.914C190.841 139.502 190.593 139.89 190.433 140.077C190.272 140.264 190.136 140.438 190.024 140.599C189.73 141.021 189.372 141.385 188.951 141.689C188.526 141.976 188.113 142.174 187.709 142.281C187.303 142.371 186.965 142.353 186.696 142.225C186.118 142.046 185.771 141.633 185.656 140.984C185.632 140.848 185.585 140.733 185.515 140.64C185.46 140.526 185.432 140.47 185.432 140.47C185.364 140.482 185.273 140.516 185.16 140.571C185.064 140.624 184.974 140.763 184.891 140.989C184.789 141.307 184.578 141.653 184.257 142.027C183.95 142.381 183.628 142.694 183.289 142.966C182.947 143.221 182.674 143.367 182.469 143.404Z" fill="url(#paint13_linear_10_10)"/>
<path d="M194.285 141.633C194.124 141.52 193.985 141.334 193.868 141.073C193.768 140.809 193.704 140.548 193.676 140.289C193.644 140.013 193.65 139.8 193.694 139.652C193.67 139.515 193.669 139.41 193.691 139.335C193.727 139.241 193.73 139.161 193.701 139.096C193.672 139.031 193.668 138.908 193.688 138.728C193.709 138.548 193.731 138.377 193.755 138.214C193.826 137.92 193.9 137.546 193.978 137.092C194.052 136.62 194.127 136.149 194.201 135.678C194.273 135.19 194.331 134.775 194.376 134.432C194.417 134.072 194.44 133.857 194.445 133.786C194.409 133.581 194.526 133.445 194.796 133.38C194.988 133.275 195.251 133.316 195.583 133.503C195.916 133.69 196.192 133.904 196.411 134.147C196.572 134.259 196.655 134.429 196.66 134.657C196.666 134.885 196.611 135.22 196.496 135.664C196.453 135.812 196.408 136.058 196.364 136.401C196.333 136.723 196.319 136.99 196.321 137.201C196.277 137.349 196.227 137.561 196.17 137.835C196.127 138.089 196.092 138.333 196.063 138.567C196.044 138.659 196.039 138.827 196.047 139.072C196.053 139.3 196.051 139.538 196.042 139.786C196.034 140.034 195.999 140.234 195.938 140.386C195.909 141.113 195.709 141.571 195.338 141.761C194.984 141.948 194.633 141.905 194.285 141.633ZM195.221 130.873C195.009 130.771 194.835 130.634 194.699 130.465C194.577 130.275 194.494 130.105 194.45 129.955C194.422 129.801 194.423 129.704 194.451 129.664C194.588 129.446 194.689 129.173 194.754 128.844C194.835 128.512 194.93 128.205 195.038 127.921C195.063 127.864 195.094 127.788 195.13 127.694C195.18 127.579 195.237 127.507 195.303 127.478C195.483 127.305 195.766 127.263 196.152 127.352C196.554 127.439 196.865 127.603 197.085 127.846C197.296 128.143 197.398 128.468 197.39 128.821C197.4 129.172 197.285 129.562 197.044 129.992C196.849 130.38 196.565 130.659 196.19 130.832C195.813 130.988 195.49 131.001 195.221 130.873Z" fill="url(#paint14_linear_10_10)"/>
<path d="M202.664 140.741C202.413 140.715 202.153 140.638 201.883 140.511C201.614 140.383 201.332 140.231 201.036 140.055C200.783 139.818 200.594 139.597 200.469 139.39C200.341 139.167 200.241 138.903 200.17 138.599C200.112 138.274 200.039 137.865 199.951 137.37C199.914 137.165 199.897 136.869 199.898 136.481C199.916 136.091 199.932 135.683 199.944 135.258C199.974 134.83 200.004 134.455 200.034 134.133C200.062 133.793 200.075 133.571 200.074 133.465C200.086 133.234 199.977 133.121 199.75 133.127C199.522 133.133 199.273 133.168 199.003 133.234C198.747 133.28 198.572 133.285 198.477 133.249C198.406 133.244 198.357 133.165 198.329 133.011C198.299 132.841 198.284 132.755 198.284 132.755C198.272 132.687 198.23 132.651 198.159 132.646C198.084 132.624 198.014 132.575 197.947 132.499C197.901 132.436 197.921 132.301 198.007 132.092C198.093 131.883 198.227 131.744 198.408 131.677C198.556 131.615 198.782 131.548 199.086 131.476C199.387 131.387 199.683 131.272 199.975 131.132C200.281 130.972 200.501 130.774 200.635 130.538C200.722 130.136 200.821 129.704 200.933 129.244C201.042 128.767 201.152 128.35 201.265 127.996C201.375 127.624 201.457 127.389 201.51 127.292C201.772 127.086 202.06 126.973 202.373 126.952C202.684 126.914 202.948 127.017 203.168 127.259C203.274 127.363 203.358 127.436 203.418 127.478C203.495 127.517 203.535 127.59 203.536 127.695C203.554 127.797 203.519 127.997 203.431 128.295C203.357 128.572 203.224 129.01 203.031 129.608C202.976 129.794 202.927 129.961 202.883 130.11C202.836 130.241 202.813 130.307 202.813 130.307C202.884 130.312 202.988 130.302 203.124 130.278C203.261 130.254 203.43 130.214 203.632 130.161C203.813 130.093 204.013 130.031 204.232 129.974C204.448 129.9 204.644 129.865 204.821 129.869C205.213 129.798 205.523 129.858 205.75 130.046C205.977 130.234 206.13 130.497 206.208 130.836C206.275 131.017 206.236 131.191 206.09 131.359C205.943 131.526 205.64 131.65 205.179 131.733C205.026 131.76 204.805 131.808 204.518 131.877C204.231 131.946 203.936 132.017 203.632 132.089C203.328 132.161 203.068 132.234 202.852 132.308C202.65 132.361 202.552 132.405 202.559 132.439C202.513 132.483 202.452 132.634 202.376 132.895C202.313 133.135 202.25 133.428 202.189 133.773C202.144 134.116 202.105 134.44 202.071 134.745C202.055 135.347 202.07 135.925 202.116 136.48C202.162 137.036 202.239 137.515 202.346 137.919C202.467 138.302 202.62 138.565 202.804 138.708C202.984 138.834 203.215 138.793 203.495 138.585C203.788 138.356 204.052 138.106 204.286 137.836C204.547 137.525 204.798 137.401 205.038 137.463C205.275 137.509 205.445 137.672 205.548 137.953C205.665 138.214 205.641 138.526 205.477 138.89C205.33 139.251 205.088 139.576 204.753 139.865C204.417 140.154 204.06 140.376 203.683 140.532C203.309 140.704 202.969 140.774 202.664 140.741Z" fill="url(#paint15_linear_10_10)"/>
<path d="M216.964 137.838C216.655 137.982 216.324 138.102 215.972 138.201C215.64 138.313 215.323 138.264 215.022 138.054C214.825 137.842 214.651 137.654 214.498 137.487C214.345 137.321 214.209 137.002 214.09 136.53C214.015 136.209 213.97 135.856 213.954 135.472C213.953 135.067 213.928 134.781 213.881 134.613C213.905 133.957 213.858 133.499 213.741 133.238C213.641 132.974 213.549 132.85 213.464 132.865C213.27 132.865 212.996 133.055 212.641 133.435C212.303 133.812 211.911 134.332 211.466 134.992C211.034 135.633 210.573 136.358 210.084 137.168C209.839 137.67 209.659 138.045 209.545 138.294C209.445 138.524 209.361 138.644 209.292 138.656C208.985 138.711 208.695 138.711 208.421 138.654C208.146 138.597 207.916 138.489 207.729 138.329C207.542 138.169 207.413 137.989 207.342 137.79C207.33 137.722 207.341 137.535 207.375 137.23C207.405 136.908 207.445 136.539 207.495 136.126C207.544 135.712 207.59 135.325 207.631 134.965C207.69 134.603 207.733 134.348 207.76 134.203C207.834 133.732 207.918 133.162 208.01 132.494C208.116 131.806 208.211 131.199 208.293 130.674C208.322 130.44 208.385 130.103 208.483 129.662C208.577 129.205 208.672 128.748 208.767 128.291C208.861 127.834 208.925 127.497 208.956 127.28C208.983 127.134 209.034 126.878 209.11 126.513C209.183 126.13 209.258 125.711 209.336 125.257C209.43 124.8 209.514 124.38 209.587 123.997C209.673 123.595 209.727 123.303 209.748 123.123C209.703 122.973 209.688 122.835 209.7 122.709C209.727 122.564 209.76 122.452 209.799 122.375C209.868 122.362 209.944 122.349 210.03 122.333C210.112 122.301 210.153 122.285 210.153 122.285C210.147 122.251 210.264 122.265 210.504 122.328C210.761 122.387 211.014 122.474 211.263 122.588C211.527 122.682 211.667 122.78 211.686 122.882C211.81 123.089 211.871 123.377 211.866 123.748C211.859 124.102 211.772 124.654 211.607 125.406C211.468 125.712 211.353 126.155 211.263 126.735C211.189 127.312 211.101 127.803 210.997 128.209C210.95 128.341 210.886 128.572 210.804 128.904C210.736 129.215 210.653 129.591 210.556 130.031C210.472 130.451 210.393 130.897 210.318 131.368C210.244 131.839 210.185 132.299 210.141 132.747C210.044 133.187 210.033 133.47 210.108 133.598C210.184 133.725 210.361 133.535 210.64 133.027C211.027 132.43 211.388 131.889 211.725 131.407C212.078 130.921 212.413 130.526 212.729 130.223C213.059 129.9 213.372 129.73 213.668 129.712C213.827 129.719 214.043 129.794 214.316 129.939C214.602 130.064 214.877 130.226 215.142 130.425C215.42 130.605 215.612 130.79 215.716 130.983C215.827 131.21 215.911 131.432 215.967 131.651C216.041 131.867 216.106 132.181 216.162 132.594C216.215 132.989 216.277 133.586 216.348 134.383C216.349 134.981 216.356 135.412 216.367 135.674C216.375 135.919 216.414 136.088 216.484 136.181C216.57 136.271 216.692 136.364 216.85 136.459C217.143 136.618 217.289 136.847 217.29 137.146C217.287 137.428 217.178 137.659 216.964 137.838Z" fill="url(#paint16_linear_10_10)"/>
<path d="M228.222 135.797C227.876 135.93 227.6 135.961 227.394 135.893C227.202 135.804 226.997 135.691 226.779 135.554C226.482 135.466 226.201 135.323 225.937 135.123C225.669 134.907 225.452 134.673 225.284 134.421C225.116 134.17 225.026 133.966 225.016 133.809C224.961 133.203 224.982 132.53 225.079 131.79C225.193 131.048 225.37 130.312 225.61 129.582C225.867 128.85 226.18 128.186 226.55 127.592C226.933 126.977 227.377 126.502 227.88 126.165C228.197 125.967 228.555 125.851 228.953 125.814C229.352 125.778 229.645 125.893 229.833 126.159C230.177 126.608 230.174 126.934 229.823 127.138C229.772 127.147 229.716 127.183 229.657 127.247C229.595 127.293 229.57 127.35 229.582 127.419C229.657 127.441 229.846 127.416 230.15 127.344C230.451 127.255 230.749 127.148 231.044 127.025C231.353 126.882 231.551 126.758 231.638 126.655C231.731 126.585 231.804 126.546 231.855 126.537C231.906 126.528 232.037 126.522 232.248 126.519C232.553 126.553 232.716 126.629 232.738 126.748C232.75 126.817 232.795 126.923 232.874 127.067C232.949 127.195 233.021 127.252 233.089 127.24C233.212 127.236 233.259 127.351 233.23 127.585C233.218 127.816 233.063 128.081 232.764 128.381C232.477 128.644 232.296 128.817 232.223 128.901C232.164 128.964 232.177 129.085 232.261 129.264C232.456 129.564 232.517 129.958 232.445 130.446C232.374 130.934 232.203 131.458 231.933 132.017C231.663 132.576 231.32 133.121 230.904 133.653C230.502 134.166 230.064 134.622 229.59 135.024C229.13 135.406 228.674 135.664 228.222 135.797ZM227.916 133.633C227.984 133.621 228.098 133.566 228.256 133.467C228.412 133.351 228.536 133.258 228.629 133.189C228.685 133.108 228.757 133.016 228.844 132.913C228.945 132.789 229.029 132.712 229.094 132.683C229.162 132.671 229.2 132.638 229.208 132.583C229.213 132.512 229.25 132.373 229.319 132.167C229.385 131.944 229.536 131.609 229.774 131.162C230.048 130.725 230.217 130.387 230.279 130.147C230.339 129.889 230.302 129.632 230.168 129.374C230.139 129.309 230.08 129.275 229.992 129.274C229.921 129.269 229.819 129.243 229.688 129.196C229.517 129.227 229.405 129.291 229.352 129.388C229.313 129.466 229.186 129.444 228.971 129.324L228.47 128.886L228.113 129.399C227.888 129.72 227.702 130.106 227.553 130.555C227.421 131.001 227.333 131.449 227.29 131.897C227.247 132.345 227.237 132.734 227.26 133.064C227.289 133.323 227.362 133.486 227.479 133.553C227.597 133.62 227.743 133.647 227.916 133.633Z" fill="url(#paint17_linear_10_10)"/>
<path d="M236.732 133.561C236.356 133.329 236.022 133.081 235.728 132.817C235.431 132.535 235.181 132.069 234.977 131.419C234.888 131.118 234.847 130.685 234.852 130.121C234.857 129.556 234.909 128.957 235.007 128.323C235.102 127.672 235.224 127.07 235.371 126.515C235.519 125.96 235.691 125.542 235.887 125.26C236.047 124.968 236.266 124.717 236.546 124.509C236.843 124.297 237.175 124.238 237.544 124.33C237.771 124.518 237.92 124.809 237.99 125.201C238.074 125.574 238.042 125.94 237.895 126.301C237.636 126.823 237.441 127.456 237.309 128.202C237.192 128.927 237.139 129.571 237.151 130.132C237.102 130.546 237.105 130.862 237.162 131.081C237.215 131.283 237.358 131.389 237.589 131.401C237.928 131.428 238.244 131.275 238.537 130.941C238.846 130.603 239.116 130.141 239.346 129.554C239.593 128.964 239.784 128.305 239.918 127.577C239.978 127.319 240.004 127.024 239.998 126.691C240.008 126.354 240.034 126.103 240.075 125.937C240.1 125.581 240.197 125.29 240.369 125.066C240.554 124.821 240.762 124.652 240.991 124.558C241.221 124.464 241.405 124.458 241.543 124.539C241.708 124.58 241.89 124.662 242.088 124.785C242.286 124.908 242.403 125.169 242.439 125.567C242.551 126.199 242.51 126.761 242.316 127.253C242.122 127.746 241.976 128.256 241.876 128.785C241.786 129.17 241.614 129.633 241.357 130.172C241.101 130.711 240.812 131.211 240.489 131.674C240.184 132.134 239.881 132.461 239.581 132.655C239.158 133.048 238.706 133.323 238.223 133.48C237.737 133.619 237.24 133.647 236.732 133.561Z" fill="url(#paint18_linear_10_10)"/>
<path d="M244.936 132.305C244.761 132.213 244.563 132.09 244.342 131.936C244.138 131.778 244.031 131.525 244.021 131.174C243.988 130.687 243.981 130.257 244.003 129.883C244.021 129.492 244.048 129.048 244.082 128.548C244.08 128.337 244.103 127.972 244.151 127.453C244.216 126.931 244.3 126.361 244.401 125.744C244.503 125.127 244.619 124.543 244.749 123.992C244.877 123.423 245.003 122.995 245.128 122.709C245.286 122.505 245.543 122.37 245.902 122.306C246.277 122.239 246.545 122.262 246.706 122.374C246.921 122.494 247.029 122.756 247.031 123.161C247.03 123.548 246.896 124.18 246.629 125.055C246.58 125.275 246.509 125.517 246.415 125.78C246.335 126.023 246.283 126.226 246.259 126.389C246.232 126.535 246.26 126.591 246.342 126.559C246.411 126.353 246.561 126.106 246.791 125.818C247.019 125.514 247.265 125.214 247.529 124.92C247.794 124.627 248.046 124.361 248.285 124.125C248.525 123.888 248.691 123.735 248.785 123.666C248.906 123.556 249.047 123.46 249.209 123.378C249.384 123.277 249.503 123.202 249.565 123.156C249.924 122.898 250.339 122.754 250.809 122.722C251.292 122.671 251.608 122.764 251.756 123.002C251.798 123.135 251.867 123.229 251.965 123.281C252.079 123.331 252.136 123.356 252.136 123.356C252.205 123.344 252.243 123.364 252.252 123.415C252.279 123.463 252.292 123.487 252.292 123.487C252.313 123.607 252.224 123.799 252.025 124.063C251.842 124.325 251.616 124.488 251.346 124.554C251.127 124.611 250.939 124.689 250.78 124.788C250.622 124.886 250.432 125.008 250.212 125.154C249.63 125.645 249.101 126.083 248.624 126.468C248.163 126.85 247.713 127.388 247.274 128.083C247.179 128.241 247.074 128.392 246.958 128.535C246.843 128.679 246.737 128.874 246.64 129.121C246.57 129.221 246.518 129.424 246.484 129.73C246.451 130.035 246.424 130.33 246.404 130.616C246.399 130.881 246.401 131.039 246.41 131.09C246.41 131.09 246.399 131.18 246.379 131.36C246.355 131.523 246.297 131.691 246.205 131.866C246.049 132.176 245.874 132.383 245.682 132.488C245.506 132.59 245.258 132.529 244.936 132.305Z" fill="url(#paint19_linear_10_10)"/>
<path d="M268.14 128.76C267.884 128.806 267.623 128.773 267.357 128.662C267.087 128.534 266.85 128.339 266.645 128.077C266.437 127.797 266.296 127.452 266.223 127.043C266.177 126.787 266.156 126.421 266.16 125.945C266.177 125.449 266.215 124.825 266.275 124.075C266.267 123.83 266.265 123.672 266.27 123.601C266.292 123.526 266.297 123.455 266.285 123.387C266.279 123.353 266.266 123.328 266.246 123.314C266.24 123.28 266.219 123.266 266.185 123.272C266.049 123.297 265.878 123.424 265.672 123.655C265.481 123.865 265.262 124.116 265.014 124.406C264.969 124.45 264.917 124.503 264.858 124.567C264.816 124.627 264.765 124.689 264.706 124.752C264.664 124.813 264.613 124.874 264.554 124.938C264.402 125.071 264.172 125.314 263.866 125.669C263.576 126.02 263.272 126.391 262.955 126.782C262.654 127.171 262.387 127.5 262.154 127.771C262.035 127.898 261.931 128.004 261.841 128.091C261.768 128.175 261.714 128.219 261.68 128.225C261.646 128.232 261.502 128.213 261.248 128.171C261.008 128.108 260.762 128.011 260.509 127.88C260.271 127.729 260.131 127.534 260.088 127.295C260.061 127.142 260.066 126.824 260.103 126.342C260.158 125.857 260.248 125.277 260.375 124.603C260.501 123.929 260.66 123.24 260.852 122.536C260.893 122.371 260.907 122.157 260.896 121.895C260.884 121.633 260.874 121.379 260.866 121.134C260.872 120.869 260.923 120.666 261.022 120.525C261.058 120.431 261.107 120.36 261.169 120.314C261.245 120.247 261.326 120.206 261.411 120.191C261.582 120.161 261.751 120.174 261.92 120.232C262.086 120.273 262.252 120.366 262.419 120.513C262.724 120.74 262.918 121.04 263.002 121.412C263.1 121.764 263.136 122.119 263.112 122.475C263.087 122.832 263.044 123.13 262.981 123.37C262.915 123.594 262.879 123.688 262.873 123.654C262.935 123.608 263.014 123.505 263.109 123.348C263.221 123.187 263.422 122.983 263.713 122.738C264.096 122.317 264.395 122.017 264.609 121.838C264.821 121.641 264.98 121.498 265.088 121.409C265.212 121.316 265.318 121.218 265.405 121.114C265.478 121.031 265.53 120.977 265.561 120.954C265.609 120.928 265.633 120.915 265.633 120.915C265.685 120.906 265.764 120.856 265.871 120.767C265.995 120.674 266.117 120.617 266.237 120.596C266.407 120.565 266.594 120.576 266.797 120.627C266.997 120.662 267.177 120.735 267.338 120.847C267.496 120.942 267.587 121.058 267.611 121.195C267.62 121.246 267.645 121.286 267.685 121.314C267.725 121.342 267.767 121.378 267.81 121.423C267.914 121.51 268.033 121.639 268.169 121.808C268.319 121.957 268.429 122.228 268.499 122.621C268.548 122.894 268.559 123.305 268.534 123.856C268.509 124.406 268.474 124.95 268.428 125.486C268.386 126.039 268.394 126.478 268.451 126.802C268.523 127.107 268.6 127.339 268.681 127.501C268.76 127.645 268.808 127.769 268.827 127.871C268.851 128.008 268.812 128.182 268.709 128.394C268.602 128.589 268.413 128.711 268.14 128.76Z" fill="url(#paint20_linear_10_10)"/>
<path d="M273.449 127.731C273.227 127.77 273.041 127.76 272.889 127.699C272.754 127.635 272.579 127.543 272.364 127.423C271.979 127.14 271.65 126.82 271.375 126.464C271.117 126.105 270.988 125.776 270.988 125.477C271.015 125.331 271.009 125.2 270.971 125.084C270.946 124.947 270.934 124.879 270.934 124.879C270.834 124.809 270.799 124.762 270.83 124.739C270.858 124.699 270.883 124.642 270.905 124.567C271.007 124.549 271.025 124.449 270.957 124.267C270.899 124.137 270.898 123.838 270.956 123.37C271.027 122.881 271.155 122.41 271.338 121.954C271.41 121.765 271.524 121.516 271.68 121.206C271.833 120.88 272.004 120.558 272.195 120.243C272.399 119.907 272.588 119.635 272.763 119.428C273.125 118.993 273.466 118.633 273.785 118.347C274.121 118.058 274.469 117.837 274.829 117.684C275.189 117.532 275.565 117.421 275.958 117.35C276.367 117.277 276.724 117.354 277.029 117.581C277.452 117.682 277.766 117.863 277.971 118.126C278.193 118.385 278.371 118.741 278.504 119.193C278.647 119.695 278.708 120.336 278.688 121.114C278.665 121.876 278.399 122.804 277.89 123.898C277.573 124.589 277.24 125.142 276.891 125.556C276.543 125.971 276.147 126.367 275.704 126.746C275.388 127.049 275.03 127.263 274.629 127.387C274.229 127.512 273.836 127.626 273.449 127.731ZM275.504 124.141C275.821 123.749 276.022 123.344 276.105 122.924C276.206 122.501 276.303 122.008 276.397 121.445C276.447 121.331 276.459 121.152 276.434 120.91C276.425 120.665 276.393 120.433 276.336 120.215C276.276 119.979 276.192 119.853 276.084 119.837C275.909 119.745 275.751 119.747 275.61 119.843C275.465 119.921 275.289 120.067 275.08 120.281C274.644 120.799 274.255 121.379 273.911 122.022C273.582 122.644 273.404 123.372 273.376 124.204C273.401 124.64 273.501 124.957 273.677 125.154C273.867 125.332 274.117 125.348 274.426 125.205C274.749 125.042 275.108 124.687 275.504 124.141Z" fill="url(#paint21_linear_10_10)"/>
<path d="M283.667 127.672C282.828 127.804 282.248 127.662 281.927 127.244C281.626 126.84 281.466 126.287 281.447 125.586C281.492 125.244 281.5 124.943 281.471 124.684C281.457 124.405 281.503 124.22 281.61 124.131C281.61 124.131 281.614 124.104 281.622 124.049C281.647 123.992 281.63 123.942 281.569 123.9C281.53 123.679 281.552 123.358 281.636 122.938C281.651 122.829 281.673 122.702 281.7 122.556C281.741 122.391 281.761 122.308 281.761 122.308C281.651 122.186 281.632 122.076 281.702 121.975C281.772 121.874 281.843 121.782 281.917 121.699C282.004 121.595 281.996 121.5 281.892 121.413C281.846 121.35 281.861 121.189 281.938 120.929C282.012 120.652 282.101 120.363 282.206 120.062C282.311 119.762 282.375 119.53 282.399 119.367C282.393 119.333 282.415 119.206 282.463 118.986C282.512 118.766 282.572 118.509 282.643 118.214C282.714 117.92 282.781 117.653 282.843 117.413C282.923 117.169 282.974 117.011 282.996 116.936C283.152 116.82 283.073 116.773 282.76 116.794C282.446 116.814 282.121 116.864 281.782 116.942C281.25 117.02 280.819 117.07 280.489 117.094C280.176 117.115 279.906 117.084 279.68 117.001C279.433 116.799 279.357 116.522 279.453 116.17C279.546 115.802 279.761 115.578 280.1 115.5C280.318 115.443 280.487 115.404 280.607 115.383C280.743 115.358 280.912 115.319 281.114 115.266C281.33 115.192 281.664 115.088 282.115 114.954L283.402 114.618L283.401 114.17C283.498 113.923 283.566 113.761 283.605 113.684C283.644 113.607 283.666 113.532 283.671 113.461C283.673 113.373 283.673 113.223 283.671 113.012C283.671 113.012 283.723 112.862 283.828 112.561C283.93 112.244 283.971 111.928 283.95 111.615C284.094 111.237 284.218 110.898 284.323 110.597C284.425 110.28 284.487 110.084 284.509 110.009C284.723 109.531 284.964 109.25 285.231 109.167C285.515 109.081 285.8 109.1 286.086 109.225C286.255 109.283 286.42 109.368 286.58 109.48C286.738 109.575 286.852 109.722 286.923 109.921C286.99 110.102 286.958 110.364 286.825 110.704C286.803 110.779 286.774 110.916 286.74 111.116C286.702 111.299 286.676 111.453 286.664 111.578C286.582 111.716 286.489 111.935 286.385 112.236C286.294 112.516 286.247 112.798 286.244 113.08C286.16 113.394 286.106 113.589 286.084 113.663C286.062 113.737 286.017 113.781 285.949 113.793C286.013 113.957 286.131 114.024 286.302 113.994C286.469 113.946 286.748 113.879 287.137 113.792C287.455 113.699 287.671 113.626 287.784 113.57C287.912 113.495 288.068 113.484 288.254 113.539C288.361 113.643 288.435 113.815 288.478 114.054C288.534 114.272 288.548 114.499 288.519 114.733C288.488 114.95 288.417 115.095 288.306 115.167C288.221 115.182 288.051 115.266 287.796 115.417C287.555 115.548 287.24 115.657 286.851 115.745L285.517 116.115L285.237 117.063C285.157 117.307 285.091 117.53 285.04 117.733C284.985 117.919 284.943 118.032 284.915 118.072C284.933 118.174 284.901 118.339 284.818 118.565C284.752 118.788 284.681 119.029 284.604 119.29C284.553 119.598 284.481 119.884 284.387 120.147C284.31 120.408 284.272 120.538 284.272 120.538C284.203 120.55 284.178 120.607 284.197 120.71C284.318 120.899 284.32 121.057 284.202 121.184C284.126 121.251 284.063 121.341 284.013 121.456C283.977 121.55 283.959 121.598 283.959 121.598C284.039 121.654 284.063 121.737 284.03 121.849C284.014 121.957 283.982 122.078 283.935 122.209C283.96 122.346 283.952 122.55 283.912 122.821C283.89 123.089 283.855 123.342 283.81 123.579C283.881 123.883 283.933 124.076 283.966 124.158C283.998 124.241 284.047 124.267 284.112 124.238C284.2 124.24 284.32 124.218 284.47 124.174C284.621 124.129 284.73 124.101 284.798 124.089C285.033 123.923 285.02 124.542 284.759 125.944C284.562 126.42 284.351 126.819 284.127 127.141C283.906 127.479 283.752 127.657 283.667 127.672Z" fill="url(#paint22_linear_10_10)"/>
<path d="M292.153 125.044C291.215 125.212 290.441 125.069 289.832 124.614C289.24 124.157 288.844 123.365 288.643 122.238C288.533 121.624 288.524 120.93 288.615 120.157C288.724 119.38 288.903 118.608 289.154 117.842C289.422 117.072 289.74 116.39 290.11 115.795C290.476 115.184 290.872 114.735 291.296 114.447C291.451 114.331 291.62 114.24 291.801 114.172C291.997 114.084 292.189 114.023 292.376 113.99C292.581 113.953 292.806 113.931 293.051 113.922C293.31 113.893 293.558 113.902 293.795 113.947C294.209 113.997 294.591 114.166 294.942 114.455C295.31 114.742 295.551 115.209 295.667 115.857C295.697 116.028 295.714 116.219 295.716 116.43C295.715 116.624 295.689 116.822 295.637 117.025C295.516 117.628 295.27 118.226 294.901 118.821C294.548 119.412 294.143 119.854 293.684 120.148C293.56 120.24 293.433 120.316 293.302 120.375C293.186 120.413 293.059 120.444 292.923 120.469C292.565 120.533 292.231 120.54 291.923 120.489C291.632 120.436 291.352 120.345 291.082 120.217L290.846 120.075L290.763 120.353C290.702 120.699 290.665 120.987 290.653 121.218C290.659 121.446 290.67 121.611 290.689 121.714C290.725 121.919 290.772 122.13 290.828 122.349C290.882 122.551 290.963 122.712 291.073 122.834C291.156 122.907 291.254 122.96 291.365 122.993C291.494 123.022 291.643 123.022 291.814 122.992C291.916 122.973 292.01 122.956 292.096 122.941C292.195 122.906 292.277 122.874 292.342 122.844C292.637 122.721 292.865 122.566 293.025 122.379C293.2 122.171 293.387 121.988 293.588 121.829L293.681 121.759L293.642 121.687C293.904 121.482 294.084 121.353 294.18 121.3C294.273 121.231 294.343 121.174 294.388 121.131C294.444 121.051 294.515 121.003 294.6 120.988C294.833 120.911 295.075 120.938 295.327 121.069C295.594 121.18 295.748 121.354 295.791 121.593C295.809 121.696 295.761 121.872 295.647 122.121C295.55 122.367 295.41 122.621 295.228 122.883C295.06 123.124 294.875 123.324 294.675 123.483C294.627 123.51 294.58 123.544 294.535 123.588C294.487 123.614 294.44 123.649 294.395 123.692L294.42 123.687C294.303 123.92 294.168 124.049 294.015 124.077L293.81 124.114C293.763 124.245 293.564 124.413 293.213 124.617C292.865 124.837 292.512 124.98 292.153 125.044ZM292.385 118.637C292.539 118.609 292.671 118.559 292.781 118.487C292.909 118.411 293.026 118.329 293.133 118.239C293.491 117.876 293.689 117.453 293.726 116.971C293.763 116.489 293.658 116.146 293.411 115.944C293.368 115.899 293.319 115.873 293.265 115.865C293.208 115.84 293.145 115.833 293.077 115.845C292.889 115.879 292.686 115.977 292.469 116.139C292.268 116.298 292.077 116.509 291.894 116.77C291.712 117.032 291.554 117.333 291.422 117.674L291.185 118.271C291.216 118.248 291.24 118.234 291.257 118.231C291.288 118.208 291.312 118.195 291.329 118.192C291.483 118.165 291.594 118.197 291.663 118.291C291.733 118.384 291.811 118.476 291.897 118.566C292.001 118.653 292.164 118.677 292.385 118.637Z" fill="url(#paint23_linear_10_10)"/>
<path d="M299.418 123.427C298.795 123.292 298.325 123.121 298.006 122.914C297.701 122.686 297.556 122.466 297.571 122.252C297.587 122.143 297.63 122.039 297.7 121.938C297.77 121.838 297.952 121.77 298.245 121.735C298.552 121.68 299.035 121.673 299.694 121.714C299.881 121.68 300.068 121.638 300.252 121.587C300.437 121.537 300.603 121.481 300.75 121.419C300.915 121.354 301.044 121.287 301.137 121.218C301.216 121.168 301.234 121.121 301.191 121.076C301.145 121.014 301.073 120.956 300.975 120.903C300.892 120.83 300.806 120.793 300.718 120.791C300.626 120.772 300.547 120.769 300.478 120.781C300.429 120.702 300.337 120.63 300.202 120.566C300.085 120.499 299.94 120.428 299.768 120.353C299.338 120.113 298.948 119.901 298.599 119.717C298.249 119.533 298.098 119.376 298.145 119.244C298.132 119.176 298.126 119.142 298.126 119.142C298.123 119.124 298.122 119.116 298.122 119.116C298.002 119.137 297.863 118.995 297.702 118.689C297.539 118.366 297.433 118.068 297.385 117.795C297.324 117.454 297.331 117.1 297.407 116.735C297.5 116.366 297.63 116.008 297.797 115.661C297.981 115.311 298.171 114.995 298.368 114.714C298.637 114.349 298.925 113.989 299.232 113.635C299.553 113.26 299.905 112.916 300.289 112.6C300.69 112.282 301.143 112.007 301.647 111.776C301.877 111.682 302.146 111.608 302.453 111.553C302.76 111.498 302.989 111.501 303.141 111.562C303.262 111.452 303.437 111.447 303.667 111.547C303.893 111.63 304.128 111.764 304.372 111.949C304.616 112.134 304.809 112.328 304.951 112.532C304.988 112.737 305.025 112.994 305.062 113.305C305.114 113.595 305.143 113.854 305.148 114.082C305.153 114.31 305.096 114.434 304.977 114.456C304.977 114.456 304.953 114.469 304.905 114.495C304.87 114.501 304.861 114.547 304.876 114.632C304.907 114.803 304.814 115.022 304.597 115.289C304.313 115.569 304.037 115.803 303.772 115.992C303.506 116.18 303.286 116.229 303.111 116.137C302.996 116.087 302.89 116.035 302.793 115.982C302.695 115.929 302.603 115.858 302.517 115.767C302.517 115.767 302.485 115.738 302.422 115.679C302.372 115.6 302.342 115.526 302.33 115.458C302.317 115.389 302.332 115.325 302.374 115.265C302.413 115.187 302.433 115.148 302.433 115.148C302.632 114.884 302.775 114.647 302.861 114.438C302.964 114.226 303.029 114.047 303.056 113.901C303.08 113.739 303.084 113.614 303.069 113.529C303.051 113.427 303.014 113.372 302.96 113.364C302.92 113.336 302.832 113.334 302.695 113.358C302.61 113.374 302.434 113.475 302.169 113.664C301.92 113.849 301.66 114.072 301.39 114.332C301.116 114.574 300.907 114.788 300.764 114.972C300.717 115.103 300.68 115.189 300.652 115.23C300.641 115.267 300.601 115.291 300.533 115.304C300.521 115.235 300.479 115.252 300.409 115.352C300.339 115.453 300.258 115.59 300.166 115.765C300.074 115.94 299.983 116.124 299.894 116.316C299.805 116.508 299.736 116.661 299.686 116.776C299.696 116.932 299.679 117.085 299.635 117.234C299.605 117.363 299.611 117.494 299.652 117.627C299.7 117.795 299.814 117.941 299.995 118.068C300.176 118.194 300.433 118.35 300.765 118.537C301.442 118.874 301.947 119.144 302.283 119.349C302.636 119.55 302.886 119.716 303.032 119.848C303.179 119.981 303.283 120.12 303.345 120.268C303.729 120.745 303.845 121.2 303.693 121.632C303.538 122.047 303.249 122.398 302.825 122.685C302.669 122.801 302.384 122.931 301.97 123.076C301.558 123.238 301.112 123.353 300.632 123.421C300.171 123.504 299.766 123.506 299.418 123.427Z" fill="url(#paint24_linear_10_10)"/>
<path d="M308.332 120.3C307.994 120.484 307.707 120.597 307.468 120.64C307.226 120.665 306.942 120.602 306.615 120.449C306.213 120.168 306.033 119.849 306.074 119.489C306.13 119.109 306.375 118.704 306.809 118.275C307.114 118.009 307.343 117.862 307.496 117.835C307.664 117.787 307.922 117.802 308.27 117.881C308.914 118.136 309.242 118.491 309.252 118.947C309.26 119.385 308.953 119.837 308.332 120.3Z" fill="url(#paint25_linear_10_10)"/>
<path fill-rule="evenodd" clip-rule="evenodd" d="M247.051 60.3359L245.371 61.3971L246.43 63.0828L248.11 62.0215L247.051 60.3359ZM243.993 61.0847L246.117 64.4634L249.488 62.334L247.364 58.9553L243.993 61.0847Z" fill="url(#paint26_linear_10_10)"/>
<path fill-rule="evenodd" clip-rule="evenodd" d="M281.914 153.19L280.234 154.252L281.294 155.937L282.974 154.876L281.914 153.19ZM278.856 153.939L280.981 157.318L284.351 155.188L282.227 151.81L278.856 153.939Z" fill="url(#paint27_linear_10_10)"/>
<path fill-rule="evenodd" clip-rule="evenodd" d="M50.9689 178.207C50.4133 179.162 49.1893 179.487 48.235 178.932L35.2469 171.379C34.2968 170.827 33.9715 169.61 34.5187 168.655L41.999 155.605C42.5487 154.646 43.7706 154.314 44.7284 154.863C45.6861 155.412 46.017 156.634 45.4674 157.593L38.976 168.918L50.247 175.472C51.2013 176.027 51.5245 177.252 50.9689 178.207Z" fill="#FF7581"/>
<path fill-rule="evenodd" clip-rule="evenodd" d="M154.142 0.450937C153.038 0.45206 152.143 1.34865 152.143 2.45354L152.143 18.131C152.142 87.7214 105.41 148.675 38.2208 166.721C37.1541 167.007 36.5205 168.105 36.8058 169.172C37.0911 170.239 38.1871 170.872 39.2539 170.585C108.192 152.07 156.141 89.529 156.141 18.1269L156.141 2.4495C156.141 1.34461 155.246 0.449814 154.142 0.450937Z" fill="url(#paint28_linear_10_10)"/>
<path fill-rule="evenodd" clip-rule="evenodd" d="M144.096 142.415L142.695 143.825L144.096 145.234L145.496 143.825L144.096 142.415ZM141.286 143.825L144.096 146.653L146.906 143.825L144.096 140.996L141.286 143.825Z" fill="url(#paint29_linear_10_10)"/>
<defs>
<linearGradient id="paint0_linear_10_10" x1="181.333" y1="145.984" x2="310.146" y2="122.075" gradientUnits="userSpaceOnUse">
<stop stop-color="#FFB347"/>
<stop offset="1" stop-color="#FF7283"/>
</linearGradient>
<linearGradient id="paint1_linear_10_10" x1="181.333" y1="145.984" x2="310.146" y2="122.075" gradientUnits="userSpaceOnUse">
<stop stop-color="#FFB347"/>
<stop offset="1" stop-color="#FF7283"/>
</linearGradient>
<linearGradient id="paint2_linear_10_10" x1="181.333" y1="145.984" x2="310.146" y2="122.075" gradientUnits="userSpaceOnUse">
<stop stop-color="#FFB347"/>
<stop offset="1" stop-color="#FF7283"/>
</linearGradient>
<linearGradient id="paint3_linear_10_10" x1="181.333" y1="145.984" x2="310.146" y2="122.075" gradientUnits="userSpaceOnUse">
<stop stop-color="#FFB347"/>
<stop offset="1" stop-color="#FF7283"/>
</linearGradient>
<linearGradient id="paint4_linear_10_10" x1="181.333" y1="145.984" x2="310.146" y2="122.075" gradientUnits="userSpaceOnUse">
<stop stop-color="#FFB347"/>
<stop offset="1" stop-color="#FF7283"/>
</linearGradient>
<linearGradient id="paint5_linear_10_10" x1="181.333" y1="145.984" x2="310.146" y2="122.075" gradientUnits="userSpaceOnUse">
<stop stop-color="#FFB347"/>
<stop offset="1" stop-color="#FF7283"/>
</linearGradient>
<linearGradient id="paint6_linear_10_10" x1="181.333" y1="145.984" x2="310.146" y2="122.075" gradientUnits="userSpaceOnUse">
<stop stop-color="#FFB347"/>
<stop offset="1" stop-color="#FF7283"/>
</linearGradient>
<linearGradient id="paint7_linear_10_10" x1="181.333" y1="145.984" x2="310.146" y2="122.075" gradientUnits="userSpaceOnUse">
<stop stop-color="#FFB347"/>
<stop offset="1" stop-color="#FF7283"/>
</linearGradient>
<linearGradient id="paint8_linear_10_10" x1="181.333" y1="145.984" x2="310.146" y2="122.075" gradientUnits="userSpaceOnUse">
<stop stop-color="#FFB347"/>
<stop offset="1" stop-color="#FF7283"/>
</linearGradient>
<linearGradient id="paint9_linear_10_10" x1="181.333" y1="145.984" x2="310.146" y2="122.075" gradientUnits="userSpaceOnUse">
<stop stop-color="#FFB347"/>
<stop offset="1" stop-color="#FF7283"/>
</linearGradient>
<linearGradient id="paint10_linear_10_10" x1="181.333" y1="145.984" x2="310.146" y2="122.075" gradientUnits="userSpaceOnUse">
<stop stop-color="#FFB347"/>
<stop offset="1" stop-color="#FF7283"/>
</linearGradient>
<linearGradient id="paint11_linear_10_10" x1="181.333" y1="145.984" x2="310.146" y2="122.075" gradientUnits="userSpaceOnUse">
<stop stop-color="#FFB347"/>
<stop offset="1" stop-color="#FF7283"/>
</linearGradient>
<linearGradient id="paint12_linear_10_10" x1="181.333" y1="145.984" x2="310.146" y2="122.075" gradientUnits="userSpaceOnUse">
<stop stop-color="#FFB347"/>
<stop offset="1" stop-color="#FF7283"/>
</linearGradient>
<linearGradient id="paint13_linear_10_10" x1="181.333" y1="145.984" x2="310.146" y2="122.075" gradientUnits="userSpaceOnUse">
<stop stop-color="#FFB347"/>
<stop offset="1" stop-color="#FF7283"/>
</linearGradient>
<linearGradient id="paint14_linear_10_10" x1="181.333" y1="145.984" x2="310.146" y2="122.075" gradientUnits="userSpaceOnUse">
<stop stop-color="#FFB347"/>
<stop offset="1" stop-color="#FF7283"/>
</linearGradient>
<linearGradient id="paint15_linear_10_10" x1="181.333" y1="145.984" x2="310.146" y2="122.075" gradientUnits="userSpaceOnUse">
<stop stop-color="#FFB347"/>
<stop offset="1" stop-color="#FF7283"/>
</linearGradient>
<linearGradient id="paint16_linear_10_10" x1="181.333" y1="145.984" x2="310.146" y2="122.075" gradientUnits="userSpaceOnUse">
<stop stop-color="#FFB347"/>
<stop offset="1" stop-color="#FF7283"/>
</linearGradient>
<linearGradient id="paint17_linear_10_10" x1="181.333" y1="145.984" x2="310.146" y2="122.075" gradientUnits="userSpaceOnUse">
<stop stop-color="#FFB347"/>
<stop offset="1" stop-color="#FF7283"/>
</linearGradient>
<linearGradient id="paint18_linear_10_10" x1="181.333" y1="145.984" x2="310.146" y2="122.075" gradientUnits="userSpaceOnUse">
<stop stop-color="#FFB347"/>
<stop offset="1" stop-color="#FF7283"/>
</linearGradient>
<linearGradient id="paint19_linear_10_10" x1="181.333" y1="145.984" x2="310.146" y2="122.075" gradientUnits="userSpaceOnUse">
<stop stop-color="#FFB347"/>
<stop offset="1" stop-color="#FF7283"/>
</linearGradient>
<linearGradient id="paint20_linear_10_10" x1="181.333" y1="145.984" x2="310.146" y2="122.075" gradientUnits="userSpaceOnUse">
<stop stop-color="#FFB347"/>
<stop offset="1" stop-color="#FF7283"/>
</linearGradient>
<linearGradient id="paint21_linear_10_10" x1="181.333" y1="145.984" x2="310.146" y2="122.075" gradientUnits="userSpaceOnUse">
<stop stop-color="#FFB347"/>
<stop offset="1" stop-color="#FF7283"/>
</linearGradient>
<linearGradient id="paint22_linear_10_10" x1="181.333" y1="145.984" x2="310.146" y2="122.075" gradientUnits="userSpaceOnUse">
<stop stop-color="#FFB347"/>
<stop offset="1" stop-color="#FF7283"/>
</linearGradient>
<linearGradient id="paint23_linear_10_10" x1="181.333" y1="145.984" x2="310.146" y2="122.075" gradientUnits="userSpaceOnUse">
<stop stop-color="#FFB347"/>
<stop offset="1" stop-color="#FF7283"/>
</linearGradient>
<linearGradient id="paint24_linear_10_10" x1="181.333" y1="145.984" x2="310.146" y2="122.075" gradientUnits="userSpaceOnUse">
<stop stop-color="#FFB347"/>
<stop offset="1" stop-color="#FF7283"/>
</linearGradient>
<linearGradient id="paint25_linear_10_10" x1="181.333" y1="145.984" x2="310.146" y2="122.075" gradientUnits="userSpaceOnUse">
<stop stop-color="#FFB347"/>
<stop offset="1" stop-color="#FF7283"/>
</linearGradient>
<linearGradient id="paint26_linear_10_10" x1="245.678" y1="60.02" x2="247.81" y2="63.3942" gradientUnits="userSpaceOnUse">
<stop stop-color="#7CA1FF"/>
<stop offset="1" stop-color="#5AB9FE"/>
</linearGradient>
<linearGradient id="paint27_linear_10_10" x1="280.981" y1="157.318" x2="284.359" y2="155.182" gradientUnits="userSpaceOnUse">
<stop stop-color="#FFB347"/>
<stop offset="1" stop-color="#FF7283"/>
</linearGradient>
<linearGradient id="paint28_linear_10_10" x1="-5.63231" y1="161.459" x2="2.06699" y2="-17.7908" gradientUnits="userSpaceOnUse">
<stop stop-color="#FF7283"/>
<stop offset="1" stop-color="#FFB347"/>
</linearGradient>
<linearGradient id="paint29_linear_10_10" x1="142.323" y1="142.04" x2="146.379" y2="146.07" gradientUnits="userSpaceOnUse">
<stop stop-color="#FF76EC"/>
<stop offset="1" stop-color="#8A87E9"/>
</linearGradient>
</defs>
</svg>
