<svg width="211" height="174" viewBox="0 0 211 174" fill="none" xmlns="http://www.w3.org/2000/svg">
<rect x="53.3516" y="4.82843" width="3" height="3" transform="rotate(-45 53.3516 4.82843)" stroke="url(#paint0_linear_9_9)"/>
<rect x="110.352" y="21.8284" width="3" height="3" transform="rotate(-45 110.352 21.8284)" stroke="url(#paint1_linear_9_9)"/>
<path d="M39.8107 48.6858C39.4874 48.7049 39.2244 48.7125 39.0215 48.7087C38.8243 48.7212 38.7257 48.7275 38.7257 48.7275C38.7304 48.6343 38.6888 48.5661 38.6007 48.523C38.529 48.4742 38.4002 48.4725 38.2142 48.5179C37.9121 48.4381 37.5793 48.2956 37.2159 48.0902C36.8524 47.8849 36.519 47.6601 36.2155 47.4159C35.9121 47.1717 35.7023 46.987 35.5861 46.8619C35.3871 46.6552 35.3448 46.5048 35.4591 46.4107C35.5679 46.3002 35.6984 46.173 35.8507 46.0293C35.9862 45.8363 36.1411 45.6734 36.3154 45.5404C36.5061 45.4018 36.7148 45.4495 36.9415 45.6833C37.2838 45.9875 37.7212 46.195 38.2538 46.3058C38.8028 46.411 39.3727 46.3899 39.9635 46.2426C40.5707 46.0897 41.1274 45.7892 41.6336 45.3411C41.9654 45.0259 42.0943 44.707 42.0205 44.3842C41.941 44.045 41.6889 43.7099 41.2641 43.379C41.17 43.2646 41.0597 43.1833 40.9332 43.135C40.8232 43.0811 40.6555 43.0194 40.4302 42.9499C40.2213 42.8749 39.9105 42.7431 39.4979 42.5546C39.2126 42.524 38.9465 42.4961 38.6996 42.4706C38.4692 42.4396 38.2195 42.406 37.9506 42.3698C37.6433 42.3285 37.2864 42.2491 36.8798 42.1318C36.4676 41.9981 36.0744 41.8396 35.7002 41.6563C35.3203 41.4566 35.0117 41.2508 34.7743 41.0389C34.4277 40.8828 34.1486 40.6027 33.937 40.1988C33.7198 39.7785 33.568 39.3083 33.4816 38.7883C33.4115 38.2626 33.4157 37.7665 33.4942 37.3C33.514 37.0367 33.5933 36.6798 33.7322 36.2292C33.8654 35.7622 34.0287 35.2757 34.2219 34.7699C34.4151 34.264 34.606 33.8048 34.7945 33.3921C34.9938 32.9575 35.164 32.6519 35.3051 32.4753C35.3913 32.2992 35.4858 32.1203 35.5885 31.9386C35.6856 31.7405 35.7341 31.6414 35.7341 31.6414C35.7224 31.5538 35.733 31.5044 35.7658 31.4931C35.815 31.4763 35.8396 31.4679 35.8396 31.4679C35.9047 31.3906 36.057 31.2468 36.2965 31.0366C36.536 30.8264 36.7664 30.5093 36.9877 30.0855C37.9067 29.1845 38.7208 28.5119 39.4298 28.0677C40.1331 27.607 40.7062 27.3009 41.149 27.1493C41.5646 27.0253 42.0056 27.0026 42.4722 27.081C42.9331 27.143 43.3563 27.2821 43.7418 27.4983C44.1437 27.7088 44.4365 28.0024 44.6205 28.3791C44.87 28.7334 44.9755 29.2286 44.9368 29.8648C44.9088 30.4789 44.7823 31.0994 44.5572 31.7261C44.3428 32.3308 44.07 32.8181 43.7386 33.1881C43.3468 33.542 42.9616 33.7014 42.5831 33.6661C42.221 33.6252 41.9948 33.4461 41.9046 33.1289C41.8596 32.9977 41.8473 32.8279 41.8675 32.6194C41.9042 32.4054 42.0489 31.9986 42.3016 31.399C42.5625 30.4486 42.6532 29.8038 42.5737 29.4646C42.4943 29.1254 42.2821 28.9874 41.9373 29.0504C41.8277 29.0513 41.6419 29.1241 41.3799 29.2687C41.118 29.4134 40.8371 29.5828 40.5372 29.7771C40.2481 29.9494 39.9945 30.1186 39.7766 30.2848C39.5751 30.4454 39.48 30.5421 39.4912 30.5749C39.4912 30.5749 39.4996 30.5995 39.5165 30.6487C39.5333 30.6979 39.5061 30.7256 39.4349 30.7316C39.4021 30.7428 39.307 30.8395 39.1495 31.0217C39.0028 31.1819 38.8263 31.3888 38.6201 31.6427C38.4138 31.8965 38.2104 32.1585 38.0098 32.4287C37.8199 32.6769 37.6573 32.8975 37.5218 33.0905C37.3863 33.2834 37.316 33.3991 37.3109 33.4375C37.3398 33.6291 37.2074 33.8577 36.9135 34.1232C36.6529 34.4322 36.4614 34.8093 36.3389 35.2543C36.2165 35.6992 36.0867 36.2567 35.9496 36.9265C35.7999 37.3991 35.7435 37.8765 35.7803 38.3585C35.8115 38.8242 35.9294 39.1686 36.134 39.3917C36.3058 39.626 36.6171 39.8126 37.0677 39.9514C37.5291 40.0683 38.1441 40.2058 38.9128 40.364C39.577 40.4847 40.2141 40.633 40.8239 40.809C41.4338 40.9849 41.9671 41.1779 42.4237 41.388C42.8748 41.5817 43.186 41.7683 43.3574 41.9478C43.6496 42.1592 43.8739 42.4397 44.0302 42.7892C44.2029 43.1331 44.3236 43.4857 44.3923 43.8469C44.4718 44.1861 44.5153 44.4736 44.5227 44.7092C44.4977 45.0109 44.4127 45.3514 44.2678 45.7308C44.1393 46.1046 43.9738 46.317 43.7714 46.368C43.6079 46.4789 43.4882 46.584 43.4122 46.6833C43.3527 46.777 43.2739 46.8681 43.176 46.9566C43.0837 47.0615 42.8383 47.2279 42.44 47.4559C42.0474 47.7002 41.6053 47.934 41.1137 48.1573C40.6278 48.3969 40.1935 48.5731 39.8107 48.6858ZM47.5323 43.6788C47.4218 43.5701 47.2293 43.4894 46.9548 43.4368C46.6967 43.3786 46.5564 43.3167 46.5339 43.2511C46.5115 43.1855 46.4368 43.1012 46.3099 42.9981C46.1938 42.8729 46.0917 42.7888 46.0036 42.7457C45.8879 42.6753 45.8311 42.4291 45.8332 42.007C45.8296 41.5685 45.8636 41.0256 45.9351 40.3782C46.0066 39.7308 46.0999 39.0668 46.2149 38.3862C46.3012 38.2101 46.3735 37.993 46.4317 37.7349C46.4899 37.4768 46.5405 37.3037 46.5837 37.2156C46.5612 37.15 46.5662 37.0842 46.5985 37.0182C46.6253 36.9357 46.6714 36.8833 46.737 36.8608L46.7991 36.3999C46.8094 36.3231 46.8629 36.1582 46.9595 35.9053C47.0725 35.6467 47.2127 35.3605 47.3801 35.0467C47.5419 34.7165 47.7092 34.4027 47.8822 34.1053C48.0716 33.8023 48.2315 33.5736 48.3618 33.419C48.6276 33.0715 48.9436 32.8442 49.31 32.7371C49.6928 32.6244 50.0519 32.6297 50.3873 32.753C50.4533 32.7854 50.5936 32.8473 50.8081 32.9387C51.039 33.0246 51.292 33.1212 51.5669 33.2286C51.8582 33.3304 52.1112 33.427 52.3257 33.5184L53.5137 34.0186L53.5166 35.3917C53.528 36.1206 53.6671 36.7142 53.934 37.1725C54.2008 37.6308 54.5026 38.0038 54.8393 38.2916C54.983 38.4439 55.1373 38.5468 55.3022 38.6003C55.4835 38.6482 55.6945 38.6492 55.9353 38.6034C56.0721 38.5749 56.212 38.5819 56.3548 38.6246C56.4977 38.6673 56.6 38.7789 56.6618 38.9593C56.7965 39.3528 56.821 39.6651 56.7352 39.896C56.6601 40.1049 56.5462 40.2538 56.3934 40.3428C55.8747 40.5936 55.3385 40.7131 54.7848 40.7011C54.2311 40.6892 53.6283 40.3734 52.9765 39.7538C52.8772 39.6779 52.7252 39.5284 52.5206 39.3053C52.3268 39.0602 52.2076 38.8994 52.1631 38.8231C52.1256 38.9275 52.0719 39.065 52.002 39.2355C51.9429 39.384 51.881 39.5242 51.8163 39.6563C51.0563 41.2357 50.3198 42.3489 49.607 42.996C48.9049 43.6211 48.2134 43.8487 47.5323 43.6788ZM48.1862 41.174C48.3066 41.1511 48.4674 41.0319 48.6684 40.8165C48.8639 40.5847 49.1104 40.2346 49.4081 39.7663C49.8029 39.0998 50.1273 38.5491 50.3814 38.114C50.6355 37.6789 50.8505 37.1564 51.0265 36.5465L51.2644 35.4757C50.9713 35.1547 50.7395 34.9592 50.569 34.8893C50.3985 34.8195 50.2477 34.807 50.1165 34.8519C49.9033 34.9249 49.6969 35.1513 49.4971 35.5311C49.2918 35.8946 49.0903 36.4032 48.8928 37.0571C48.7061 37.689 48.5151 38.4689 48.3198 39.3969C48.2301 39.8307 48.1869 40.2394 48.19 40.623C48.1875 40.9903 48.1862 41.174 48.1862 41.174ZM59.1132 38.8345C58.9648 38.7754 58.7079 38.5336 58.3427 38.109C57.9939 37.6788 57.617 37.1666 57.212 36.5724C56.8234 35.9725 56.4845 35.4107 56.1952 34.8868C56.0174 34.5813 55.8481 34.3278 55.6875 34.1263C55.5433 33.9192 55.4214 33.7502 55.3216 33.6195C55.1386 33.3524 55.0565 33.0324 55.0754 32.6595C55.1107 32.281 55.2071 32.0006 55.3646 31.8185C55.4297 31.7412 55.5661 31.6579 55.7737 31.5685C55.992 31.4571 56.1368 31.3984 56.208 31.3923C56.4273 31.3905 56.7115 31.6321 57.0608 32.1172C57.4044 32.5858 57.7906 33.2322 58.2194 34.0564C58.459 34.5423 58.6374 34.9027 58.7544 35.1374C58.8822 35.3502 58.9573 35.4893 58.9798 35.5549C59.0903 35.6637 59.1874 35.8136 59.2712 36.0048C59.3657 36.1739 59.4562 36.1705 59.5424 35.9944C59.5856 35.9063 59.6447 35.7578 59.7197 35.5489C59.8111 35.3344 59.9103 35.0623 60.0173 34.7325C60.2045 34.1554 60.3459 33.6856 60.4417 33.3231C60.5482 32.9385 60.6765 32.5373 60.8266 32.1195C60.8852 31.9162 60.9792 31.6825 61.1087 31.4183C61.2381 31.1542 61.3731 30.9064 61.5137 30.6751C61.6488 30.4273 61.7763 30.2646 61.8962 30.1869C62.2673 29.9865 62.5557 30.0527 62.7612 30.3854C62.9775 30.6961 63.0002 31.1372 62.8294 31.7086C62.7656 31.9503 62.7236 32.1754 62.7034 32.3839C62.6939 32.5703 62.6676 32.7076 62.6245 32.7956C62.5831 33.1029 62.4932 33.5093 62.3548 34.0147C62.2108 34.5037 62.0665 34.9653 61.922 35.3995C61.7719 35.8173 61.6645 36.0923 61.5998 36.2243C61.5567 36.3124 61.4512 36.4859 61.2834 36.7449C61.132 36.9983 61.0056 37.298 60.9042 37.6442C60.6398 38.1561 60.3412 38.5148 60.0085 38.7203C59.6758 38.9259 59.3774 38.9639 59.1132 38.8345ZM68.3957 37.6077C67.4938 37.9165 66.707 37.8927 66.0354 37.5364C65.3801 37.1744 64.8672 36.4523 64.4967 35.37C64.2946 34.7796 64.1794 34.0954 64.1512 33.3172C64.1393 32.5335 64.1987 31.7437 64.3293 30.9478C64.4763 30.1463 64.6869 29.4238 64.9613 28.7802C65.23 28.1203 65.5521 27.6161 65.9275 27.2677C66.0634 27.1296 66.2159 27.0132 66.3851 26.9187C66.565 26.8021 66.7452 26.713 66.9256 26.6512C67.1223 26.5838 67.3411 26.5272 67.582 26.4814C67.8336 26.4136 68.08 26.3842 68.3212 26.3932C68.7377 26.3789 69.1415 26.488 69.5326 26.7205C69.94 26.9474 70.2504 27.3725 70.4638 27.9956C70.5199 28.1596 70.5653 28.3456 70.5999 28.5536C70.6288 28.7452 70.6332 28.9453 70.6129 29.1537C70.585 29.7679 70.4339 30.3967 70.1596 31.0403C69.9016 31.6782 69.5686 32.177 69.1604 32.5366C69.0516 32.6471 68.9373 32.7412 68.8173 32.819C68.7082 32.8747 68.588 32.925 68.4568 32.9699C68.1124 33.0878 67.784 33.1453 67.4715 33.1423C67.1754 33.1337 66.8845 33.0868 66.5988 33.0014L66.3431 32.8966L66.3043 33.1847C66.2962 33.5355 66.304 33.826 66.3278 34.056C66.368 34.2804 66.4049 34.4418 66.4386 34.5402C66.506 34.737 66.5844 34.9392 66.6738 35.1468C66.7575 35.3379 66.8629 35.4851 66.9898 35.5882C67.0835 35.6477 67.1879 35.6853 67.3031 35.7008C67.4348 35.7107 67.5826 35.6875 67.7466 35.6314C67.845 35.5977 67.9352 35.5668 68.0172 35.5388C68.1099 35.4887 68.1863 35.4442 68.2463 35.4053C68.519 35.2387 68.7203 35.0507 68.8502 34.8413C68.9908 34.61 69.1481 34.4004 69.322 34.2126L69.4035 34.1298L69.3536 34.0644C69.5819 33.8213 69.7396 33.6666 69.8268 33.6001C69.9083 33.5172 69.9681 33.451 70.006 33.4013C70.0492 33.3133 70.1118 33.2552 70.1937 33.2271C70.4121 33.1157 70.6559 33.1055 70.9253 33.1965C71.2054 33.2655 71.3847 33.4148 71.4633 33.6444C71.497 33.7428 71.4766 33.9238 71.402 34.1875C71.3438 34.4456 71.2446 34.7178 71.1044 35.004C70.975 35.2681 70.8233 35.4941 70.6494 35.6819C70.6058 35.7151 70.5651 35.7566 70.5271 35.8062C70.4835 35.8394 70.4427 35.8809 70.4048 35.9305L70.4294 35.9221C70.3492 36.1694 70.2353 36.3183 70.0877 36.3689L69.8909 36.4362C69.8646 36.5735 69.6935 36.7695 69.3776 37.0242C69.0674 37.2953 68.7401 37.4898 68.3957 37.6077ZM67.6452 31.2416C67.7928 31.191 67.9156 31.1215 68.0135 31.033C68.1279 30.9389 68.2312 30.8394 68.3235 30.7345C68.6217 30.321 68.7523 29.8732 68.7155 29.3911C68.6787 28.9091 68.5227 28.5869 68.2473 28.4247C68.1976 28.3867 68.1454 28.368 68.0906 28.3684C68.0302 28.3525 67.9672 28.3557 67.9016 28.3782C67.7212 28.4399 67.5358 28.5675 67.3456 28.7609C67.1717 28.9487 67.0146 29.1857 66.8744 29.4718C66.7342 29.758 66.6245 30.0796 66.5451 30.4365L66.4022 31.0625C66.4294 31.0349 66.4512 31.0183 66.4676 31.0127C66.4948 30.985 66.5166 30.9684 66.533 30.9628C66.6805 30.9123 66.7958 30.9278 66.8787 31.0093C66.9616 31.0909 67.0526 31.1696 67.1519 31.2456C67.2676 31.3159 67.432 31.3146 67.6452 31.2416ZM81.0264 32.7612C80.7861 32.8618 80.5593 32.9486 80.3461 33.0216C80.1493 33.089 79.9823 33.1095 79.845 33.0832C79.4657 32.9383 79.2015 32.8089 79.0526 32.695C78.92 32.5755 78.8229 32.4255 78.7611 32.2451C78.6989 32.0099 78.6285 31.7775 78.5499 31.548C78.4657 31.302 78.4012 31.1134 78.3562 30.9822C78.2682 30.9391 78.1623 31.0578 78.0385 31.3383C77.9147 31.6189 77.7553 31.9025 77.5602 32.1891C77.2484 32.9371 76.9406 33.5097 76.6368 33.9068C76.3275 34.2875 76.0144 34.5504 75.6977 34.6955C75.3866 34.857 75.0614 34.9775 74.7222 35.057C74.4158 35.1252 74.1029 35.0675 73.7834 34.8837C73.4804 34.6943 73.207 34.4307 72.963 34.0928C72.7355 33.7493 72.5764 33.3916 72.4857 33.0196C72.3375 32.3191 72.2773 31.6619 72.3052 31.0477C72.3275 30.4172 72.448 29.7255 72.6666 28.9728C72.7736 28.643 72.9377 28.2662 73.159 27.8423C73.3967 27.4129 73.6675 26.9996 73.9712 26.6024C74.2693 26.1889 74.5545 25.8714 74.8268 25.6499C75.2294 25.2739 75.5893 25.0408 75.9065 24.9505C76.2401 24.8546 76.5767 24.7944 76.9163 24.7697C77.1852 24.8059 77.3852 24.8015 77.5164 24.7566C77.664 24.7061 77.7426 24.5876 77.752 24.4011C77.8055 24.2362 77.8231 24.047 77.805 23.8334C77.7868 23.6197 77.8042 23.4031 77.8572 23.1834L77.851 21.3992C77.8798 20.8947 77.9189 20.3133 77.9684 19.6552C78.0179 18.997 78.0777 18.262 78.1479 17.4502C78.3061 16.6815 78.5108 16.2358 78.7619 16.1132C79.0295 15.9849 79.367 16.0343 79.7745 16.2612C80.0386 16.3906 80.2294 16.6001 80.3469 16.8897C80.4751 17.1572 80.5136 17.5105 80.4624 17.9494C80.4093 18.1691 80.3649 18.4408 80.3292 18.7645C80.2878 19.0718 80.2387 19.4367 80.1818 19.8592C80.1474 20.3473 80.1048 20.8383 80.054 21.332C80.0196 21.8202 79.991 22.3521 79.9683 22.9278C79.9925 23.2127 80.0062 23.5469 80.0093 23.9306C80.0288 24.3087 80.0535 24.6483 80.0833 24.9496C80.124 25.2288 80.1508 25.4944 80.1638 25.7465C80.1876 25.9765 80.1667 26.1027 80.1011 26.1252C80.0092 26.2849 79.9704 26.573 79.9848 26.9895C79.9935 27.3895 80.027 27.8086 80.0854 28.2466C80.1602 28.6791 80.2179 29.0349 80.2585 29.3141C80.2931 29.5221 80.3639 29.8093 80.471 30.1757C80.5725 30.5257 80.6794 30.8647 80.7917 31.1927C80.8984 31.5043 80.9714 31.7174 81.0107 31.8322C81.1174 32.1438 81.1685 32.3736 81.1643 32.5217C81.1708 32.6477 81.1248 32.7275 81.0264 32.7612ZM74.8019 32.7212C75.1791 32.5921 75.4783 32.3156 75.6996 31.8917C75.9317 31.4459 76.191 30.9723 76.4774 30.4712C76.6392 30.141 76.8008 29.7834 76.9621 29.3984C77.1178 28.997 77.2517 28.6122 77.3638 28.244C77.4923 27.8703 77.5857 27.5543 77.6439 27.2962C77.7021 27.0381 77.72 26.8763 77.6975 26.8107C77.6695 26.7287 77.5786 26.6773 77.425 26.6567C77.2877 26.6304 77.1315 26.6289 76.9563 26.6522C76.7754 26.6592 76.625 26.7015 76.5051 26.7792C76.1508 27.0288 75.89 27.3104 75.7226 27.6242C75.5716 27.9324 75.3589 28.4083 75.0846 29.0518C74.8271 29.7446 74.6514 30.3819 74.5574 30.9637C74.4635 31.5455 74.4371 32.0034 74.4781 32.3374C74.53 32.6494 74.6379 32.7774 74.8019 32.7212ZM27.781 79.4065C27.8091 79.4885 27.7681 79.5026 27.6581 79.4486C27.5536 79.4111 27.3887 79.3576 27.1634 79.2882C26.9653 79.1911 26.7285 79.0615 26.4532 78.8993C26.1778 78.7371 25.9949 78.4974 25.9047 78.1802C25.8575 77.7749 25.817 77.1751 25.7832 76.3805C25.7437 75.5696 25.734 74.7118 25.7541 73.8072C25.6802 73.4844 25.6396 73.2052 25.6322 72.9695C25.6412 72.7283 25.6457 72.6076 25.6457 72.6076C25.6509 72.5692 25.6668 72.5088 25.6936 72.4264C25.7147 72.3275 25.7688 72.2449 25.856 72.1784C25.9155 72.0847 25.9062 71.9505 25.8281 71.7757C25.7443 71.5846 25.6858 71.4672 25.6526 71.4236C25.5834 71.0076 25.5485 70.4241 25.5479 69.6731C25.5417 68.9058 25.5652 68.0916 25.6186 67.2305C25.6663 66.3531 25.7172 65.5387 25.7714 64.7873C25.8029 64.6117 25.829 64.447 25.8496 64.2934C25.8647 64.1233 25.8722 64.0383 25.8722 64.0383C25.8006 63.9895 25.7207 63.9436 25.6327 63.9004C25.5446 63.8573 25.44 63.7924 25.3187 63.7057C25.1257 63.5702 24.9599 63.4071 24.8214 63.2164C24.6936 63.0036 24.6808 62.779 24.783 62.5425C24.8041 62.4436 24.8578 62.3061 24.9441 62.13C25.0468 61.9483 25.1605 61.772 25.2852 61.6011C25.5893 61.2587 25.9022 60.9684 26.2236 60.7301C26.5559 60.4698 26.8837 60.3301 27.2069 60.311C27.7373 60.1478 28.1449 60.054 28.4297 60.0298C28.731 59.9999 28.9832 60.0143 29.1865 60.073C29.3074 60.1049 29.4062 60.126 29.483 60.1364C29.5763 60.1411 29.6885 60.121 29.8197 60.0761C30.1097 60.0134 30.4741 60.0077 30.9131 60.059C31.3464 60.0938 31.7415 60.1509 32.0985 60.2303C32.4554 60.3096 32.6697 60.3736 32.7413 60.4224C33.1648 60.5889 33.5809 60.8678 33.9897 61.2592C34.3985 61.6505 34.7342 62.1493 34.9967 62.7557C35.1258 63.1328 35.2245 63.4746 35.2928 63.781C35.3554 64.071 35.3771 64.3751 35.3577 64.6932C35.3328 64.9948 35.2509 65.371 35.112 65.8216C34.8839 66.7608 34.53 67.7339 34.0503 68.7409C33.587 69.7422 32.9045 70.7454 32.0027 71.7503C31.9924 71.8272 31.9767 71.915 31.9555 72.0138C31.9452 72.0907 31.94 72.1291 31.94 72.1291C31.9849 72.2603 32.1259 72.4044 32.3629 72.5614C32.6162 72.7128 32.9162 72.8666 33.2628 73.0228C33.6038 73.1625 33.953 73.2995 34.3104 73.4336C34.6842 73.5621 35.0167 73.6773 35.3081 73.7791C35.6102 73.8589 35.8299 73.9119 35.9671 73.9382C36.1579 73.7996 36.3216 73.7161 36.4584 73.6875C36.5896 73.6426 36.7077 73.6663 36.8126 73.7587C36.9175 73.851 37.0258 74.0338 37.1377 74.3069C37.1943 74.5257 37.207 74.7504 37.176 74.9808C37.145 75.2113 37.1105 75.3514 37.0725 75.401C36.975 75.5443 36.8913 75.7012 36.8215 75.8717C36.768 76.0366 36.6731 76.1607 36.5367 76.244C36.4003 76.3273 36.1701 76.3237 35.846 76.2332C35.0294 76.2562 34.2165 76.049 33.4071 75.6116C32.6142 75.1685 31.7471 74.696 30.8057 74.1938C30.5963 74.0639 30.4312 73.9831 30.3104 73.9512C30.1839 73.9028 30.0633 73.8983 29.9485 73.9376C29.8337 73.9769 29.6699 74.0605 29.4572 74.1883C29.3316 74.2496 29.1892 74.2617 29.0299 74.2246C28.8871 74.182 28.7276 74.1175 28.5515 74.0312C28.4742 73.966 28.3918 73.9393 28.3041 73.951C28.2329 73.957 28.1896 74.0177 28.1741 74.1329C28.175 74.2425 28.1683 74.4372 28.1541 74.7169C28.1507 74.9745 28.1392 75.235 28.1194 75.4982C28.116 75.7559 28.0957 75.9644 28.0587 76.1236C28.142 76.26 28.2105 76.5938 28.2641 77.1251C28.3121 77.6399 28.3358 78.1906 28.3351 78.7772C28.3308 78.9252 28.2963 79.0652 28.2316 79.1973C28.1725 79.3458 28.1071 79.3957 28.0354 79.3469C27.9418 79.2874 27.8703 79.266 27.8212 79.2829C27.7884 79.2941 27.775 79.3353 27.781 79.4065ZM29.8487 70.7565C30.2737 70.4461 30.6653 70.0647 31.0234 69.6123C31.3923 69.1379 31.7087 68.6173 31.9727 68.0506C32.2367 67.4839 32.4185 66.9178 32.5181 66.3524C32.6156 66.2091 32.6852 66.0112 32.7271 65.7587C32.7632 65.4898 32.8139 65.3167 32.8791 65.2395C32.9649 65.0086 33.0156 64.8355 33.0311 64.7202C33.063 64.5994 33.0127 64.4792 32.8802 64.3597C32.8352 64.2285 32.8095 64.0999 32.803 63.9739C32.8073 63.8258 32.8062 63.6888 32.7997 63.5628C32.8031 63.3051 32.7329 63.1001 32.5892 62.9478C32.4618 62.7899 32.1538 62.6663 31.6653 62.5771C31.484 62.5292 31.3001 62.5006 31.1137 62.4911C30.938 62.4597 30.7488 62.442 30.5459 62.4382C30.3539 62.4123 30.1344 62.3867 29.8875 62.3613C29.6251 62.4511 29.3349 62.4864 29.0168 62.467C28.7095 62.4257 28.4849 62.4384 28.3429 62.5054C28.2665 62.5498 28.2182 62.6763 28.198 62.8848C28.1885 63.0712 28.1962 63.3343 28.2208 63.6739C28.2451 63.9588 28.2445 64.2246 28.2191 64.4715C28.2045 64.6963 28.1428 64.864 28.034 64.9745C28.0401 65.0457 28.0449 65.3006 28.0485 65.7391C28.052 66.1776 28.0562 66.6983 28.0611 67.3012C28.0604 67.8877 28.0625 68.4824 28.0674 69.0854C28.0666 69.6719 28.0735 70.1734 28.0878 70.5899C28.1021 71.0063 28.1205 71.2474 28.143 71.313C28.1542 71.3458 28.2231 71.3863 28.3495 71.4346C28.4924 71.4773 28.6076 71.4928 28.6952 71.4811C28.6952 71.4811 28.706 71.4591 28.7276 71.4151C28.7492 71.3711 28.7791 71.3517 28.8176 71.3568L29.4514 71.4421L29.8487 70.7565ZM40.4656 73.9096C39.7362 73.8661 39.1475 73.5914 38.6994 73.0852C38.2513 72.5791 37.9162 71.8144 37.6941 70.7911C37.5528 70.2716 37.4214 69.941 37.2996 69.7995C37.1723 69.6415 36.9903 69.5114 36.7538 69.4092C36.6821 69.3605 36.5308 69.2932 36.2999 69.2073C36.0634 69.1051 35.9393 69.0102 35.9276 68.9226C35.8719 68.8134 35.8488 68.6656 35.8583 68.4791C35.8621 68.2763 35.8858 68.1583 35.9294 68.125C36.0273 68.0365 36.1225 67.9398 36.2148 67.8349C36.3235 67.7244 36.4163 67.6743 36.4931 67.6847C36.5587 67.6622 36.6712 67.6695 36.8304 67.7066C37.0061 67.7381 37.1052 67.7866 37.1276 67.8522C37.2325 67.9445 37.3141 67.8616 37.3723 67.6035C37.4469 67.3398 37.51 67.0159 37.5617 66.6318C37.6359 66.3133 37.7566 65.9971 37.924 65.6833C38.0914 65.3695 38.2672 65.0803 38.4514 64.8157C38.6464 64.5291 38.8173 64.3057 38.964 64.1455C39.0348 64.0847 39.1737 63.9821 39.3808 63.8379C39.6044 63.6881 39.8417 63.5519 40.0929 63.4293C40.3384 63.2903 40.5296 63.2065 40.6664 63.178C40.9672 63.0933 41.3208 63.1096 41.7274 63.2269C42.134 63.3442 42.4612 63.4704 42.7089 63.6054C42.9727 63.68 43.1906 63.8619 43.3629 64.151C43.546 64.4181 43.6854 64.7184 43.7813 65.052C43.8772 65.3856 43.9071 65.6869 43.8709 65.9558C43.8778 66.1366 43.7842 66.4251 43.5901 66.8214C43.396 67.2176 43.1663 67.6169 42.9009 68.0192C42.6464 68.3995 42.413 68.6809 42.2007 68.8635C42.0043 68.9857 41.7642 69.1137 41.4802 69.2476C41.1907 69.365 40.9119 69.4605 40.6439 69.5339C40.3867 69.5853 40.2005 69.6033 40.0852 69.5878C39.948 69.5615 39.858 69.6198 39.8153 69.7626C39.7834 69.8835 39.8214 70.1819 39.9295 70.6579C39.9748 70.8439 40.0282 70.9997 40.0895 71.1253C40.1672 71.2452 40.2337 71.3324 40.2889 71.3868C40.4711 71.5443 40.6364 71.6526 40.7849 71.7116C40.9277 71.7543 41.1494 71.7059 41.4497 71.5665C41.7501 71.427 41.9971 71.1317 42.1907 70.6807C42.3952 70.2076 42.5921 69.8196 42.7815 69.5166C42.8078 69.3793 42.9219 69.2578 43.1239 69.152C43.3366 69.0242 43.6128 68.948 43.9525 68.9233C44.1722 68.9763 44.3159 69.1287 44.3837 69.3803C44.468 69.6262 44.4603 70.0319 44.3607 70.5973C44.3508 70.729 44.2704 70.9489 44.1194 71.2571C43.9792 71.5432 43.8172 71.846 43.6334 72.1654C43.4604 72.4628 43.3088 72.6888 43.1785 72.8433C42.7764 73.2742 42.3347 73.5628 41.8535 73.7092C41.3723 73.8556 40.9097 73.9224 40.4656 73.9096ZM40.391 67.7517C40.6145 67.6019 40.7971 67.4662 40.9386 67.3444C41.0965 67.2171 41.2322 67.0515 41.3457 66.8478C41.4591 66.644 41.5719 66.3581 41.6841 65.9899C41.6879 65.7871 41.6673 65.6201 41.6224 65.4889C41.5939 65.3521 41.5576 65.2729 41.5136 65.2513C41.3375 65.165 41.1759 65.1746 41.0287 65.2799C40.8924 65.3632 40.7565 65.5014 40.621 65.6943C40.523 65.7828 40.3955 65.9456 40.2385 66.1825C40.0922 66.3975 39.9544 66.6371 39.825 66.9012C39.7064 67.1434 39.6177 67.3661 39.5591 67.5694C39.5112 67.7506 39.5257 67.8465 39.6025 67.8568C39.5922 67.9336 39.6964 67.9437 39.9152 67.8872C40.1504 67.8249 40.309 67.7798 40.391 67.7517ZM50.6735 70.4147C50.494 70.5861 50.2621 70.7113 49.9777 70.7904C49.6933 70.8694 49.2852 70.9083 48.7535 70.9072C48.7207 70.9184 48.5806 70.8839 48.3333 70.8037C48.086 70.7235 47.8303 70.6187 47.5661 70.4892C47.302 70.3598 47.1146 70.2408 47.0041 70.132C46.6126 69.8447 46.3397 69.3152 46.1855 68.5436C46.0476 67.7663 46.0068 66.7909 46.0631 65.6174C46.0936 65.3322 46.1592 64.9616 46.2596 64.5059C46.3765 64.0445 46.4964 63.6187 46.6193 63.2285C46.753 62.8163 46.8606 62.5688 46.9421 62.4859C46.9421 62.4859 47.0211 62.4222 47.179 62.2949C47.337 62.1675 47.53 61.9823 47.7583 61.7393C47.8291 61.6784 47.9544 61.5897 48.1344 61.4731C48.3307 61.3509 48.5298 61.2369 48.7318 61.1312C48.9445 61.0034 49.0947 60.9336 49.1823 60.922C49.5159 60.8261 49.8942 60.834 50.3172 60.9456C50.7509 61.0353 51.1332 61.1884 51.4638 61.405C51.7888 61.6052 51.9468 61.8259 51.9378 62.0672C51.9491 62.1 51.9364 62.2234 51.8997 62.4375C51.8739 62.6295 51.8426 62.8326 51.806 63.0467C51.7637 63.2444 51.7239 63.3954 51.6863 63.4999C51.638 63.6263 51.5045 63.7179 51.2857 63.7744C51.0833 63.8254 50.8804 63.8216 50.6771 63.7629C50.4738 63.7043 50.3303 63.5794 50.2465 63.3882C50.1688 63.2682 50.0037 63.1874 49.7512 63.1456C49.5152 63.0981 49.3971 63.0744 49.3971 63.0744C49.2659 63.1193 49.1386 63.3095 49.0153 63.6449C48.8919 63.9802 48.7716 64.3512 48.6543 64.7578C48.4602 65.154 48.3565 65.5468 48.3432 65.9361C48.3407 66.3034 48.3654 66.643 48.4172 66.955C48.4799 67.245 48.5119 67.4723 48.5132 67.6367C48.5038 67.8231 48.5739 68.0281 48.7238 68.2516C48.8736 68.4752 49.0033 68.5865 49.1129 68.5856C49.2661 68.5515 49.4601 68.4759 49.6948 68.3589C49.9404 68.2199 50.1913 68.0698 50.4476 67.9088C50.7147 67.7257 50.9818 67.5427 51.249 67.3596C51.5104 67.1602 51.7391 66.9719 51.935 66.795C52.1792 66.4915 52.4246 66.3251 52.671 66.2957C52.9118 66.2499 53.0952 66.2237 53.2212 66.2172C53.4241 66.221 53.562 66.3295 53.635 66.5427C53.708 66.7559 53.7128 67.0108 53.6494 67.3073C53.5804 67.5874 53.4318 67.849 53.2036 68.092C52.9861 68.313 52.7988 68.542 52.6418 68.779C52.4955 68.994 52.4364 69.1424 52.4645 69.2244C52.3989 69.2469 52.3335 69.2967 52.2684 69.374C52.214 69.4293 52.1594 69.4571 52.1046 69.4576C52.0718 69.4688 51.9491 69.5383 51.7363 69.6661C51.5236 69.7939 51.3054 69.9327 51.0819 70.0825C50.8748 70.2267 50.7387 70.3375 50.6735 70.4147ZM58.115 67.922C57.9018 67.995 57.7156 68.0129 57.5563 67.9758C57.4135 67.9331 57.2266 67.8689 56.9957 67.7831C56.5718 67.5617 56.1969 67.2962 55.871 66.9864C55.5615 66.671 55.3836 66.3655 55.3373 66.0698C55.3416 65.9218 55.3159 65.7932 55.2602 65.684C55.2153 65.5528 55.1928 65.4872 55.1928 65.4872C55.0828 65.4333 55.0413 65.3925 55.0685 65.3649C55.0901 65.3209 55.106 65.2605 55.1164 65.1836C55.2148 65.1499 55.2167 65.0485 55.1221 64.8794C55.0444 64.7594 54.9982 64.4638 54.9834 63.9925C54.9794 63.4992 55.033 63.0136 55.1442 62.5359C55.1865 62.3382 55.2611 62.0745 55.368 61.7447C55.4694 61.3986 55.5899 61.055 55.7297 60.714C55.8802 60.351 56.0258 60.0538 56.1665 59.8225C56.4585 59.3377 56.7403 58.9298 57.0116 58.5987C57.2994 58.262 57.6097 57.9909 57.9424 57.7854C58.2751 57.5799 58.63 57.4126 59.0072 57.2834C59.4008 57.1487 59.7655 57.1704 60.1013 57.3486C60.5346 57.3834 60.8728 57.515 61.1158 57.7432C61.3752 57.9659 61.6053 58.2902 61.8061 58.7161C62.0238 59.1912 62.1823 59.8148 62.2817 60.5869C62.3756 61.3426 62.2545 62.3001 61.9186 63.4594C61.7107 64.1901 61.4662 64.7868 61.1849 65.2495C60.9036 65.7123 60.5729 66.1644 60.1928 66.606C59.927 66.9535 59.6057 67.2192 59.229 67.4032C58.8523 67.5871 58.4809 67.76 58.115 67.922ZM59.5966 64.062C59.8507 63.6269 59.987 63.1955 60.0054 62.7678C60.0403 62.3345 60.0609 61.8327 60.0672 61.2626C60.0991 61.1418 60.084 60.9637 60.0218 60.7285C59.976 60.4877 59.9084 60.2635 59.819 60.056C59.724 59.832 59.6217 59.7205 59.5121 59.7213C59.3252 59.6571 59.1692 59.683 59.044 59.7991C58.9133 59.8989 58.7612 60.07 58.5878 60.3126C58.2361 60.891 57.9398 61.5238 57.6987 62.2109C57.4684 62.8761 57.4032 63.6221 57.5031 64.4489C57.5942 64.8758 57.7419 65.1733 57.9461 65.3416C58.161 65.4878 58.4103 65.4666 58.6938 65.278C58.9881 65.0673 59.289 64.662 59.5966 64.062ZM65.6533 64.7915C65.4664 64.7272 65.2519 64.6358 65.0098 64.5171C64.784 64.3929 64.6396 64.1584 64.5765 63.8135C64.4685 63.3375 64.3966 62.9133 64.3606 62.5409C64.3191 62.152 64.2772 61.7084 64.2347 61.2099C64.2002 61.0019 64.1671 60.6376 64.1354 60.1171C64.1202 59.591 64.1155 59.0155 64.1214 58.3906C64.1273 57.7657 64.1527 57.1707 64.1974 56.6058C64.2366 56.0244 64.296 55.5827 64.3758 55.2805C64.5 55.0548 64.7343 54.883 65.0787 54.7651C65.4395 54.6415 65.7079 54.6229 65.884 54.7092C66.115 54.795 66.2622 55.0378 66.3257 55.4374C66.3836 55.8206 66.3478 56.465 66.2181 57.3705C66.2034 57.5953 66.1698 57.845 66.1172 58.1195C66.0754 58.372 66.0552 58.5805 66.0565 58.7449C66.0523 58.8929 66.0883 58.9447 66.1647 58.9002C66.2013 58.6862 66.3115 58.4194 66.4953 58.1C66.6735 57.7642 66.8708 57.431 67.0874 57.1003C67.304 56.7697 67.5126 56.4693 67.7132 56.199C67.9138 55.9288 68.0549 55.7523 68.1365 55.6694C68.2396 55.5425 68.3647 55.4263 68.5119 55.321C68.6698 55.1937 68.776 55.1023 68.8303 55.0471C69.1457 54.7376 69.5333 54.5316 69.9929 54.4292C70.4633 54.3048 70.7898 54.3488 70.9724 54.5611C71.0337 54.6866 71.1166 54.7682 71.221 54.8057C71.3419 54.8376 71.4023 54.8536 71.4023 54.8536C71.4679 54.8311 71.5091 54.8445 71.526 54.8937C71.5592 54.9373 71.5758 54.9591 71.5758 54.9591C71.6151 55.0739 71.5565 55.2771 71.3999 55.5689C71.2597 55.8551 71.0612 56.0513 70.8044 56.1575C70.5969 56.2469 70.4223 56.3525 70.2808 56.4742C70.1392 56.596 69.9705 56.7453 69.7746 56.9223C69.275 57.4964 68.8187 58.0099 68.4058 58.4627C68.0093 58.91 67.6469 59.5104 67.3186 60.264C67.2487 60.4345 67.1679 60.5996 67.076 60.7593C66.9841 60.919 66.909 61.1279 66.8508 61.386C66.7969 61.4961 66.7767 61.7045 66.7901 62.0114C66.8036 62.3182 66.8224 62.6141 66.8467 62.8989C66.8817 63.1618 66.9076 63.3178 66.9244 63.367C66.9244 63.367 66.9279 63.4574 66.9349 63.6382C66.9362 63.8026 66.9047 63.9783 66.8405 64.1652C66.7335 64.4949 66.5929 64.7263 66.4185 64.8593C66.2606 64.9866 66.0055 64.964 65.6533 64.7915ZM81.3287 60.1393C81.0883 60.2399 80.8615 60.3267 80.6483 60.3997C80.4516 60.4671 80.2845 60.4876 80.1473 60.4613C79.7679 60.3164 79.5037 60.187 79.3548 60.0731C79.2223 59.9536 79.1251 59.8036 79.0634 59.6232C79.0012 59.388 78.9308 59.1556 78.8522 58.9261C78.768 58.6801 78.7034 58.4915 78.6585 58.3603C78.5704 58.3172 78.4645 58.4359 78.3407 58.7164C78.2169 58.997 78.0575 59.2806 77.8625 59.5672C77.5506 60.3152 77.2428 60.8878 76.9391 61.2849C76.6297 61.6656 76.3167 61.9285 75.9999 62.0736C75.6888 62.2351 75.3636 62.3556 75.0244 62.4351C74.718 62.5033 74.4051 62.4456 74.0857 62.2618C73.7827 62.0724 73.5092 61.8088 73.2653 61.4709C73.0378 61.1274 72.8786 60.7697 72.7879 60.3977C72.6397 59.6972 72.5796 59.0399 72.6075 58.4258C72.6298 57.7952 72.7502 57.1036 72.9689 56.3509C73.0758 56.0211 73.24 55.6443 73.4613 55.2204C73.699 54.791 73.9697 54.3777 74.2734 53.9805C74.5716 53.567 74.8568 53.2495 75.129 53.028C75.5316 52.652 75.8915 52.4189 76.2087 52.3286C76.5423 52.2327 76.8789 52.1724 77.2186 52.1478C77.4875 52.184 77.6875 52.1796 77.8187 52.1347C77.9663 52.0842 78.0448 51.9657 78.0542 51.7792C78.1077 51.6143 78.1254 51.4251 78.1072 51.2115C78.089 50.9978 78.1065 50.7812 78.1595 50.5615L78.1532 48.7773C78.182 48.2728 78.2212 47.6914 78.2707 47.0333C78.3201 46.3751 78.38 45.6401 78.4501 44.8283C78.6083 44.0596 78.813 43.6139 79.0642 43.4913C79.3317 43.363 79.6692 43.4124 80.0767 43.6393C80.3409 43.7687 80.5317 43.9782 80.6491 44.2678C80.7774 44.5353 80.8159 44.8886 80.7646 45.3275C80.7116 45.5472 80.6672 45.8189 80.6314 46.1426C80.5901 46.4499 80.541 46.8148 80.4841 47.2373C80.4497 47.7254 80.4071 48.2164 80.3562 48.7101C80.3218 49.1983 80.2933 49.7302 80.2705 50.3059C80.2948 50.5908 80.3084 50.925 80.3115 51.3087C80.331 51.6868 80.3557 52.0264 80.3856 52.3276C80.4262 52.6069 80.453 52.8725 80.466 53.1245C80.4898 53.3546 80.4689 53.4808 80.4033 53.5033C80.3114 53.663 80.2727 53.9511 80.287 54.3676C80.2957 54.7676 80.3293 55.1867 80.3876 55.6247C80.4624 56.0572 80.5201 56.413 80.5607 56.6922C80.5953 56.9002 80.6662 57.1874 80.7733 57.5538C80.8748 57.9038 80.9817 58.2428 81.094 58.5708C81.2006 58.8824 81.2736 59.0955 81.3129 59.2103C81.4196 59.5219 81.4708 59.7517 81.4665 59.8997C81.473 60.0258 81.4271 60.1056 81.3287 60.1393ZM75.1042 60.0993C75.4813 59.9702 75.7806 59.6937 76.0019 59.2698C76.234 58.8239 76.4932 58.3504 76.7797 57.8493C76.9415 57.5191 77.103 57.1615 77.2643 56.7765C77.42 56.3751 77.5539 55.9903 77.6661 55.6221C77.7946 55.2483 77.888 54.9324 77.9462 54.6743C78.0044 54.4162 78.0222 54.2544 77.9998 54.1888C77.9717 54.1068 77.8809 54.0554 77.7272 54.0347C77.59 54.0085 77.4337 54.007 77.2585 54.0303C77.0777 54.0373 76.9273 54.0796 76.8073 54.1573C76.453 54.4069 76.1922 54.6885 76.0248 55.0023C75.8738 55.3105 75.6612 55.7864 75.3868 56.4299C75.1294 57.1227 74.9536 57.76 74.8597 58.3418C74.7657 58.9236 74.7393 59.3815 74.7804 59.7155C74.8322 60.0275 74.9402 60.1555 75.1042 60.0993ZM85.9124 58.57C85.5188 58.7047 85.1043 58.6177 84.6687 58.3087C84.244 57.9778 83.8978 57.5284 83.63 56.9605C83.6015 56.8237 83.5534 56.6295 83.4855 56.3779C83.4341 56.1207 83.3799 55.8553 83.3229 55.5817C83.2818 55.2476 83.2344 54.815 83.1808 54.2837C83.1271 53.7524 83.0817 53.2184 83.0445 52.6815C83.0016 52.1282 82.9676 51.6543 82.9425 51.2599C82.9118 50.849 82.8934 50.608 82.8873 50.5368C82.9071 50.2735 83.1088 50.1403 83.4925 50.1372C83.8762 50.1341 84.2556 50.279 84.6307 50.572C84.774 50.6695 84.8847 50.8056 84.9629 50.9804C85.0574 51.1495 85.1227 51.4203 85.1586 51.7928C85.2109 52.1596 85.2537 52.7129 85.2872 53.4526C85.3313 54.1704 85.3744 54.751 85.4164 55.1947C85.4691 55.6163 85.5795 56.0457 85.7475 56.4829C85.9402 57.2597 86.0514 57.7987 86.0813 58.1C86.1055 58.3848 86.0492 58.5415 85.9124 58.57ZM84.6805 47.5869C84.6317 47.6586 84.5746 47.7056 84.509 47.7281C84.4542 47.7285 84.3471 47.7102 84.1879 47.6731C84.0675 47.696 83.8946 47.6728 83.6693 47.6033C83.4548 47.5119 83.2567 47.4148 83.0749 47.3122C82.9096 47.2039 82.8213 47.1333 82.8101 47.1005C82.7376 46.9421 82.6559 46.677 82.5652 46.305C82.4909 45.9273 82.466 45.5603 82.4905 45.2038C82.5258 44.8253 82.6637 44.5857 82.904 44.4851C82.9696 44.4626 83.1202 44.4477 83.3559 44.4403C83.6079 44.4273 83.8738 44.4279 84.1534 44.4421C84.3689 44.6432 84.6013 44.9208 84.8509 45.2751C85.1004 45.6294 85.2405 46.0119 85.2713 46.4228C85.3128 46.8116 85.1159 47.1997 84.6805 47.5869ZM89.9955 56.2652C89.9299 56.2877 89.7545 56.2836 89.4692 56.253C89.1783 56.206 88.9888 56.161 88.9008 56.1178C88.7411 56.026 88.6195 55.9118 88.5362 55.7755C88.4473 55.6227 88.3242 55.3167 88.167 54.8576C87.9873 54.3328 87.8918 53.706 87.8804 52.977C87.8634 52.2317 87.9182 51.2144 88.0448 49.9253L88.3543 47.5383C88.397 47.3954 88.4371 47.2718 88.4747 47.1673C88.5066 47.0465 88.5495 46.931 88.6034 46.821C88.6362 46.8097 88.6772 46.7957 88.7264 46.7788C88.792 46.7564 88.844 46.7477 88.8824 46.7529C89.0356 46.7188 89.2961 46.7304 89.6638 46.7877C90.0479 46.8394 90.3289 47.018 90.5068 47.3235C90.5798 47.5367 90.634 47.8021 90.6695 48.1198C90.6993 48.421 90.6289 48.8573 90.4581 49.4288C90.383 49.6377 90.3333 49.9204 90.3087 50.2769C90.3006 50.6278 90.2951 50.9595 90.2921 51.2719C90.287 51.3103 90.2658 51.4092 90.2288 51.5684C90.2025 51.7057 90.179 51.8511 90.1583 52.0048C90.132 52.142 90.1245 52.2271 90.1357 52.2598L90.1131 52.5149L90.8171 51.1197C91.3024 50.1291 91.7459 49.391 92.1476 48.9053C92.5493 48.4197 92.9308 48.1425 93.292 48.0738C93.6696 47.9995 94.0268 48.1062 94.3635 48.394C94.5344 48.5187 94.6782 48.671 94.7947 48.851C94.9057 49.0145 95.0115 49.2165 95.1121 49.4569C95.2127 49.6972 95.3112 50.0116 95.4075 50.4L95.8875 51.8021C96.171 51.6134 96.3864 51.4664 96.5335 51.3611C96.675 51.2394 96.8194 51.1258 96.9665 51.0205C97.0865 50.9428 97.2064 50.8651 97.3264 50.7873C97.4628 50.704 97.6347 50.6177 97.8423 50.5283C97.8989 50.7471 97.8985 51.0403 97.8412 51.4081C97.7839 51.7758 97.6856 52.1575 97.5463 52.5533C97.4234 52.9435 97.259 53.2929 97.0532 53.6015C96.8638 53.9046 96.6543 54.0954 96.4248 54.174C96.2116 54.247 95.9431 54.2656 95.6194 54.2298C95.2901 54.1777 94.9569 53.9803 94.6197 53.6377C94.4812 53.447 94.3314 53.2235 94.1703 52.9671C94.0093 52.7108 93.8754 52.4269 93.7687 52.1153L93.3982 51.033C93.3645 50.9346 93.3339 50.8718 93.3062 50.8446C93.2894 50.7954 93.2728 50.7736 93.2564 50.7792C93.1908 50.8017 93.0365 51.0469 92.7937 51.5147C92.5672 51.977 92.3381 52.4585 92.1065 52.9592C91.6216 54.0046 91.1896 54.8029 90.8103 55.3541C90.4475 55.8998 90.1759 56.2034 89.9955 56.2652ZM104.781 57.6337C104.384 57.9713 103.889 58.1041 103.297 58.0322C102.726 57.971 102.173 57.748 101.638 57.3632C101.539 57.2872 101.379 57.1405 101.158 56.9231C100.943 56.722 100.719 56.4963 100.486 56.2461C100.271 55.9902 100.093 55.7669 99.9548 55.5761C99.8327 55.3798 99.7905 55.2568 99.8285 55.2072C99.8323 55.0043 99.9434 54.8472 100.162 54.7358C100.38 54.6244 100.613 54.554 100.859 54.5246C101.111 54.5116 101.27 54.5487 101.337 54.6358C101.425 54.7338 101.514 54.8317 101.602 54.9297C101.696 55.044 101.793 55.1392 101.892 55.2151C102.014 55.3018 102.121 55.375 102.215 55.4345C102.491 55.6515 102.752 55.7727 102.999 55.7981C103.251 55.8399 103.421 55.8002 103.508 55.6789C103.713 55.3703 103.831 55.0459 103.862 54.7058C103.914 54.3765 103.931 53.8118 103.914 53.0116C103.886 52.3431 103.862 51.765 103.842 51.2773C103.822 50.7896 103.821 50.3319 103.839 49.9042C103.821 49.6906 103.822 49.507 103.843 49.3533C103.874 49.1777 103.912 49.0458 103.955 48.9577L104.102 48.9072C103.82 49.2603 103.595 49.5938 103.428 49.9076C103.261 50.2214 102.995 50.5414 102.63 50.8678C102.571 51.0163 102.35 51.1743 101.968 51.3418C101.596 51.4874 101.21 51.5645 100.81 51.5732C100.536 51.5206 100.302 51.454 100.11 51.3733C99.9282 51.2707 99.7572 51.146 99.5971 50.9993C99.4533 50.847 99.2901 50.6647 99.1075 50.4524C98.9085 50.2457 98.7546 49.8495 98.6457 49.2639C98.5368 48.6783 98.4935 48.0702 98.5158 47.4396C98.5722 46.9623 98.7076 46.4212 98.9219 45.8166C99.1363 45.2119 99.3921 44.6479 99.6893 44.1248C99.981 43.5852 100.282 43.2073 100.593 42.991C100.702 42.8805 100.906 42.7281 101.206 42.5338C101.5 42.3231 101.809 42.2083 102.132 42.1892C102.422 42.1266 102.658 42.1192 102.839 42.167C103.015 42.1985 103.314 42.2975 103.738 42.464C104.024 42.6042 104.382 42.7931 104.811 43.0308C105.235 43.2521 105.527 43.4635 105.688 43.665C105.887 43.8717 106.004 44.1339 106.04 44.4515C106.069 44.7528 106.039 45.038 105.948 45.3074C105.873 45.5711 105.79 45.8376 105.699 46.1069C105.608 46.3763 105.586 46.7136 105.634 47.1188C105.72 47.6388 105.755 48.2497 105.739 48.9515C105.717 49.6369 105.73 50.2644 105.779 50.8341L105.907 52.4939C105.975 54.0282 105.869 55.1911 105.59 55.9827C105.317 56.7907 105.048 57.341 104.781 57.6337ZM101.368 49.3487C101.69 49.22 101.958 49.0918 102.171 48.964C102.394 48.8142 102.579 48.6044 102.725 48.3346C102.865 48.0484 103.001 47.6444 103.134 47.1226C103.278 46.6336 103.351 46.2055 103.354 45.8382C103.356 45.4709 103.271 45.0879 103.098 44.6891C102.992 44.4324 102.859 44.2855 102.7 44.2484C102.54 44.2113 102.36 44.2456 102.158 44.3514C101.863 44.5073 101.629 44.7339 101.456 45.0313C101.278 45.3123 101.097 45.7222 100.915 46.2608C100.782 46.673 100.711 47.1368 100.705 47.6521C100.709 48.2002 100.77 48.619 100.887 48.9086C101.021 49.1926 101.181 49.3393 101.368 49.3487Z" fill="url(#paint2_linear_9_9)"/>
<path d="M12 161.364L22.6817 172L33.3634 161.364" stroke="#FF7581" stroke-width="4" stroke-linecap="round" stroke-linejoin="round"/>
<path d="M23 169.332V169.332C23 125.181 58.7912 89.3901 102.942 89.3901H124.589C171.208 89.3901 209 51.5982 209 4.9795V4.9795V2.00031" stroke="url(#paint3_linear_9_9)" stroke-width="4" stroke-linecap="round" stroke-linejoin="round"/>
<defs>
<linearGradient id="paint0_linear_9_9" x1="52.6445" y1="8.82844" x2="56.6545" y2="8.81841" gradientUnits="userSpaceOnUse">
<stop stop-color="#FFB347"/>
<stop offset="1" stop-color="#FF7283"/>
</linearGradient>
<linearGradient id="paint1_linear_9_9" x1="111.645" y1="21.3042" x2="111.645" y2="27.0404" gradientUnits="userSpaceOnUse">
<stop stop-color="#FF76EC"/>
<stop offset="1" stop-color="#8A87E9"/>
</linearGradient>
<linearGradient id="paint2_linear_9_9" x1="16.8432" y1="86.4724" x2="116.797" y2="51.684" gradientUnits="userSpaceOnUse">
<stop stop-color="#FFB347"/>
<stop offset="1" stop-color="#FF7283"/>
</linearGradient>
<linearGradient id="paint3_linear_9_9" x1="41.5002" y1="230.406" x2="212.922" y2="176.509" gradientUnits="userSpaceOnUse">
<stop stop-color="#FF7283"/>
<stop offset="1" stop-color="#FFB347"/>
</linearGradient>
</defs>
</svg>
