<svg width="158" height="88" viewBox="0 0 158 88" fill="none" xmlns="http://www.w3.org/2000/svg">
<path d="M148.562 64.3481L153.213 78.5656L138.988 83.2167" stroke="#FF7581" stroke-width="4" stroke-linecap="round" stroke-linejoin="round"/>
<path d="M105 2C105 32.2041 116.709 62.9034 151.392 77.7579" stroke="url(#paint0_linear_2_50)" stroke-width="4" stroke-linecap="round" stroke-linejoin="round"/>
<path d="M35.2523 67.1865C34.9293 67.2093 34.6664 67.2199 34.4635 67.2184C34.2664 67.2333 34.1679 67.2407 34.1679 67.2407C34.1715 67.1474 34.1291 67.0797 34.0405 67.0376C33.9683 66.9897 33.8395 66.9895 33.654 67.037C33.351 66.9607 33.0166 66.822 32.6508 66.6208C32.285 66.4197 31.949 66.1988 31.6427 65.9581C31.3365 65.7174 31.1246 65.5352 31.007 65.4114C30.8056 65.207 30.7616 65.0571 30.8748 64.9617C30.9823 64.85 31.1113 64.7213 31.262 64.5758C31.3952 64.3813 31.5482 64.2166 31.721 64.0816C31.9101 63.9408 32.1193 63.9861 32.3486 64.2173C32.6944 64.5175 33.1343 64.7199 33.6681 64.8246C34.2183 64.9234 34.7879 64.8958 35.377 64.7416C35.9824 64.5817 36.5355 64.2748 37.0365 63.8209C37.3646 63.5019 37.4899 63.1815 37.4123 62.8596C37.3289 62.5213 37.0729 62.1892 36.6444 61.8632C36.549 61.7499 36.4377 61.6699 36.3107 61.623C36.2 61.5704 36.0316 61.5106 35.8056 61.4438C35.5958 61.3712 35.2835 61.243 34.8687 61.0593C34.5831 61.032 34.3167 61.0071 34.0696 60.9845C33.8388 60.9562 33.5887 60.9254 33.3194 60.8924C33.0117 60.8546 32.6539 60.7794 32.246 60.6668C31.8322 60.5378 31.4372 60.3839 31.0609 60.2049C30.6788 60.0095 30.3678 59.8073 30.128 59.5982C29.7796 59.4461 29.4973 59.1693 29.2811 58.7678C29.059 58.3501 28.9018 57.8817 28.8094 57.3627C28.7333 56.8379 28.7317 56.3417 28.8048 55.8743C28.8215 55.6108 28.8967 55.253 29.0304 54.8008C29.1582 54.3323 29.3159 53.844 29.5032 53.336C29.6906 52.8279 29.8762 52.3665 30.0599 51.9517C30.2542 51.5148 30.4208 51.2072 30.5598 51.0291C30.6441 50.852 30.7365 50.672 30.837 50.4891C30.9318 50.2898 30.9792 50.1902 30.9792 50.1902C30.9665 50.1028 30.9765 50.0532 31.0092 50.0416C31.0582 50.0242 31.0827 50.0155 31.0827 50.0155C31.1469 49.9375 31.2976 49.792 31.5346 49.579C31.7716 49.366 31.9984 49.0463 32.2148 48.6199C33.1234 47.7084 33.9296 47.0265 34.6334 46.5741C35.3314 46.1053 35.9009 45.7926 36.3419 45.6359C36.756 45.5072 37.1968 45.4793 37.6642 45.5524C38.1258 45.6091 38.5506 45.7433 38.9385 45.9549C39.3428 46.1608 39.6391 46.451 39.8273 46.8256C40.081 47.177 40.1921 47.6709 40.1607 48.3075C40.1399 48.9219 40.0206 49.5438 39.8027 50.173C39.5953 50.7802 39.3281 51.2706 39.001 51.6444C38.6134 52.0029 38.2301 52.1666 37.8512 52.1357C37.4886 52.099 37.2604 51.9225 37.1664 51.6064C37.12 51.4758 37.1057 51.3061 37.1235 51.0974C37.1577 50.8829 37.2977 50.4745 37.5435 49.8721C37.7934 48.9187 37.8767 48.2729 37.7933 47.9346C37.7099 47.5964 37.4961 47.4608 37.1521 47.5278C37.0425 47.53 36.8575 47.6049 36.5973 47.7526C36.337 47.9002 36.0581 48.0729 35.7604 48.2706C35.4733 48.4462 35.2218 48.6184 35.0058 48.7871C34.8062 48.95 34.7121 49.0478 34.7238 49.0805C34.7238 49.0805 34.7325 49.105 34.7499 49.154C34.7673 49.203 34.7404 49.2309 34.6693 49.2378C34.6366 49.2494 34.5426 49.3472 34.3872 49.5312C34.2424 49.693 34.0683 49.902 33.865 50.1582C33.6617 50.4144 33.4613 50.6787 33.2638 50.9512C33.0769 51.2016 32.9168 51.4241 32.7836 51.6186C32.6503 51.8131 32.5813 51.9295 32.5766 51.968C32.6078 52.1593 32.478 52.3893 32.1872 52.6582C31.9302 52.9703 31.743 53.3495 31.6257 53.7959C31.5084 54.2422 31.3851 54.8011 31.2557 55.4725C31.1115 55.9468 31.0606 56.4248 31.103 56.9064C31.1395 57.3717 31.2614 57.7147 31.4686 57.9354C31.6431 58.1677 31.9565 58.3507 32.4086 58.4843C32.8714 58.5958 33.4879 58.7263 34.2584 58.8756C34.924 58.9886 35.5627 59.1296 36.1746 59.2984C36.7864 59.4673 37.3219 59.6542 37.7809 59.859C38.2342 60.0474 38.5475 60.2304 38.721 60.4079C39.0156 60.6159 39.2431 60.8938 39.4035 61.2415C39.5802 61.5834 39.7049 61.9346 39.7778 62.295C39.8612 62.6333 39.908 62.9202 39.9181 63.1557C39.8966 63.4577 39.8156 63.7992 39.6751 64.1802C39.5509 64.5554 39.3879 64.7697 39.1861 64.823C39.0238 64.9359 38.9053 65.0423 38.8305 65.1425C38.772 65.2368 38.6944 65.3288 38.5974 65.4185C38.5063 65.5244 38.2629 65.6937 37.8673 65.9262C37.4775 66.1751 37.0381 66.414 36.5492 66.6429C36.0661 66.8881 35.6338 67.0693 35.2523 67.1865ZM43.8529 61.2885C43.7443 61.3455 43.5992 61.3511 43.4174 61.3053C43.2461 61.2374 43.0888 61.1829 42.9454 61.1419C42.7124 61.0039 42.5372 60.8731 42.4196 60.7493C42.302 60.6255 42.2113 60.4738 42.1475 60.2941C42.0837 60.1144 42.0246 59.8963 41.9702 59.6397C41.959 59.3494 41.9322 58.9634 41.8899 58.4818C41.8475 58.0002 41.818 57.4772 41.8014 56.9128C41.7645 56.7052 41.7404 56.4563 41.7292 56.1659C41.7285 55.8534 41.7337 55.5573 41.7446 55.2775C41.7498 54.9813 41.7536 54.7592 41.7562 54.6111C41.7255 54.1622 41.7005 53.7296 41.6814 53.3133C41.6785 52.8912 41.6799 52.4032 41.6855 51.8494C41.691 51.2956 41.691 50.5966 41.6854 49.7524C41.6965 48.6448 41.7048 47.814 41.7104 47.2602C41.716 46.7064 41.7219 46.3088 41.7281 46.0675C41.7343 45.8261 41.7305 45.6343 41.7168 45.492C41.6703 45.3614 41.7166 45.207 41.8557 45.0288C42.0053 44.8285 42.1535 44.7022 42.3005 44.65C42.535 44.5851 42.8048 44.6456 43.11 44.8314C43.4094 45.001 43.6637 45.2509 43.8731 45.5812C44.0766 45.8952 44.1384 46.2503 44.0585 46.6466C44.0061 47.3275 43.9798 48.0818 43.9796 48.9097C43.99 49.7154 44.0003 50.5211 44.0107 51.3268C44.021 52.1325 44.0111 52.881 43.9808 53.5724C43.9935 53.6598 43.9857 53.819 43.9573 54.0498C43.9453 54.2748 43.9298 54.4642 43.9109 54.6181C43.892 54.772 43.8702 54.9177 43.8455 55.0553C43.8371 55.187 43.8329 55.2529 43.8329 55.2529C43.8514 55.3567 43.8681 55.5071 43.8829 55.7042C43.8977 55.9012 43.9039 56.0738 43.9013 56.2219C43.914 56.3094 43.9272 56.4242 43.941 56.5665C43.9547 56.7088 43.9767 56.8481 44.0068 56.9846C44.0536 56.8576 44.1273 56.7026 44.2279 56.5197C44.3226 56.3205 44.4466 56.0741 44.5999 55.7805C44.7799 55.459 44.939 55.1818 45.0769 54.9488C45.2149 54.7158 45.3586 54.4992 45.5082 54.2989C45.6414 54.1044 45.7613 53.9239 45.8676 53.7573C45.9903 53.5849 46.0517 53.4988 46.0517 53.4988C46.0669 53.4382 46.0793 53.3694 46.0887 53.2924C46.1145 53.2097 46.149 53.1515 46.1922 53.1177C46.2133 53.0734 46.2559 53.0123 46.3202 52.9343C46.3786 52.8399 46.4371 52.7456 46.4955 52.6512C46.6077 52.501 46.7339 52.3642 46.874 52.2409C47.0141 52.1175 47.1682 52.0076 47.3362 51.911C47.5043 51.8145 47.67 51.7373 47.8333 51.6792C48.0293 51.6096 48.2625 51.6187 48.5329 51.7066C48.7974 51.7782 49.0689 51.9209 49.3472 52.1347C49.5859 52.289 49.7739 52.5073 49.911 52.7897C50.0587 53.0499 50.2003 53.4227 50.336 53.908C50.3824 54.0386 50.4286 54.2981 50.4746 54.6865C50.537 55.069 50.5837 55.3559 50.6149 55.5472L50.6904 56.4585L50.8864 56.3889C51.0428 56.2597 51.2114 56.1906 51.3921 56.1816C51.5892 56.1667 51.6877 56.1593 51.6877 56.1593C51.7868 56.1793 51.8806 56.2103 51.9692 56.2525C52.0741 56.2888 52.165 56.3117 52.2419 56.3211C52.3863 56.417 52.4367 56.6106 52.3931 56.902C52.3495 57.1934 52.2634 57.4172 52.1349 57.5732C51.8358 57.9738 51.5427 58.2619 51.2556 58.4375C50.9848 58.6073 50.6541 58.6604 50.2636 58.5968C49.8779 58.4947 49.5756 58.317 49.3568 58.0636C49.1543 57.8045 48.9713 57.4188 48.8078 56.9067C48.6177 56.1648 48.4758 55.6358 48.3818 55.3197C48.2821 54.9872 48.1424 54.8529 47.9627 54.9168C47.7667 54.9864 47.5321 55.1802 47.2587 55.498C46.9959 55.7938 46.7184 56.1775 46.4261 56.6492C46.128 57.1046 45.8445 57.6009 45.5754 58.138C45.3169 58.6529 45.1022 59.1615 44.9311 59.6638C44.8222 59.9784 44.6969 60.2988 44.5553 60.6251C44.4079 60.935 44.1737 61.1561 43.8529 61.2885ZM55.2132 57.7211C55.1014 57.6136 54.908 57.5352 54.6329 57.4858C54.3742 57.4306 54.2332 57.3703 54.21 57.305C54.1867 57.2396 54.1111 57.1561 53.983 57.0545C53.8654 56.9307 53.7624 56.8478 53.6738 56.8056C53.5573 56.7367 53.4977 56.4911 53.4949 56.069C53.4863 55.6306 53.514 55.0873 53.578 54.4392C53.642 53.791 53.7276 53.1259 53.8348 52.444C53.919 52.2669 53.9888 52.049 54.044 51.7903C54.0992 51.5315 54.1479 51.3578 54.19 51.2693C54.1668 51.204 54.171 51.1381 54.2026 51.0717C54.2283 50.989 54.2739 50.936 54.3392 50.9128L54.396 50.4511C54.4054 50.3742 54.457 50.2087 54.5507 49.9547C54.6607 49.6948 54.7976 49.4071 54.9613 49.0914C55.1193 48.7593 55.283 48.4436 55.4526 48.1442C55.6384 47.839 55.7956 47.6084 55.9241 47.4524C56.1859 47.1019 56.4993 46.8709 56.8645 46.7596C57.2459 46.6424 57.605 46.6436 57.9418 46.7631C58.0082 46.7947 58.1492 46.855 58.3648 46.9439C58.5967 47.0271 58.8507 47.1208 59.1268 47.225C59.4193 47.3234 59.6734 47.4171 59.8889 47.506L61.0827 47.9924L61.1014 49.3654C61.1213 50.0942 61.2672 50.6861 61.5393 51.1413C61.8114 51.5965 62.1175 51.966 62.4575 52.2499C62.603 52.4005 62.7584 52.5016 62.9239 52.5532C63.1058 52.599 63.3168 52.5976 63.5571 52.549C63.6935 52.5189 63.8334 52.5244 63.9768 52.5654C64.1201 52.6064 64.2237 52.7168 64.2876 52.8965C64.4268 53.2884 64.4549 53.6004 64.3717 53.8323C64.2991 54.042 64.1869 54.1923 64.0352 54.283C63.5194 54.5398 62.9846 54.6654 62.4308 54.6599C61.877 54.6543 61.2706 54.3455 60.6117 53.7335C60.5115 53.6587 60.3578 53.511 60.1507 53.2903C59.954 53.0474 59.833 52.8881 59.7876 52.8122C59.7513 52.9171 59.6992 53.0552 59.6313 53.2265C59.5739 53.3756 59.5137 53.5166 59.4505 53.6494C58.7087 55.2374 57.9851 56.3591 57.2798 57.0144C56.5851 57.6475 55.8962 57.8831 55.2132 57.7211ZM55.8381 55.2089C55.9583 55.1846 56.1176 55.0636 56.3162 54.8459C56.5089 54.6118 56.7515 54.2589 57.0437 53.7872C57.4307 53.1162 57.7488 52.5617 57.9978 52.1237C58.2469 51.6857 58.4559 51.1608 58.6248 50.5489L58.8504 49.4754C58.5536 49.1578 58.3195 48.965 58.1482 48.8971C57.9769 48.8292 57.826 48.8185 57.6953 48.8649C57.483 48.9404 57.2791 49.1692 57.0838 49.5513C56.8827 49.9171 56.6871 50.428 56.4972 51.0842C56.3177 51.7182 56.1358 52.5002 55.9512 53.4304C55.8665 53.8651 55.828 54.2743 55.8355 54.6579C55.8373 55.0252 55.8381 55.2089 55.8381 55.2089ZM67.519 53.3486C67.4758 53.3824 67.3667 53.4119 67.1918 53.4373C67.0332 53.4569 66.8635 53.4712 66.6828 53.4802C66.5184 53.4834 66.414 53.4745 66.3697 53.4535C66.2812 53.4113 66.1507 53.3289 65.9784 53.2062C65.8002 53.0672 65.6507 52.8536 65.5299 52.5654C65.4255 52.2714 65.4395 51.8709 65.5721 51.3639C65.5957 51.1716 65.6067 50.8918 65.6049 50.5245C65.6032 50.1572 65.5957 49.7736 65.5823 49.3736C65.5795 48.9515 65.5749 48.5761 65.5684 48.2473C65.5783 47.9127 65.5874 47.6795 65.5958 47.5477C65.5298 47.2585 65.4438 47.0683 65.3379 46.9772C65.2424 46.8639 65.0775 46.8397 64.843 46.9047C64.6797 46.9627 64.5287 46.952 64.3901 46.8724C64.2678 46.7871 64.1544 46.5975 64.05 46.3035C64.0014 46.0632 63.9889 45.8469 64.0125 45.6546C64.0467 45.4401 64.1251 45.2467 64.2478 45.0743C64.3822 44.9346 64.566 44.8049 64.7994 44.6852C65.0491 44.5597 65.2994 44.4615 65.5502 44.3908C65.801 44.3201 65.9928 44.3163 66.1256 44.3795C66.2631 44.4042 66.4052 44.5193 66.5518 44.7247C66.7089 44.9081 66.8526 45.1053 66.9828 45.3166C67.1131 45.5278 67.2067 45.6877 67.2636 45.7963C67.3805 45.6076 67.4963 45.3641 67.6111 45.0658C67.7364 44.7453 67.8675 44.4412 68.0043 44.1534C68.2018 43.8809 68.4483 43.591 68.7438 43.2837C69.0335 42.96 69.26 42.7691 69.4233 42.7111C69.603 42.6473 69.8554 42.6588 70.1806 42.7456C70.4999 42.816 70.7155 42.905 70.8272 43.0124C71.0892 43.2321 71.308 43.4854 71.4836 43.7726C71.6697 44.0375 71.7136 44.3163 71.6152 44.6088C71.5273 44.8791 71.3741 45.1727 71.1555 45.4895C70.9312 45.79 70.584 45.9777 70.114 46.0527C70.0044 46.0549 69.8547 45.9701 69.6649 45.7984C69.4915 45.6209 69.3792 45.486 69.328 45.3938C69.3106 45.3448 69.2545 45.42 69.1598 45.6192C69.0755 45.7963 68.9702 46.0176 68.8439 46.2833C68.7339 46.5431 68.6262 46.7837 68.5209 47.0051C68.3651 47.4467 68.2365 48.0167 68.1351 48.7149C68.0337 49.4132 67.9187 50.2542 67.79 51.2381C67.7391 51.7161 67.715 52.1661 67.7178 52.5882C67.7148 52.9939 67.6486 53.2474 67.519 53.3486ZM77.2014 50.9844C76.3031 51.3036 75.516 51.2889 74.8404 50.9404C74.181 50.586 73.6598 49.8699 73.2768 48.7919C73.0679 48.2039 72.9448 47.521 72.9076 46.7433C72.8867 45.9597 72.9369 45.1693 73.0583 44.3719C73.196 43.5688 73.3983 42.8439 73.6652 42.1972C73.9263 41.5342 74.2425 41.0264 74.6139 40.6737C74.7482 40.534 74.8994 40.4159 75.0674 40.3194C75.246 40.2007 75.4251 40.1095 75.6048 40.0456C75.8008 39.976 76.0189 39.9169 76.2592 39.8683C76.51 39.7976 76.7561 39.7653 76.9974 39.7716C77.4137 39.7524 77.8187 39.8568 78.2124 40.0849C78.6225 40.307 78.9378 40.7285 79.1583 41.3491C79.2163 41.5125 79.2639 41.6979 79.3008 41.9055C79.332 42.0968 79.3387 42.2968 79.3208 42.5054C79.3 43.1199 79.1562 43.7504 78.8893 44.3971C78.6387 45.038 78.3114 45.5406 77.9074 45.9049C77.8 46.0166 77.6867 46.1121 77.5677 46.1911C77.4591 46.2481 77.3395 46.2998 77.2089 46.3462C76.8659 46.4681 76.5382 46.5294 76.2257 46.53C75.9295 46.5249 75.6381 46.4813 75.3514 46.3992L75.0945 46.2973L75.059 46.5858C75.055 46.9368 75.0662 47.2271 75.0926 47.4569C75.1354 47.6808 75.1742 47.8418 75.209 47.9398C75.2786 48.1358 75.3593 48.337 75.4511 48.5436C75.5371 48.7337 75.6441 48.8797 75.7722 48.9813C75.8666 49.0398 75.9714 49.0761 76.0869 49.0903C76.2186 49.0986 76.3661 49.0738 76.5295 49.0158C76.6275 48.9809 76.7173 48.949 76.799 48.92C76.8911 48.8689 76.967 48.8235 77.0265 48.784C77.2973 48.6142 77.4964 48.4239 77.6239 48.213C77.7618 47.9801 77.9166 47.7687 78.0884 47.5789L78.1689 47.4951L78.1183 47.4303C78.3438 47.1846 78.4997 47.0281 78.5861 46.9606C78.6666 46.8768 78.7256 46.8098 78.763 46.7597C78.8051 46.6712 78.867 46.6124 78.9487 46.5834C79.1658 46.4695 79.4095 46.4565 79.6798 46.5444C79.9607 46.6101 80.1418 46.7573 80.223 46.986C80.2579 47.084 80.2395 47.2653 80.1679 47.5298C80.1127 47.7886 80.0167 48.0618 79.8798 48.3496C79.7534 48.6152 79.6044 48.8429 79.4327 49.0327C79.3895 49.0665 79.3492 49.1084 79.3118 49.1584C79.2686 49.1922 79.2283 49.2341 79.1909 49.2842L79.2154 49.2755C79.1381 49.5237 79.0259 49.6739 78.8789 49.7262L78.6829 49.7958C78.6582 49.9333 78.4894 50.1313 78.1765 50.3896C77.8694 50.6643 77.5444 50.8626 77.2014 50.9844ZM76.3774 44.6274C76.5244 44.5752 76.6464 44.5042 76.7433 44.4146C76.8565 44.3192 76.9587 44.2185 77.0498 44.1126C77.3432 43.6956 77.4687 43.2463 77.4263 42.7647C77.3839 42.2831 77.2241 41.9628 76.9469 41.8038C76.8968 41.7664 76.8444 41.7482 76.7896 41.7493C76.729 41.734 76.666 41.738 76.6007 41.7612C76.421 41.8251 76.2372 41.9548 76.0491 42.1504C75.8774 42.3401 75.7231 42.5789 75.5862 42.8667C75.4494 43.1544 75.3433 43.4772 75.2681 43.8351L75.1324 44.4627C75.1593 44.4348 75.1809 44.4179 75.1972 44.4121C75.2241 44.3842 75.2457 44.3673 75.262 44.3615C75.409 44.3093 75.5244 44.3235 75.6082 44.404C75.6921 44.4846 75.784 44.5623 75.8842 44.6371C76.0007 44.7061 76.1651 44.7028 76.3774 44.6274Z" fill="url(#paint1_linear_2_50)"/>
<rect x="-0.689591" y="0.156411" width="3" height="3" transform="matrix(-0.846002 -0.533179 -0.533179 0.846002 44.8104 21.6564)" stroke="url(#paint2_linear_2_50)"/>
<rect x="-0.689591" y="0.156411" width="3" height="3" transform="matrix(-0.846002 -0.533179 -0.533179 0.846002 4.32799 66.7892)" stroke="url(#paint3_linear_2_50)"/>
<defs>
<linearGradient id="paint0_linear_2_50" x1="1354.91" y1="142.775" x2="1349.68" y2="194.937" gradientUnits="userSpaceOnUse">
<stop stop-color="#FFB347"/>
<stop offset="1" stop-color="#FF7283"/>
</linearGradient>
<linearGradient id="paint1_linear_2_50" x1="17.0684" y1="76.0991" x2="94.0547" y2="48.0612" gradientUnits="userSpaceOnUse">
<stop stop-color="#FFB347"/>
<stop offset="1" stop-color="#FF7283"/>
</linearGradient>
<linearGradient id="paint2_linear_2_50" x1="2" y1="0" x2="2" y2="4" gradientUnits="userSpaceOnUse">
<stop stop-color="#7CA1FF"/>
<stop offset="1" stop-color="#5AB9FE"/>
</linearGradient>
<linearGradient id="paint3_linear_2_50" x1="2.32831e-08" y1="4.00001" x2="4.00997" y2="3.98998" gradientUnits="userSpaceOnUse">
<stop stop-color="#FFB347"/>
<stop offset="1" stop-color="#FF7283"/>
</linearGradient>
</defs>
</svg>
