<svg width="476" height="127" viewBox="0 0 476 127" fill="none" xmlns="http://www.w3.org/2000/svg">
<path fill-rule="evenodd" clip-rule="evenodd" d="M70.1445 1.5615C70.2375 1.5225 70.341 1.5 70.4475 1.5H70.449C70.893 1.509 71.2515 1.872 71.2515 2.3175C71.2515 2.3775 71.244 2.436 71.2335 2.4855L68.001 18.8415V18.8445C67.929 19.2165 67.6035 19.497 67.2135 19.5C67.0785 19.5 66.9525 19.467 66.8475 19.4085L58.659 15.1125L60.336 11.562L55.65 13.5315L50.6865 10.929L50.682 10.9275C50.4255 10.785 50.25 10.512 50.25 10.1985C50.25 9.8565 50.457 9.5625 50.757 9.4335L70.149 1.56L70.1445 1.5615ZM66.7099 17.6431L69.5179 3.43506L52.6699 10.2766L55.7209 11.8756L63.3664 8.66106L60.6304 14.4526L66.7099 17.6431ZM55.6782 15H55.6437C55.1562 15 54.7617 15.3945 54.7617 15.882C54.7617 16.0275 54.7977 16.164 54.8607 16.2855L54.8577 16.281L57.9912 22.026C58.1547 22.311 58.4577 22.5 58.8027 22.5H58.8177H58.8252C59.1057 22.5 59.3577 22.377 59.5302 22.182V22.1805L62.0382 19.3095C62.1702 19.1595 62.2482 18.9645 62.2482 18.7485C62.2482 18.411 62.0532 18.12 61.7682 17.9835L61.7622 17.9805L56.1207 15.108C55.9917 15.0405 55.8402 15 55.6782 15ZM57.123 17.3027L60.3615 18.9512L58.923 20.5982L57.123 17.3027Z" fill="url(#paint0_linear_5337_52205)"/>
<mask id="mask0_5337_52205" style="mask-type:luminance" maskUnits="userSpaceOnUse" x="50" y="1" width="22" height="22">
<path fill-rule="evenodd" clip-rule="evenodd" d="M70.1445 1.5615C70.2375 1.5225 70.341 1.5 70.4475 1.5H70.449C70.893 1.509 71.2515 1.872 71.2515 2.3175C71.2515 2.3775 71.244 2.436 71.2335 2.4855L68.001 18.8415V18.8445C67.929 19.2165 67.6035 19.497 67.2135 19.5C67.0785 19.5 66.9525 19.467 66.8475 19.4085L58.659 15.1125L60.336 11.562L55.65 13.5315L50.6865 10.929L50.682 10.9275C50.4255 10.785 50.25 10.512 50.25 10.1985C50.25 9.8565 50.457 9.5625 50.757 9.4335L70.149 1.56L70.1445 1.5615ZM66.7099 17.6431L69.5179 3.43506L52.6699 10.2766L55.7209 11.8756L63.3664 8.66106L60.6304 14.4526L66.7099 17.6431ZM55.6782 15H55.6437C55.1562 15 54.7617 15.3945 54.7617 15.882C54.7617 16.0275 54.7977 16.164 54.8607 16.2855L54.8577 16.281L57.9912 22.026C58.1547 22.311 58.4577 22.5 58.8027 22.5H58.8177H58.8252C59.1057 22.5 59.3577 22.377 59.5302 22.182V22.1805L62.0382 19.3095C62.1702 19.1595 62.2482 18.9645 62.2482 18.7485C62.2482 18.411 62.0532 18.12 61.7682 17.9835L61.7622 17.9805L56.1207 15.108C55.9917 15.0405 55.8402 15 55.6782 15ZM57.123 17.3027L60.3615 18.9512L58.923 20.5982L57.123 17.3027Z" fill="white"/>
</mask>
<g mask="url(#mask0_5337_52205)">
</g>
<path fill-rule="evenodd" clip-rule="evenodd" d="M121.746 22.4144L120.332 23.8286L121.746 25.2428L123.161 23.8286L121.746 22.4144ZM118.918 23.8286L121.746 26.657L124.575 23.8286L121.746 21.0002L118.918 23.8286Z" fill="url(#paint1_linear_5337_52205)"/>
<path fill-rule="evenodd" clip-rule="evenodd" d="M54.6678 24.0513L53.9356 24.7324C53.3276 25.2979 52.4911 26.3062 51.5164 27.7328L49.865 26.6045C50.8752 25.1261 51.8084 23.9797 52.5735 23.268L53.3057 22.5869L54.6678 24.0513ZM42.4925 41.4971C43.5054 38.701 44.612 36.1314 45.7258 33.8483L47.5233 34.7252C46.4395 36.9467 45.3609 39.4511 44.373 42.1783L42.4925 41.4971ZM475.913 41.0666L475.173 41.7397C474.167 42.6555 473.164 43.5549 472.164 44.4379L470.84 42.9389C471.832 42.0625 472.828 41.1699 473.827 40.2607L474.566 39.5875L475.913 41.0666ZM466.12 49.6111C464.036 51.3374 461.966 52.9935 459.909 54.5815L458.687 52.9984C460.725 51.4248 462.778 49.7831 464.844 48.071L466.12 49.6111ZM38.5379 57.6161C38.9 54.7949 39.4288 52.0602 40.0743 49.4467L42.016 49.9262C41.3873 52.4717 40.8732 55.1311 40.5216 57.8707L38.5379 57.6161ZM453.519 59.3286C451.307 60.9075 449.11 62.4083 446.928 63.8339L445.834 62.1595C447.993 60.7493 450.167 59.264 452.358 57.7006L453.519 59.3286ZM270.929 66.6465C268.218 66.8857 265.679 67.5228 263.273 68.4887L262.528 66.6328C265.106 65.5974 267.837 64.9116 270.753 64.6543L270.929 66.6465ZM282.721 67.9604C281.382 67.571 280.083 67.2664 278.822 67.0409L279.174 65.0721C280.508 65.3107 281.876 65.6318 283.279 66.04C284.548 66.4091 285.819 66.7851 287.091 67.1664L286.516 69.0822C285.249 68.7022 283.984 68.3278 282.721 67.9604ZM38.5987 74.2393C38.1887 71.4386 38.0025 68.6569 38 65.922L40 65.9202C40.0024 68.5656 40.1825 71.2508 40.5776 73.9495L38.5987 74.2393ZM440.147 68.0528C437.807 69.4357 435.484 70.7332 433.178 71.9489L432.245 70.1797C434.522 68.9794 436.817 67.6978 439.129 66.331L440.147 68.0528ZM299.475 73.0795C297.678 72.5174 295.887 71.9572 294.101 71.4024L294.694 69.4924C296.482 70.0477 298.275 70.6085 300.073 71.1707C300.806 71.4 301.539 71.6294 302.274 71.8588L301.677 73.7678C300.942 73.5382 300.208 73.3087 299.475 73.0795ZM256.353 72.3567C254.244 73.8736 252.226 75.6382 250.268 77.5908L248.855 76.1744C250.872 74.1635 252.972 72.3252 255.185 70.7332L256.353 72.3567ZM426.01 75.4928C423.539 76.6342 421.086 77.6833 418.651 78.645L417.916 76.7849C420.315 75.8372 422.734 74.8028 425.172 73.677L426.01 75.4928ZM316.889 78.3972C314.335 77.6543 311.796 76.8916 309.27 76.1195L309.855 74.2069C312.374 74.9772 314.905 75.7371 317.447 76.4768L316.889 78.3972ZM332.276 82.5091C329.686 81.8906 327.113 81.2331 324.556 80.5465L325.074 78.6149C327.616 79.2973 330.171 79.9501 332.741 80.5638L332.276 82.5091ZM411.122 81.3646C408.543 82.2095 405.984 82.9587 403.445 83.6183L402.942 81.6826C405.441 81.0335 407.959 80.2959 410.5 79.4639L411.122 81.3646ZM43.5874 90.1209C42.2978 87.5652 41.2624 84.9792 40.4503 82.3849L42.359 81.7874C43.1394 84.2804 44.1341 86.7647 45.3729 89.22L43.5874 90.1209ZM347.916 85.6555C345.279 85.2347 342.662 84.7566 340.063 84.2307L340.46 82.2705C343.034 82.7913 345.624 83.2644 348.231 83.6805L347.916 85.6555ZM244.833 83.5993C243.13 85.6499 241.458 87.8012 239.792 90.0061L238.196 88.8006C239.872 86.5827 241.564 84.4048 243.294 82.3214L244.833 83.5993ZM395.648 85.3809C392.994 85.8918 390.363 86.3085 387.752 86.6384L387.502 84.6542C390.07 84.3296 392.659 83.9196 395.269 83.417L395.648 85.3809ZM363.795 87.4043C361.118 87.2504 358.463 87.0224 355.828 86.7297L356.049 84.7419C358.651 85.031 361.27 85.2558 363.91 85.4076L363.795 87.4043ZM379.777 87.3876C377.091 87.5541 374.427 87.6337 371.783 87.6348L371.783 85.6348C374.386 85.6337 377.009 85.5553 379.653 85.3914L379.777 87.3876ZM234.904 96.5781C233.274 98.7783 231.627 100.983 229.946 103.14L228.369 101.91C230.034 99.7735 231.669 97.5851 233.297 95.3873L234.904 96.5781ZM53.3142 103.613C51.2924 101.541 49.5059 99.4138 47.9349 97.2453L49.5545 96.0719C51.0673 98.1601 52.7907 100.213 54.7456 102.217L53.3142 103.613ZM62.8545 111.678C61.6913 110.86 60.5769 110.027 59.5096 109.182L60.7515 107.614C61.7885 108.436 62.8726 109.246 64.0054 110.043C65.171 110.863 66.3154 111.626 67.4402 112.335L66.3735 114.027C65.2189 113.299 64.0464 112.517 62.8545 111.678ZM224.695 109.514C222.841 111.615 220.921 113.618 218.91 115.464L217.558 113.99C219.506 112.202 221.377 110.252 223.195 108.191L224.695 109.514ZM148.05 116.986C145.186 116.773 142.443 116.714 139.804 116.77L139.761 114.771C142.461 114.713 145.267 114.774 148.198 114.991L148.05 116.986ZM131.567 117.319C128.743 117.629 126.027 118.042 123.387 118.505L123.042 116.535C125.711 116.067 128.472 115.646 131.35 115.331L131.567 117.319ZM164.292 119.694C161.5 118.979 158.817 118.415 156.232 117.98L156.564 116.008C159.205 116.452 161.943 117.028 164.788 117.757L164.292 119.694ZM81.7649 121.074C79.1824 120.352 76.5323 119.377 73.7887 118.1L74.6332 116.287C77.2819 117.52 79.8298 118.457 82.3035 119.148L81.7649 121.074ZM115.213 120.077C112.431 120.636 109.698 121.184 106.988 121.64L106.656 119.668C109.33 119.218 112.032 118.676 114.819 118.116L115.213 120.077ZM212.353 120.627C210.008 122.168 207.532 123.472 204.895 124.472L204.185 122.602C206.671 121.66 209.017 120.426 211.254 118.955L212.353 120.627ZM176.151 123.437C174.819 122.941 173.509 122.477 172.222 122.045L172.858 120.149C174.167 120.588 175.497 121.059 176.849 121.563C178.168 122.055 179.455 122.484 180.711 122.854L180.146 124.772C178.843 124.389 177.511 123.944 176.151 123.437ZM98.6171 122.676C95.8241 122.866 93.0065 122.874 90.1242 122.611L90.3057 120.619C93.0661 120.871 95.7762 120.865 98.4812 120.681L98.6171 122.676ZM196.721 126.464C194.072 126.77 191.283 126.78 188.336 126.454L188.556 124.466C191.359 124.777 193.997 124.765 196.492 124.477L196.721 126.464Z" fill="url(#paint2_linear_5337_52205)"/>
<path fill-rule="evenodd" clip-rule="evenodd" d="M2.44639 22.3793L4.1384 23.4456L3.07204 25.1376L1.38003 24.0713L2.44639 22.3793ZM5.51758 23.1328L3.38486 26.5168L0.00085187 24.3841L2.13357 21.0001L5.51758 23.1328Z" fill="url(#paint3_linear_5337_52205)"/>
<path fill-rule="evenodd" clip-rule="evenodd" d="M86.4464 72.3793L88.1384 73.4456L87.072 75.1376L85.38 74.0713L86.4464 72.3793ZM89.5176 73.1328L87.3849 76.5168L84.0009 74.3841L86.1336 71.0001L89.5176 73.1328Z" fill="url(#paint4_linear_5337_52205)"/>
<defs>
<linearGradient id="paint0_linear_5337_52205" x1="60.7507" y1="-1.25234" x2="60.7507" y2="28.8627" gradientUnits="userSpaceOnUse">
<stop stop-color="#FF76EC"/>
<stop offset="1" stop-color="#8A87E9"/>
</linearGradient>
<linearGradient id="paint1_linear_5337_52205" x1="119.961" y1="22.0437" x2="124.018" y2="26.0998" gradientUnits="userSpaceOnUse">
<stop stop-color="#FF76EC"/>
<stop offset="1" stop-color="#8A87E9"/>
</linearGradient>
<linearGradient id="paint2_linear_5337_52205" x1="256.956" y1="8.94197" x2="256.956" y2="158.239" gradientUnits="userSpaceOnUse">
<stop stop-color="#FF76EC"/>
<stop offset="1" stop-color="#8A87E9"/>
</linearGradient>
<linearGradient id="paint3_linear_5337_52205" x1="3.82557" y1="22.0665" x2="1.69286" y2="25.4505" gradientUnits="userSpaceOnUse">
<stop stop-color="#7CA1FF"/>
<stop offset="1" stop-color="#5AB9FE"/>
</linearGradient>
<linearGradient id="paint4_linear_5337_52205" x1="87.3849" y1="76.5168" x2="83.9978" y2="74.3703" gradientUnits="userSpaceOnUse">
<stop stop-color="#FFB347"/>
<stop offset="1" stop-color="#FF7283"/>
</linearGradient>
</defs>
</svg>
