<svg width="275" height="194" viewBox="0 0 275 194" fill="none" xmlns="http://www.w3.org/2000/svg">
<path d="M189.829 118.08C189.748 118.136 189.583 118.124 189.334 118.044C189.081 117.98 188.898 117.824 188.784 117.574C188.708 117.314 188.689 117.029 188.728 116.719C188.766 116.408 188.843 115.982 188.959 115.439C189.169 114.861 189.482 114.107 189.896 113.178C190.311 112.249 190.771 111.214 191.277 110.072C191.803 108.917 192.334 107.735 192.869 106.529C193.13 105.96 193.341 105.478 193.5 105.084C193.676 104.693 193.8 104.398 193.871 104.2C193.962 103.987 194.008 103.881 194.008 103.881C193.985 103.912 193.953 103.942 193.913 103.97C193.89 104.001 193.866 104.032 193.843 104.063C193.82 104.094 193.797 104.125 193.773 104.156C193.773 104.156 193.729 104.209 193.639 104.316C193.566 104.427 193.41 104.61 193.169 104.866C192.996 105.046 192.825 105.261 192.656 105.513C192.487 105.764 192.218 106.085 191.848 106.476C191.482 106.939 191.069 107.472 190.608 108.075C190.146 108.679 189.761 109.155 189.451 109.504C189.298 109.67 189.157 109.812 189.03 109.93C188.92 110.051 188.841 110.151 188.791 110.23C188.689 110.406 188.537 110.616 188.334 110.861C188.131 111.106 187.904 111.338 187.653 111.557C187.523 111.692 187.354 111.846 187.146 112.02C186.956 112.197 186.786 112.36 186.635 112.509C186.488 112.641 186.415 112.707 186.415 112.707C186.362 112.803 186.222 112.945 185.994 113.133C185.766 113.321 185.491 113.527 185.169 113.75C184.867 113.96 184.559 114.151 184.246 114.323C183.563 114.693 183.015 114.902 182.601 114.95C182.204 115.002 181.795 114.778 181.374 114.279C181.202 113.966 181.072 113.661 180.985 113.363C180.901 113.049 180.904 112.644 180.993 112.15C181.083 111.655 181.293 110.98 181.624 110.123C181.845 109.582 182.081 109.008 182.331 108.402C182.599 107.799 182.862 107.221 183.12 106.669C183.382 106.099 183.611 105.612 183.807 105.207C184.024 104.789 184.173 104.499 184.255 104.337C184.384 103.92 184.432 103.7 184.401 103.677C184.373 103.636 184.271 103.715 184.094 103.912C183.941 104.078 183.648 104.43 183.216 104.969C182.784 105.507 182.291 106.14 181.737 106.868C181.2 107.598 180.671 108.331 180.151 109.064C179.217 110.234 178.433 111.211 177.798 111.995C177.163 112.778 176.644 113.407 176.242 113.88C175.842 114.336 175.534 114.677 175.317 114.902C175.114 115.147 174.961 115.313 174.857 115.4C174.767 115.507 174.702 115.574 174.662 115.602C174.409 115.539 174.209 115.379 174.062 115.124C173.914 114.868 173.808 114.576 173.744 114.247C173.741 114.071 173.748 113.887 173.765 113.696C173.782 113.505 173.836 113.304 173.927 113.091C174.038 112.865 174.187 112.628 174.373 112.379C174.675 111.976 174.956 111.639 175.216 111.369C175.476 111.099 175.638 110.935 175.701 110.876C175.808 110.772 175.9 110.656 175.976 110.529C176.051 110.402 176.109 110.28 176.147 110.164C176.251 110.077 176.418 109.887 176.647 109.593C176.893 109.303 177.144 108.988 177.399 108.646C177.576 108.449 177.819 108.176 178.129 107.827C178.441 107.461 178.776 107.072 179.132 106.661C179.491 106.233 179.809 105.841 180.084 105.486C181.079 104.274 181.87 103.307 182.458 102.586C183.05 101.847 183.459 101.384 183.687 101.196C183.822 101.132 183.954 100.989 184.082 100.765C184.231 100.528 184.35 100.356 184.44 100.249C184.765 99.8145 185.075 99.4653 185.369 99.2015C185.683 98.9237 185.934 98.8017 186.122 98.8356C186.258 98.8603 186.42 98.9423 186.606 99.0817C186.809 99.2241 186.996 99.4076 187.167 99.6323C187.314 99.8879 187.431 100.217 187.517 100.62C187.622 101.009 187.57 101.493 187.36 102.072C187.294 102.341 187.191 102.666 187.052 103.046C186.916 103.409 186.779 103.772 186.643 104.135C186.507 104.498 186.382 104.801 186.268 105.045C185.992 105.787 185.706 106.493 185.409 107.162C185.132 107.816 184.873 108.421 184.632 108.976C184.391 109.532 184.187 110.023 184.022 110.451C183.859 110.862 183.736 111.201 183.653 111.468C183.587 111.738 183.588 111.923 183.658 112.024C183.706 112.05 183.778 112.045 183.872 112.01C183.987 111.96 184.076 111.905 184.139 111.846C184.266 111.729 184.385 111.609 184.495 111.488C184.605 111.367 184.747 111.216 184.92 111.036C185.261 110.711 185.616 110.352 185.986 109.961C186.377 109.556 186.837 109.058 187.366 108.467C187.916 107.862 188.57 107.117 189.329 106.232C190.091 105.331 191.024 104.214 192.128 102.881C192.628 102.355 193.111 101.826 193.578 101.293C194.044 100.761 194.451 100.359 194.8 100.088C195.105 99.8609 195.437 99.8242 195.797 99.9773C196.174 100.134 196.494 100.411 196.756 100.811C197.019 101.211 197.122 101.661 197.067 102.162C197.041 102.404 196.912 102.821 196.682 103.414C196.472 103.992 196.205 104.64 195.882 105.356C195.558 106.073 195.212 106.768 194.844 107.441C194.74 107.722 194.586 108.09 194.38 108.546C194.174 109.002 193.958 109.465 193.733 109.935C193.507 110.405 193.299 110.825 193.108 111.196C192.884 111.754 192.698 112.196 192.551 112.522C192.422 112.851 192.316 113.237 192.236 113.68C192.033 113.926 191.86 114.299 191.716 114.802C191.573 115.304 191.452 115.828 191.353 116.374C191.164 117.027 190.935 117.47 190.664 117.703C190.41 117.939 190.25 118.042 190.185 118.012C190.058 117.937 189.939 117.959 189.829 118.08Z" fill="url(#paint0_linear_4_8)"/>
<path d="M199.009 117.943C198.445 118.141 197.868 118.213 197.279 118.159C196.71 118.091 196.195 117.919 195.735 117.642C195.277 117.348 194.93 116.977 194.694 116.529C194.564 116.277 194.465 115.898 194.398 115.392C194.334 114.87 194.428 114.2 194.682 113.383C194.926 112.617 195.308 111.867 195.828 111.133C196.366 110.402 196.971 109.781 197.645 109.268C198.319 108.756 199.009 108.449 199.714 108.348C199.968 108.306 200.218 108.289 200.463 108.298C200.728 108.293 201.062 108.345 201.465 108.453C201.848 108.575 202.179 108.741 202.459 108.95C202.741 109.142 202.935 109.335 203.04 109.53C203.264 109.853 203.395 110.149 203.434 110.421C203.473 110.692 203.463 110.945 203.403 111.181C203.219 111.712 202.865 112.255 202.341 112.812C201.835 113.373 201.196 113.741 200.424 113.919C200.112 113.986 199.757 114.001 199.359 113.964C198.96 113.927 198.432 113.779 197.775 113.519C197.381 113.36 197.1 113.353 196.933 113.499C196.783 113.648 196.671 113.971 196.599 114.469C196.578 114.782 196.596 115.068 196.656 115.325C196.735 115.568 196.92 115.76 197.212 115.901C197.592 116.04 197.872 116.1 198.052 116.079C198.235 116.042 198.465 115.987 198.742 115.914C198.894 115.853 199.039 115.782 199.177 115.701C199.332 115.624 199.478 115.545 199.616 115.464C199.771 115.386 199.896 115.329 199.99 115.294C200.088 115.241 200.181 115.214 200.269 115.212C200.358 115.21 200.445 115.217 200.53 115.233C200.714 115.284 200.875 115.418 201.012 115.637C201.148 115.855 201.227 116.055 201.247 116.234C201.222 116.371 201.102 116.552 200.885 116.777C200.671 116.984 200.395 117.199 200.055 117.419C199.736 117.626 199.387 117.8 199.009 117.943ZM199.708 112.178C199.837 112.148 200.029 112.06 200.285 111.912C200.557 111.768 200.806 111.61 201.031 111.439C201.258 111.252 201.383 111.098 201.405 110.979C201.439 110.791 201.34 110.606 201.109 110.423C200.895 110.243 200.584 110.161 200.176 110.175C200.033 110.185 199.854 110.249 199.639 110.369C199.424 110.488 199.204 110.633 198.979 110.804C198.757 110.958 198.562 111.116 198.391 111.279C198.224 111.425 198.105 111.545 198.036 111.638C198.088 111.735 198.213 111.828 198.408 111.916C198.603 112.004 198.821 112.07 199.059 112.113C199.315 112.16 199.532 112.181 199.708 112.178Z" fill="url(#paint1_linear_4_8)"/>
<path d="M204.866 119.161C204.723 119.17 204.541 119.155 204.319 119.115C204.101 119.058 203.909 118.997 203.745 118.932C203.6 118.853 203.533 118.788 203.542 118.737C203.557 118.651 203.523 118.601 203.437 118.586C203.437 118.586 203.356 118.5 203.193 118.33C203.033 118.143 202.882 118.001 202.741 117.905C202.631 117.638 202.578 117.347 202.582 117.031C202.607 116.7 202.811 116.156 203.195 115.397C203.31 114.855 203.567 114.311 203.965 113.767C204.366 113.205 204.841 112.674 205.389 112.175C205.937 111.675 206.49 111.246 207.048 110.889C207.609 110.515 208.097 110.251 208.513 110.097C208.795 109.901 209.133 109.831 209.529 109.884C209.941 109.941 210.285 110.083 210.562 110.309C210.717 110.425 210.873 110.63 211.032 110.923C211.19 111.215 211.337 111.524 211.472 111.848C211.611 112.154 211.711 112.428 211.773 112.668C211.79 112.865 211.802 113.043 211.808 113.203C211.835 113.349 211.838 113.526 211.818 113.733C211.798 113.941 211.726 114.245 211.601 114.645C211.46 114.937 211.326 115.238 211.199 115.55C211.093 115.848 211.01 116.159 210.951 116.483C210.859 116.801 210.851 117.037 210.929 117.192C211.023 117.35 211.192 117.39 211.436 117.31C211.659 117.245 211.874 117.275 212.08 117.4C212.289 117.509 212.418 117.673 212.467 117.893C212.535 118.099 212.465 118.342 212.256 118.621C212.113 118.824 211.913 119.008 211.654 119.173C211.395 119.337 211.117 119.463 210.819 119.55C210.525 119.62 210.25 119.632 209.994 119.586C209.806 119.552 209.631 119.45 209.468 119.28C209.308 119.092 209.175 118.857 209.067 118.573C208.96 118.289 208.883 117.985 208.836 117.659L208.789 117.043L207.715 117.721C207.45 117.92 207.189 118.101 206.93 118.266C206.691 118.416 206.539 118.53 206.472 118.606C206.359 118.744 206.164 118.85 205.886 118.923C205.626 118.999 205.286 119.078 204.866 119.161ZM206.001 116.83C206.321 116.711 206.606 116.551 206.854 116.35C207.119 116.151 207.38 115.925 207.637 115.672C207.897 115.402 208.177 115.118 208.478 114.82C208.839 114.48 209.1 114.202 209.263 113.985C209.442 113.77 209.591 113.533 209.709 113.273C209.674 113.073 209.616 112.859 209.534 112.633C209.454 112.39 209.356 112.249 209.24 112.21C209.001 112.167 208.685 112.26 208.292 112.488C207.915 112.719 207.481 113.072 206.99 113.547C206.907 113.62 206.797 113.741 206.661 113.91C206.524 114.08 206.39 114.24 206.256 114.392C206.143 114.53 206.065 114.622 206.022 114.667C205.958 114.726 205.852 114.874 205.704 115.111C205.575 115.335 205.454 115.568 205.339 115.812C205.228 116.038 205.163 116.203 205.144 116.305C205.126 116.407 205.114 116.52 205.11 116.642C205.122 116.768 205.194 116.86 205.324 116.919C205.454 116.977 205.68 116.948 206.001 116.83Z" fill="url(#paint2_linear_4_8)"/>
<path d="M221.905 121.977C221.535 121.875 221.234 121.742 220.999 121.576C220.785 121.396 220.637 121.096 220.554 120.676C220.536 120.391 220.552 120.104 220.605 119.814C220.677 119.51 220.755 119.224 220.839 118.958C220.925 118.674 220.987 118.43 221.024 118.225C221.03 118.191 221.043 118.123 221.061 118.02C221.08 117.918 221.097 117.824 221.112 117.739C221.124 117.477 221.084 117.311 220.991 117.241C220.918 117.158 220.763 117.138 220.525 117.184C220.136 117.289 219.702 117.449 219.224 117.662C218.765 117.86 218.271 118.106 217.743 118.398C217.235 118.676 216.705 118.976 216.153 119.299C215.704 119.641 215.362 119.923 215.128 120.145C214.912 120.37 214.709 120.465 214.522 120.431C214.373 120.475 214.231 120.431 214.096 120.301C213.961 120.171 213.821 120.023 213.675 119.855C213.58 119.697 213.466 119.5 213.332 119.265C213.219 119.015 213.151 118.853 213.13 118.779C213.179 118.506 213.241 118.262 213.315 118.046C213.406 117.834 213.516 117.616 213.644 117.393C213.79 117.172 213.959 116.921 214.151 116.639C214.24 116.532 214.322 116.423 214.395 116.313C214.487 116.189 214.59 116.058 214.703 115.919C214.815 115.693 214.958 115.437 215.133 115.152C215.325 114.869 215.505 114.602 215.674 114.351C215.942 113.942 216.156 113.584 216.317 113.278C216.478 112.973 216.627 112.639 216.763 112.276C216.752 112.239 216.769 112.189 216.816 112.127C216.862 112.065 216.921 112.031 216.993 112.027L217.018 112.031L217.044 112.036C217.179 111.972 217.402 112.004 217.714 112.131C218.045 112.243 218.284 112.384 218.43 112.551C218.733 112.923 218.831 113.354 218.725 113.846C218.618 114.337 218.245 114.939 217.605 115.652C217.437 115.903 217.262 116.136 217.083 116.35C216.923 116.55 216.836 116.693 216.82 116.778C216.82 116.778 216.898 116.739 217.053 116.661C217.208 116.584 217.392 116.494 217.604 116.391C217.819 116.271 218.003 116.181 218.155 116.121C218.255 116.051 218.471 115.931 218.801 115.762C219.134 115.576 219.494 115.385 219.882 115.191C220.269 114.997 220.577 114.85 220.807 114.751C221.019 114.648 221.283 114.555 221.597 114.471C221.915 114.37 222.108 114.325 222.176 114.338C222.347 114.369 222.541 114.465 222.758 114.628C222.992 114.794 223.196 114.98 223.37 115.188C223.564 115.381 223.666 115.549 223.675 115.692C223.663 115.76 223.637 115.853 223.599 115.969C223.563 116.068 223.538 116.16 223.522 116.246C223.456 116.516 223.387 116.847 223.316 117.239C223.265 117.617 223.204 118.003 223.134 118.395C223.066 118.77 222.97 119.105 222.846 119.4C222.846 119.4 222.852 119.418 222.862 119.456C222.876 119.476 222.887 119.513 222.895 119.567C222.875 119.581 222.86 119.614 222.851 119.665C222.862 119.702 222.867 119.721 222.867 119.721C222.88 119.846 222.892 119.972 222.905 120.097C222.935 120.226 222.97 120.373 223.01 120.539C223.054 120.688 223.098 120.881 223.143 121.118C223.086 121.337 222.918 121.535 222.639 121.714C222.38 121.878 222.135 121.966 221.905 121.977Z" fill="url(#paint3_linear_4_8)"/>
<path d="M230.911 124.478C230.697 124.298 230.514 124.142 230.362 124.008C230.213 123.858 230.12 123.639 230.084 123.351C230.065 123.065 230.108 122.633 230.213 122.053C230.269 121.746 230.305 121.497 230.322 121.306C230.339 121.116 230.347 121.02 230.347 121.02C230.347 121.02 230.256 121.083 230.075 121.209C229.894 121.335 229.65 121.564 229.343 121.896C228.842 122.527 228.417 122.926 228.07 123.092C227.74 123.261 227.475 123.363 227.275 123.398C227.184 123.416 227.023 123.378 226.794 123.284C226.567 123.173 226.32 123.031 226.051 122.859C225.8 122.691 225.583 122.528 225.4 122.372C225.217 122.215 225.117 122.083 225.102 121.974C225.083 121.883 225.1 121.692 225.152 121.402C225.208 121.095 225.276 120.764 225.358 120.409C225.46 120.04 225.565 119.706 225.671 119.409C225.781 119.094 225.882 118.874 225.975 118.75C225.984 118.699 226.002 118.649 226.029 118.601C226.075 118.539 226.079 118.469 226.04 118.392C226.04 118.392 226.125 118.214 226.295 117.857C226.483 117.503 226.699 117.084 226.945 116.6C227.208 116.12 227.448 115.67 227.665 115.251C227.902 114.818 228.068 114.531 228.164 114.39C228.189 114.254 228.232 114.112 228.294 113.964C228.373 113.82 228.418 113.714 228.431 113.646C228.458 113.492 228.573 113.345 228.774 113.206C229.066 112.959 229.336 112.876 229.586 112.956C229.856 113.022 230.063 113.139 230.209 113.307C230.349 113.508 230.455 113.703 230.526 113.892C230.615 114.085 230.636 114.309 230.59 114.564C230.546 114.803 230.401 115.12 230.153 115.516C229.915 115.86 229.672 116.23 229.424 116.626C229.18 117.004 228.957 117.36 228.756 117.694C228.574 118.014 228.441 118.262 228.356 118.441C228.335 118.56 228.288 118.675 228.215 118.785C228.162 118.881 228.13 118.964 228.117 119.032C228.057 119.074 228.012 119.127 227.983 119.192C227.97 119.261 227.958 119.329 227.946 119.397C227.933 119.465 227.886 119.58 227.804 119.741C227.725 119.886 227.669 120.052 227.635 120.239C227.508 120.551 227.483 120.74 227.559 120.807C227.655 120.859 227.777 120.864 227.926 120.82C227.99 120.761 228.088 120.656 228.221 120.504C228.354 120.352 228.498 120.193 228.651 120.027C228.756 119.834 228.849 119.71 228.93 119.654C229.027 119.601 229.106 119.554 229.167 119.512C229.227 119.47 229.27 119.381 229.294 119.245C229.307 119.176 229.408 119.054 229.599 118.877C229.809 118.686 230.033 118.471 230.27 118.232C230.739 117.683 231.032 117.331 231.148 117.175C231.328 116.961 231.501 116.781 231.668 116.635C231.856 116.475 232.034 116.27 232.203 116.019C232.296 115.894 232.419 115.749 232.572 115.583C232.725 115.417 232.896 115.351 233.083 115.385C233.271 115.419 233.387 115.458 233.432 115.501C233.494 115.548 233.534 115.669 233.551 115.866C233.666 116.01 233.769 116.222 233.859 116.503C233.966 116.787 234.009 116.988 233.987 117.107C233.907 117.163 233.849 117.241 233.813 117.34C233.798 117.425 233.79 117.468 233.79 117.468C233.781 117.519 233.719 117.667 233.604 117.91C233.507 118.157 233.377 118.389 233.214 118.606C232.973 119.161 232.75 119.711 232.546 120.255C232.359 120.803 232.223 121.263 232.138 121.635C232.071 122.01 232.073 122.239 232.146 122.323C232.236 122.41 232.351 122.36 232.49 122.174C232.629 121.988 232.938 121.647 233.415 121.152C233.525 121.031 233.727 120.839 234.021 120.575C234.315 120.311 234.535 120.069 234.681 119.849C234.696 119.763 234.772 119.636 234.908 119.467C235.048 119.281 235.188 119.086 235.331 118.883C235.476 118.663 235.563 118.476 235.591 118.322C235.58 118.285 235.693 118.147 235.93 117.908C236.167 117.669 236.409 117.352 236.657 116.956C236.931 116.512 237.252 116.245 237.621 116.153C237.99 116.061 238.3 116.099 238.552 116.268C238.823 116.423 238.907 116.641 238.803 116.921C238.613 117.486 238.295 118.124 237.849 118.836C237.424 119.534 236.945 120.232 236.414 120.928C235.903 121.611 235.408 122.208 234.928 122.72C234.77 122.815 234.624 122.938 234.491 123.091C234.361 123.226 234.29 123.327 234.277 123.395C234.271 123.429 234.174 123.526 233.987 123.686C233.816 123.849 233.607 124.032 233.359 124.233C233.115 124.418 232.869 124.559 232.623 124.655C232.37 124.786 232.08 124.83 231.753 124.789C231.443 124.75 231.162 124.646 230.911 124.478Z" fill="url(#paint4_linear_4_8)"/>
<path d="M247.221 127.004C246.882 127.031 246.53 127.029 246.166 126.998C245.815 126.988 245.535 126.831 245.326 126.529C245.215 126.263 245.117 126.025 245.032 125.815C244.946 125.606 244.93 125.26 244.982 124.776C245.024 124.449 245.104 124.102 245.223 123.736C245.362 123.356 245.438 123.08 245.452 122.906C245.703 122.299 245.819 121.854 245.8 121.568C245.798 121.286 245.754 121.137 245.669 121.122C245.488 121.054 245.164 121.136 244.7 121.369C244.252 121.606 243.704 121.956 243.057 122.42C242.429 122.87 241.745 123.389 241.005 123.978C240.6 124.362 240.301 124.652 240.108 124.846C239.934 125.026 239.814 125.11 239.745 125.097C239.438 125.042 239.166 124.94 238.929 124.791C238.691 124.643 238.513 124.461 238.393 124.245C238.274 124.03 238.215 123.817 238.218 123.606C238.231 123.538 238.306 123.366 238.443 123.092C238.584 122.8 238.75 122.469 238.94 122.098C239.13 121.728 239.308 121.381 239.472 121.058C239.653 120.739 239.781 120.515 239.857 120.388C240.091 119.972 240.367 119.468 240.686 118.873C241.025 118.265 241.324 117.729 241.584 117.266C241.692 117.056 241.869 116.762 242.113 116.384C242.361 115.988 242.609 115.593 242.856 115.197C243.104 114.801 243.281 114.507 243.386 114.315C243.462 114.188 243.599 113.966 243.797 113.65C243.998 113.316 244.214 112.95 244.444 112.551C244.692 112.156 244.917 111.791 245.118 111.458C245.339 111.11 245.491 110.856 245.573 110.694C245.584 110.538 245.617 110.403 245.672 110.29C245.748 110.163 245.818 110.069 245.881 110.01C245.95 110.023 246.026 110.037 246.112 110.052C246.2 110.05 246.244 110.05 246.244 110.05C246.25 110.016 246.355 110.07 246.558 110.212C246.779 110.358 246.986 110.527 247.18 110.721C247.394 110.9 247.492 111.041 247.473 111.144C247.518 111.381 247.475 111.672 247.342 112.018C247.212 112.347 246.938 112.835 246.522 113.482C246.285 113.721 246.023 114.096 245.737 114.608C245.468 115.123 245.214 115.553 244.976 115.897C244.886 116.004 244.745 116.199 244.553 116.481C244.381 116.75 244.173 117.073 243.928 117.452C243.704 117.816 243.475 118.206 243.241 118.622C243.007 119.038 242.792 119.448 242.596 119.853C242.351 120.231 242.242 120.494 242.269 120.639C242.295 120.785 242.528 120.668 242.966 120.29C243.536 119.864 244.063 119.484 244.546 119.149C245.047 118.816 245.498 118.563 245.899 118.389C246.32 118.201 246.673 118.151 246.957 118.237C247.104 118.299 247.28 118.445 247.485 118.676C247.71 118.893 247.912 119.141 248.091 119.42C248.289 119.685 248.404 119.926 248.436 120.143C248.461 120.394 248.462 120.632 248.439 120.856C248.433 121.084 248.384 121.401 248.293 121.808C248.205 122.197 248.056 122.778 247.846 123.55C247.639 124.111 247.495 124.517 247.414 124.767C247.337 124.999 247.315 125.171 247.348 125.283C247.397 125.398 247.48 125.527 247.594 125.671C247.813 125.922 247.871 126.188 247.767 126.469C247.667 126.732 247.485 126.911 247.221 127.004Z" fill="url(#paint5_linear_4_8)"/>
<path d="M250.767 126.958C250.699 126.946 250.563 126.868 250.36 126.726C250.157 126.584 250.055 126.512 250.055 126.512C250.068 126.444 250.057 126.354 250.025 126.243C250.009 126.134 250.007 126.046 250.02 125.978C249.913 125.888 249.813 125.755 249.722 125.58C249.63 125.405 249.635 125.23 249.737 125.055C249.874 124.885 250.061 124.629 250.3 124.284C250.558 123.926 250.833 123.526 251.124 123.086C251.435 122.631 251.726 122.191 251.997 121.764C252.268 121.337 252.501 120.974 252.696 120.675C252.894 120.359 253.008 120.168 253.037 120.103C253.05 120.034 253.08 119.917 253.128 119.749C253.192 119.585 253.33 119.46 253.539 119.374C253.788 119.261 254.02 119.294 254.234 119.474C254.448 119.653 254.61 119.929 254.719 120.301C254.831 120.656 254.847 121.055 254.766 121.499C254.745 121.618 254.604 121.91 254.344 122.373C254.087 122.82 253.754 123.35 253.343 123.963C252.95 124.579 252.521 125.197 252.057 125.817C251.711 126.266 251.452 126.58 251.279 126.76C251.125 126.926 250.955 126.992 250.767 126.958ZM256.019 117.788C255.814 117.751 255.584 117.613 255.327 117.373C255.088 117.136 254.884 116.852 254.715 116.522C254.546 116.192 254.49 115.865 254.549 115.541C254.564 115.456 254.669 115.316 254.862 115.122C255.059 114.911 255.246 114.707 255.422 114.51C255.616 114.316 255.716 114.202 255.722 114.168C255.858 114.192 256.016 114.247 256.194 114.332C256.373 114.417 256.515 114.505 256.622 114.595C256.733 115.055 256.914 115.466 257.165 115.829C257.42 116.174 257.513 116.535 257.446 116.91C257.378 117.285 257.233 117.55 257.011 117.703C256.793 117.84 256.462 117.868 256.019 117.788Z" fill="url(#paint6_linear_4_8)"/>
<path d="M255.867 129.043C255.528 129.07 255.255 128.923 255.048 128.604C254.839 128.302 254.729 127.886 254.719 127.356C254.709 126.825 254.83 126.257 255.08 125.651C255.202 125.461 255.306 125.278 255.391 125.099C255.479 124.904 255.534 124.746 255.556 124.627C255.621 124.463 255.734 124.228 255.895 123.922C256.059 123.599 256.233 123.27 256.417 122.933C256.601 122.597 256.769 122.301 256.921 122.047C257.093 121.778 257.202 121.613 257.248 121.551C257.316 121.563 257.387 121.514 257.46 121.404C257.532 121.294 257.58 121.179 257.601 121.06C257.626 120.924 257.679 120.775 257.761 120.613C257.86 120.455 257.95 120.348 258.031 120.292C258.046 120.207 258.08 120.116 258.133 120.02C258.205 119.91 258.248 119.821 258.26 119.752C258.273 119.684 258.302 119.619 258.349 119.557C258.412 119.498 258.45 119.434 258.462 119.366C258.622 119.166 258.839 118.844 259.112 118.4C259.407 117.943 259.719 117.436 260.048 116.879C260.395 116.325 260.723 115.776 261.033 115.234C261.342 114.691 261.592 114.234 261.782 113.863C261.993 113.478 262.106 113.243 262.121 113.158C262.146 113.022 262.22 112.903 262.344 112.802C262.468 112.701 262.598 112.663 262.735 112.688C262.795 112.646 262.921 112.633 263.111 112.65C263.305 112.65 263.436 112.656 263.504 112.668C263.504 112.668 263.532 112.709 263.588 112.789C263.644 112.87 263.728 112.991 263.84 113.152C263.955 113.296 264.058 113.455 264.15 113.631C264.258 113.809 264.294 114 264.257 114.205C264.217 114.427 264.144 114.634 264.039 114.826C263.951 115.021 263.798 115.284 263.579 115.615C263.364 115.928 263.033 116.397 262.585 117.02C262.387 117.337 262.184 117.635 261.975 117.914C261.769 118.176 261.66 118.341 261.647 118.41C261.635 118.478 261.582 118.574 261.489 118.698C261.414 118.825 261.323 118.985 261.218 119.177C261.125 119.302 260.994 119.489 260.825 119.741C260.66 119.975 260.481 120.233 260.289 120.515C260.117 120.784 259.969 121.021 259.843 121.228C259.721 121.417 259.657 121.528 259.65 121.563C259.638 121.631 259.617 121.698 259.588 121.763C259.576 121.831 259.529 121.893 259.449 121.949C259.38 121.936 259.328 121.98 259.293 122.079C259.277 122.164 259.27 122.207 259.27 122.207C259.239 122.378 259.021 122.805 258.615 123.489C258.173 124.378 257.761 125.193 257.38 125.934C257.017 126.679 256.792 127.29 256.705 127.768C256.631 128.177 256.506 128.48 256.33 128.677C256.17 128.877 256.016 128.999 255.867 129.043Z" fill="url(#paint7_linear_4_8)"/>
<path d="M264.421 129.77C263.857 129.968 263.281 130.04 262.691 129.986C262.122 129.918 261.607 129.746 261.147 129.469C260.689 129.175 260.342 128.804 260.106 128.356C259.976 128.103 259.877 127.725 259.81 127.219C259.746 126.697 259.84 126.027 260.094 125.21C260.338 124.444 260.72 123.694 261.24 122.96C261.778 122.229 262.383 121.608 263.057 121.095C263.731 120.583 264.421 120.276 265.126 120.175C265.38 120.133 265.63 120.116 265.875 120.125C266.14 120.12 266.474 120.172 266.877 120.28C267.26 120.402 267.591 120.568 267.871 120.777C268.153 120.969 268.347 121.162 268.453 121.357C268.676 121.68 268.807 121.976 268.846 122.248C268.885 122.519 268.875 122.772 268.815 123.008C268.631 123.539 268.277 124.082 267.753 124.639C267.247 125.2 266.608 125.568 265.836 125.746C265.524 125.813 265.169 125.828 264.771 125.791C264.372 125.754 263.844 125.606 263.187 125.346C262.793 125.187 262.512 125.18 262.345 125.326C262.195 125.475 262.083 125.798 262.011 126.296C261.99 126.609 262.009 126.895 262.068 127.152C262.147 127.395 262.332 127.587 262.624 127.728C263.004 127.867 263.284 127.927 263.464 127.906C263.647 127.869 263.877 127.814 264.154 127.74C264.306 127.68 264.451 127.609 264.589 127.528C264.744 127.451 264.89 127.372 265.028 127.291C265.183 127.213 265.308 127.156 265.402 127.121C265.5 127.068 265.593 127.041 265.681 127.039C265.77 127.037 265.857 127.044 265.942 127.06C266.126 127.111 266.287 127.245 266.424 127.464C266.56 127.682 266.639 127.881 266.659 128.061C266.634 128.198 266.514 128.378 266.297 128.603C266.083 128.811 265.807 129.026 265.467 129.246C265.148 129.453 264.799 129.627 264.421 129.77ZM265.12 124.005C265.249 123.975 265.441 123.887 265.697 123.739C265.97 123.595 266.218 123.437 266.443 123.266C266.671 123.078 266.795 122.925 266.817 122.805C266.851 122.618 266.752 122.433 266.521 122.25C266.307 122.07 265.996 121.988 265.588 122.002C265.445 122.011 265.266 122.076 265.051 122.196C264.836 122.315 264.616 122.46 264.391 122.631C264.17 122.785 263.974 122.943 263.803 123.106C263.636 123.252 263.517 123.371 263.448 123.465C263.501 123.562 263.625 123.655 263.82 123.743C264.016 123.831 264.233 123.897 264.471 123.94C264.727 123.987 264.944 124.008 265.12 124.005Z" fill="url(#paint8_linear_4_8)"/>
<path d="M181.219 141.122C181.176 140.973 181.047 140.809 180.833 140.629C180.636 140.453 180.543 140.33 180.556 140.262C180.568 140.194 180.544 140.084 180.483 139.932C180.443 139.766 180.394 139.643 180.339 139.562C180.272 139.445 180.342 139.202 180.55 138.834C180.76 138.45 181.054 137.992 181.432 137.461C181.81 136.931 182.215 136.396 182.647 135.858C182.808 135.746 182.976 135.592 183.153 135.395C183.33 135.198 183.458 135.071 183.539 135.015C183.551 134.947 183.587 134.892 183.648 134.85C183.711 134.791 183.777 134.768 183.845 134.78L184.124 134.408C184.171 134.346 184.298 134.228 184.505 134.054C184.73 133.883 184.992 133.701 185.291 133.509C185.593 133.299 185.892 133.107 186.188 132.931C186.501 132.759 186.752 132.637 186.941 132.566C187.342 132.391 187.729 132.347 188.101 132.432C188.49 132.52 188.801 132.699 189.034 132.97C189.076 133.031 189.168 133.153 189.311 133.338C189.471 133.525 189.645 133.733 189.833 133.96C190.038 134.191 190.212 134.399 190.354 134.583L191.148 135.599L190.482 136.799C190.137 137.441 189.969 138.028 189.979 138.558C190.006 139.091 190.088 139.564 190.225 139.976C190.276 140.179 190.361 140.344 190.479 140.471C190.614 140.601 190.798 140.705 191.03 140.782C191.164 140.824 191.282 140.898 191.386 141.005C191.49 141.112 191.525 141.259 191.491 141.447C191.417 141.856 191.287 142.141 191.099 142.301C190.932 142.447 190.76 142.521 190.583 142.524C190.008 142.491 189.481 142.334 189.004 142.054C188.526 141.774 188.153 141.204 187.886 140.346C187.836 140.231 187.776 140.026 187.706 139.732C187.656 139.424 187.63 139.225 187.629 139.137C187.545 139.21 187.431 139.304 187.287 139.418C187.163 139.519 187.041 139.612 186.92 139.696C185.487 140.705 184.301 141.318 183.364 141.536C182.446 141.74 181.731 141.602 181.219 141.122ZM183.01 139.253C183.127 139.292 183.325 139.266 183.606 139.176C183.889 139.068 184.275 138.883 184.763 138.619C185.432 138.229 185.984 137.906 186.418 137.65C186.852 137.393 187.294 137.042 187.745 136.595L188.474 135.776C188.375 135.352 188.267 135.069 188.152 134.925C188.038 134.781 187.912 134.696 187.775 134.672C187.554 134.632 187.263 134.729 186.904 134.963C186.547 135.181 186.124 135.527 185.633 136.002C185.162 136.462 184.615 137.051 183.993 137.766C183.703 138.101 183.466 138.437 183.282 138.774C183.101 139.093 183.01 139.253 183.01 139.253Z" fill="url(#paint9_linear_4_8)"/>
<path d="M193.738 143.967C193.557 143.899 193.372 143.751 193.184 143.523C193 143.278 192.835 143.02 192.691 142.747C192.566 142.46 192.494 142.227 192.474 142.047C192.48 142.013 192.462 141.966 192.42 141.905C192.395 141.848 192.383 141.819 192.383 141.819C192.324 141.756 192.321 141.526 192.375 141.131C192.449 140.722 192.556 140.274 192.697 139.789C192.838 139.304 192.968 138.922 193.089 138.644C193.224 138.387 193.418 138.043 193.672 137.614C193.929 137.167 194.151 136.767 194.338 136.413L195.297 135.054L194.324 134.587C194.211 134.532 194.121 134.445 194.054 134.327C194.005 134.213 193.986 134.121 193.998 134.053C194.023 133.916 194.135 133.734 194.335 133.506C194.535 133.278 194.669 133.17 194.737 133.182C194.819 133.215 194.971 133.251 195.193 133.291C195.432 133.334 195.663 133.368 195.888 133.391C196.113 133.414 196.253 133.421 196.307 133.413C196.381 133.392 196.457 133.361 196.535 133.323C196.615 133.267 196.683 133.182 196.739 133.069C196.858 132.897 196.961 132.766 197.048 132.676C197.135 132.586 197.256 132.449 197.413 132.266C197.572 132.066 197.7 131.895 197.796 131.754C197.909 131.616 198.075 131.426 198.295 131.184C198.402 131.08 198.522 130.952 198.655 130.8C198.789 130.648 198.943 130.526 199.118 130.434C199.296 130.325 199.56 130.276 199.911 130.287C200.281 130.283 200.574 130.416 200.79 130.684C200.896 130.879 200.943 131.055 200.933 131.211C200.922 131.368 200.818 131.552 200.621 131.763C200.433 132.028 200.223 132.263 199.992 132.468C199.781 132.659 199.573 132.885 199.367 133.148C199.026 133.474 198.937 133.678 199.098 133.76C199.259 133.842 199.743 133.894 200.549 133.916C201.059 133.92 201.408 134.036 201.596 134.264C201.784 134.492 201.869 134.754 201.85 135.05C201.827 135.468 201.74 135.708 201.588 135.769C201.436 135.829 201.036 135.801 200.388 135.684C199.966 135.678 199.609 135.657 199.316 135.622C199.026 135.57 198.813 135.531 198.676 135.506C198.452 135.483 198.305 135.466 198.237 135.453C198.169 135.441 198.063 135.44 197.921 135.449C197.778 135.458 197.665 135.5 197.581 135.573C197.518 135.632 197.439 135.723 197.346 135.847C197.266 135.903 197.131 136.064 196.942 136.329C196.753 136.594 196.526 136.879 196.259 137.183C195.891 137.856 195.562 138.51 195.271 139.145C195 139.765 194.746 140.388 194.51 141.015C194.4 141.33 194.365 141.57 194.406 141.736C194.466 141.888 194.673 142.013 195.025 142.112C195.209 142.163 195.482 142.212 195.844 142.26C196.208 142.291 196.516 142.294 196.767 142.269C196.97 142.217 197.181 142.167 197.401 142.119C197.625 142.054 197.831 141.985 198.02 141.914C198.189 141.856 198.358 141.799 198.527 141.741C198.699 141.667 198.785 141.629 198.785 141.629C198.895 141.508 199.009 141.556 199.129 141.771C199.269 141.972 199.354 142.182 199.385 142.399C199.348 142.603 199.261 142.843 199.123 143.117C198.989 143.375 198.621 143.608 198.019 143.816C197.165 144.155 196.346 144.306 195.559 144.27C194.773 144.233 194.166 144.132 193.738 143.967Z" fill="url(#paint10_linear_4_8)"/>
<path d="M207.369 145.771C207.217 145.638 207.056 145.459 206.885 145.234C206.717 144.992 206.65 144.778 206.684 144.59C206.73 144.334 206.822 144.025 206.958 143.662C207.097 143.282 207.225 142.962 207.343 142.701C207.432 142.4 207.531 142.101 207.637 141.803C207.764 141.492 207.937 141.215 208.157 140.973C208.462 140.358 208.774 139.754 209.093 139.16C209.415 138.549 209.714 137.916 209.991 137.262C210.327 136.671 210.623 136.152 210.88 135.705C211.157 135.244 211.5 134.663 211.909 133.962C212.139 133.563 212.349 133.135 212.538 132.675C212.746 132.202 213.006 131.791 213.315 131.442C213.445 131.307 213.545 131.193 213.615 131.1C213.705 130.993 213.793 130.894 213.88 130.804C213.909 130.739 214.005 130.695 214.168 130.672C214.348 130.651 214.523 130.657 214.694 130.687C214.884 130.704 215.006 130.761 215.059 130.859C215.113 130.851 215.186 130.935 215.278 131.11C215.372 131.268 215.454 131.45 215.522 131.656C215.611 131.848 215.638 131.994 215.602 132.093C215.59 132.162 215.556 132.252 215.5 132.366C215.461 132.482 215.399 132.585 215.312 132.675C215.231 132.731 215.145 132.821 215.052 132.945C214.979 133.055 214.863 133.21 214.703 133.411C214.595 133.62 214.494 133.839 214.399 134.069C214.308 134.281 214.203 134.474 214.084 134.646C213.978 134.838 213.858 135.019 213.721 135.188C213.602 135.36 213.515 135.503 213.459 135.616C213.269 135.987 213.054 136.345 212.816 136.689C212.594 137.037 212.386 137.413 212.189 137.818C211.996 138.205 211.799 138.61 211.6 139.032C211.403 139.437 211.158 139.815 210.866 140.168C210.712 140.334 210.584 140.557 210.48 140.838C210.377 141.118 210.273 141.399 210.17 141.68C210.012 141.968 209.866 142.241 209.731 142.499C209.616 142.742 209.553 142.898 209.541 142.966C209.371 143.323 209.226 143.685 209.107 144.051C209.008 144.403 208.866 144.703 208.68 144.951C208.632 145.118 208.538 145.295 208.399 145.481C208.26 145.668 208.095 145.796 207.906 145.868C207.734 145.943 207.555 145.91 207.369 145.771Z" fill="url(#paint11_linear_4_8)"/>
<path d="M217.33 148.364C217.198 148.411 217.041 148.356 216.857 148.2C216.691 148.046 216.536 147.833 216.392 147.561C216.309 147.334 216.252 147.113 216.221 146.896C216.21 146.665 216.243 146.336 216.32 145.91C216.399 145.572 216.441 145.341 216.445 145.219C216.47 145.082 216.395 145.06 216.22 145.152C216.065 145.229 215.737 145.434 215.236 145.767C214.733 146.116 214.257 146.409 213.809 146.645C213.382 146.867 213.05 146.948 212.814 146.887C212.695 146.866 212.547 146.76 212.37 146.569C212.193 146.379 212.031 146.156 211.883 145.9C211.739 145.627 211.642 145.381 211.594 145.161C211.566 144.733 211.653 144.203 211.855 143.57C212.075 142.94 212.359 142.296 212.707 141.637C213.058 140.96 213.426 140.34 213.81 139.775C214.214 139.196 214.586 138.744 214.927 138.418C215.288 138.078 215.569 137.935 215.771 137.99C216.054 138.076 216.276 138.266 216.434 138.559C216.613 138.838 216.735 139.133 216.802 139.444C216.849 139.576 216.856 139.683 216.824 139.765C216.808 139.85 216.721 139.94 216.563 140.035C216.373 140.212 216.131 140.477 215.839 140.829C215.566 141.167 215.279 141.538 214.977 141.941C214.692 142.348 214.427 142.74 214.183 143.119C213.958 143.483 213.789 143.787 213.674 144.031C213.56 144.274 213.537 144.402 213.605 144.415C213.844 144.458 214.076 144.438 214.303 144.356C214.532 144.256 214.826 144.089 215.186 143.855C215.609 143.562 215.989 143.26 216.327 142.952C216.667 142.626 217.026 142.25 217.402 141.825C217.686 141.524 217.984 141.19 218.297 140.824C218.627 140.461 218.841 140.2 218.94 140.042C219.259 139.642 219.498 139.342 219.658 139.141C219.817 138.941 219.987 138.831 220.167 138.811C220.252 138.826 220.371 138.848 220.525 138.876C220.678 138.903 220.755 138.917 220.755 138.917C220.854 138.953 220.96 139.051 221.072 139.212C221.196 139.305 221.315 139.424 221.43 139.568C221.562 139.715 221.62 139.831 221.605 139.916C221.506 140.075 221.349 140.31 221.134 140.624C220.939 140.923 220.793 141.143 220.697 141.285C220.24 141.959 219.794 142.627 219.357 143.288C218.941 143.935 218.598 144.613 218.329 145.322C218.252 145.554 218.192 145.834 218.151 146.161C218.129 146.475 218.14 146.706 218.184 146.854C218.217 146.966 218.255 147.096 218.298 147.245C218.362 147.38 218.437 147.499 218.524 147.603C218.659 147.733 218.628 147.859 218.429 147.982C218.248 148.108 218.027 148.209 217.767 148.285C217.527 148.347 217.381 148.374 217.33 148.364Z" fill="url(#paint12_linear_4_8)"/>
<path d="M222.097 148.17C222.029 148.157 221.878 148.068 221.644 147.903C221.413 147.72 221.269 147.588 221.213 147.508C221.118 147.35 221.068 147.191 221.061 147.031C221.058 146.854 221.1 146.527 221.186 146.05C221.285 145.504 221.507 144.91 221.852 144.268C222.2 143.608 222.743 142.747 223.482 141.682L224.915 139.748C225.022 139.645 225.117 139.556 225.2 139.483C225.287 139.393 225.381 139.313 225.482 139.243C225.516 139.249 225.558 139.257 225.61 139.266C225.678 139.279 225.727 139.297 225.758 139.32C225.909 139.365 226.131 139.502 226.424 139.731C226.734 139.963 226.893 140.256 226.899 140.609C226.859 140.831 226.777 141.089 226.653 141.384C226.533 141.662 226.259 142.008 225.831 142.424C225.664 142.57 225.483 142.793 225.288 143.092C225.11 143.395 224.943 143.682 224.789 143.953C224.765 143.984 224.699 144.06 224.589 144.181C224.499 144.288 224.408 144.404 224.315 144.528C224.225 144.635 224.177 144.706 224.171 144.74L224.027 144.952L225.321 144.076C226.228 143.447 226.974 143.018 227.562 142.79C228.149 142.562 228.617 142.505 228.966 142.621C229.332 142.74 229.592 143.007 229.746 143.423C229.835 143.615 229.886 143.818 229.9 144.032C229.917 144.229 229.911 144.457 229.882 144.716C229.853 144.975 229.786 145.297 229.681 145.683L229.417 147.142C229.757 147.115 230.016 147.091 230.196 147.071C230.379 147.034 230.56 147.005 230.74 146.984C230.883 146.975 231.025 146.966 231.168 146.956C231.328 146.95 231.52 146.958 231.745 146.981C231.688 147.2 231.545 147.456 231.315 147.749C231.086 148.042 230.814 148.328 230.5 148.606C230.203 148.886 229.889 149.112 229.559 149.281C229.246 149.453 228.97 149.518 228.731 149.475C228.509 149.435 228.266 149.32 228.001 149.131C227.738 148.925 227.543 148.591 227.416 148.127C227.388 147.893 227.366 147.625 227.35 147.323C227.334 147.02 227.356 146.707 227.414 146.383L227.618 145.257C227.636 145.155 227.64 145.085 227.629 145.048C227.638 144.997 227.634 144.97 227.617 144.967C227.549 144.954 227.295 145.093 226.855 145.384C226.432 145.677 225.997 145.986 225.551 146.31C224.619 146.987 223.853 147.474 223.253 147.771C222.67 148.071 222.285 148.204 222.097 148.17Z" fill="url(#paint13_linear_4_8)"/>
<path d="M235.43 151.584C234.92 151.58 234.433 151.448 233.969 151.188C233.523 150.931 233.171 150.586 232.915 150.152C232.679 149.704 232.61 149.207 232.709 148.661C232.75 148.14 232.902 147.543 233.165 146.868C233.448 146.179 233.8 145.503 234.219 144.839C234.656 144.178 235.115 143.636 235.596 143.212C236.012 142.865 236.421 142.551 236.823 142.272C237.226 141.992 237.575 141.817 237.869 141.747C238.127 141.688 238.43 141.664 238.781 141.674C239.151 141.671 239.405 141.681 239.541 141.706C239.802 141.824 240.08 141.989 240.377 142.201C240.69 142.416 240.828 142.626 240.791 142.83C240.791 142.83 240.804 142.859 240.829 142.916C240.874 142.96 240.896 142.982 240.896 142.982C240.998 143 241.086 143.148 241.159 143.425C241.253 143.689 241.304 143.989 241.314 144.325C241.326 144.645 241.265 144.889 241.128 145.058C241.001 145.37 240.808 145.661 240.548 145.931C240.305 146.204 240.115 146.328 239.978 146.303C239.91 146.291 239.84 146.287 239.769 146.292C239.718 146.283 239.685 146.321 239.669 146.406C239.654 146.491 239.552 146.517 239.365 146.483C239.194 146.452 239.021 146.386 238.846 146.283C238.671 146.181 238.57 146.057 238.543 145.912C238.559 145.826 238.596 145.719 238.654 145.588C238.713 145.458 238.806 145.237 238.933 144.925C239.122 144.466 239.187 144.152 239.13 143.983C239.075 143.797 238.865 143.742 238.499 143.816C238.03 143.978 237.629 144.196 237.298 144.471C236.969 144.729 236.643 145.119 236.32 145.642C236.013 146.168 235.641 146.911 235.203 147.871C235.03 148.244 234.957 148.548 234.986 148.782C235.031 149.02 235.077 149.151 235.126 149.178C235.352 149.289 235.605 149.352 235.884 149.368C236.183 149.369 236.436 149.335 236.642 149.267C236.939 149.18 237.204 149.078 237.437 148.961C237.689 148.831 237.961 148.695 238.25 148.554C238.345 148.518 238.439 148.438 238.532 148.314C238.628 148.173 238.75 148.08 238.899 148.037C239.072 147.857 239.261 147.785 239.466 147.822C239.691 147.845 239.906 147.875 240.11 147.912C240.24 147.971 240.37 148.083 240.499 148.247C240.628 148.411 240.714 148.568 240.757 148.716C240.821 148.851 240.797 148.935 240.686 148.968C240.617 148.955 240.57 148.973 240.544 149.021C240.538 149.055 240.535 149.072 240.535 149.072C240.556 149.147 240.452 149.286 240.221 149.491C240.007 149.699 239.739 149.915 239.417 150.139C239.095 150.362 238.787 150.553 238.494 150.712C238.222 150.856 238.034 150.919 237.932 150.9C237.761 150.87 237.667 150.905 237.648 151.008C237.642 151.042 237.499 151.104 237.218 151.194C236.955 151.287 236.649 151.373 236.3 151.451C235.968 151.532 235.678 151.576 235.43 151.584Z" fill="url(#paint14_linear_4_8)"/>
<path d="M249.959 153.683C249.496 153.81 249.064 153.812 248.664 153.686C248.284 153.547 247.99 153.274 247.782 152.866C247.594 152.445 247.565 151.876 247.694 151.16C247.728 150.972 247.777 150.752 247.84 150.499C247.923 150.232 248.026 149.96 248.146 149.682C248.27 149.388 248.411 149.096 248.569 148.808C248.648 148.663 248.743 148.522 248.857 148.384C248.987 148.249 249.018 148.175 248.949 148.163C248.881 148.151 248.788 148.178 248.67 148.245C248.57 148.315 248.489 148.37 248.429 148.412C247.934 148.711 247.471 149.032 247.039 149.377C246.627 149.707 246.249 150.044 245.905 150.387C245.581 150.716 245.313 151.029 245.101 151.325C244.906 151.624 244.789 151.885 244.749 152.107C244.702 152.362 244.542 152.518 244.268 152.574C243.993 152.631 243.773 152.582 243.607 152.429C243.317 152.182 243.071 151.838 242.869 151.397C242.684 150.958 242.674 150.428 242.839 149.806C243.036 149.014 243.233 148.31 243.433 147.694C243.632 147.078 243.892 146.421 244.212 145.721C244.553 145.008 244.982 144.143 245.5 143.127C245.83 142.57 246.136 142.044 246.42 141.549C246.706 141.038 246.951 140.606 247.156 140.256C247.377 139.908 247.512 139.695 247.562 139.616C247.663 139.546 247.811 139.361 248.006 139.062C248.204 138.745 248.385 138.426 248.549 138.103C248.73 137.784 248.827 137.59 248.839 137.522C248.864 137.385 248.911 137.27 248.98 137.177C249.067 137.087 249.144 137.004 249.21 136.928C249.356 136.708 249.471 136.561 249.554 136.488C249.658 136.401 249.744 136.364 249.812 136.377C249.897 136.392 250.026 136.459 250.198 136.578C250.388 136.701 250.555 136.846 250.701 137.013C250.867 137.166 250.955 137.314 250.964 137.457C251.041 137.717 251.064 137.977 251.035 138.236C251.009 138.478 250.895 138.765 250.694 139.099C250.493 139.432 250.164 139.884 249.709 140.453C249.341 140.933 248.995 141.434 248.671 141.957C248.348 142.479 248.028 143.029 247.712 143.606C247.581 143.847 247.408 144.168 247.195 144.57C246.984 144.954 246.771 145.356 246.554 145.775C246.358 146.18 246.186 146.545 246.039 146.871C245.892 147.196 245.809 147.41 245.791 147.513C245.769 147.632 245.826 147.704 245.963 147.729C246.102 147.736 246.257 147.659 246.428 147.496C246.521 147.372 246.655 147.264 246.83 147.172C247.008 147.063 247.169 146.952 247.313 146.837C247.48 146.691 247.678 146.524 247.906 146.336C248.154 146.134 248.407 145.951 248.666 145.787C248.944 145.608 249.19 145.468 249.402 145.365C249.632 145.266 249.815 145.228 249.951 145.253C250.275 145.311 250.531 145.455 250.719 145.682C250.907 145.91 251.042 146.234 251.125 146.654C251.166 146.714 251.205 146.792 251.241 146.886C251.28 146.964 251.305 147.021 251.316 147.058C251.389 147.142 251.382 147.423 251.296 147.9C251.212 148.361 250.96 148.976 250.539 149.745C250.272 150.349 250.093 150.801 250.003 151.101C249.931 151.405 249.963 151.57 250.099 151.594C250.099 151.594 250.194 151.559 250.383 151.487C250.589 151.419 250.805 151.343 251.031 151.261C251.585 151.026 251.961 150.989 252.161 151.148C252.362 151.308 252.445 151.481 252.411 151.669C252.383 151.822 252.291 151.991 252.135 152.174C251.995 152.36 251.919 152.487 251.907 152.555C251.907 152.555 251.905 152.564 251.902 152.581C251.902 152.581 251.896 152.615 251.884 152.683C251.878 152.717 251.745 152.817 251.487 152.981C251.228 153.146 250.943 153.306 250.634 153.461C250.344 153.603 250.119 153.676 249.959 153.683Z" fill="url(#paint15_linear_4_8)"/>
<path fill-rule="evenodd" clip-rule="evenodd" d="M272.071 89.3793L270.379 90.4456L271.446 92.1376L273.138 91.0713L272.071 89.3793ZM269 90.1328L271.133 93.5168L274.517 91.3841L272.384 88.0001L269 90.1328Z" fill="url(#paint16_linear_4_8)"/>
<path fill-rule="evenodd" clip-rule="evenodd" d="M150.071 141.379L148.379 142.446L149.446 144.138L151.138 143.071L150.071 141.379ZM147 142.133L149.133 145.517L152.517 143.384L150.384 140L147 142.133Z" fill="url(#paint17_linear_4_8)"/>
<path fill-rule="evenodd" clip-rule="evenodd" d="M0.582796 179.952C-0.196598 180.735 -0.193917 182.001 0.588783 182.78L11.2705 193.417C12.0508 194.194 13.3126 194.194 14.0929 193.417L24.7746 182.78C25.5573 182.001 25.56 180.735 24.7806 179.952C24.0012 179.169 22.7349 179.167 21.9522 179.946L12.6817 189.177L3.41122 179.946C2.62852 179.167 1.36219 179.169 0.582796 179.952Z" fill="#FF7581"/>
<path fill-rule="evenodd" clip-rule="evenodd" d="M199 0C200.105 0 201 0.89543 201 2V4.9792C201 52.7025 162.313 91.3898 114.589 91.3898H106C55.7421 91.3898 15 132.132 15 182.39V189.332C15 190.436 14.1046 191.332 13 191.332C11.8954 191.332 11 190.436 11 189.332V182.39C11 129.923 53.533 87.3898 106 87.3898H114.589C160.104 87.3898 197 50.4933 197 4.9792V2C197 0.89543 197.895 0 199 0Z" fill="url(#paint18_linear_4_8)"/>
<defs>
<linearGradient id="paint0_linear_4_8" x1="169.061" y1="139.676" x2="263.066" y2="156.146" gradientUnits="userSpaceOnUse">
<stop stop-color="#FFB347"/>
<stop offset="1" stop-color="#FF7283"/>
</linearGradient>
<linearGradient id="paint1_linear_4_8" x1="169.061" y1="139.676" x2="263.066" y2="156.146" gradientUnits="userSpaceOnUse">
<stop stop-color="#FFB347"/>
<stop offset="1" stop-color="#FF7283"/>
</linearGradient>
<linearGradient id="paint2_linear_4_8" x1="169.061" y1="139.676" x2="263.066" y2="156.146" gradientUnits="userSpaceOnUse">
<stop stop-color="#FFB347"/>
<stop offset="1" stop-color="#FF7283"/>
</linearGradient>
<linearGradient id="paint3_linear_4_8" x1="169.061" y1="139.676" x2="263.066" y2="156.146" gradientUnits="userSpaceOnUse">
<stop stop-color="#FFB347"/>
<stop offset="1" stop-color="#FF7283"/>
</linearGradient>
<linearGradient id="paint4_linear_4_8" x1="169.061" y1="139.676" x2="263.066" y2="156.146" gradientUnits="userSpaceOnUse">
<stop stop-color="#FFB347"/>
<stop offset="1" stop-color="#FF7283"/>
</linearGradient>
<linearGradient id="paint5_linear_4_8" x1="169.061" y1="139.676" x2="263.066" y2="156.146" gradientUnits="userSpaceOnUse">
<stop stop-color="#FFB347"/>
<stop offset="1" stop-color="#FF7283"/>
</linearGradient>
<linearGradient id="paint6_linear_4_8" x1="169.061" y1="139.676" x2="263.066" y2="156.146" gradientUnits="userSpaceOnUse">
<stop stop-color="#FFB347"/>
<stop offset="1" stop-color="#FF7283"/>
</linearGradient>
<linearGradient id="paint7_linear_4_8" x1="169.061" y1="139.676" x2="263.066" y2="156.146" gradientUnits="userSpaceOnUse">
<stop stop-color="#FFB347"/>
<stop offset="1" stop-color="#FF7283"/>
</linearGradient>
<linearGradient id="paint8_linear_4_8" x1="169.061" y1="139.676" x2="263.066" y2="156.146" gradientUnits="userSpaceOnUse">
<stop stop-color="#FFB347"/>
<stop offset="1" stop-color="#FF7283"/>
</linearGradient>
<linearGradient id="paint9_linear_4_8" x1="169.061" y1="139.676" x2="263.066" y2="156.146" gradientUnits="userSpaceOnUse">
<stop stop-color="#FFB347"/>
<stop offset="1" stop-color="#FF7283"/>
</linearGradient>
<linearGradient id="paint10_linear_4_8" x1="169.061" y1="139.676" x2="263.066" y2="156.146" gradientUnits="userSpaceOnUse">
<stop stop-color="#FFB347"/>
<stop offset="1" stop-color="#FF7283"/>
</linearGradient>
<linearGradient id="paint11_linear_4_8" x1="169.061" y1="139.676" x2="263.066" y2="156.146" gradientUnits="userSpaceOnUse">
<stop stop-color="#FFB347"/>
<stop offset="1" stop-color="#FF7283"/>
</linearGradient>
<linearGradient id="paint12_linear_4_8" x1="169.061" y1="139.676" x2="263.066" y2="156.146" gradientUnits="userSpaceOnUse">
<stop stop-color="#FFB347"/>
<stop offset="1" stop-color="#FF7283"/>
</linearGradient>
<linearGradient id="paint13_linear_4_8" x1="169.061" y1="139.676" x2="263.066" y2="156.146" gradientUnits="userSpaceOnUse">
<stop stop-color="#FFB347"/>
<stop offset="1" stop-color="#FF7283"/>
</linearGradient>
<linearGradient id="paint14_linear_4_8" x1="169.061" y1="139.676" x2="263.066" y2="156.146" gradientUnits="userSpaceOnUse">
<stop stop-color="#FFB347"/>
<stop offset="1" stop-color="#FF7283"/>
</linearGradient>
<linearGradient id="paint15_linear_4_8" x1="169.061" y1="139.676" x2="263.066" y2="156.146" gradientUnits="userSpaceOnUse">
<stop stop-color="#FFB347"/>
<stop offset="1" stop-color="#FF7283"/>
</linearGradient>
<linearGradient id="paint16_linear_4_8" x1="270.692" y1="89.0665" x2="272.825" y2="92.4505" gradientUnits="userSpaceOnUse">
<stop stop-color="#7CA1FF"/>
<stop offset="1" stop-color="#5AB9FE"/>
</linearGradient>
<linearGradient id="paint17_linear_4_8" x1="149.133" y1="145.517" x2="152.52" y2="143.37" gradientUnits="userSpaceOnUse">
<stop stop-color="#FFB347"/>
<stop offset="1" stop-color="#FF7283"/>
</linearGradient>
<linearGradient id="paint18_linear_4_8" x1="31.5005" y1="230.407" x2="202.923" y2="176.51" gradientUnits="userSpaceOnUse">
<stop stop-color="#FF7283"/>
<stop offset="1" stop-color="#FFB347"/>
</linearGradient>
</defs>
</svg>
