<svg width="145" height="112" viewBox="0 0 145 112" fill="none" xmlns="http://www.w3.org/2000/svg">
<path fill-rule="evenodd" clip-rule="evenodd" d="M58.2238 96.6933C57.4337 97.465 57.4189 98.7313 58.1907 99.5215L68.7296 110.311C69.1019 110.692 69.611 110.909 70.1438 110.913C70.6766 110.918 71.1892 110.709 71.5677 110.335L82.282 99.7219C83.0668 98.9446 83.0727 97.6783 82.2953 96.8935C81.518 96.1087 80.2517 96.1026 79.467 96.8798L70.1835 106.075L61.052 96.7267C60.2801 95.9364 59.0139 95.9215 58.2238 96.6933Z" fill="#FF7581"/>
<path fill-rule="evenodd" clip-rule="evenodd" d="M22.3227 29.0758C22.8275 28.0934 24.0307 27.7109 25.0102 28.2215C52.4204 42.5106 75.0968 67.9476 72.2693 107.053C72.1895 108.157 71.2338 108.984 70.1348 108.9C69.0358 108.816 68.2096 107.853 68.2894 106.749C70.9654 69.7393 49.6685 45.5868 23.1821 31.7793C22.2026 31.2687 21.8179 30.0583 22.3227 29.0758Z" fill="url(#paint0_linear_8_28)"/>
<path d="M95.7666 43.4653C95.444 43.4366 95.1827 43.4054 94.9827 43.3718C94.7857 43.3552 94.6873 43.347 94.6873 43.347C94.7056 43.2554 94.6745 43.1819 94.5937 43.1263C94.53 43.0675 94.4028 43.0469 94.2122 43.0644C93.9251 42.9411 93.6169 42.7511 93.2876 42.4945C92.9583 42.238 92.6615 41.9666 92.3972 41.6804C92.133 41.3943 91.9526 41.1808 91.8562 41.0399C91.6897 40.8062 91.67 40.6512 91.7969 40.5749C91.9207 40.4816 92.0685 40.3751 92.2403 40.2553C92.4027 40.0843 92.5799 39.9459 92.7719 39.8401C92.9809 39.731 93.1803 39.8088 93.3701 40.0735C93.6639 40.4247 94.0661 40.6943 94.5767 40.8822C95.1042 41.0669 95.671 41.1299 96.2771 41.0711C96.9002 41.0091 97.495 40.7937 98.0615 40.4249C98.436 40.162 98.6105 39.8655 98.5849 39.5353C98.5562 39.1881 98.3561 38.8196 97.9846 38.4298C97.9083 38.3029 97.8112 38.2062 97.6932 38.1398C97.5923 38.0703 97.4355 37.9846 97.2228 37.8828C97.0272 37.7779 96.7392 37.6018 96.3588 37.3547C96.0811 37.2825 95.822 37.2157 95.5816 37.1543C95.3582 37.0897 95.1161 37.0197 94.8555 36.9444C94.5576 36.8583 94.2162 36.7273 93.8313 36.5515C93.4433 36.3587 93.0777 36.1441 92.7345 35.9077C92.3881 35.6543 92.1131 35.4053 91.9094 35.1609C91.5895 34.9554 91.3547 34.6374 91.2048 34.2068C91.0518 33.7591 90.9708 33.2717 90.9617 32.7446C90.9698 32.2144 91.0469 31.7243 91.1931 31.2743C91.2514 31.0168 91.3823 30.6754 91.5859 30.2502C91.7864 29.8078 92.0194 29.3507 92.2849 28.8787C92.5504 28.4068 92.8068 27.9806 93.0539 27.6002C93.3149 27.1996 93.5282 26.9223 93.6937 26.7684C93.805 26.6069 93.9247 26.4438 94.053 26.2792C94.1782 26.0975 94.2407 26.0066 94.2407 26.0066C94.2421 25.9183 94.2598 25.8709 94.2939 25.8647C94.345 25.8552 94.3706 25.8505 94.3706 25.8505C94.4464 25.7837 94.6182 25.6639 94.886 25.4911C95.1538 25.3184 95.4283 25.0387 95.7095 24.652C96.7511 23.896 97.6551 23.3504 98.4218 23.0152C99.1852 22.663 99.7971 22.4445 100.257 22.3597C100.687 22.2982 101.126 22.3405 101.576 22.4867C102.023 22.6158 102.421 22.8157 102.771 23.0861C103.137 23.3534 103.384 23.6869 103.51 24.0866C103.705 24.4737 103.736 24.9791 103.605 25.6026C103.487 26.206 103.27 26.8011 102.955 27.3879C102.655 27.9545 102.313 28.3964 101.931 28.7136C101.491 29.0061 101.087 29.1071 100.718 29.0165C100.365 28.9228 100.168 28.7124 100.125 28.3854C100.1 28.249 100.113 28.0792 100.164 27.876C100.231 27.6696 100.434 27.2885 100.773 26.7327C101.17 25.831 101.355 25.2065 101.326 24.8593C101.297 24.5121 101.108 24.3444 100.757 24.3561C100.649 24.3408 100.454 24.3855 100.174 24.49C99.8937 24.5946 99.591 24.7209 99.2657 24.869C98.9544 24.9968 98.6788 25.127 98.4388 25.2593C98.2159 25.3885 98.1075 25.4702 98.1138 25.5043C98.1138 25.5043 98.1185 25.5299 98.128 25.581C98.1374 25.6321 98.1064 25.6555 98.0351 25.651C98.001 25.6573 97.8927 25.7389 97.7101 25.8959C97.5415 26.0328 97.3365 26.2116 97.0952 26.4323C96.8538 26.653 96.6141 26.8823 96.3759 27.1201C96.1516 27.3377 95.9583 27.5319 95.7959 27.7028C95.6336 27.8738 95.547 27.9779 95.5362 28.0151C95.5367 28.2089 95.3721 28.4155 95.0424 28.6349C94.7392 28.9023 94.4943 29.247 94.3077 29.6692C94.1211 30.0913 93.9108 30.6236 93.6767 31.266C93.4592 31.7115 93.3332 32.1753 93.2987 32.6576C93.261 33.1228 93.327 33.4807 93.4966 33.7315C93.6321 33.9885 93.9125 34.2188 94.3378 34.4225C94.777 34.6059 95.3651 34.8324 96.1022 35.1019C96.7414 35.319 97.3498 35.5593 97.9271 35.8231C98.5045 36.0868 99.0036 36.3561 99.4244 36.631C99.8421 36.8889 100.122 37.1193 100.266 37.322C100.524 37.5741 100.704 37.8845 100.807 38.2532C100.928 38.6188 100.995 38.9853 101.01 39.3527C101.039 39.6999 101.039 39.9906 101.012 40.2248C100.943 40.5195 100.809 40.8439 100.61 41.1978C100.428 41.5486 100.233 41.7344 100.025 41.755C99.847 41.8407 99.7131 41.9271 99.6234 42.0141C99.5508 42.098 99.4595 42.1765 99.3496 42.2497C99.2428 42.3399 98.9757 42.4684 98.5482 42.6353C98.1239 42.8193 97.6522 42.9855 97.1332 43.1341C96.6173 43.2997 96.1618 43.4101 95.7666 43.4653Z" fill="url(#paint1_linear_8_28)"/>
<path d="M105.193 39.0047C105.077 39.0438 104.933 39.0263 104.76 38.9523C104.602 38.8581 104.455 38.7794 104.32 38.7161C104.112 38.543 103.96 38.386 103.863 38.2452C103.767 38.1043 103.701 37.9401 103.667 37.7526C103.632 37.5651 103.608 37.3404 103.595 37.0784C103.63 36.79 103.665 36.4046 103.7 35.9224C103.734 35.4401 103.788 34.9191 103.861 34.3592C103.857 34.1484 103.873 33.8987 103.908 33.6103C103.957 33.3017 104.009 33.0101 104.064 32.7355C104.116 32.4439 104.155 32.2252 104.181 32.0795C104.222 31.6313 104.266 31.2002 104.313 30.7861C104.377 30.3689 104.456 29.8874 104.549 29.3414C104.642 28.7955 104.753 28.1053 104.881 27.2709C105.068 26.179 105.207 25.3601 105.301 24.8142C105.394 24.2682 105.463 23.8766 105.507 23.6393C105.551 23.402 105.578 23.212 105.587 23.0693C105.562 22.933 105.632 22.7878 105.798 22.6339C105.977 22.4599 106.144 22.3587 106.297 22.3304C106.539 22.3035 106.796 22.406 107.067 22.6379C107.336 22.8527 107.548 23.1398 107.702 23.4991C107.853 23.8413 107.858 24.2018 107.716 24.5804C107.557 25.2443 107.411 25.985 107.28 26.8023C107.162 27.5995 107.045 28.3967 106.927 29.1938C106.81 29.991 106.682 30.7285 106.542 31.4063C106.541 31.4947 106.508 31.6506 106.443 31.874C106.396 32.0943 106.35 32.2789 106.307 32.4278C106.264 32.5767 106.22 32.7171 106.174 32.849C106.144 32.9778 106.13 33.0422 106.13 33.0422C106.132 33.1476 106.124 33.2988 106.108 33.4957C106.091 33.6926 106.07 33.864 106.044 34.0098C106.042 34.0982 106.037 34.2137 106.028 34.3563C106.019 34.499 106.019 34.6401 106.027 34.7796C106.093 34.6616 106.191 34.5203 106.319 34.3556C106.444 34.1739 106.606 33.9503 106.803 33.6847C107.032 33.3958 107.233 33.1472 107.406 32.9391C107.579 32.7309 107.756 32.5398 107.935 32.3657C108.097 32.1948 108.244 32.0355 108.376 31.8879C108.524 31.7372 108.598 31.6618 108.598 31.6618C108.623 31.6044 108.646 31.5384 108.668 31.464C108.706 31.3864 108.75 31.3343 108.798 31.3079C108.825 31.2675 108.877 31.2139 108.953 31.147C109.026 31.0631 109.098 30.9792 109.171 30.8953C109.306 30.7648 109.452 30.6497 109.61 30.5501C109.768 30.4505 109.937 30.3664 110.118 30.2977C110.3 30.2291 110.475 30.179 110.646 30.1476C110.85 30.1099 111.079 30.1559 111.332 30.2855C111.582 30.398 111.828 30.5819 112.068 30.8372C112.28 31.0274 112.431 31.2727 112.521 31.5733C112.626 31.8536 112.707 32.2441 112.764 32.7447C112.789 32.8811 112.793 33.1447 112.777 33.5354C112.778 33.923 112.779 34.2137 112.779 34.4074L112.71 35.3192L112.914 35.2815C113.089 35.1788 113.266 35.1373 113.446 35.157C113.643 35.1736 113.742 35.1818 113.742 35.1818C113.836 35.2173 113.924 35.2628 114.005 35.3184C114.103 35.3709 114.189 35.4079 114.263 35.4294C114.391 35.5469 114.41 35.7461 114.321 36.0269C114.231 36.3078 114.111 36.515 113.959 36.6487C113.6 36.9969 113.265 37.2349 112.954 37.3628C112.66 37.4875 112.325 37.4875 111.949 37.3629C111.585 37.201 111.314 36.9776 111.138 36.6927C110.98 36.4048 110.86 35.995 110.78 35.4634C110.71 34.7008 110.653 34.156 110.611 33.829C110.565 33.4849 110.448 33.3302 110.261 33.3647C110.056 33.4024 109.794 33.5565 109.473 33.8271C109.167 34.0774 108.832 34.4123 108.469 34.8318C108.102 35.2342 107.744 35.6793 107.393 36.1669C107.056 36.6344 106.764 37.1025 106.515 37.5713C106.358 37.8647 106.183 38.1613 105.992 38.4609C105.797 38.7436 105.531 38.9248 105.193 39.0047Z" fill="url(#paint2_linear_8_28)"/>
<path d="M116.975 37.2826C116.882 37.1588 116.703 37.0507 116.439 36.9583C116.193 36.8627 116.063 36.7809 116.051 36.7127C116.038 36.6445 115.976 36.5501 115.866 36.4294C115.77 36.2886 115.681 36.1904 115.6 36.1347C115.496 36.0482 115.476 35.7963 115.54 35.3791C115.601 34.9449 115.715 34.4128 115.881 33.783C116.047 33.1531 116.236 32.51 116.45 31.8537C116.562 31.6922 116.665 31.4881 116.761 31.2414C116.856 30.9946 116.932 30.8309 116.987 30.7501C116.975 30.682 116.989 30.6176 117.031 30.557C117.07 30.4794 117.123 30.4343 117.191 30.4218L117.32 29.9749C117.342 29.9005 117.419 29.7453 117.552 29.5093C117.701 29.2702 117.882 29.0077 118.094 28.7219C118.303 28.4191 118.514 28.1333 118.729 27.8646C118.961 27.5927 119.153 27.39 119.304 27.2563C119.618 26.9516 119.964 26.7733 120.343 26.7212C120.738 26.666 121.092 26.7241 121.406 26.8954C121.466 26.9371 121.596 27.019 121.795 27.141C122.01 27.2598 122.246 27.3926 122.503 27.5392C122.776 27.6828 123.012 27.8155 123.211 27.9375L124.312 28.6069L124.113 29.9655C124.017 30.6882 124.067 31.2958 124.264 31.7883C124.478 32.2777 124.721 32.6911 124.995 33.0284C125.115 33.2002 125.252 33.3247 125.407 33.4018C125.58 33.4758 125.788 33.5079 126.033 33.498C126.173 33.4899 126.31 33.5175 126.445 33.5807C126.58 33.6439 126.665 33.7693 126.699 33.9568C126.775 34.3659 126.753 34.6784 126.634 34.8942C126.529 35.0898 126.395 35.2203 126.231 35.2858C125.681 35.4577 125.133 35.497 124.587 35.4037C124.041 35.3105 123.491 34.9095 122.937 34.2008C122.85 34.1111 122.722 33.9409 122.552 33.6901C122.397 33.4192 122.302 33.2427 122.27 33.1606C122.217 33.2584 122.144 33.3864 122.05 33.5448C121.969 33.683 121.888 33.8126 121.804 33.9338C120.82 35.3842 119.928 36.377 119.128 36.9122C118.341 37.4273 117.624 37.5507 116.975 37.2826ZM117.99 34.9011C118.113 34.8961 118.289 34.8019 118.52 34.6184C118.747 34.4179 119.043 34.1079 119.406 33.6884C119.894 33.0872 120.296 32.5902 120.612 32.1972C120.927 31.8042 121.216 31.319 121.48 30.7416L121.873 29.7174C121.63 29.3568 121.43 29.1294 121.271 29.0352C121.113 28.941 120.966 28.9065 120.829 28.9316C120.608 28.9725 120.37 29.166 120.117 29.5124C119.86 29.8417 119.586 30.3152 119.295 30.9329C119.017 31.5305 118.713 32.2738 118.384 33.163C118.231 33.5788 118.128 33.9768 118.075 34.3567C118.019 34.7196 117.99 34.9011 117.99 34.9011Z" fill="url(#paint3_linear_8_28)"/>
<path d="M129.818 34.9154C129.77 34.9418 129.658 34.9537 129.481 34.9511C129.322 34.9452 129.152 34.9325 128.972 34.9128C128.809 34.8899 128.707 34.8646 128.667 34.8367C128.586 34.7811 128.47 34.6791 128.32 34.5306C128.166 34.3651 128.052 34.1305 127.979 33.8268C127.922 33.52 127.999 33.1268 128.211 32.6472C128.264 32.461 128.32 32.1865 128.376 31.8236C128.432 31.4607 128.486 31.0807 128.536 30.6837C128.6 30.2665 128.655 29.8951 128.701 29.5694C128.764 29.2405 128.81 29.0118 128.839 28.883C128.819 28.5869 128.765 28.3855 128.674 28.2788C128.598 28.1518 128.439 28.1018 128.197 28.1288C128.027 28.1602 127.879 28.1257 127.755 28.0252C127.648 27.9216 127.566 27.7163 127.51 27.4095C127.5 27.1646 127.522 26.949 127.575 26.7629C127.643 26.5565 127.751 26.378 127.9 26.2272C128.054 26.1106 128.257 26.0116 128.506 25.9304C128.772 25.846 129.035 25.7888 129.294 25.7587C129.553 25.7287 129.743 25.7553 129.864 25.8388C129.996 25.8849 130.118 26.0211 130.23 26.2472C130.356 26.4531 130.467 26.6706 130.562 26.8998C130.657 27.1291 130.724 27.3018 130.763 27.4179C130.908 27.2501 131.061 27.0281 131.222 26.7517C131.396 26.4552 131.574 26.1757 131.755 25.9133C131.993 25.6755 132.282 25.4283 132.623 25.1716C132.96 24.898 133.214 24.7454 133.384 24.714C133.572 24.6794 133.819 24.7308 134.126 24.868C134.431 24.9882 134.629 25.1102 134.723 25.234C134.947 25.4924 135.122 25.7772 135.25 26.0885C135.392 26.3796 135.391 26.6618 135.248 26.935C135.118 27.188 134.92 27.4536 134.654 27.7318C134.385 27.9929 134.013 28.1232 133.537 28.1228C133.428 28.1076 133.294 28.0002 133.134 27.8006C132.99 27.5978 132.901 27.4469 132.865 27.3477C132.856 27.2966 132.788 27.3619 132.663 27.5436C132.552 27.7051 132.413 27.907 132.246 28.1492C132.096 28.3883 131.952 28.6088 131.813 28.8107C131.589 29.2221 131.372 29.7645 131.161 30.4378C130.95 31.1112 130.703 31.9234 130.42 32.8744C130.294 33.3383 130.199 33.7788 130.135 34.196C130.068 34.5962 129.962 34.8359 129.818 34.9154Z" fill="url(#paint4_linear_8_28)"/>
<path d="M139.753 34.1153C138.815 34.2881 138.041 34.1489 137.429 33.6977C136.834 33.2433 136.433 32.4536 136.225 31.3286C136.112 30.7149 136.099 30.0212 136.186 29.2473C136.289 28.4704 136.464 27.6979 136.71 26.9298C136.973 26.1587 137.288 25.475 137.654 24.8788C138.017 24.2655 138.41 23.8142 138.832 23.5248C138.987 23.4082 139.155 23.3155 139.336 23.2469C139.531 23.158 139.723 23.0963 139.91 23.0618C140.115 23.0241 140.339 23.0003 140.584 22.9904C140.843 22.9603 141.091 22.9674 141.328 23.0118C141.743 23.0589 142.126 23.2262 142.478 23.5137C142.848 23.7981 143.093 24.2641 143.212 24.9119C143.243 25.0823 143.261 25.273 143.265 25.4838C143.265 25.6776 143.24 25.8761 143.189 26.0793C143.071 26.6827 142.829 27.2825 142.463 27.8787C142.115 28.4718 141.712 28.9162 141.255 29.2118C141.131 29.3051 141.004 29.3814 140.874 29.4406C140.758 29.4797 140.632 29.5118 140.495 29.5369C140.137 29.6029 139.804 29.6114 139.496 29.5626C139.204 29.5106 138.923 29.4213 138.653 29.2949L138.415 29.1536L138.335 29.4328C138.275 29.7787 138.24 30.0672 138.23 30.2982C138.237 30.5261 138.249 30.6911 138.268 30.7934C138.306 30.998 138.354 31.2095 138.412 31.4279C138.466 31.6294 138.549 31.7904 138.659 31.911C138.743 31.9837 138.841 32.0362 138.953 32.0685C139.081 32.0976 139.231 32.0965 139.402 32.0651C139.504 32.0462 139.598 32.0289 139.683 32.0132C139.782 31.9773 139.864 31.9446 139.929 31.915C140.223 31.7902 140.45 31.6339 140.609 31.4459C140.782 31.2377 140.969 31.0536 141.168 30.8934L141.261 30.8234L141.222 30.7514C141.483 30.5446 141.662 30.4147 141.758 30.3617C141.851 30.2918 141.92 30.235 141.964 30.1915C142.02 30.1107 142.09 30.0625 142.176 30.0468C142.408 29.9687 142.651 29.9945 142.904 30.1241C143.171 30.2335 143.326 30.4076 143.37 30.6462C143.389 30.7485 143.342 30.9246 143.23 31.1744C143.134 31.4212 142.996 31.6758 142.815 31.9382C142.648 32.1805 142.465 32.3817 142.265 32.5419C142.217 32.5683 142.171 32.6033 142.126 32.6468C142.078 32.6733 142.032 32.7083 141.987 32.7518L142.012 32.7471C141.897 32.9799 141.762 33.1105 141.609 33.1388L141.404 33.1765C141.358 33.3084 141.16 33.4771 140.81 33.6825C140.463 33.9051 140.111 34.0493 139.753 34.1153ZM139.947 27.7081C140.1 27.6798 140.232 27.6291 140.342 27.5559C140.469 27.4797 140.586 27.3964 140.692 27.3063C141.048 26.9411 141.243 26.5174 141.278 26.0351C141.312 25.5529 141.205 25.2113 140.957 25.0103C140.913 24.9655 140.864 24.9392 140.81 24.9316C140.752 24.907 140.69 24.9009 140.621 24.9135C140.434 24.948 140.232 25.047 140.015 25.2103C139.816 25.3705 139.625 25.5818 139.445 25.8442C139.264 26.1066 139.108 26.4086 138.977 26.75L138.744 27.3482C138.775 27.3249 138.799 27.3116 138.816 27.3085C138.847 27.2851 138.871 27.2719 138.888 27.2688C139.041 27.2405 139.153 27.2728 139.223 27.3656C139.293 27.4585 139.371 27.5498 139.458 27.6395C139.562 27.726 139.725 27.7489 139.947 27.7081Z" fill="url(#paint5_linear_8_28)"/>
<path fill-rule="evenodd" clip-rule="evenodd" d="M96.7678 1.25039L96.9371 3.24321L98.93 3.07388L98.7606 1.08107L96.7678 1.25039ZM96.0254 4.32428L100.011 3.98563L99.6724 -6.3777e-06L95.6867 0.338641L96.0254 4.32428Z" fill="url(#paint6_linear_8_28)"/>
<path fill-rule="evenodd" clip-rule="evenodd" d="M133.768 54.2504L133.937 56.2432L135.93 56.0739L135.761 54.0811L133.768 54.2504ZM133.025 57.3243L137.011 56.9856L136.672 53L132.687 53.3386L133.025 57.3243Z" fill="url(#paint7_linear_8_28)"/>
<defs>
<linearGradient id="paint0_linear_8_28" x1="-427.101" y1="1218.03" x2="-378.05" y2="1237.35" gradientUnits="userSpaceOnUse">
<stop stop-color="#FFB347"/>
<stop offset="1" stop-color="#FF7283"/>
</linearGradient>
<linearGradient id="paint1_linear_8_28" x1="92.3344" y1="44.1032" x2="145.025" y2="34.0256" gradientUnits="userSpaceOnUse">
<stop stop-color="#FFB347"/>
<stop offset="1" stop-color="#FF7283"/>
</linearGradient>
<linearGradient id="paint2_linear_8_28" x1="92.3344" y1="44.1032" x2="145.025" y2="34.0256" gradientUnits="userSpaceOnUse">
<stop stop-color="#FFB347"/>
<stop offset="1" stop-color="#FF7283"/>
</linearGradient>
<linearGradient id="paint3_linear_8_28" x1="92.3344" y1="44.1032" x2="145.025" y2="34.0256" gradientUnits="userSpaceOnUse">
<stop stop-color="#FFB347"/>
<stop offset="1" stop-color="#FF7283"/>
</linearGradient>
<linearGradient id="paint4_linear_8_28" x1="92.3344" y1="44.1032" x2="145.025" y2="34.0256" gradientUnits="userSpaceOnUse">
<stop stop-color="#FFB347"/>
<stop offset="1" stop-color="#FF7283"/>
</linearGradient>
<linearGradient id="paint5_linear_8_28" x1="92.3344" y1="44.1032" x2="145.025" y2="34.0256" gradientUnits="userSpaceOnUse">
<stop stop-color="#FFB347"/>
<stop offset="1" stop-color="#FF7283"/>
</linearGradient>
<linearGradient id="paint6_linear_8_28" x1="95.8561" y1="2.33146" x2="99.8417" y2="1.99281" gradientUnits="userSpaceOnUse">
<stop stop-color="#7CA1FF"/>
<stop offset="1" stop-color="#5AB9FE"/>
</linearGradient>
<linearGradient id="paint7_linear_8_28" x1="137.011" y1="56.9856" x2="136.662" y2="52.9909" gradientUnits="userSpaceOnUse">
<stop stop-color="#FFB347"/>
<stop offset="1" stop-color="#FF7283"/>
</linearGradient>
</defs>
</svg>
