<svg width="48" height="48" viewBox="0 0 48 48" fill="none" xmlns="http://www.w3.org/2000/svg">
<rect width="48" height="48" rx="15" fill="url(#paint0_linear_6248_64911)"/>
<path fill-rule="evenodd" clip-rule="evenodd" d="M18 13.5C18 12.6705 17.328 12 16.5 12H15C13.344 12 12 13.344 12 15V16.5C12 17.3295 12.672 18 13.5 18H16.5C17.328 18 18 17.3295 18 16.5V13.5ZM16.5 21C17.328 21 18 21.6705 18 22.5V25.5C18 26.3295 17.328 27 16.5 27H13.5C12.672 27 12 26.3295 12 25.5V22.5C12 21.6705 12.672 21 13.5 21H16.5ZM16.5 30C17.328 30 18 30.6705 18 31.5V34.5C18 35.3295 17.328 36 16.5 36H15C13.344 36 12 34.656 12 33V31.5C12 30.6705 12.672 30 13.5 30H16.5ZM25.5 30C26.3295 30 27 30.6705 27 31.5V34.5C27 35.3295 26.3295 36 25.5 36H22.5C21.672 36 21 35.3295 21 34.5V31.5C21 30.6705 21.672 30 22.5 30H25.5ZM36 31.5C36 30.6705 35.3295 30 34.5 30H31.5C30.6705 30 30 30.6705 30 31.5V34.5C30 35.3295 30.6705 36 31.5 36H33C34.656 36 36 34.656 36 33V31.5ZM27 22.5C27 21.6705 26.3295 21 25.5 21H22.5C21.672 21 21 21.6705 21 22.5V25.5C21 26.3295 21.672 27 22.5 27H25.5C26.3295 27 27 26.3295 27 25.5V22.5ZM34.5 21C35.3295 21 36 21.6705 36 22.5V25.5C36 26.3295 35.3295 27 34.5 27H31.5C30.6705 27 30 26.3295 30 25.5V22.5C30 21.6705 30.6705 21 31.5 21H34.5ZM25.5 12C26.3295 12 27 12.6705 27 13.5V16.5C27 17.3295 26.3295 18 25.5 18H22.5C21.672 18 21 17.3295 21 16.5V13.5C21 12.6705 21.672 12 22.5 12H25.5ZM36 15C36 13.344 34.656 12 33 12H31.5C30.6705 12 30 12.6705 30 13.5V16.5C30 17.3295 30.6705 18 31.5 18H34.5C35.3295 18 36 17.3295 36 16.5V15Z" fill="url(#paint1_linear_6248_64911)"/>
<defs>
<linearGradient id="paint0_linear_6248_64911" x1="72" y1="24" x2="24" y2="-24" gradientUnits="userSpaceOnUse">
<stop stop-color="#EDF3F7"/>
<stop offset="1" stop-color="white"/>
</linearGradient>
<linearGradient id="paint1_linear_6248_64911" x1="24" y1="8.85447" x2="24" y2="43.2716" gradientUnits="userSpaceOnUse">
<stop stop-color="#FF76EC"/>
<stop offset="1" stop-color="#8A87E9"/>
</linearGradient>
</defs>
</svg>
