<svg width="48" height="48" viewBox="0 0 48 48" fill="none" xmlns="http://www.w3.org/2000/svg">
<rect width="48" height="48" rx="15" fill="url(#paint0_linear_6248_64761)"/>
<path fill-rule="evenodd" clip-rule="evenodd" d="M27.6013 20.1024C27.6013 22.0912 25.9885 23.704 23.9989 23.704C22.0101 23.704 20.3965 22.0912 20.3965 20.1024C20.3965 18.1128 22.0101 16.5 23.9989 16.5C25.9885 16.5 27.6013 18.1128 27.6013 20.1024ZM17.5078 29.8039C17.5078 26.7271 20.4142 24.8511 23.999 24.8511C27.5838 24.8511 30.491 26.7271 30.491 29.8039C30.491 32.2273 28.6893 32.1143 26.1737 31.9564C25.4938 31.9138 24.7618 31.8679 23.999 31.8679C23.2362 31.8679 22.5042 31.9138 21.8243 31.9565C19.309 32.1143 17.5078 32.2273 17.5078 29.8039Z" fill="#7E5FF1"/>
<path fill-rule="evenodd" clip-rule="evenodd" d="M34.074 21.4882C34.074 22.8154 32.998 23.8914 31.6708 23.8914C30.3436 23.8914 29.2676 22.8154 29.2676 21.4882C29.2676 20.161 30.3436 19.085 31.6708 19.085C32.998 19.085 34.074 20.161 34.074 21.4882ZM29.2012 25.186C29.902 24.8428 30.7524 24.6572 31.67 24.6572C34.0612 24.6572 36.0004 25.9076 36.0004 27.9612C36.0004 29.5778 34.7978 29.5026 33.1189 29.3976C32.6659 29.3693 32.1781 29.3388 31.67 29.3388H31.6524C31.5132 27.638 30.6172 26.1916 29.2012 25.186Z" fill="#F48F51"/>
<path fill-rule="evenodd" clip-rule="evenodd" d="M18.7341 21.4882C18.7341 22.8154 17.6581 23.8914 16.3309 23.8914C15.0037 23.8914 13.9277 22.8154 13.9277 21.4882C13.9277 20.161 15.0037 19.085 16.3309 19.085C17.6581 19.085 18.7341 20.161 18.7341 21.4882ZM16.3304 24.6572C17.2496 24.6572 18.0992 24.8428 18.8 25.186C17.384 26.1916 16.488 27.6372 16.3488 29.338H16.3304C15.8218 29.338 15.3337 29.3686 14.8804 29.397C13.2021 29.5021 12 29.5774 12 27.9612C12 25.9076 13.9392 24.6572 16.3304 24.6572Z" fill="#4FC980"/>
<defs>
<linearGradient id="paint0_linear_6248_64761" x1="72" y1="24" x2="24" y2="-24" gradientUnits="userSpaceOnUse">
<stop stop-color="#EDF3F7"/>
<stop offset="1" stop-color="white"/>
</linearGradient>
</defs>
</svg>
