<svg width="20" height="20" viewBox="0 0 20 20" fill="none" xmlns="http://www.w3.org/2000/svg">
<g id="Icons/16/ChatGPT IW">
<path id="Vector" d="M18.3333 10.1111V9.88889C18.8889 9.33333 19.3333 8.66667 19.5556 8C19.8889 7.33333 20 6.55556 20 5.77778C20 5 19.8889 4.22222 19.5556 3.55556C19.3333 2.88889 18.8889 2.22222 18.3333 1.66667C17.7778 1.11111 17.1111 0.666667 16.4444 0.444445C15.7778 0.111111 15 0 14.2222 0C13.4444 0 12.7778 0.111111 12 0.444445C11.3333 0.777778 10.6667 1.22222 10.1111 1.66667L10 1.77778L9.88889 1.66667C9.33333 1.11111 8.66667 0.666667 8 0.444445C7.33333 0.111111 6.55556 0 5.77778 0C5 0 4.22222 0.111111 3.55556 0.444445C2.88889 0.666667 2.22222 1.11111 1.66667 1.66667C1.11111 2.22222 0.666667 2.88889 0.444445 3.55556C0.111111 4.22222 0 5 0 5.77778C0 6.55556 0.111111 7.22222 0.444445 8C0.777778 8.66667 1.22222 9.33333 1.66667 9.88889L1.77778 10L1.66667 10.1111C1.11111 10.6667 0.666667 11.3333 0.444445 12C0.111111 12.6667 0 13.4444 0 14.2222C0 15 0.111111 15.7778 0.444445 16.4444C0.666667 17.1111 1.11111 17.7778 1.66667 18.3333C2.22222 18.8889 2.88889 19.3333 3.55556 19.5556C4.22222 19.8889 5 20 5.77778 20C6.55556 20 7.22222 19.8889 8 19.5556C8.66667 19.2222 9.33333 18.7778 9.88889 18.3333L10 18.2222L10.1111 18.3333C10.6667 18.8889 11.3333 19.3333 12 19.5556C12.6667 19.8889 13.4444 20 14.2222 20C15 20 15.7778 19.8889 16.4444 19.5556C17.1111 19.2222 17.7778 18.8889 18.3333 18.3333C18.8889 17.7778 19.3333 17.1111 19.5556 16.4444C19.8889 15.7778 20 15 20 14.2222C20 13.4444 19.8889 12.7778 19.5556 12C19.2222 11.2222 18.7778 10.6667 18.3333 10.1111ZM18.3333 14.2222C18.3333 14.7778 18.2222 15.3333 18 15.7778C17.8889 16 17.7778 16.2222 17.6667 16.4444L14.1111 12.8889C13.3333 12.1111 12.8889 11.1111 12.8889 10C12.8889 9.22222 13.1111 8.44444 13.5556 7.77778L16.3333 10.5556L16.4444 10.6667L17.1111 11.3333C17.4444 11.6667 17.7778 12.2222 18 12.6667C18.2222 13.1111 18.3333 13.6667 18.3333 14.2222ZM11.4444 11.4444C11 11.3333 10.4444 11.2222 10 11.2222C9.55556 11.2222 9 11.3333 8.55556 11.4444C8.66667 11 8.77778 10.4444 8.77778 10C8.77778 9.55556 8.66667 9 8.55556 8.55556C9 8.66667 9.55556 8.77778 10 8.77778C10.4444 8.77778 11 8.66667 11.4444 8.55556C11.3333 9 11.2222 9.55556 11.2222 10C11.2222 10.4444 11.3333 11 11.4444 11.4444ZM18 7.33333C17.7778 7.88889 17.4444 8.33333 17.1111 8.66667L17 8.77778L14.6667 6.44445L17.6667 3.44445C17.7778 3.66667 17.8889 3.88889 18 4.11111C18.2222 4.55556 18.3333 5.11111 18.3333 5.66667C18.3333 6.33333 18.2222 6.88889 18 7.33333ZM12.5556 2C13.1111 1.77778 13.6667 1.66667 14.1111 1.66667C14.6667 1.66667 15.2222 1.77778 15.6667 2C15.8889 2.11111 16.1111 2.22222 16.3333 2.33333L12.7778 5.88889C11.4444 7.22222 9.11111 7.44445 7.55556 6.44445L10.3333 3.66667L10.4444 3.55556L11.1111 2.88889C11.6667 2.55556 12.1111 2.22222 12.5556 2ZM4.22222 2C4.66667 1.77778 5.22222 1.66667 5.77778 1.66667C6.33333 1.66667 6.88889 1.77778 7.33333 2C7.88889 2.22222 8.33333 2.55556 8.66667 2.88889L8.77778 3L7.66667 4.11111L6.44445 5.33333L3.44445 2.33333C3.77778 2.22222 4 2.11111 4.22222 2ZM1.66667 5.77778C1.66667 5.22222 1.77778 4.66667 2 4.22222C2.11111 4 2.22222 3.77778 2.33333 3.55556L5.88889 7.11111C6.66667 7.88889 7.11111 8.88889 7.11111 10C7.11111 10.7778 6.88889 11.5556 6.44445 12.2222L3.66667 9.44444L3.55556 9.33333L2.88889 8.66667C2.55556 8.33333 2.22222 7.77778 2 7.33333C1.77778 6.88889 1.66667 6.33333 1.66667 5.77778ZM2 12.6667C2.22222 12.1111 2.55556 11.6667 2.88889 11.3333L3 11.2222L4.22222 12.4444L5.33333 13.5556L2.33333 16.5556C2.22222 16.3333 2.11111 16.1111 2 15.8889C1.77778 15.4444 1.66667 14.8889 1.66667 14.3333C1.66667 13.6667 1.77778 13.1111 2 12.6667ZM7.44444 18C6.88889 18.2222 6.33333 18.3333 5.88889 18.3333C5.33333 18.3333 4.77778 18.2222 4.33333 18C4.11111 17.8889 3.88889 17.7778 3.66667 17.6667L7.22222 14.1111C8.55556 12.7778 10.8889 12.5556 12.4444 13.5556L10.3333 15.5556L9.55556 16.3333L9.44444 16.4444L8.77778 17.1111C8.33333 17.4444 7.88889 17.7778 7.44444 18ZM15.7778 18C15.3333 18.2222 14.7778 18.3333 14.2222 18.3333C13.6667 18.3333 13.1111 18.2222 12.6667 18C12.1111 17.7778 11.6667 17.4444 11.3333 17.1111L11.2222 17L13.5556 14.6667L16.5556 17.6667C16.2222 17.7778 16 17.8889 15.7778 18Z" fill="white"/>
</g>
</svg>
