<svg width="48" height="48" viewBox="0 0 48 48" fill="none" xmlns="http://www.w3.org/2000/svg">
<g clip-path="url(#clip0_11016_21507)">
<path d="M0 15C0 6.71572 6.71572 0 15 0H33C41.2842 0 48 6.71572 48 15V33C48 41.2842 41.2842 48 33 48H15C6.71572 48 0 41.2842 0 33V15Z" fill="url(#paint0_linear_11016_21507)"/>
<path d="M33 48C41.2842 48 48 41.2842 48 33L48 31.5C48 39.7842 41.2842 46.5 33 46.5L15 46.5C6.71577 46.5 8.34764e-06 39.7842 9.07187e-06 31.5L8.94074e-06 33C8.2165e-06 41.2842 6.71577 48 15 48L33 48Z" fill="black" fill-opacity="0.16"/>
<path d="M35.25 24.15V23.85C36 23.1 36.6 22.2 36.9 21.3C37.35 20.4 37.5 19.35 37.5 18.3C37.5 17.25 37.35 16.2 36.9 15.3C36.6 14.4 36 13.5 35.25 12.75C34.5 12 33.6 11.4 32.7 11.1C31.8 10.65 30.75 10.5 29.7 10.5C28.65 10.5 27.75 10.65 26.7 11.1C25.8 11.55 24.9 12.15 24.15 12.75L24 12.9L23.85 12.75C23.1 12 22.2 11.4 21.3 11.1C20.4 10.65 19.35 10.5 18.3 10.5C17.25 10.5 16.2 10.65 15.3 11.1C14.4 11.4 13.5 12 12.75 12.75C12 13.5 11.4 14.4 11.1 15.3C10.65 16.2 10.5 17.25 10.5 18.3C10.5 19.35 10.65 20.25 11.1 21.3C11.55 22.2 12.15 23.1 12.75 23.85L12.9 24L12.75 24.15C12 24.9 11.4 25.8 11.1 26.7C10.65 27.6 10.5 28.65 10.5 29.7C10.5 30.75 10.65 31.8 11.1 32.7C11.4 33.6 12 34.5 12.75 35.25C13.5 36 14.4 36.6 15.3 36.9C16.2 37.35 17.25 37.5 18.3 37.5C19.35 37.5 20.25 37.35 21.3 36.9C22.2 36.45 23.1 35.85 23.85 35.25L24 35.1L24.15 35.25C24.9 36 25.8 36.6 26.7 36.9C27.6 37.35 28.65 37.5 29.7 37.5C30.75 37.5 31.8 37.35 32.7 36.9C33.6 36.45 34.5 36 35.25 35.25C36 34.5 36.6 33.6 36.9 32.7C37.35 31.8 37.5 30.75 37.5 29.7C37.5 28.65 37.35 27.75 36.9 26.7C36.45 25.65 35.85 24.9 35.25 24.15ZM35.25 29.7C35.25 30.45 35.1 31.2 34.8 31.8C34.65 32.1 34.5 32.4 34.35 32.7L29.55 27.9C28.5 26.85 27.9 25.5 27.9 24C27.9 22.95 28.2 21.9 28.8 21L32.55 24.75L32.7 24.9L33.6 25.8C34.05 26.25 34.5 27 34.8 27.6C35.1 28.2 35.25 28.95 35.25 29.7ZM25.95 25.95C25.35 25.8 24.6 25.65 24 25.65C23.4 25.65 22.65 25.8 22.05 25.95C22.2 25.35 22.35 24.6 22.35 24C22.35 23.4 22.2 22.65 22.05 22.05C22.65 22.2 23.4 22.35 24 22.35C24.6 22.35 25.35 22.2 25.95 22.05C25.8 22.65 25.65 23.4 25.65 24C25.65 24.6 25.8 25.35 25.95 25.95ZM34.8 20.4C34.5 21.15 34.05 21.75 33.6 22.2L33.45 22.35L30.3 19.2L34.35 15.15C34.5 15.45 34.65 15.75 34.8 16.05C35.1 16.65 35.25 17.4 35.25 18.15C35.25 19.05 35.1 19.8 34.8 20.4ZM27.45 13.2C28.2 12.9 28.95 12.75 29.55 12.75C30.3 12.75 31.05 12.9 31.65 13.2C31.95 13.35 32.25 13.5 32.55 13.65L27.75 18.45C25.95 20.25 22.8 20.55 20.7 19.2L24.45 15.45L24.6 15.3L25.5 14.4C26.25 13.95 26.85 13.5 27.45 13.2ZM16.2 13.2C16.8 12.9 17.55 12.75 18.3 12.75C19.05 12.75 19.8 12.9 20.4 13.2C21.15 13.5 21.75 13.95 22.2 14.4L22.35 14.55L20.85 16.05L19.2 17.7L15.15 13.65C15.6 13.5 15.9 13.35 16.2 13.2ZM12.75 18.3C12.75 17.55 12.9 16.8 13.2 16.2C13.35 15.9 13.5 15.6 13.65 15.3L18.45 20.1C19.5 21.15 20.1 22.5 20.1 24C20.1 25.05 19.8 26.1 19.2 27L15.45 23.25L15.3 23.1L14.4 22.2C13.95 21.75 13.5 21 13.2 20.4C12.9 19.8 12.75 19.05 12.75 18.3ZM13.2 27.6C13.5 26.85 13.95 26.25 14.4 25.8L14.55 25.65L16.2 27.3L17.7 28.8L13.65 32.85C13.5 32.55 13.35 32.25 13.2 31.95C12.9 31.35 12.75 30.6 12.75 29.85C12.75 28.95 12.9 28.2 13.2 27.6ZM20.55 34.8C19.8 35.1 19.05 35.25 18.45 35.25C17.7 35.25 16.95 35.1 16.35 34.8C16.05 34.65 15.75 34.5 15.45 34.35L20.25 29.55C22.05 27.75 25.2 27.45 27.3 28.8L24.45 31.5L23.4 32.55L23.25 32.7L22.35 33.6C21.75 34.05 21.15 34.5 20.55 34.8ZM31.8 34.8C31.2 35.1 30.45 35.25 29.7 35.25C28.95 35.25 28.2 35.1 27.6 34.8C26.85 34.5 26.25 34.05 25.8 33.6L25.65 33.45L28.8 30.3L32.85 34.35C32.4 34.5 32.1 34.65 31.8 34.8Z" fill="white"/>
</g>
<defs>
<linearGradient id="paint0_linear_11016_21507" x1="24" y1="0" x2="24" y2="48" gradientUnits="userSpaceOnUse">
<stop stop-color="#6574FF"/>
<stop offset="1" stop-color="#B264FF"/>
</linearGradient>
<clipPath id="clip0_11016_21507">
<rect width="48" height="48" fill="white"/>
</clipPath>
</defs>
</svg>
