<svg width="24" height="24" viewBox="0 0 24 24" fill="none" xmlns="http://www.w3.org/2000/svg">
<g id="Icons/16/Quick Analysing">
<path id="Vector" fill-rule="evenodd" clip-rule="evenodd" d="M18.6981 9.60582H13.4574L15.9388 2.59412C15.9388 2.59412 15.9747 2.48668 15.9747 2.32641C15.9734 1.87003 15.6146 1.5 15.1725 1.5C14.9255 1.5 14.7047 1.61701 14.5571 1.79671L4.6518 13.0817C4.54678 13.2029 4.5 13.3877 4.5 13.5698C4.5 14.0251 4.85927 14.3946 5.30208 14.3946H10.5428L8.06112 21.4066C8.06112 21.4066 8.02521 21.5144 8.02521 21.6743C8.02635 22.1306 8.38533 22.5 8.82758 22.5C9.07425 22.5 9.29532 22.3833 9.44297 22.2036L19.3479 10.9189C19.4531 10.7978 19.5 10.6127 19.5 10.4306C19.5 9.97554 19.1409 9.60581 18.6979 9.60581" fill="white"/>
</g>
</svg>
