<svg width="24" height="24" viewBox="0 0 24 24" fill="none" xmlns="http://www.w3.org/2000/svg">
<g id="Icons/16/Reply">
<path id="Reply" d="M20.4435 15.8115C18.7635 11.883 16.422 10.038 13.1565 10.038C11.1885 10.038 10.4895 8.8815 10.4895 7.893V6.3735L3.2655 11.985L10.4895 17.6385V16.2345C10.4895 15.3345 10.899 14.5185 11.613 13.974C11.952 13.6935 12.4155 13.4835 12.909 13.404L13.0545 13.3875C13.2585 13.374 13.497 13.365 13.7355 13.365C14.052 13.365 14.364 13.38 14.6715 13.407C15.5565 13.488 16.3815 13.6695 17.193 13.9605L17.1915 13.962C17.397 14.0355 17.6265 14.1315 17.859 14.238C18.759 14.649 19.626 15.1785 20.4435 15.8115ZM22.5 17.2185C22.5 17.817 22.0125 18.3075 21.39 18.345C21.1665 18.342 20.964 18.255 20.8185 18.1155C20.5335 17.847 20.241 17.586 19.9365 17.331C19.116 16.6395 18.2085 16.0485 17.2335 15.6C17.0235 15.5055 16.8225 15.4215 16.641 15.36C15.978 15.126 15.2775 14.967 14.517 14.8995C14.259 14.8785 13.9995 14.8665 13.7355 14.8665C13.5315 14.8665 13.3305 14.8725 13.155 14.8845L13.1475 14.886C12.912 14.9235 12.696 15.0225 12.5235 15.165L12.522 15.168C12.198 15.414 11.9895 15.7935 11.9895 16.2195V18.366C11.9895 18.984 11.4705 19.488 10.824 19.5H10.803C10.5645 19.5 10.3425 19.4205 10.17 19.2915L1.9575 12.8625C1.8615 12.795 1.776 12.711 1.7055 12.6135C1.5765 12.435 1.5 12.2175 1.5 11.9835C1.5 11.625 1.6785 11.304 1.959 11.1L10.2045 4.698C10.374 4.5735 10.587 4.5 10.8195 4.5H10.824C11.4705 4.512 11.991 5.0145 11.991 5.6325C11.991 5.64 11.9895 5.6475 11.9895 5.6535V7.893C11.9895 8.4225 12.6075 8.538 13.1565 8.538C18.402 8.538 20.967 12.573 22.4265 16.794C22.4655 16.9005 22.491 17.0145 22.497 17.136C22.4985 17.163 22.5 17.1915 22.5 17.2185Z" fill="white"/>
</g>
</svg>
