<svg width="24" height="24" viewBox="0 0 24 24" fill="none" xmlns="http://www.w3.org/2000/svg">
<g id="Icons/16/Spell Checker">
<path id="Spell Checker" d="M5.7195 9.66C5.4135 9.969 5.118 10.1835 4.833 10.3095C4.5495 10.4355 4.2465 10.5 3.921 10.5C3.3825 10.5 2.9715 10.344 2.6835 10.0365C2.3955 9.729 2.25 9.3375 2.25 8.856C2.25 8.574 2.304 8.319 2.4135 8.085C2.5215 7.854 2.6655 7.6665 2.8425 7.5255C3.0195 7.3845 3.2175 7.2795 3.438 7.206C3.6 7.1565 3.8445 7.1085 4.173 7.062C4.842 6.969 5.334 6.855 5.6505 6.726C5.5995 8.7825 5.655 8.7015 5.655 6.471C5.655 6.075 5.577 5.796 5.4195 5.6325C5.208 5.4135 4.8945 5.304 4.4775 5.304C4.0875 5.304 3.801 5.3835 3.615 5.544C3.429 5.706 3.291 5.9895 3.2025 6.3975L2.3925 6.267C2.466 5.8605 2.5875 5.532 2.7555 5.2815C2.9235 5.031 3.168 4.8375 3.486 4.7025C3.807 4.5675 4.1775 4.5 4.596 4.5C5.0145 4.5 5.352 4.557 5.613 4.6725C5.874 4.7865 6.0645 4.9335 6.1875 5.1075C6.3105 5.2815 6.3975 5.5035 6.4455 5.769C6.474 5.934 6.486 6.234 6.486 6.6675V7.965C6.486 8.8695 6.504 9.4425 6.5385 9.6825C6.573 9.9225 6.645 10.2795 6.75 10.5H5.8845C5.8005 10.2975 5.7435 9.933 5.7195 9.66ZM5.6505 7.4895C5.349 7.626 4.899 7.7415 4.2975 7.839C3.957 7.893 3.717 7.9545 3.5745 8.0235C3.4335 8.091 3.3255 8.1915 3.249 8.322C3.1725 8.454 3.1335 8.5995 3.1335 8.7615C3.1335 9.0075 3.216 9.213 3.384 9.3765C3.552 9.54 3.7965 9.6225 4.119 9.6225C4.437 9.6225 4.7205 9.543 4.9695 9.3885C5.2185 9.2325 5.4 9.021 5.517 8.7495C5.607 8.541 5.6505 8.2335 5.6505 7.8285V7.4895ZM8.316 10.5H7.5V3H8.3805V5.6325C8.751 5.1525 9.225 4.914 9.801 4.914C10.1205 4.914 10.4235 4.98 10.707 5.112C10.9905 5.244 11.2275 5.43 11.4105 5.67C11.595 5.91 11.739 6.1995 11.844 6.5385C11.949 6.8775 12 7.2405 12 7.626C12 8.5425 11.781 9.2505 11.3415 9.75C10.9005 10.2495 10.374 10.5 9.7575 10.5C9.1455 10.5 8.664 10.236 8.316 9.711V10.5ZM8.307 7.6665C8.307 8.307 8.391 8.7705 8.5605 9.0555C8.838 9.5235 9.2115 9.756 9.684 9.756C10.0695 9.756 10.401 9.5835 10.6815 9.2385C10.962 8.895 11.1015 8.382 11.1015 7.701C11.1015 7.0035 10.9665 6.4875 10.698 6.156C10.428 5.823 10.104 5.658 9.723 5.658C9.3375 5.658 9.006 5.829 8.7255 6.174C8.4465 6.5175 8.307 7.0155 8.307 7.6665ZM16.389 8.382L17.25 8.5005C17.1555 9.126 16.914 9.615 16.5285 9.969C16.14 10.3215 15.6645 10.4985 15.099 10.4985C14.3925 10.4985 13.824 10.254 13.395 9.768C12.966 9.282 12.75 8.583 12.75 7.6755C12.75 7.0875 12.843 6.5745 13.029 6.1335C13.212 5.6925 13.4955 5.3625 13.872 5.142C14.25 4.923 14.6595 4.812 15.1035 4.812C15.6645 4.812 16.125 4.962 16.479 5.2605C16.836 5.559 17.067 5.9835 17.166 6.534L16.3155 6.672C16.233 6.3075 16.092 6.0315 15.885 5.847C15.6795 5.6625 15.429 5.5695 15.138 5.5695C14.697 5.5695 14.3385 5.736 14.064 6.069C13.788 6.402 13.6515 6.9285 13.6515 7.6485C13.6515 8.3805 13.7835 8.9115 14.049 9.243C14.316 9.573 14.6625 9.7395 15.0915 9.7395C15.435 9.7395 15.72 9.6285 15.951 9.4065C16.1805 9.1845 16.3275 8.8425 16.389 8.382ZM22.5 10.5L21 9L12 18L9 15L7.5 16.5L12 21L22.5 10.5Z" fill="white"/>
</g>
</svg>
