<svg width="24" height="25" viewBox="0 0 24 25" fill="none" xmlns="http://www.w3.org/2000/svg">
<g id="Icons/16/Align Left">
<path id="Shape" d="M17.1591 9.50015C17.2836 9.50015 17.3946 9.57515 17.4411 9.69065L22.4796 22.5877C22.5561 22.7857 22.4106 23.0002 22.1976 23.0002H20.1696C20.0451 23.0002 19.9326 22.9221 19.8876 22.8051L18.9756 20.1516H12.8151L11.9016 22.8051C11.8581 22.9221 11.7456 23.0002 11.6211 23.0002H9.5916C9.3801 23.0002 9.2346 22.7857 9.3111 22.5877L14.3511 9.69065C14.3946 9.57515 14.5071 9.50015 14.6316 9.50015H17.1591ZM15.8946 11.8687L13.4796 18.2182H18.3111L15.8946 11.8687ZM8.8215 2C9.354 2 9.786 2.432 9.786 2.963V3.2705H15.1785C15.711 3.2705 16.143 3.7025 16.143 4.235C16.143 4.766 15.711 5.198 15.1785 5.198H14.604C14.145 6.5 12.981 9.299 10.752 11.915C11.193 12.32 11.6685 12.6815 12.144 13.04L11.322 14.8475C10.662 14.3735 10.02 13.8635 9.423 13.313C7.803 14.837 5.994 15.941 4.0425 16.5905C3.9465 16.625 3.843 16.6415 3.735 16.6415C3.321 16.6415 2.9535 16.3775 2.82 15.9815C2.655 15.4775 2.928 14.9315 3.4305 14.7635C5.0925 14.21 6.648 13.256 8.0565 11.927C6.945 10.685 5.9925 9.317 5.2275 7.862C5.106 7.6325 5.0835 7.373 5.16 7.1285C5.235 6.881 5.4045 6.68 5.6325 6.5615C5.7705 6.4895 5.925 6.4505 6.081 6.4505C6.441 6.4505 6.768 6.647 6.933 6.965C7.395 7.8425 8.184 9.1475 9.3825 10.5125C11.046 8.5085 12.057 6.3665 12.5355 5.198H2.4645C1.932 5.198 1.5 4.766 1.5 4.235C1.5 3.7025 1.932 3.2705 2.4645 3.2705H7.857V2.963C7.857 2.432 8.2905 2 8.8215 2Z" fill="white"/>
</g>
</svg>
