<svg width="424" height="320" viewBox="0 0 424 320" fill="none" xmlns="http://www.w3.org/2000/svg">
<rect width="424" height="320" rx="16" transform="matrix(-1 0 0 1 424 0)" fill="url(#paint0_linear_1_46)"/>
<mask id="mask0_1_46" style="mask-type:alpha" maskUnits="userSpaceOnUse" x="0" y="160" width="424" height="160">
<path d="M424 160H0V304C0 312.837 7.16344 320 16 320H408C416.837 320 424 312.837 424 304V160Z" fill="#D9D9D9"/>
</mask>
<g mask="url(#mask0_1_46)">
<path d="M260.212 227.064C262.485 227.986 282.556 227.448 292.307 227.064C298.014 227.064 309.491 226.956 309.737 226.526C310.044 225.988 306.589 223.76 305.437 222.53C304.285 221.301 296.991 220.302 290.234 222.53C283.477 224.759 280.252 221.532 277.641 221.071C275.031 220.609 271.345 222.53 266.201 223.299C261.056 224.067 248.464 222.3 246.928 222.53C245.393 222.761 242.321 224.374 245.162 224.374C248.003 224.374 257.371 225.911 260.212 227.064Z" fill="white" fill-opacity="0.24"/>
<g opacity="0.75" clip-path="url(#clip0_1_46)">
<path d="M138.06 268.21C131.762 244.704 145.711 220.543 169.217 214.245L220.291 200.56C243.796 194.261 267.958 208.211 274.256 231.717L287.941 282.79C294.239 306.296 280.29 330.457 256.784 336.755L205.711 350.44C182.205 356.739 158.044 342.789 151.746 319.283L138.06 268.21Z" fill="url(#paint1_linear_1_46)"/>
<path d="M256.784 336.755C280.29 330.457 294.239 306.296 287.941 282.79L286.801 278.534C293.099 302.04 279.15 326.201 255.644 332.499L204.57 346.184C181.065 352.483 156.903 338.533 150.605 315.027L151.746 319.283C158.044 342.789 182.205 356.739 205.711 350.44L256.784 336.755Z" fill="black" fill-opacity="0.16"/>
<path d="M245.036 267.373L244.808 266.521C246.365 263.823 247.384 260.813 247.551 258.031C248.143 255.136 247.77 252.042 246.972 249.063C246.174 246.084 244.95 243.219 242.989 241.007C241.453 238.681 239.067 236.584 236.368 235.026C233.67 233.468 230.66 232.45 227.879 232.283C224.983 231.69 221.889 232.063 218.91 232.861C215.931 233.66 213.491 234.77 210.854 236.845C208.643 238.806 206.545 241.193 204.873 243.465L204.562 244.005L204.022 243.693C201.324 242.135 198.314 241.117 195.532 240.95C192.636 240.358 189.543 240.73 186.564 241.529C183.584 242.327 180.719 243.551 178.508 245.512C176.182 247.047 174.085 249.434 172.527 252.132C170.969 254.831 169.951 257.84 169.784 260.622C169.191 263.518 169.564 266.611 170.362 269.591C171.16 272.57 172.27 275.01 174.345 277.647C176.307 279.858 178.693 281.956 180.966 283.628L181.506 283.939L181.194 284.479C179.636 287.177 178.618 290.187 178.451 292.969C177.858 295.864 178.231 298.958 179.029 301.937C179.828 304.916 181.052 307.782 183.013 309.993C184.548 312.319 186.935 314.416 189.633 315.974C192.331 317.532 195.341 318.55 198.123 318.717C201.019 319.31 204.112 318.937 207.091 318.139C210.071 317.34 212.51 316.231 215.147 314.155C217.359 312.194 219.456 309.808 221.128 307.535L221.44 306.995L221.98 307.307C224.678 308.865 227.688 309.883 230.469 310.05C233.365 310.642 236.458 310.27 239.438 309.471C242.417 308.673 245.282 307.449 247.494 305.488C249.705 303.527 251.917 301.566 253.475 298.868C255.033 296.169 256.051 293.16 256.218 290.378C256.81 287.482 256.438 284.389 255.639 281.409C254.841 278.43 253.731 275.991 251.656 273.353C249.581 270.716 247.308 269.044 245.036 267.373ZM249.255 283.12C249.825 285.248 249.97 287.49 249.575 289.421C249.377 290.386 249.18 291.351 248.982 292.317L231.713 282.346C227.936 280.165 225.207 276.791 224.067 272.535C223.268 269.556 223.321 266.348 224.339 263.338L237.831 271.128L238.37 271.439L241.608 273.309C243.227 274.243 245.074 276.029 246.382 277.504C247.689 278.978 248.685 280.992 249.255 283.12ZM220.016 279.55C218.2 279.581 215.958 279.726 214.255 280.182C212.553 280.638 210.539 281.634 208.95 282.516C208.92 280.699 208.775 278.457 208.319 276.755C207.863 275.052 206.867 273.038 205.985 271.45C207.802 271.419 210.044 271.275 211.746 270.818C213.449 270.362 215.463 269.366 217.051 268.485C217.082 270.301 217.226 272.543 217.682 274.246C218.139 275.948 219.134 277.962 220.016 279.55ZM240.908 257.074C240.627 259.431 239.806 261.475 238.871 263.094L238.56 263.634L227.227 257.091L235.639 242.52C236.293 243.257 236.947 243.994 237.601 244.732C238.908 246.206 239.904 248.22 240.474 250.348C241.158 252.902 241.303 255.144 240.908 257.074ZM214.579 242.233C216.479 240.812 218.493 239.816 220.195 239.36C222.323 238.789 224.565 238.645 226.496 239.04C227.461 239.237 228.426 239.435 229.392 239.633L219.421 256.901C215.683 263.377 206.973 266.623 199.988 264.389L207.777 250.898L208.089 250.358L209.958 247.121C211.744 245.273 213.104 243.54 214.579 242.233ZM182.658 250.786C184.132 249.479 186.146 248.483 188.274 247.913C190.402 247.343 192.645 247.198 194.575 247.593C196.931 247.874 198.976 248.695 200.595 249.629L201.134 249.941L198.019 255.338L194.591 261.274L180.021 252.861C181.184 252.094 181.921 251.44 182.658 250.786ZM176.746 267.88C176.176 265.752 176.032 263.51 176.427 261.579C176.624 260.614 176.822 259.649 177.019 258.684L194.288 268.654C198.066 270.835 200.794 274.209 201.935 278.465C202.733 281.444 202.68 284.652 201.662 287.662L188.171 279.872L187.631 279.561L184.393 277.691C182.774 276.757 180.927 274.971 179.62 273.496C178.312 272.022 177.317 270.008 176.746 267.88ZM185.094 293.926C185.375 291.57 186.195 289.525 187.13 287.906L187.442 287.366L193.378 290.794L198.774 293.909L190.362 308.48C189.708 307.743 189.055 307.006 188.401 306.268C187.094 304.794 186.098 302.78 185.528 300.652C184.843 298.098 184.699 295.856 185.094 293.926ZM211.423 308.767C209.523 310.188 207.509 311.184 205.806 311.64C203.678 312.211 201.436 312.355 199.506 311.96C198.54 311.763 197.575 311.565 196.61 311.368L206.58 294.099C210.319 287.623 219.029 284.377 226.014 286.611L219.98 296.438L217.799 300.216L217.487 300.756L215.618 303.994C214.257 305.727 212.897 307.46 211.423 308.767ZM243.344 300.214C241.869 301.521 239.855 302.517 237.727 303.087C235.599 303.658 233.357 303.802 231.426 303.407C229.07 303.126 227.026 302.305 225.407 301.371L224.867 301.059L231.41 289.726L245.981 298.139C244.818 298.906 244.081 299.56 243.344 300.214Z" fill="white"/>
</g>
<path d="M96.3807 224.516C96.9476 224.629 107.718 223.722 109.305 223.836C110.892 223.949 114.293 223.836 116.674 223.836C119.055 223.836 121.663 223.382 123.25 223.042C124.837 222.702 130.506 224.516 132.093 224.516C133.68 224.516 136.854 224.629 142.069 223.836C147.123 223.067 149.728 224.639 150.71 224.841C150.917 224.867 150.966 224.877 150.799 224.856C150.771 224.852 150.741 224.847 150.71 224.841C149.793 224.726 145.783 224.301 143.657 224.856C141.049 225.536 138.215 226.216 136.287 226.102C134.36 225.989 129.258 225.422 128.011 225.536C126.764 225.649 124.157 226.669 122.229 226.102C120.302 225.536 120.982 224.969 116.107 225.536C111.232 226.102 106.584 225.536 104.43 225.536C102.276 225.536 96.7209 224.969 93.9999 225.536C95.7232 224.629 96.3052 224.478 96.3807 224.516Z" fill="white" fill-opacity="0.25"/>
<path d="M336.109 267.132C336.675 267.245 347.446 266.339 349.033 266.452C350.62 266.565 354.021 266.452 356.402 266.452C358.783 266.452 361.39 265.999 362.978 265.659C364.565 265.319 370.233 267.132 371.821 267.132C373.408 267.132 376.582 267.245 381.797 266.452C386.851 265.683 389.456 267.256 390.438 267.457C390.645 267.483 390.694 267.493 390.527 267.472C390.499 267.468 390.469 267.463 390.438 267.457C389.521 267.342 385.51 266.918 383.384 267.472C380.777 268.152 377.943 268.832 376.015 268.718C374.088 268.605 368.986 268.039 367.739 268.152C366.492 268.265 363.885 269.285 361.957 268.718C360.03 268.152 360.71 267.585 355.835 268.152C350.96 268.718 346.312 268.152 344.158 268.152C342.004 268.152 336.449 267.585 333.728 268.152C335.451 267.245 336.033 267.094 336.109 267.132Z" fill="white" fill-opacity="0.5"/>
<path d="M67.9518 237.404C66.165 236.673 50.385 237.099 42.7184 237.404C38.2311 237.404 29.2082 237.489 29.0151 237.83C28.7736 238.257 31.4901 240.024 32.3956 240.999C33.3011 241.974 39.036 242.766 44.3483 240.999C49.6606 239.232 52.196 241.791 54.2485 242.157C56.301 242.523 59.1986 240.999 63.2432 240.39C67.2878 239.78 77.188 241.182 78.3953 240.999C79.6027 240.816 82.0173 239.537 79.7838 239.537C77.5502 239.537 70.1854 238.318 67.9518 237.404Z" fill="white" fill-opacity="0.35"/>
<path d="M139.153 280.751C135.797 279.391 106.162 280.184 91.7636 280.751C83.3364 280.751 66.3911 280.91 66.0283 281.544C65.5749 282.337 70.6766 285.624 72.3771 287.437C74.0777 289.25 84.848 290.723 94.8247 287.437C104.801 284.151 109.563 288.91 113.418 289.59C117.272 290.27 122.714 287.437 130.31 286.304C137.906 285.17 156.499 287.777 158.766 287.437C161.034 287.097 165.568 284.717 161.374 284.717C157.179 284.717 143.348 282.451 139.153 280.751Z" fill="white" fill-opacity="0.5"/>
<path d="M-99.588 311.407C-105.428 306.38 -92.4399 301.227 -73.7802 301.007C-72.9576 300.998 -72.2515 301.016 -71.43 301.059C-56.3887 301.846 107.806 310.101 214.183 301V301C309.714 292.827 405.818 288.729 500.909 301V301C517.298 301 529.282 305.323 525.195 309.76C512.889 323.119 473.708 333.219 425.089 335.564L213.64 345.765C169.437 347.898 124.093 347.262 80.8756 343.903L-2.43918 337.428C-48.378 333.857 -84.8579 324.086 -99.588 311.407Z" fill="#7756D5"/>
<g filter="url(#filter0_f_1_46)">
<ellipse cx="221.15" cy="309.813" rx="45.2352" ry="7.93272" fill="url(#paint2_linear_1_46)"/>
</g>
<path d="M148.563 305L288.547 296L423.5 339L-61.9999 348L148.563 305Z" fill="url(#paint3_linear_1_46)" fill-opacity="0.2"/>
</g>
<defs>
<filter id="filter0_f_1_46" x="153.249" y="279.215" width="135.8" height="61.1953" filterUnits="userSpaceOnUse" color-interpolation-filters="sRGB">
<feFlood flood-opacity="0" result="BackgroundImageFix"/>
<feBlend mode="normal" in="SourceGraphic" in2="BackgroundImageFix" result="shape"/>
<feGaussianBlur stdDeviation="11.3325" result="effect1_foregroundBlur_1_46"/>
</filter>
<linearGradient id="paint0_linear_1_46" x1="212" y1="-41.9405" x2="212" y2="416.955" gradientUnits="userSpaceOnUse">
<stop offset="0.130208" stop-color="#7986FF"/>
<stop offset="0.744792" stop-color="#C07FEA"/>
<stop offset="1" stop-color="#7575FF"/>
</linearGradient>
<linearGradient id="paint1_linear_1_46" x1="194.754" y1="207.402" x2="231.248" y2="343.598" gradientUnits="userSpaceOnUse">
<stop stop-color="#6574FF"/>
<stop offset="1" stop-color="#B264FF"/>
</linearGradient>
<linearGradient id="paint2_linear_1_46" x1="221.15" y1="301.88" x2="221.15" y2="317.746" gradientUnits="userSpaceOnUse">
<stop stop-color="#FFC9AB" stop-opacity="0.4"/>
<stop offset="1" stop-color="#FFC9AB" stop-opacity="0"/>
</linearGradient>
<linearGradient id="paint3_linear_1_46" x1="174.893" y1="294.791" x2="174.893" y2="311.721" gradientUnits="userSpaceOnUse">
<stop stop-color="#FFC9AB" stop-opacity="0"/>
<stop offset="1" stop-color="white"/>
</linearGradient>
<clipPath id="clip0_1_46">
<rect width="141" height="141" fill="white" transform="translate(126.656 225.649) rotate(-15)"/>
</clipPath>
</defs>
</svg>
