<svg width="200" height="160" viewBox="0 0 424 160" fill="none" xmlns="http://www.w3.org/2000/svg">
<mask id="mask0_6062_61016" style="mask-type:alpha" maskUnits="userSpaceOnUse" x="0" y="0" width="424" height="160">
<path d="M424 4C424 1.79086 420.418 0 416 0H8C3.58172 0 0 1.79086 0 4V156C0 158.209 3.58172 160 8 160H416C420.418 160 424 158.209 424 156V4Z" fill="white"/>
</mask>
<g mask="url(#mask0_6062_61016)">
<mask id="mask1_6062_61016" style="mask-type:alpha" maskUnits="userSpaceOnUse" x="161" y="-4" width="376" height="346">
<rect x="161" y="-4" width="375.061" height="345.672" fill="#D9D9D9"/>
</mask>
<g mask="url(#mask1_6062_61016)">
<path d="M317.552 30.2664C317.214 29.0006 317.214 27.6683 317.553 26.4028L318.487 22.9194L369.026 36.4614L368.093 39.9448C367.754 41.2103 367.088 42.3644 366.162 43.2915L352.999 56.475C351.111 58.3662 348.357 59.1054 345.775 58.4137L327.647 53.5561C325.065 52.8644 323.049 50.8471 322.36 48.2651L317.552 30.2664Z" fill="#CCCCCC"/>
<g filter="url(#filter0_d_6062_61016)">
<path d="M318.4 26.7657C317.709 24.1863 318.447 21.434 320.335 19.5458L333.611 6.26915C335.5 4.38088 338.252 3.64342 340.831 4.33458L358.968 9.19416C361.547 9.88531 363.562 11.9001 364.253 14.4795L369.113 32.6157C369.804 35.1951 369.066 37.9474 367.178 39.8356L353.901 53.1122C352.013 55.0005 349.261 55.738 346.681 55.0468L328.545 50.1872C325.966 49.4961 323.951 47.4813 323.26 44.9019L318.4 26.7657Z" fill="white"/>
<path d="M318.4 26.7657C317.709 24.1863 318.447 21.434 320.335 19.5458L333.611 6.26915C335.5 4.38088 338.252 3.64342 340.831 4.33458L358.968 9.19416C361.547 9.88531 363.562 11.9001 364.253 14.4795L369.113 32.6157C369.804 35.1951 369.066 37.9474 367.178 39.8356L353.901 53.1122C352.013 55.0005 349.261 55.738 346.681 55.0468L328.545 50.1872C325.966 49.4961 323.951 47.4813 323.26 44.9019L318.4 26.7657Z" fill="url(#paint0_linear_6062_61016)" fill-opacity="0.2"/>
<path d="M318.4 26.7657C317.709 24.1863 318.447 21.434 320.335 19.5458L333.611 6.26915C335.5 4.38088 338.252 3.64342 340.831 4.33458L358.968 9.19416C361.547 9.88531 363.562 11.9001 364.253 14.4795L369.113 32.6157C369.804 35.1951 369.066 37.9474 367.178 39.8356L353.901 53.1122C352.013 55.0005 349.261 55.738 346.681 55.0468L328.545 50.1872C325.966 49.4961 323.951 47.4813 323.26 44.9019L318.4 26.7657Z" fill="url(#paint1_linear_6062_61016)" fill-opacity="0.2"/>
<path d="M318.4 26.7657C317.709 24.1863 318.447 21.434 320.335 19.5458L333.611 6.26915C335.5 4.38088 338.252 3.64342 340.831 4.33458L358.968 9.19416C361.547 9.88531 363.562 11.9001 364.253 14.4795L369.113 32.6157C369.804 35.1951 369.066 37.9474 367.178 39.8356L353.901 53.1122C352.013 55.0005 349.261 55.738 346.681 55.0468L328.545 50.1872C325.966 49.4961 323.951 47.4813 323.26 44.9019L318.4 26.7657Z" fill="url(#paint2_linear_6062_61016)" fill-opacity="0.2"/>
</g>
<g filter="url(#filter1_i_6062_61016)">
<path d="M351.051 37.9701L350.031 41.7775L335.168 37.795L336.188 33.9876L351.051 37.9701ZM354.753 23.7576L337.622 38.4524L334.04 37.4927L334.739 34.8839L351.993 20.2974L355.434 21.2194L354.753 23.7576ZM353.84 20.7924L352.816 24.6139L338.447 20.7636L339.471 16.9421L353.84 20.7924Z" fill="#8867BF"/>
</g>
<path d="M353.778 68.3464C353.44 67.0807 353.441 65.7483 353.78 64.4829L354.713 60.9995L405.253 74.5415L404.319 78.0249C403.98 79.2904 403.314 80.4445 402.389 81.3716L389.226 94.5551C387.337 96.4463 384.583 97.1854 382.002 96.4937L363.873 91.6362C361.291 90.9445 359.276 88.9272 358.586 86.3452L353.778 68.3464Z" fill="#CCCCCC"/>
<g filter="url(#filter2_d_6062_61016)">
<path d="M354.626 64.8458C353.935 62.2663 354.673 59.5141 356.561 57.6258L369.838 44.3492C371.726 42.461 374.478 41.7235 377.057 42.4147L395.194 47.2742C397.773 47.9654 399.788 49.9802 400.479 52.5596L405.339 70.6958C406.03 73.2752 405.292 76.0274 403.404 77.9157L390.127 91.1923C388.239 93.0806 385.487 93.8181 382.908 93.1269L364.771 88.2673C362.192 87.5762 360.177 85.5614 359.486 82.982L354.626 64.8458Z" fill="white"/>
<path d="M354.626 64.8458C353.935 62.2663 354.673 59.5141 356.561 57.6258L369.838 44.3492C371.726 42.461 374.478 41.7235 377.057 42.4147L395.194 47.2742C397.773 47.9654 399.788 49.9802 400.479 52.5596L405.339 70.6958C406.03 73.2752 405.292 76.0274 403.404 77.9157L390.127 91.1923C388.239 93.0806 385.487 93.8181 382.908 93.1269L364.771 88.2673C362.192 87.5762 360.177 85.5614 359.486 82.982L354.626 64.8458Z" fill="url(#paint3_linear_6062_61016)" fill-opacity="0.2"/>
<path d="M354.626 64.8458C353.935 62.2663 354.673 59.5141 356.561 57.6258L369.838 44.3492C371.726 42.461 374.478 41.7235 377.057 42.4147L395.194 47.2742C397.773 47.9654 399.788 49.9802 400.479 52.5596L405.339 70.6958C406.03 73.2752 405.292 76.0274 403.404 77.9157L390.127 91.1923C388.239 93.0806 385.487 93.8181 382.908 93.1269L364.771 88.2673C362.192 87.5762 360.177 85.5614 359.486 82.982L354.626 64.8458Z" fill="url(#paint4_linear_6062_61016)" fill-opacity="0.2"/>
<path d="M354.626 64.8458C353.935 62.2663 354.673 59.5141 356.561 57.6258L369.838 44.3492C371.726 42.461 374.478 41.7235 377.057 42.4147L395.194 47.2742C397.773 47.9654 399.788 49.9802 400.479 52.5596L405.339 70.6958C406.03 73.2752 405.292 76.0274 403.404 77.9157L390.127 91.1923C388.239 93.0806 385.487 93.8181 382.908 93.1269L364.771 88.2673C362.192 87.5762 360.177 85.5614 359.486 82.982L354.626 64.8458Z" fill="url(#paint5_linear_6062_61016)" fill-opacity="0.2"/>
</g>
<g filter="url(#filter3_i_6062_61016)">
<path d="M385.352 57.6091L379.851 78.1407L374.916 76.8182L380.417 56.2866L385.352 57.6091Z" fill="#8867BF"/>
</g>
<path d="M390.327 105.224C389.988 103.959 389.989 102.626 390.328 101.361L391.261 97.8774L441.801 111.419L440.867 114.903C440.528 116.168 439.863 117.322 438.937 118.249L425.774 131.433C423.886 133.324 421.131 134.063 418.55 133.372L400.421 128.514C397.84 127.822 395.824 125.805 395.134 123.223L390.327 105.224Z" fill="#CCCCCC"/>
<g filter="url(#filter4_d_6062_61016)">
<path d="M391.175 101.724C390.484 99.1443 391.221 96.392 393.11 94.5038L406.386 81.2272C408.275 79.3389 411.027 78.6014 413.606 79.2926L431.743 84.1522C434.322 84.8433 436.337 86.8581 437.028 89.4375L441.887 107.574C442.579 110.153 441.841 112.905 439.953 114.794L426.676 128.07C424.788 129.959 422.036 130.696 419.456 130.005L401.32 125.145C398.741 124.454 396.726 122.439 396.035 119.86L391.175 101.724Z" fill="white"/>
<path d="M391.175 101.724C390.484 99.1443 391.221 96.392 393.11 94.5038L406.386 81.2272C408.275 79.3389 411.027 78.6014 413.606 79.2926L431.743 84.1522C434.322 84.8433 436.337 86.8581 437.028 89.4375L441.887 107.574C442.579 110.153 441.841 112.905 439.953 114.794L426.676 128.07C424.788 129.959 422.036 130.696 419.456 130.005L401.32 125.145C398.741 124.454 396.726 122.439 396.035 119.86L391.175 101.724Z" fill="url(#paint6_linear_6062_61016)" fill-opacity="0.2"/>
<path d="M391.175 101.724C390.484 99.1443 391.221 96.392 393.11 94.5038L406.386 81.2272C408.275 79.3389 411.027 78.6014 413.606 79.2926L431.743 84.1522C434.322 84.8433 436.337 86.8581 437.028 89.4375L441.887 107.574C442.579 110.153 441.841 112.905 439.953 114.794L426.676 128.07C424.788 129.959 422.036 130.696 419.456 130.005L401.32 125.145C398.741 124.454 396.726 122.439 396.035 119.86L391.175 101.724Z" fill="url(#paint7_linear_6062_61016)" fill-opacity="0.2"/>
<path d="M391.175 101.724C390.484 99.1443 391.221 96.392 393.11 94.5038L406.386 81.2272C408.275 79.3389 411.027 78.6014 413.606 79.2926L431.743 84.1522C434.322 84.8433 436.337 86.8581 437.028 89.4375L441.887 107.574C442.579 110.153 441.841 112.905 439.953 114.794L426.676 128.07C424.788 129.959 422.036 130.696 419.456 130.005L401.32 125.145C398.741 124.454 396.726 122.439 396.035 119.86L391.175 101.724Z" fill="url(#paint8_linear_6062_61016)" fill-opacity="0.2"/>
</g>
<g filter="url(#filter5_i_6062_61016)">
<path d="M410.591 91.4565L414.624 92.5371L415.379 108.05L423.79 94.9931L427.823 96.0737L415.341 114.735L412.069 113.858L410.591 91.4565ZM408.137 90.799L412.311 91.9174L408.87 107.862L407.585 112.657L402.636 111.331L408.137 90.799ZM426.102 95.6128L430.29 96.735L424.789 117.267L419.825 115.937L421.11 111.142L426.102 95.6128Z" fill="#8867BF"/>
</g>
<path d="M426.553 143.304C426.215 142.039 426.215 140.706 426.554 139.441L427.488 135.958L478.027 149.5L477.094 152.983C476.755 154.248 476.089 155.402 475.163 156.33L462 169.513C460.112 171.404 457.358 172.143 454.776 171.452L436.647 166.594C434.066 165.902 432.05 163.885 431.361 161.303L426.553 143.304Z" fill="#CCCCCC"/>
<g filter="url(#filter6_d_6062_61016)">
<path d="M427.401 139.804C426.71 137.224 427.448 134.472 429.336 132.584L442.612 119.307C444.501 117.419 447.253 116.682 449.832 117.373L467.969 122.232C470.548 122.923 472.563 124.938 473.254 127.518L478.114 145.654C478.805 148.233 478.067 150.985 476.179 152.874L462.902 166.15C461.014 168.039 458.262 168.776 455.682 168.085L437.546 163.225C434.967 162.534 432.952 160.519 432.261 157.94L427.401 139.804Z" fill="white"/>
<path d="M427.401 139.804C426.71 137.224 427.448 134.472 429.336 132.584L442.612 119.307C444.501 117.419 447.253 116.682 449.832 117.373L467.969 122.232C470.548 122.923 472.563 124.938 473.254 127.518L478.114 145.654C478.805 148.233 478.067 150.985 476.179 152.874L462.902 166.15C461.014 168.039 458.262 168.776 455.682 168.085L437.546 163.225C434.967 162.534 432.952 160.519 432.261 157.94L427.401 139.804Z" fill="url(#paint9_linear_6062_61016)" fill-opacity="0.2"/>
<path d="M427.401 139.804C426.71 137.224 427.448 134.472 429.336 132.584L442.612 119.307C444.501 117.419 447.253 116.682 449.832 117.373L467.969 122.232C470.548 122.923 472.563 124.938 473.254 127.518L478.114 145.654C478.805 148.233 478.067 150.985 476.179 152.874L462.902 166.15C461.014 168.039 458.262 168.776 455.682 168.085L437.546 163.225C434.967 162.534 432.952 160.519 432.261 157.94L427.401 139.804Z" fill="url(#paint10_linear_6062_61016)" fill-opacity="0.2"/>
<path d="M427.401 139.804C426.71 137.224 427.448 134.472 429.336 132.584L442.612 119.307C444.501 117.419 447.253 116.682 449.832 117.373L467.969 122.232C470.548 122.923 472.563 124.938 473.254 127.518L478.114 145.654C478.805 148.233 478.067 150.985 476.179 152.874L462.902 166.15C461.014 168.039 458.262 168.776 455.682 168.085L437.546 163.225C434.967 162.534 432.952 160.519 432.261 157.94L427.401 139.804Z" fill="url(#paint11_linear_6062_61016)" fill-opacity="0.2"/>
</g>
<path d="M267.139 45.1316C266.801 43.8659 266.802 42.5335 267.141 41.268L268.074 37.7847L318.614 51.3267L317.68 54.81C317.341 56.0755 316.676 57.2296 315.75 58.1567L302.587 71.3402C300.699 73.2314 297.944 73.9706 295.363 73.2789L277.234 68.4213C274.653 67.7296 272.637 65.7123 271.947 63.1304L267.139 45.1316Z" fill="#CCCCCC"/>
<g filter="url(#filter7_d_6062_61016)">
<path d="M267.988 41.6309C267.296 39.0515 268.034 36.2993 269.922 34.411L283.199 21.1344C285.087 19.2461 287.839 18.5087 290.419 19.1998L308.555 24.0594C311.134 24.7505 313.149 26.7653 313.84 29.3447L318.7 47.4809C319.391 50.0604 318.654 52.8126 316.765 54.7009L303.489 67.9775C301.6 69.8658 298.848 70.6032 296.269 69.9121L278.133 65.0525C275.553 64.3613 273.538 62.3466 272.847 59.7671L267.988 41.6309Z" fill="white"/>
<path d="M267.988 41.6309C267.296 39.0515 268.034 36.2993 269.922 34.411L283.199 21.1344C285.087 19.2461 287.839 18.5087 290.419 19.1998L308.555 24.0594C311.134 24.7505 313.149 26.7653 313.84 29.3447L318.7 47.4809C319.391 50.0604 318.654 52.8126 316.765 54.7009L303.489 67.9775C301.6 69.8658 298.848 70.6032 296.269 69.9121L278.133 65.0525C275.553 64.3613 273.538 62.3466 272.847 59.7671L267.988 41.6309Z" fill="url(#paint12_linear_6062_61016)" fill-opacity="0.2"/>
<path d="M267.988 41.6309C267.296 39.0515 268.034 36.2993 269.922 34.411L283.199 21.1344C285.087 19.2461 287.839 18.5087 290.419 19.1998L308.555 24.0594C311.134 24.7505 313.149 26.7653 313.84 29.3447L318.7 47.4809C319.391 50.0604 318.654 52.8126 316.765 54.7009L303.489 67.9775C301.6 69.8658 298.848 70.6032 296.269 69.9121L278.133 65.0525C275.553 64.3613 273.538 62.3466 272.847 59.7671L267.988 41.6309Z" fill="url(#paint13_linear_6062_61016)" fill-opacity="0.2"/>
<path d="M267.988 41.6309C267.296 39.0515 268.034 36.2993 269.922 34.411L283.199 21.1344C285.087 19.2461 287.839 18.5087 290.419 19.1998L308.555 24.0594C311.134 24.7505 313.149 26.7653 313.84 29.3447L318.7 47.4809C319.391 50.0604 318.654 52.8126 316.765 54.7009L303.489 67.9775C301.6 69.8658 298.848 70.6032 296.269 69.9121L278.133 65.0525C275.553 64.3613 273.538 62.3466 272.847 59.7671L267.988 41.6309Z" fill="url(#paint14_linear_6062_61016)" fill-opacity="0.2"/>
</g>
<g filter="url(#filter8_i_6062_61016)">
<path d="M302.262 45.9095L302.039 46.7415C301.619 48.3114 301.02 49.6624 300.243 50.7943C299.478 51.9194 298.578 52.8167 297.542 53.4863C296.508 54.1464 295.384 54.5655 294.167 54.7433C292.953 54.9117 291.688 54.8196 290.372 54.467C289.046 54.1118 287.895 53.5565 286.919 52.8012C285.954 52.0389 285.185 51.1123 284.611 50.0214C284.049 48.9236 283.713 47.6951 283.603 46.3357C283.506 44.9695 283.668 43.5015 284.088 41.9315L284.311 41.0995C284.732 39.5296 285.326 38.1774 286.093 37.0429C286.87 35.911 287.771 35.0137 288.795 34.351C289.83 33.6814 290.955 33.2624 292.169 33.0939C293.395 32.9186 294.671 33.0085 295.996 33.3637C297.313 33.7164 298.453 34.2738 299.417 35.0361C300.394 35.7914 301.163 36.718 301.726 37.8158C302.29 38.9042 302.626 40.1328 302.733 41.5015C302.84 42.8702 302.683 44.3396 302.262 45.9095ZM297.019 45.3964L297.25 44.5362C297.522 43.5209 297.672 42.6039 297.7 41.7851C297.74 40.9595 297.661 40.2381 297.463 39.621C297.266 39.0038 296.954 38.4969 296.526 38.1002C296.11 37.6966 295.587 37.4104 294.957 37.2416C294.299 37.0653 293.689 37.0479 293.127 37.1896C292.568 37.3218 292.053 37.6071 291.583 38.0454C291.113 38.4836 290.689 39.0703 290.311 39.8052C289.944 40.5333 289.625 41.4049 289.353 42.4202L289.122 43.2804C288.853 44.2863 288.694 45.2008 288.644 46.0239C288.607 46.8401 288.681 47.5603 288.866 48.1843C289.061 48.8108 289.367 49.3259 289.782 49.7295C290.208 50.1356 290.749 50.4269 291.407 50.6032C292.037 50.772 292.633 50.7855 293.195 50.6439C293.757 50.5022 294.274 50.2076 294.747 49.7599C295.229 49.3147 295.658 48.7294 296.033 48.0038C296.421 47.2714 296.75 46.4023 297.019 45.3964Z" fill="#8867BF"/>
</g>
<path d="M303.688 82.0095C303.35 80.7438 303.35 79.4114 303.689 78.146L304.623 74.6626L355.162 88.2046L354.229 91.688C353.89 92.9534 353.224 94.1076 352.298 95.0347L339.135 108.218C337.247 110.109 334.493 110.849 331.911 110.157L313.782 105.299C311.201 104.608 309.185 102.59 308.496 100.008L303.688 82.0095Z" fill="#CCCCCC"/>
<g filter="url(#filter9_d_6062_61016)">
<path d="M304.536 78.5089C303.845 75.9294 304.582 73.1772 306.47 71.2889L319.747 58.0123C321.635 56.124 324.387 55.3866 326.967 56.0777L345.103 60.9373C347.682 61.6285 349.697 63.6432 350.388 66.2227L355.248 84.3589C355.939 86.9383 355.202 89.6905 353.313 91.5788L340.037 104.855C338.148 106.744 335.396 107.481 332.817 106.79L314.681 101.93C312.101 101.239 310.086 99.2245 309.395 96.6451L304.536 78.5089Z" fill="white"/>
<path d="M304.536 78.5089C303.845 75.9294 304.582 73.1772 306.47 71.2889L319.747 58.0123C321.635 56.124 324.387 55.3866 326.967 56.0777L345.103 60.9373C347.682 61.6285 349.697 63.6432 350.388 66.2227L355.248 84.3589C355.939 86.9383 355.202 89.6905 353.313 91.5788L340.037 104.855C338.148 106.744 335.396 107.481 332.817 106.79L314.681 101.93C312.101 101.239 310.086 99.2245 309.395 96.6451L304.536 78.5089Z" fill="url(#paint15_linear_6062_61016)" fill-opacity="0.2"/>
<path d="M304.536 78.5089C303.845 75.9294 304.582 73.1772 306.47 71.2889L319.747 58.0123C321.635 56.124 324.387 55.3866 326.967 56.0777L345.103 60.9373C347.682 61.6285 349.697 63.6432 350.388 66.2227L355.248 84.3589C355.939 86.9383 355.202 89.6905 353.313 91.5788L340.037 104.855C338.148 106.744 335.396 107.481 332.817 106.79L314.681 101.93C312.101 101.239 310.086 99.2245 309.395 96.6451L304.536 78.5089Z" fill="url(#paint16_linear_6062_61016)" fill-opacity="0.2"/>
<path d="M304.536 78.5089C303.845 75.9294 304.582 73.1772 306.47 71.2889L319.747 58.0123C321.635 56.124 324.387 55.3866 326.967 56.0777L345.103 60.9373C347.682 61.6285 349.697 63.6432 350.388 66.2227L355.248 84.3589C355.939 86.9383 355.202 89.6905 353.313 91.5788L340.037 104.855C338.148 106.744 335.396 107.481 332.817 106.79L314.681 101.93C312.101 101.239 310.086 99.2245 309.395 96.6451L304.536 78.5089Z" fill="url(#paint17_linear_6062_61016)" fill-opacity="0.2"/>
</g>
<g filter="url(#filter10_i_6062_61016)">
<path d="M328.066 78.2154L330.379 78.835C330.971 78.9937 331.483 79.02 331.914 78.914C332.358 78.801 332.725 78.577 333.016 78.242C333.31 77.8975 333.529 77.4574 333.672 76.9215C333.783 76.5079 333.796 76.1032 333.71 75.7075C333.634 75.3143 333.446 74.9665 333.144 74.6639C332.844 74.352 332.417 74.1217 331.863 73.9731C331.487 73.8723 331.099 73.854 330.699 73.9181C330.301 73.9728 329.947 74.1097 329.636 74.3287C329.335 74.5503 329.13 74.8632 329.022 75.2674L324.256 73.9903C324.568 72.8246 325.155 71.9137 326.016 71.2577C326.889 70.5949 327.911 70.1836 329.082 70.0238C330.265 69.8572 331.468 69.9377 332.69 70.2651C334.147 70.6556 335.365 71.2238 336.344 71.9698C337.326 72.7063 338.005 73.5936 338.382 74.6316C338.77 75.6628 338.794 76.8176 338.451 78.0961C338.262 78.8012 337.92 79.4199 337.425 79.9522C336.929 80.4845 336.323 80.9063 335.604 81.2177C334.886 81.529 334.091 81.7139 333.219 81.7725C332.359 81.8241 331.459 81.724 330.518 81.4721L327.416 80.6408L328.066 78.2154ZM327.118 81.7548L327.752 79.3858L330.855 80.217C331.879 80.4916 332.783 80.8598 333.566 81.3215C334.352 81.7738 334.99 82.3075 335.48 82.9225C335.97 83.5374 336.29 84.2227 336.441 84.9784C336.593 85.7246 336.555 86.5255 336.326 87.3809C336.069 88.3398 335.647 89.1437 335.06 89.7925C334.473 90.4413 333.762 90.931 332.928 91.2616C332.094 91.5923 331.175 91.7692 330.171 91.7925C329.17 91.8063 328.124 91.6672 327.034 91.375C326.178 91.1457 325.353 90.8037 324.558 90.3488C323.765 89.8846 323.081 89.3183 322.504 88.6499C321.93 87.9721 321.528 87.1993 321.297 86.3313C321.078 85.4565 321.109 84.4926 321.391 83.4397L326.158 84.7169C326.042 85.1493 326.054 85.5756 326.193 85.9958C326.344 86.4092 326.594 86.7734 326.943 87.0885C327.292 87.4037 327.701 87.6242 328.171 87.7502C328.754 87.9063 329.277 87.9305 329.739 87.8226C330.213 87.7078 330.608 87.4913 330.925 87.1732C331.242 86.8551 331.463 86.4658 331.586 86.0051C331.772 85.3094 331.804 84.7233 331.679 84.2467C331.565 83.7726 331.311 83.3823 330.92 83.0759C330.538 82.772 330.041 82.5382 329.43 82.3745L327.118 81.7548Z" fill="#8867BF"/>
</g>
<path d="M339.914 120.09C339.576 118.824 339.576 117.492 339.915 116.226L340.849 112.743L391.388 126.285L390.455 129.768C390.116 131.034 389.45 132.188 388.524 133.115L375.361 146.298C373.473 148.189 370.719 148.929 368.137 148.237L350.008 143.379C347.427 142.688 345.411 140.67 344.722 138.088L339.914 120.09Z" fill="#CCCCCC"/>
<g filter="url(#filter11_d_6062_61016)">
<path d="M340.762 116.589C340.071 114.01 340.809 111.257 342.697 109.369L355.974 96.0924C357.862 94.2041 360.614 93.4667 363.194 94.1578L381.33 99.0174C383.909 99.7086 385.924 101.723 386.615 104.303L391.475 122.439C392.166 125.018 391.428 127.771 389.54 129.659L376.264 142.935C374.375 144.824 371.623 145.561 369.044 144.87L350.907 140.01C348.328 139.319 346.313 137.305 345.622 134.725L340.762 116.589Z" fill="white"/>
<path d="M340.762 116.589C340.071 114.01 340.809 111.257 342.697 109.369L355.974 96.0924C357.862 94.2041 360.614 93.4667 363.194 94.1578L381.33 99.0174C383.909 99.7086 385.924 101.723 386.615 104.303L391.475 122.439C392.166 125.018 391.428 127.771 389.54 129.659L376.264 142.935C374.375 144.824 371.623 145.561 369.044 144.87L350.907 140.01C348.328 139.319 346.313 137.305 345.622 134.725L340.762 116.589Z" fill="url(#paint18_linear_6062_61016)" fill-opacity="0.2"/>
<path d="M340.762 116.589C340.071 114.01 340.809 111.257 342.697 109.369L355.974 96.0924C357.862 94.2041 360.614 93.4667 363.194 94.1578L381.33 99.0174C383.909 99.7086 385.924 101.723 386.615 104.303L391.475 122.439C392.166 125.018 391.428 127.771 389.54 129.659L376.264 142.935C374.375 144.824 371.623 145.561 369.044 144.87L350.907 140.01C348.328 139.319 346.313 137.305 345.622 134.725L340.762 116.589Z" fill="url(#paint19_linear_6062_61016)" fill-opacity="0.2"/>
<path d="M340.762 116.589C340.071 114.01 340.809 111.257 342.697 109.369L355.974 96.0924C357.862 94.2041 360.614 93.4667 363.194 94.1578L381.33 99.0174C383.909 99.7086 385.924 101.723 386.615 104.303L391.475 122.439C392.166 125.018 391.428 127.771 389.54 129.659L376.264 142.935C374.375 144.824 371.623 145.561 369.044 144.87L350.907 140.01C348.328 139.319 346.313 137.305 345.622 134.725L340.762 116.589Z" fill="url(#paint20_linear_6062_61016)" fill-opacity="0.2"/>
</g>
<g filter="url(#filter12_i_6062_61016)">
<path d="M371.939 127.398L370.919 131.206L359.976 128.274L360.997 124.466L371.939 127.398ZM367.241 108.214L361.739 128.746L356.789 127.42L362.291 106.888L367.241 108.214ZM372.826 118.447L371.84 122.127L362.308 119.573L363.294 115.893L372.826 118.447ZM376.463 110.686L375.439 114.507L364.454 111.564L365.478 107.742L376.463 110.686Z" fill="#8867BF"/>
</g>
<path d="M289.823 133.752C289.485 132.486 289.486 131.154 289.825 129.888L290.758 126.405L341.297 139.947L340.364 143.43C340.025 144.696 339.359 145.85 338.434 146.777L325.271 159.96C323.382 161.852 320.628 162.591 318.047 161.899L299.918 157.041C297.336 156.35 295.321 154.332 294.631 151.75L289.823 133.752Z" fill="#CCCCCC"/>
<g filter="url(#filter13_d_6062_61016)">
<path d="M290.671 130.251C289.98 127.672 290.717 124.919 292.606 123.031L305.882 109.755C307.771 107.866 310.523 107.129 313.102 107.82L331.238 112.68C333.818 113.371 335.833 115.385 336.524 117.965L341.383 136.101C342.074 138.68 341.337 141.433 339.449 143.321L326.172 156.598C324.284 158.486 321.532 159.223 318.952 158.532L300.816 153.673C298.237 152.981 296.222 150.967 295.531 148.387L290.671 130.251Z" fill="white"/>
<path d="M290.671 130.251C289.98 127.672 290.717 124.919 292.606 123.031L305.882 109.755C307.771 107.866 310.523 107.129 313.102 107.82L331.238 112.68C333.818 113.371 335.833 115.385 336.524 117.965L341.383 136.101C342.074 138.68 341.337 141.433 339.449 143.321L326.172 156.598C324.284 158.486 321.532 159.223 318.952 158.532L300.816 153.673C298.237 152.981 296.222 150.967 295.531 148.387L290.671 130.251Z" fill="url(#paint21_linear_6062_61016)" fill-opacity="0.2"/>
<path d="M290.671 130.251C289.98 127.672 290.717 124.919 292.606 123.031L305.882 109.755C307.771 107.866 310.523 107.129 313.102 107.82L331.238 112.68C333.818 113.371 335.833 115.385 336.524 117.965L341.383 136.101C342.074 138.68 341.337 141.433 339.449 143.321L326.172 156.598C324.284 158.486 321.532 159.223 318.952 158.532L300.816 153.673C298.237 152.981 296.222 150.967 295.531 148.387L290.671 130.251Z" fill="url(#paint22_linear_6062_61016)" fill-opacity="0.2"/>
<path d="M290.671 130.251C289.98 127.672 290.717 124.919 292.606 123.031L305.882 109.755C307.771 107.866 310.523 107.129 313.102 107.82L331.238 112.68C333.818 113.371 335.833 115.385 336.524 117.965L341.383 136.101C342.074 138.68 341.337 141.433 339.449 143.321L326.172 156.598C324.284 158.486 321.532 159.223 318.952 158.532L300.816 153.673C298.237 152.981 296.222 150.967 295.531 148.387L290.671 130.251Z" fill="url(#paint23_linear_6062_61016)" fill-opacity="0.2"/>
</g>
<g filter="url(#filter14_i_6062_61016)">
<path d="M322.873 123.092L323.634 123.296L322.633 127.033L322.379 126.965C321.467 126.72 320.578 126.618 319.711 126.658C318.853 126.7 318.054 126.899 317.314 127.255C316.586 127.604 315.948 128.123 315.4 128.813C314.862 129.505 314.452 130.377 314.17 131.43L313.207 135.026C313.03 135.684 312.933 136.273 312.915 136.792C312.897 137.311 312.957 137.76 313.097 138.14C313.237 138.521 313.451 138.835 313.737 139.083C314.032 139.333 314.401 139.518 314.843 139.636C315.21 139.734 315.571 139.74 315.926 139.654C316.282 139.568 316.614 139.4 316.923 139.15C317.241 138.903 317.516 138.589 317.75 138.208C317.983 137.827 318.165 137.392 318.296 136.904C318.437 136.377 318.498 135.885 318.48 135.426C318.462 134.968 318.369 134.56 318.203 134.204C318.048 133.84 317.822 133.537 317.524 133.296C317.238 133.048 316.897 132.871 316.502 132.766C315.901 132.604 315.352 132.603 314.856 132.763C314.372 132.915 313.966 133.169 313.639 133.525C313.321 133.883 313.106 134.274 312.992 134.697L312.16 133.234C312.292 132.665 312.557 132.111 312.953 131.573C313.349 131.034 313.852 130.569 314.46 130.178C315.069 129.787 315.768 129.526 316.559 129.395C317.35 129.264 318.211 129.324 319.141 129.573C320.081 129.825 320.861 130.225 321.48 130.774C322.108 131.325 322.581 131.986 322.898 132.756C323.225 133.529 323.401 134.377 323.425 135.301C323.45 136.224 323.329 137.184 323.062 138.181C322.792 139.187 322.363 140.074 321.774 140.843C321.197 141.606 320.503 142.221 319.693 142.689C318.882 143.157 317.992 143.452 317.022 143.575C316.052 143.698 315.04 143.618 313.987 143.336C312.906 143.047 311.954 142.595 311.131 141.982C310.32 141.361 309.666 140.606 309.168 139.718C308.683 138.822 308.385 137.81 308.274 136.682C308.173 135.556 308.296 134.345 308.643 133.048L309.108 131.313C309.579 129.555 310.285 128.067 311.226 126.848C312.177 125.631 313.278 124.682 314.529 124C315.792 123.31 317.138 122.89 318.569 122.74C320 122.589 321.435 122.706 322.873 123.092Z" fill="#8867BF"/>
</g>
<path d="M376.462 156.967C376.124 155.701 376.124 154.368 376.463 153.103L377.397 149.62L427.936 163.162L427.003 166.645C426.664 167.91 425.998 169.065 425.072 169.992L411.909 183.175C410.021 185.066 407.267 185.806 404.685 185.114L386.557 180.256C383.975 179.565 381.959 177.547 381.27 174.965L376.462 156.967Z" fill="#CCCCCC"/>
<g filter="url(#filter15_d_6062_61016)">
<path d="M377.31 153.466C376.619 150.886 377.357 148.134 379.245 146.246L392.522 132.969C394.41 131.081 397.162 130.344 399.741 131.035L417.878 135.894C420.457 136.586 422.472 138.6 423.163 141.18L428.023 159.316C428.714 161.895 427.976 164.648 426.088 166.536L412.811 179.812C410.923 181.701 408.171 182.438 405.591 181.747L387.455 176.887C384.876 176.196 382.861 174.182 382.17 171.602L377.31 153.466Z" fill="white"/>
<path d="M377.31 153.466C376.619 150.886 377.357 148.134 379.245 146.246L392.522 132.969C394.41 131.081 397.162 130.344 399.741 131.035L417.878 135.894C420.457 136.586 422.472 138.6 423.163 141.18L428.023 159.316C428.714 161.895 427.976 164.648 426.088 166.536L412.811 179.812C410.923 181.701 408.171 182.438 405.591 181.747L387.455 176.887C384.876 176.196 382.861 174.182 382.17 171.602L377.31 153.466Z" fill="url(#paint24_linear_6062_61016)" fill-opacity="0.2"/>
<path d="M377.31 153.466C376.619 150.886 377.357 148.134 379.245 146.246L392.522 132.969C394.41 131.081 397.162 130.344 399.741 131.035L417.878 135.894C420.457 136.586 422.472 138.6 423.163 141.18L428.023 159.316C428.714 161.895 427.976 164.648 426.088 166.536L412.811 179.812C410.923 181.701 408.171 182.438 405.591 181.747L387.455 176.887C384.876 176.196 382.861 174.182 382.17 171.602L377.31 153.466Z" fill="url(#paint25_linear_6062_61016)" fill-opacity="0.2"/>
<path d="M377.31 153.466C376.619 150.886 377.357 148.134 379.245 146.246L392.522 132.969C394.41 131.081 397.162 130.344 399.741 131.035L417.878 135.894C420.457 136.586 422.472 138.6 423.163 141.18L428.023 159.316C428.714 161.895 427.976 164.648 426.088 166.536L412.811 179.812C410.923 181.701 408.171 182.438 405.591 181.747L387.455 176.887C384.876 176.196 382.861 174.182 382.17 171.602L377.31 153.466Z" fill="url(#paint26_linear_6062_61016)" fill-opacity="0.2"/>
</g>
<g filter="url(#filter16_i_6062_61016)">
<path d="M402.244 144.676L403.771 152.401L408.956 146.475L414.597 147.986L406.143 156.634L409.25 168.56L403.553 167.033L401.961 159.155L396.644 165.182L390.933 163.651L399.6 154.88L396.589 143.161L402.244 144.676Z" fill="#8867BF"/>
</g>
<path d="M239.411 148.618C239.072 147.352 239.073 146.02 239.412 144.754L240.345 141.271L290.885 154.813L289.951 158.296C289.612 159.562 288.947 160.716 288.021 161.643L274.858 174.827C272.97 176.718 270.215 177.457 267.634 176.765L249.505 171.908C246.924 171.216 244.908 169.199 244.218 166.617L239.411 148.618Z" fill="#CCCCCC"/>
<g filter="url(#filter17_d_6062_61016)">
<path d="M240.259 145.117C239.568 142.538 240.305 139.786 242.194 137.897L255.47 124.621C257.358 122.732 260.111 121.995 262.69 122.686L280.826 127.546C283.406 128.237 285.42 130.252 286.112 132.831L290.971 150.967C291.662 153.547 290.925 156.299 289.037 158.187L275.76 171.464C273.872 173.352 271.12 174.09 268.54 173.398L250.404 168.539C247.824 167.848 245.81 165.833 245.119 163.253L240.259 145.117Z" fill="white"/>
<path d="M240.259 145.117C239.568 142.538 240.305 139.786 242.194 137.897L255.47 124.621C257.358 122.732 260.111 121.995 262.69 122.686L280.826 127.546C283.406 128.237 285.42 130.252 286.112 132.831L290.971 150.967C291.662 153.547 290.925 156.299 289.037 158.187L275.76 171.464C273.872 173.352 271.12 174.09 268.54 173.398L250.404 168.539C247.824 167.848 245.81 165.833 245.119 163.253L240.259 145.117Z" fill="url(#paint27_linear_6062_61016)" fill-opacity="0.2"/>
<path d="M240.259 145.117C239.568 142.538 240.305 139.786 242.194 137.897L255.47 124.621C257.358 122.732 260.111 121.995 262.69 122.686L280.826 127.546C283.406 128.237 285.42 130.252 286.112 132.831L290.971 150.967C291.662 153.547 290.925 156.299 289.037 158.187L275.76 171.464C273.872 173.352 271.12 174.09 268.54 173.398L250.404 168.539C247.824 167.848 245.81 165.833 245.119 163.253L240.259 145.117Z" fill="url(#paint28_linear_6062_61016)" fill-opacity="0.2"/>
<path d="M240.259 145.117C239.568 142.538 240.305 139.786 242.194 137.897L255.47 124.621C257.358 122.732 260.111 121.995 262.69 122.686L280.826 127.546C283.406 128.237 285.42 130.252 286.112 132.831L290.971 150.967C291.662 153.547 290.925 156.299 289.037 158.187L275.76 171.464C273.872 173.352 271.12 174.09 268.54 173.398L250.404 168.539C247.824 167.848 245.81 165.833 245.119 163.253L240.259 145.117Z" fill="url(#paint29_linear_6062_61016)" fill-opacity="0.2"/>
</g>
<g filter="url(#filter18_i_6062_61016)">
<path d="M263.514 148.076L259.973 146.175L264.025 136.016L276.025 139.231L275.035 142.926L266.913 140.75L265.356 144.7C265.617 144.629 266.039 144.576 266.623 144.541C267.218 144.499 267.845 144.566 268.503 144.743C269.519 145.015 270.375 145.41 271.072 145.93C271.781 146.442 272.329 147.067 272.715 147.806C273.104 148.535 273.321 149.364 273.364 150.292C273.417 151.223 273.296 152.239 273.001 153.338C272.764 154.222 272.389 155.039 271.876 155.788C271.375 156.53 270.74 157.151 269.972 157.65C269.215 158.143 268.339 158.462 267.342 158.608C266.348 158.745 265.24 158.65 264.018 158.322C263.106 158.078 262.256 157.699 261.466 157.185C260.677 156.671 260.005 156.058 259.45 155.345C258.908 154.625 258.535 153.835 258.332 152.975C258.142 152.108 258.177 151.205 258.438 150.268L263.219 151.548C263.113 152.054 263.115 152.518 263.223 152.94C263.332 153.362 263.533 153.723 263.825 154.023C264.129 154.317 264.512 154.525 264.972 154.648C265.442 154.774 265.858 154.785 266.218 154.68C266.579 154.575 266.893 154.382 267.159 154.101C267.426 153.82 267.654 153.478 267.842 153.075C268.034 152.662 268.193 152.216 268.322 151.737C268.458 151.229 268.524 150.758 268.519 150.324C268.524 149.892 268.447 149.503 268.287 149.158C268.13 148.804 267.884 148.501 267.548 148.25C267.222 148.001 266.8 147.808 266.283 147.669C265.597 147.485 265.025 147.458 264.567 147.587C264.109 147.716 263.758 147.879 263.514 148.076Z" fill="#8867BF"/>
</g>
<path d="M413.537 191.547C412.846 188.968 413.583 186.215 415.471 184.327L428.748 171.05C430.636 169.162 433.389 168.425 435.968 169.116L454.104 173.975C456.684 174.667 458.698 176.681 459.39 179.261L464.249 197.397C464.94 199.976 464.203 202.729 462.315 204.617L449.038 217.893C447.15 219.782 444.397 220.519 441.818 219.828L423.682 214.968C421.102 214.277 419.088 212.263 418.396 209.683L413.537 191.547Z" fill="white"/>
<path d="M413.537 191.547C412.846 188.968 413.583 186.215 415.471 184.327L428.748 171.05C430.636 169.162 433.389 168.425 435.968 169.116L454.104 173.975C456.684 174.667 458.698 176.681 459.39 179.261L464.249 197.397C464.94 199.976 464.203 202.729 462.315 204.617L449.038 217.893C447.15 219.782 444.397 220.519 441.818 219.828L423.682 214.968C421.102 214.277 419.088 212.263 418.396 209.683L413.537 191.547Z" fill="url(#paint30_linear_6062_61016)" fill-opacity="0.2"/>
<path d="M413.537 191.547C412.846 188.968 413.583 186.215 415.471 184.327L428.748 171.05C430.636 169.162 433.389 168.425 435.968 169.116L454.104 173.975C456.684 174.667 458.698 176.681 459.39 179.261L464.249 197.397C464.94 199.976 464.203 202.729 462.315 204.617L449.038 217.893C447.15 219.782 444.397 220.519 441.818 219.828L423.682 214.968C421.102 214.277 419.088 212.263 418.396 209.683L413.537 191.547Z" fill="url(#paint31_linear_6062_61016)" fill-opacity="0.2"/>
<path d="M413.537 191.547C412.846 188.968 413.583 186.215 415.471 184.327L428.748 171.05C430.636 169.162 433.389 168.425 435.968 169.116L454.104 173.975C456.684 174.667 458.698 176.681 459.39 179.261L464.249 197.397C464.94 199.976 464.203 202.729 462.315 204.617L449.038 217.893C447.15 219.782 444.397 220.519 441.818 219.828L423.682 214.968C421.102 214.277 419.088 212.263 418.396 209.683L413.537 191.547Z" fill="url(#paint32_linear_6062_61016)" fill-opacity="0.2"/>
<g filter="url(#filter20_d_6062_61016)">
<path d="M253.275 96.8747C252.937 95.609 252.937 94.2767 253.276 93.0112L254.21 89.5278L304.749 103.07L303.816 106.553C303.477 107.819 302.811 108.973 301.885 109.9L288.722 123.083C286.834 124.975 284.079 125.714 281.498 125.022L263.369 120.164C260.788 119.473 258.772 117.455 258.082 114.874L253.275 96.8747Z" fill="url(#paint33_linear_6062_61016)"/>
</g>
<g filter="url(#filter21_d_6062_61016)">
<path d="M254.123 93.3741C253.432 90.7947 254.169 88.0424 256.057 86.1542L269.334 72.8775C271.222 70.9893 273.975 70.2518 276.554 70.943L294.69 75.8026C297.27 76.4937 299.284 78.5085 299.975 81.0879L304.835 99.2241C305.526 101.804 304.789 104.556 302.901 106.444L289.624 119.721C287.736 121.609 284.983 122.346 282.404 121.655L264.268 116.796C261.688 116.104 259.674 114.09 258.982 111.51L254.123 93.3741Z" fill="url(#paint34_linear_6062_61016)"/>
<path d="M254.123 93.3741C253.432 90.7947 254.169 88.0424 256.057 86.1542L269.334 72.8775C271.222 70.9893 273.975 70.2518 276.554 70.943L294.69 75.8026C297.27 76.4937 299.284 78.5085 299.975 81.0879L304.835 99.2241C305.526 101.804 304.789 104.556 302.901 106.444L289.624 119.721C287.736 121.609 284.983 122.346 282.404 121.655L264.268 116.796C261.688 116.104 259.674 114.09 258.982 111.51L254.123 93.3741Z" fill="url(#paint35_linear_6062_61016)" fill-opacity="0.2"/>
<path d="M254.123 93.3741C253.432 90.7947 254.169 88.0424 256.057 86.1542L269.334 72.8775C271.222 70.9893 273.975 70.2518 276.554 70.943L294.69 75.8026C297.27 76.4937 299.284 78.5085 299.975 81.0879L304.835 99.2241C305.526 101.804 304.789 104.556 302.901 106.444L289.624 119.721C287.736 121.609 284.983 122.346 282.404 121.655L264.268 116.796C261.688 116.104 259.674 114.09 258.982 111.51L254.123 93.3741Z" fill="url(#paint36_linear_6062_61016)" fill-opacity="0.2"/>
<path d="M254.123 93.3741C253.432 90.7947 254.169 88.0424 256.057 86.1542L269.334 72.8775C271.222 70.9893 273.975 70.2518 276.554 70.943L294.69 75.8026C297.27 76.4937 299.284 78.5085 299.975 81.0879L304.835 99.2241C305.526 101.804 304.789 104.556 302.901 106.444L289.624 119.721C287.736 121.609 284.983 122.346 282.404 121.655L264.268 116.796C261.688 116.104 259.674 114.09 258.982 111.51L254.123 93.3741Z" fill="url(#paint37_linear_6062_61016)" fill-opacity="0.2"/>
</g>
<g filter="url(#filter22_i_6062_61016)">
<path d="M284.849 86.1374L279.348 106.669L274.412 105.347L279.914 84.8149L284.849 86.1374Z" fill="#AF7E34"/>
</g>
<g filter="url(#filter23_d_6062_61016)">
<path d="M203.184 110.537C202.846 109.271 202.846 107.939 203.185 106.673L204.119 103.19L254.658 116.732L253.725 120.215C253.386 121.481 252.72 122.635 251.794 123.562L238.631 136.745C236.743 138.637 233.989 139.376 231.407 138.684L213.278 133.827C210.697 133.135 208.681 131.118 207.992 128.536L203.184 110.537Z" fill="url(#paint38_linear_6062_61016)"/>
</g>
<g filter="url(#filter24_d_6062_61016)">
<path d="M204.033 107.036C203.341 104.457 204.079 101.705 205.967 99.8163L219.244 86.5397C221.132 84.6514 223.884 83.9139 226.464 84.6051L244.6 89.4647C247.179 90.1558 249.194 92.1706 249.885 94.75L254.745 112.886C255.436 115.466 254.699 118.218 252.81 120.106L239.534 133.383C237.645 135.271 234.893 136.008 232.314 135.317L214.178 130.458C211.598 129.767 209.583 127.752 208.892 125.172L204.033 107.036Z" fill="url(#paint39_linear_6062_61016)"/>
<path d="M204.033 107.036C203.341 104.457 204.079 101.705 205.967 99.8163L219.244 86.5397C221.132 84.6514 223.884 83.9139 226.464 84.6051L244.6 89.4647C247.179 90.1558 249.194 92.1706 249.885 94.75L254.745 112.886C255.436 115.466 254.699 118.218 252.81 120.106L239.534 133.383C237.645 135.271 234.893 136.008 232.314 135.317L214.178 130.458C211.598 129.767 209.583 127.752 208.892 125.172L204.033 107.036Z" fill="url(#paint40_linear_6062_61016)" fill-opacity="0.2"/>
<path d="M204.033 107.036C203.341 104.457 204.079 101.705 205.967 99.8163L219.244 86.5397C221.132 84.6514 223.884 83.9139 226.464 84.6051L244.6 89.4647C247.179 90.1558 249.194 92.1706 249.885 94.75L254.745 112.886C255.436 115.466 254.699 118.218 252.81 120.106L239.534 133.383C237.645 135.271 234.893 136.008 232.314 135.317L214.178 130.458C211.598 129.767 209.583 127.752 208.892 125.172L204.033 107.036Z" fill="url(#paint41_linear_6062_61016)" fill-opacity="0.2"/>
<path d="M204.033 107.036C203.341 104.457 204.079 101.705 205.967 99.8163L219.244 86.5397C221.132 84.6514 223.884 83.9139 226.464 84.6051L244.6 89.4647C247.179 90.1558 249.194 92.1706 249.885 94.75L254.745 112.886C255.436 115.466 254.699 118.218 252.81 120.106L239.534 133.383C237.645 135.271 234.893 136.008 232.314 135.317L214.178 130.458C211.598 129.767 209.583 127.752 208.892 125.172L204.033 107.036Z" fill="url(#paint42_linear_6062_61016)" fill-opacity="0.2"/>
</g>
<g filter="url(#filter25_i_6062_61016)">
<path d="M232.448 113.735L237.383 115.057C236.935 116.468 236.212 117.625 235.214 118.526C234.217 119.428 233.011 120.017 231.597 120.293C230.195 120.562 228.648 120.47 226.956 120.016C225.583 119.649 224.418 119.09 223.461 118.339C222.512 117.591 221.778 116.684 221.258 115.618C220.747 114.554 220.459 113.353 220.394 112.016C220.338 110.681 220.517 109.243 220.93 107.701L221.229 106.587C221.642 105.046 222.216 103.713 222.95 102.59C223.696 101.46 224.561 100.563 225.545 99.8997C226.541 99.2294 227.631 98.8063 228.817 98.6303C230.003 98.4543 231.244 98.5401 232.542 98.8877C234.328 99.3663 235.751 100.09 236.811 101.06C237.872 102.029 238.59 103.163 238.967 104.464C239.347 105.754 239.408 107.126 239.15 108.578L234.214 107.256C234.402 106.48 234.443 105.8 234.337 105.218C234.233 104.626 233.954 104.128 233.498 103.723C233.042 103.319 232.377 103 231.503 102.766C230.892 102.602 230.33 102.572 229.818 102.677C229.307 102.782 228.835 103.038 228.403 103.447C227.971 103.855 227.576 104.429 227.216 105.169C226.869 105.902 226.549 106.814 226.257 107.904L225.951 109.046C225.658 110.137 225.475 111.085 225.4 111.891C225.325 112.698 225.368 113.384 225.528 113.951C225.688 114.518 225.968 114.981 226.365 115.339C226.775 115.691 227.318 115.957 227.995 116.139C228.747 116.34 229.413 116.393 229.993 116.296C230.576 116.19 231.073 115.931 231.486 115.517C231.902 115.095 232.222 114.5 232.448 113.735Z" fill="#AF7E34"/>
</g>
<g filter="url(#filter26_d_6062_61016)">
<path d="M189.32 162.28C188.981 161.014 188.982 159.682 189.321 158.416L190.254 154.933L240.794 168.475L239.861 171.958C239.521 173.224 238.856 174.378 237.93 175.305L224.767 188.489C222.879 190.38 220.124 191.119 217.543 190.427L199.414 185.57C196.833 184.878 194.817 182.861 194.127 180.279L189.32 162.28Z" fill="url(#paint43_linear_6062_61016)"/>
</g>
<g filter="url(#filter27_d_6062_61016)">
<path d="M190.168 158.779C189.477 156.2 190.214 153.448 192.103 151.559L205.379 138.283C207.267 136.395 210.02 135.657 212.599 136.348L230.735 141.208C233.315 141.899 235.33 143.914 236.021 146.493L240.88 164.629C241.571 167.209 240.834 169.961 238.946 171.849L225.669 185.126C223.781 187.014 221.029 187.752 218.449 187.06L200.313 182.201C197.734 181.51 195.719 179.495 195.028 176.916L190.168 158.779Z" fill="url(#paint44_linear_6062_61016)"/>
<path d="M190.168 158.779C189.477 156.2 190.214 153.448 192.103 151.559L205.379 138.283C207.267 136.395 210.02 135.657 212.599 136.348L230.735 141.208C233.315 141.899 235.33 143.914 236.021 146.493L240.88 164.629C241.571 167.209 240.834 169.961 238.946 171.849L225.669 185.126C223.781 187.014 221.029 187.752 218.449 187.06L200.313 182.201C197.734 181.51 195.719 179.495 195.028 176.916L190.168 158.779Z" fill="url(#paint45_linear_6062_61016)" fill-opacity="0.2"/>
<path d="M190.168 158.779C189.477 156.2 190.214 153.448 192.103 151.559L205.379 138.283C207.267 136.395 210.02 135.657 212.599 136.348L230.735 141.208C233.315 141.899 235.33 143.914 236.021 146.493L240.88 164.629C241.571 167.209 240.834 169.961 238.946 171.849L225.669 185.126C223.781 187.014 221.029 187.752 218.449 187.06L200.313 182.201C197.734 181.51 195.719 179.495 195.028 176.916L190.168 158.779Z" fill="url(#paint46_linear_6062_61016)" fill-opacity="0.2"/>
<path d="M190.168 158.779C189.477 156.2 190.214 153.448 192.103 151.559L205.379 138.283C207.267 136.395 210.02 135.657 212.599 136.348L230.735 141.208C233.315 141.899 235.33 143.914 236.021 146.493L240.88 164.629C241.571 167.209 240.834 169.961 238.946 171.849L225.669 185.126C223.781 187.014 221.029 187.752 218.449 187.06L200.313 182.201C197.734 181.51 195.719 179.495 195.028 176.916L190.168 158.779Z" fill="url(#paint47_linear_6062_61016)" fill-opacity="0.2"/>
</g>
<g filter="url(#filter28_i_6062_61016)">
<path d="M221.345 169.588L220.325 173.395L209.382 170.463L210.402 166.656L221.345 169.588ZM216.646 150.404L211.145 170.936L206.195 169.609L211.696 149.078L216.646 150.404ZM222.232 160.636L221.246 164.317L211.713 161.763L212.699 158.082L222.232 160.636ZM225.868 152.875L224.844 156.696L213.859 153.753L214.883 149.932L225.868 152.875Z" fill="#AF7E34"/>
</g>
<g filter="url(#filter29_d_6062_61016)">
<path d="M276.807 181.994C276.116 179.415 276.854 176.663 278.742 174.774L292.018 161.498C293.907 159.609 296.659 158.872 299.238 159.563L317.375 164.423C319.954 165.114 321.969 167.129 322.66 169.708L327.52 187.844C328.211 190.424 327.473 193.176 325.585 195.064L312.308 208.341C310.42 210.229 307.668 210.966 305.088 210.275L286.952 205.416C284.373 204.725 282.358 202.71 281.667 200.13L276.807 181.994Z" fill="url(#paint48_linear_6062_61016)"/>
<path d="M276.807 181.994C276.116 179.415 276.854 176.663 278.742 174.774L292.018 161.498C293.907 159.609 296.659 158.872 299.238 159.563L317.375 164.423C319.954 165.114 321.969 167.129 322.66 169.708L327.52 187.844C328.211 190.424 327.473 193.176 325.585 195.064L312.308 208.341C310.42 210.229 307.668 210.966 305.088 210.275L286.952 205.416C284.373 204.725 282.358 202.71 281.667 200.13L276.807 181.994Z" fill="url(#paint49_linear_6062_61016)" fill-opacity="0.2"/>
<path d="M276.807 181.994C276.116 179.415 276.854 176.663 278.742 174.774L292.018 161.498C293.907 159.609 296.659 158.872 299.238 159.563L317.375 164.423C319.954 165.114 321.969 167.129 322.66 169.708L327.52 187.844C328.211 190.424 327.473 193.176 325.585 195.064L312.308 208.341C310.42 210.229 307.668 210.966 305.088 210.275L286.952 205.416C284.373 204.725 282.358 202.71 281.667 200.13L276.807 181.994Z" fill="url(#paint50_linear_6062_61016)" fill-opacity="0.2"/>
<path d="M276.807 181.994C276.116 179.415 276.854 176.663 278.742 174.774L292.018 161.498C293.907 159.609 296.659 158.872 299.238 159.563L317.375 164.423C319.954 165.114 321.969 167.129 322.66 169.708L327.52 187.844C328.211 190.424 327.473 193.176 325.585 195.064L312.308 208.341C310.42 210.229 307.668 210.966 305.088 210.275L286.952 205.416C284.373 204.725 282.358 202.71 281.667 200.13L276.807 181.994Z" fill="url(#paint51_linear_6062_61016)" fill-opacity="0.2"/>
</g>
<g filter="url(#filter30_d_6062_61016)">
<path d="M326.898 168.332C326.207 165.753 326.944 163 328.833 161.112L342.109 147.836C343.997 145.947 346.75 145.21 349.329 145.901L367.465 150.761C370.045 151.452 372.059 153.466 372.751 156.046L377.61 174.182C378.301 176.762 377.564 179.514 375.676 181.402L362.399 194.679C360.511 196.567 357.759 197.304 355.179 196.613L337.043 191.754C334.463 191.062 332.449 189.048 331.758 186.468L326.898 168.332Z" fill="url(#paint52_linear_6062_61016)"/>
<path d="M326.898 168.332C326.207 165.753 326.944 163 328.833 161.112L342.109 147.836C343.997 145.947 346.75 145.21 349.329 145.901L367.465 150.761C370.045 151.452 372.059 153.466 372.751 156.046L377.61 174.182C378.301 176.762 377.564 179.514 375.676 181.402L362.399 194.679C360.511 196.567 357.759 197.304 355.179 196.613L337.043 191.754C334.463 191.062 332.449 189.048 331.758 186.468L326.898 168.332Z" fill="url(#paint53_linear_6062_61016)" fill-opacity="0.2"/>
<path d="M326.898 168.332C326.207 165.753 326.944 163 328.833 161.112L342.109 147.836C343.997 145.947 346.75 145.21 349.329 145.901L367.465 150.761C370.045 151.452 372.059 153.466 372.751 156.046L377.61 174.182C378.301 176.762 377.564 179.514 375.676 181.402L362.399 194.679C360.511 196.567 357.759 197.304 355.179 196.613L337.043 191.754C334.463 191.062 332.449 189.048 331.758 186.468L326.898 168.332Z" fill="url(#paint54_linear_6062_61016)" fill-opacity="0.2"/>
<path d="M326.898 168.332C326.207 165.753 326.944 163 328.833 161.112L342.109 147.836C343.997 145.947 346.75 145.21 349.329 145.901L367.465 150.761C370.045 151.452 372.059 153.466 372.751 156.046L377.61 174.182C378.301 176.762 377.564 179.514 375.676 181.402L362.399 194.679C360.511 196.567 357.759 197.304 355.179 196.613L337.043 191.754C334.463 191.062 332.449 189.048 331.758 186.468L326.898 168.332Z" fill="url(#paint55_linear_6062_61016)" fill-opacity="0.2"/>
</g>
<g filter="url(#filter31_i_6062_61016)">
<path d="M347.332 158.337L355.412 160.502C356.992 160.926 358.301 161.528 359.341 162.311C360.381 163.093 361.092 164.029 361.475 165.12C361.868 166.212 361.883 167.435 361.52 168.789C361.205 169.964 360.758 170.897 360.18 171.589C359.602 172.28 358.914 172.796 358.118 173.137C357.333 173.471 356.464 173.686 355.511 173.784L353.644 174.266L346.861 172.448L347.857 168.619L352.877 169.964C353.507 170.133 354.059 170.16 354.533 170.045C355.007 169.931 355.403 169.694 355.721 169.336C356.05 168.971 356.293 168.497 356.449 167.914C356.608 167.322 356.636 166.785 356.533 166.304C356.43 165.823 356.197 165.413 355.835 165.074C355.482 164.738 355 164.488 354.388 164.324L351.258 163.485L346.78 180.195L341.831 178.869L347.332 158.337ZM353.07 181.88L350.962 171.582L356.216 172.96L358.429 183.09L358.372 183.301L353.07 181.88Z" fill="#AF7E34"/>
</g>
</g>
</g>
<defs>
<filter id="filter0_d_6062_61016" x="303.196" y="-3.39454" width="81.1205" height="81.1201" filterUnits="userSpaceOnUse" color-interpolation-filters="sRGB">
<feFlood flood-opacity="0" result="BackgroundImageFix"/>
<feColorMatrix in="SourceAlpha" type="matrix" values="0 0 0 0 0 0 0 0 0 0 0 0 0 0 0 0 0 0 127 0" result="hardAlpha"/>
<feOffset dy="7.47461"/>
<feGaussianBlur stdDeviation="7.47461"/>
<feComposite in2="hardAlpha" operator="out"/>
<feColorMatrix type="matrix" values="0 0 0 0 0.388235 0 0 0 0 0.235294 0 0 0 0 0.639216 0 0 0 0.5 0"/>
<feBlend mode="normal" in2="BackgroundImageFix" result="effect1_dropShadow_6062_61016"/>
<feBlend mode="normal" in="SourceGraphic" in2="effect1_dropShadow_6062_61016" result="shape"/>
</filter>
<filter id="filter1_i_6062_61016" x="333.969" y="16.9424" width="21.563" height="29.818" filterUnits="userSpaceOnUse" color-interpolation-filters="sRGB">
<feFlood flood-opacity="0" result="BackgroundImageFix"/>
<feBlend mode="normal" in="SourceGraphic" in2="BackgroundImageFix" result="shape"/>
<feColorMatrix in="SourceAlpha" type="matrix" values="0 0 0 0 0 0 0 0 0 0 0 0 0 0 0 0 0 0 127 0" result="hardAlpha"/>
<feOffset dy="4.98308"/>
<feGaussianBlur stdDeviation="2.49154"/>
<feComposite in2="hardAlpha" operator="arithmetic" k2="-1" k3="1"/>
<feColorMatrix type="matrix" values="0 0 0 0 0 0 0 0 0 0 0 0 0 0 0 0 0 0 0.16 0"/>
<feBlend mode="normal" in2="shape" result="effect1_innerShadow_6062_61016"/>
</filter>
<filter id="filter2_d_6062_61016" x="339.422" y="34.6855" width="81.1205" height="81.1201" filterUnits="userSpaceOnUse" color-interpolation-filters="sRGB">
<feFlood flood-opacity="0" result="BackgroundImageFix"/>
<feColorMatrix in="SourceAlpha" type="matrix" values="0 0 0 0 0 0 0 0 0 0 0 0 0 0 0 0 0 0 127 0" result="hardAlpha"/>
<feOffset dy="7.47461"/>
<feGaussianBlur stdDeviation="7.47461"/>
<feComposite in2="hardAlpha" operator="out"/>
<feColorMatrix type="matrix" values="0 0 0 0 0.388235 0 0 0 0 0.235294 0 0 0 0 0.639216 0 0 0 0.5 0"/>
<feBlend mode="normal" in2="BackgroundImageFix" result="effect1_dropShadow_6062_61016"/>
<feBlend mode="normal" in="SourceGraphic" in2="effect1_dropShadow_6062_61016" result="shape"/>
</filter>
<filter id="filter3_i_6062_61016" x="374.916" y="56.2861" width="10.4369" height="26.8376" filterUnits="userSpaceOnUse" color-interpolation-filters="sRGB">
<feFlood flood-opacity="0" result="BackgroundImageFix"/>
<feBlend mode="normal" in="SourceGraphic" in2="BackgroundImageFix" result="shape"/>
<feColorMatrix in="SourceAlpha" type="matrix" values="0 0 0 0 0 0 0 0 0 0 0 0 0 0 0 0 0 0 127 0" result="hardAlpha"/>
<feOffset dy="4.98308"/>
<feGaussianBlur stdDeviation="2.49154"/>
<feComposite in2="hardAlpha" operator="arithmetic" k2="-1" k3="1"/>
<feColorMatrix type="matrix" values="0 0 0 0 0 0 0 0 0 0 0 0 0 0 0 0 0 0 0.16 0"/>
<feBlend mode="normal" in2="shape" result="effect1_innerShadow_6062_61016"/>
</filter>
<filter id="filter4_d_6062_61016" x="375.971" y="71.5635" width="81.1205" height="81.1201" filterUnits="userSpaceOnUse" color-interpolation-filters="sRGB">
<feFlood flood-opacity="0" result="BackgroundImageFix"/>
<feColorMatrix in="SourceAlpha" type="matrix" values="0 0 0 0 0 0 0 0 0 0 0 0 0 0 0 0 0 0 127 0" result="hardAlpha"/>
<feOffset dy="7.47461"/>
<feGaussianBlur stdDeviation="7.47461"/>
<feComposite in2="hardAlpha" operator="out"/>
<feColorMatrix type="matrix" values="0 0 0 0 0.388235 0 0 0 0 0.235294 0 0 0 0 0.639216 0 0 0 0.5 0"/>
<feBlend mode="normal" in2="BackgroundImageFix" result="effect1_dropShadow_6062_61016"/>
<feBlend mode="normal" in="SourceGraphic" in2="effect1_dropShadow_6062_61016" result="shape"/>
</filter>
<filter id="filter5_i_6062_61016" x="402.635" y="90.7988" width="27.6548" height="31.4508" filterUnits="userSpaceOnUse" color-interpolation-filters="sRGB">
<feFlood flood-opacity="0" result="BackgroundImageFix"/>
<feBlend mode="normal" in="SourceGraphic" in2="BackgroundImageFix" result="shape"/>
<feColorMatrix in="SourceAlpha" type="matrix" values="0 0 0 0 0 0 0 0 0 0 0 0 0 0 0 0 0 0 127 0" result="hardAlpha"/>
<feOffset dy="4.98308"/>
<feGaussianBlur stdDeviation="2.49154"/>
<feComposite in2="hardAlpha" operator="arithmetic" k2="-1" k3="1"/>
<feColorMatrix type="matrix" values="0 0 0 0 0 0 0 0 0 0 0 0 0 0 0 0 0 0 0.16 0"/>
<feBlend mode="normal" in2="shape" result="effect1_innerShadow_6062_61016"/>
</filter>
<filter id="filter6_d_6062_61016" x="412.197" y="109.644" width="81.1205" height="81.1201" filterUnits="userSpaceOnUse" color-interpolation-filters="sRGB">
<feFlood flood-opacity="0" result="BackgroundImageFix"/>
<feColorMatrix in="SourceAlpha" type="matrix" values="0 0 0 0 0 0 0 0 0 0 0 0 0 0 0 0 0 0 127 0" result="hardAlpha"/>
<feOffset dy="7.47461"/>
<feGaussianBlur stdDeviation="7.47461"/>
<feComposite in2="hardAlpha" operator="out"/>
<feColorMatrix type="matrix" values="0 0 0 0 0.388235 0 0 0 0 0.235294 0 0 0 0 0.639216 0 0 0 0.5 0"/>
<feBlend mode="normal" in2="BackgroundImageFix" result="effect1_dropShadow_6062_61016"/>
<feBlend mode="normal" in="SourceGraphic" in2="effect1_dropShadow_6062_61016" result="shape"/>
</filter>
<filter id="filter7_d_6062_61016" x="252.783" y="11.4707" width="81.1205" height="81.1201" filterUnits="userSpaceOnUse" color-interpolation-filters="sRGB">
<feFlood flood-opacity="0" result="BackgroundImageFix"/>
<feColorMatrix in="SourceAlpha" type="matrix" values="0 0 0 0 0 0 0 0 0 0 0 0 0 0 0 0 0 0 127 0" result="hardAlpha"/>
<feOffset dy="7.47461"/>
<feGaussianBlur stdDeviation="7.47461"/>
<feComposite in2="hardAlpha" operator="out"/>
<feColorMatrix type="matrix" values="0 0 0 0 0.388235 0 0 0 0 0.235294 0 0 0 0 0.639216 0 0 0 0.5 0"/>
<feBlend mode="normal" in2="BackgroundImageFix" result="effect1_dropShadow_6062_61016"/>
<feBlend mode="normal" in="SourceGraphic" in2="effect1_dropShadow_6062_61016" result="shape"/>
</filter>
<filter id="filter8_i_6062_61016" x="281.375" y="30.9609" width="23.6038" height="30.8883" filterUnits="userSpaceOnUse" color-interpolation-filters="sRGB">
<feFlood flood-opacity="0" result="BackgroundImageFix"/>
<feBlend mode="normal" in="SourceGraphic" in2="BackgroundImageFix" result="shape"/>
<feColorMatrix in="SourceAlpha" type="matrix" values="0 0 0 0 0 0 0 0 0 0 0 0 0 0 0 0 0 0 127 0" result="hardAlpha"/>
<feOffset dy="4.98308"/>
<feGaussianBlur stdDeviation="2.49154"/>
<feComposite in2="hardAlpha" operator="arithmetic" k2="-1" k3="1"/>
<feColorMatrix type="matrix" values="0 0 0 0 0 0 0 0 0 0 0 0 0 0 0 0 0 0 0.16 0"/>
<feBlend mode="normal" in2="shape" result="effect1_innerShadow_6062_61016"/>
</filter>
<filter id="filter9_d_6062_61016" x="289.332" y="48.3486" width="81.1205" height="81.1201" filterUnits="userSpaceOnUse" color-interpolation-filters="sRGB">
<feFlood flood-opacity="0" result="BackgroundImageFix"/>
<feColorMatrix in="SourceAlpha" type="matrix" values="0 0 0 0 0 0 0 0 0 0 0 0 0 0 0 0 0 0 127 0" result="hardAlpha"/>
<feOffset dy="7.47461"/>
<feGaussianBlur stdDeviation="7.47461"/>
<feComposite in2="hardAlpha" operator="out"/>
<feColorMatrix type="matrix" values="0 0 0 0 0.388235 0 0 0 0 0.235294 0 0 0 0 0.639216 0 0 0 0.5 0"/>
<feBlend mode="normal" in2="BackgroundImageFix" result="effect1_dropShadow_6062_61016"/>
<feBlend mode="normal" in="SourceGraphic" in2="effect1_dropShadow_6062_61016" result="shape"/>
</filter>
<filter id="filter10_i_6062_61016" x="319.786" y="68.3232" width="20.5757" height="30.0905" filterUnits="userSpaceOnUse" color-interpolation-filters="sRGB">
<feFlood flood-opacity="0" result="BackgroundImageFix"/>
<feBlend mode="normal" in="SourceGraphic" in2="BackgroundImageFix" result="shape"/>
<feColorMatrix in="SourceAlpha" type="matrix" values="0 0 0 0 0 0 0 0 0 0 0 0 0 0 0 0 0 0 127 0" result="hardAlpha"/>
<feOffset dy="4.98308"/>
<feGaussianBlur stdDeviation="2.49154"/>
<feComposite in2="hardAlpha" operator="arithmetic" k2="-1" k3="1"/>
<feColorMatrix type="matrix" values="0 0 0 0 0 0 0 0 0 0 0 0 0 0 0 0 0 0 0.16 0"/>
<feBlend mode="normal" in2="shape" result="effect1_innerShadow_6062_61016"/>
</filter>
<filter id="filter11_d_6062_61016" x="325.558" y="86.4287" width="81.1205" height="81.1201" filterUnits="userSpaceOnUse" color-interpolation-filters="sRGB">
<feFlood flood-opacity="0" result="BackgroundImageFix"/>
<feColorMatrix in="SourceAlpha" type="matrix" values="0 0 0 0 0 0 0 0 0 0 0 0 0 0 0 0 0 0 127 0" result="hardAlpha"/>
<feOffset dy="7.47461"/>
<feGaussianBlur stdDeviation="7.47461"/>
<feComposite in2="hardAlpha" operator="out"/>
<feColorMatrix type="matrix" values="0 0 0 0 0.388235 0 0 0 0 0.235294 0 0 0 0 0.639216 0 0 0 0.5 0"/>
<feBlend mode="normal" in2="BackgroundImageFix" result="effect1_dropShadow_6062_61016"/>
<feBlend mode="normal" in="SourceGraphic" in2="effect1_dropShadow_6062_61016" result="shape"/>
</filter>
<filter id="filter12_i_6062_61016" x="356.79" y="106.889" width="19.6733" height="29.3112" filterUnits="userSpaceOnUse" color-interpolation-filters="sRGB">
<feFlood flood-opacity="0" result="BackgroundImageFix"/>
<feBlend mode="normal" in="SourceGraphic" in2="BackgroundImageFix" result="shape"/>
<feColorMatrix in="SourceAlpha" type="matrix" values="0 0 0 0 0 0 0 0 0 0 0 0 0 0 0 0 0 0 127 0" result="hardAlpha"/>
<feOffset dy="4.98308"/>
<feGaussianBlur stdDeviation="2.49154"/>
<feComposite in2="hardAlpha" operator="arithmetic" k2="-1" k3="1"/>
<feColorMatrix type="matrix" values="0 0 0 0 0 0 0 0 0 0 0 0 0 0 0 0 0 0 0.16 0"/>
<feBlend mode="normal" in2="shape" result="effect1_innerShadow_6062_61016"/>
</filter>
<filter id="filter13_d_6062_61016" x="275.467" y="100.091" width="81.1205" height="81.1201" filterUnits="userSpaceOnUse" color-interpolation-filters="sRGB">
<feFlood flood-opacity="0" result="BackgroundImageFix"/>
<feColorMatrix in="SourceAlpha" type="matrix" values="0 0 0 0 0 0 0 0 0 0 0 0 0 0 0 0 0 0 127 0" result="hardAlpha"/>
<feOffset dy="7.47461"/>
<feGaussianBlur stdDeviation="7.47461"/>
<feComposite in2="hardAlpha" operator="out"/>
<feColorMatrix type="matrix" values="0 0 0 0 0.388235 0 0 0 0 0.235294 0 0 0 0 0.639216 0 0 0 0.5 0"/>
<feBlend mode="normal" in2="BackgroundImageFix" result="effect1_dropShadow_6062_61016"/>
<feBlend mode="normal" in="SourceGraphic" in2="effect1_dropShadow_6062_61016" result="shape"/>
</filter>
<filter id="filter14_i_6062_61016" x="306.429" y="120.201" width="20.3923" height="30.0417" filterUnits="userSpaceOnUse" color-interpolation-filters="sRGB">
<feFlood flood-opacity="0" result="BackgroundImageFix"/>
<feBlend mode="normal" in="SourceGraphic" in2="BackgroundImageFix" result="shape"/>
<feColorMatrix in="SourceAlpha" type="matrix" values="0 0 0 0 0 0 0 0 0 0 0 0 0 0 0 0 0 0 127 0" result="hardAlpha"/>
<feOffset dy="4.98308"/>
<feGaussianBlur stdDeviation="2.49154"/>
<feComposite in2="hardAlpha" operator="arithmetic" k2="-1" k3="1"/>
<feColorMatrix type="matrix" values="0 0 0 0 0 0 0 0 0 0 0 0 0 0 0 0 0 0 0.16 0"/>
<feBlend mode="normal" in2="shape" result="effect1_innerShadow_6062_61016"/>
</filter>
<filter id="filter15_d_6062_61016" x="362.106" y="123.306" width="81.1205" height="81.1201" filterUnits="userSpaceOnUse" color-interpolation-filters="sRGB">
<feFlood flood-opacity="0" result="BackgroundImageFix"/>
<feColorMatrix in="SourceAlpha" type="matrix" values="0 0 0 0 0 0 0 0 0 0 0 0 0 0 0 0 0 0 127 0" result="hardAlpha"/>
<feOffset dy="7.47461"/>
<feGaussianBlur stdDeviation="7.47461"/>
<feComposite in2="hardAlpha" operator="out"/>
<feColorMatrix type="matrix" values="0 0 0 0 0.388235 0 0 0 0 0.235294 0 0 0 0 0.639216 0 0 0 0.5 0"/>
<feBlend mode="normal" in2="BackgroundImageFix" result="effect1_dropShadow_6062_61016"/>
<feBlend mode="normal" in="SourceGraphic" in2="effect1_dropShadow_6062_61016" result="shape"/>
</filter>
<filter id="filter16_i_6062_61016" x="390.932" y="143.12" width="23.8192" height="30.4225" filterUnits="userSpaceOnUse" color-interpolation-filters="sRGB">
<feFlood flood-opacity="0" result="BackgroundImageFix"/>
<feBlend mode="normal" in="SourceGraphic" in2="BackgroundImageFix" result="shape"/>
<feColorMatrix in="SourceAlpha" type="matrix" values="0 0 0 0 0 0 0 0 0 0 0 0 0 0 0 0 0 0 127 0" result="hardAlpha"/>
<feOffset dy="4.98308"/>
<feGaussianBlur stdDeviation="2.49154"/>
<feComposite in2="hardAlpha" operator="arithmetic" k2="-1" k3="1"/>
<feColorMatrix type="matrix" values="0 0 0 0 0 0 0 0 0 0 0 0 0 0 0 0 0 0 0.16 0"/>
<feBlend mode="normal" in2="shape" result="effect1_innerShadow_6062_61016"/>
</filter>
<filter id="filter17_d_6062_61016" x="225.055" y="114.957" width="81.1205" height="81.1201" filterUnits="userSpaceOnUse" color-interpolation-filters="sRGB">
<feFlood flood-opacity="0" result="BackgroundImageFix"/>
<feColorMatrix in="SourceAlpha" type="matrix" values="0 0 0 0 0 0 0 0 0 0 0 0 0 0 0 0 0 0 127 0" result="hardAlpha"/>
<feOffset dy="7.47461"/>
<feGaussianBlur stdDeviation="7.47461"/>
<feComposite in2="hardAlpha" operator="out"/>
<feColorMatrix type="matrix" values="0 0 0 0 0.388235 0 0 0 0 0.235294 0 0 0 0 0.639216 0 0 0 0.5 0"/>
<feBlend mode="normal" in2="BackgroundImageFix" result="effect1_dropShadow_6062_61016"/>
<feBlend mode="normal" in="SourceGraphic" in2="effect1_dropShadow_6062_61016" result="shape"/>
</filter>
<filter id="filter18_i_6062_61016" x="256.784" y="135.57" width="19.9463" height="29.6471" filterUnits="userSpaceOnUse" color-interpolation-filters="sRGB">
<feFlood flood-opacity="0" result="BackgroundImageFix"/>
<feBlend mode="normal" in="SourceGraphic" in2="BackgroundImageFix" result="shape"/>
<feColorMatrix in="SourceAlpha" type="matrix" values="0 0 0 0 0 0 0 0 0 0 0 0 0 0 0 0 0 0 127 0" result="hardAlpha"/>
<feOffset dy="4.98308"/>
<feGaussianBlur stdDeviation="2.49154"/>
<feComposite in2="hardAlpha" operator="arithmetic" k2="-1" k3="1"/>
<feColorMatrix type="matrix" values="0 0 0 0 0 0 0 0 0 0 0 0 0 0 0 0 0 0 0.16 0"/>
<feBlend mode="normal" in2="shape" result="effect1_innerShadow_6062_61016"/>
</filter>
<filter id="filter20_d_6062_61016" x="248.038" y="89.5283" width="61.6937" height="45.7152" filterUnits="userSpaceOnUse" color-interpolation-filters="sRGB">
<feFlood flood-opacity="0" result="BackgroundImageFix"/>
<feColorMatrix in="SourceAlpha" type="matrix" values="0 0 0 0 0 0 0 0 0 0 0 0 0 0 0 0 0 0 127 0" result="hardAlpha"/>
<feOffset dy="4.98308"/>
<feGaussianBlur stdDeviation="2.49154"/>
<feComposite in2="hardAlpha" operator="out"/>
<feColorMatrix type="matrix" values="0 0 0 0 0 0 0 0 0 0 0 0 0 0 0 0 0 0 0.24 0"/>
<feBlend mode="normal" in2="BackgroundImageFix" result="effect1_dropShadow_6062_61016"/>
<feBlend mode="normal" in="SourceGraphic" in2="effect1_dropShadow_6062_61016" result="shape"/>
</filter>
<filter id="filter21_d_6062_61016" x="238.919" y="63.2139" width="81.1205" height="81.1201" filterUnits="userSpaceOnUse" color-interpolation-filters="sRGB">
<feFlood flood-opacity="0" result="BackgroundImageFix"/>
<feColorMatrix in="SourceAlpha" type="matrix" values="0 0 0 0 0 0 0 0 0 0 0 0 0 0 0 0 0 0 127 0" result="hardAlpha"/>
<feOffset dy="7.47461"/>
<feGaussianBlur stdDeviation="7.47461"/>
<feComposite in2="hardAlpha" operator="out"/>
<feColorMatrix type="matrix" values="0 0 0 0 0.870588 0 0 0 0 0.6 0 0 0 0 0.34902 0 0 0 1 0"/>
<feBlend mode="normal" in2="BackgroundImageFix" result="effect1_dropShadow_6062_61016"/>
<feBlend mode="normal" in="SourceGraphic" in2="effect1_dropShadow_6062_61016" result="shape"/>
</filter>
<filter id="filter22_i_6062_61016" x="274.412" y="84.8145" width="10.4369" height="26.8376" filterUnits="userSpaceOnUse" color-interpolation-filters="sRGB">
<feFlood flood-opacity="0" result="BackgroundImageFix"/>
<feBlend mode="normal" in="SourceGraphic" in2="BackgroundImageFix" result="shape"/>
<feColorMatrix in="SourceAlpha" type="matrix" values="0 0 0 0 0 0 0 0 0 0 0 0 0 0 0 0 0 0 127 0" result="hardAlpha"/>
<feOffset dy="4.98308"/>
<feGaussianBlur stdDeviation="2.49154"/>
<feComposite in2="hardAlpha" operator="arithmetic" k2="-1" k3="1"/>
<feColorMatrix type="matrix" values="0 0 0 0 0 0 0 0 0 0 0 0 0 0 0 0 0 0 0.16 0"/>
<feBlend mode="normal" in2="shape" result="effect1_innerShadow_6062_61016"/>
</filter>
<filter id="filter23_d_6062_61016" x="197.947" y="103.19" width="61.6937" height="45.7152" filterUnits="userSpaceOnUse" color-interpolation-filters="sRGB">
<feFlood flood-opacity="0" result="BackgroundImageFix"/>
<feColorMatrix in="SourceAlpha" type="matrix" values="0 0 0 0 0 0 0 0 0 0 0 0 0 0 0 0 0 0 127 0" result="hardAlpha"/>
<feOffset dy="4.98308"/>
<feGaussianBlur stdDeviation="2.49154"/>
<feComposite in2="hardAlpha" operator="out"/>
<feColorMatrix type="matrix" values="0 0 0 0 0 0 0 0 0 0 0 0 0 0 0 0 0 0 0.24 0"/>
<feBlend mode="normal" in2="BackgroundImageFix" result="effect1_dropShadow_6062_61016"/>
<feBlend mode="normal" in="SourceGraphic" in2="effect1_dropShadow_6062_61016" result="shape"/>
</filter>
<filter id="filter24_d_6062_61016" x="188.828" y="76.876" width="81.1205" height="81.1201" filterUnits="userSpaceOnUse" color-interpolation-filters="sRGB">
<feFlood flood-opacity="0" result="BackgroundImageFix"/>
<feColorMatrix in="SourceAlpha" type="matrix" values="0 0 0 0 0 0 0 0 0 0 0 0 0 0 0 0 0 0 127 0" result="hardAlpha"/>
<feOffset dy="7.47461"/>
<feGaussianBlur stdDeviation="7.47461"/>
<feComposite in2="hardAlpha" operator="out"/>
<feColorMatrix type="matrix" values="0 0 0 0 0.870588 0 0 0 0 0.6 0 0 0 0 0.34902 0 0 0 1 0"/>
<feBlend mode="normal" in2="BackgroundImageFix" result="effect1_dropShadow_6062_61016"/>
<feBlend mode="normal" in="SourceGraphic" in2="effect1_dropShadow_6062_61016" result="shape"/>
</filter>
<filter id="filter25_i_6062_61016" x="218.255" y="96.5752" width="22.8741" height="30.7067" filterUnits="userSpaceOnUse" color-interpolation-filters="sRGB">
<feFlood flood-opacity="0" result="BackgroundImageFix"/>
<feBlend mode="normal" in="SourceGraphic" in2="BackgroundImageFix" result="shape"/>
<feColorMatrix in="SourceAlpha" type="matrix" values="0 0 0 0 0 0 0 0 0 0 0 0 0 0 0 0 0 0 127 0" result="hardAlpha"/>
<feOffset dy="4.98308"/>
<feGaussianBlur stdDeviation="2.49154"/>
<feComposite in2="hardAlpha" operator="arithmetic" k2="-1" k3="1"/>
<feColorMatrix type="matrix" values="0 0 0 0 0 0 0 0 0 0 0 0 0 0 0 0 0 0 0.16 0"/>
<feBlend mode="normal" in2="shape" result="effect1_innerShadow_6062_61016"/>
</filter>
<filter id="filter26_d_6062_61016" x="184.083" y="154.934" width="61.6937" height="45.7152" filterUnits="userSpaceOnUse" color-interpolation-filters="sRGB">
<feFlood flood-opacity="0" result="BackgroundImageFix"/>
<feColorMatrix in="SourceAlpha" type="matrix" values="0 0 0 0 0 0 0 0 0 0 0 0 0 0 0 0 0 0 127 0" result="hardAlpha"/>
<feOffset dy="4.98308"/>
<feGaussianBlur stdDeviation="2.49154"/>
<feComposite in2="hardAlpha" operator="out"/>
<feColorMatrix type="matrix" values="0 0 0 0 0 0 0 0 0 0 0 0 0 0 0 0 0 0 0.24 0"/>
<feBlend mode="normal" in2="BackgroundImageFix" result="effect1_dropShadow_6062_61016"/>
<feBlend mode="normal" in="SourceGraphic" in2="effect1_dropShadow_6062_61016" result="shape"/>
</filter>
<filter id="filter27_d_6062_61016" x="174.964" y="128.619" width="81.1205" height="81.1201" filterUnits="userSpaceOnUse" color-interpolation-filters="sRGB">
<feFlood flood-opacity="0" result="BackgroundImageFix"/>
<feColorMatrix in="SourceAlpha" type="matrix" values="0 0 0 0 0 0 0 0 0 0 0 0 0 0 0 0 0 0 127 0" result="hardAlpha"/>
<feOffset dy="7.47461"/>
<feGaussianBlur stdDeviation="7.47461"/>
<feComposite in2="hardAlpha" operator="out"/>
<feColorMatrix type="matrix" values="0 0 0 0 0.870588 0 0 0 0 0.6 0 0 0 0 0.34902 0 0 0 1 0"/>
<feBlend mode="normal" in2="BackgroundImageFix" result="effect1_dropShadow_6062_61016"/>
<feBlend mode="normal" in="SourceGraphic" in2="effect1_dropShadow_6062_61016" result="shape"/>
</filter>
<filter id="filter28_i_6062_61016" x="206.195" y="149.078" width="19.6733" height="29.3112" filterUnits="userSpaceOnUse" color-interpolation-filters="sRGB">
<feFlood flood-opacity="0" result="BackgroundImageFix"/>
<feBlend mode="normal" in="SourceGraphic" in2="BackgroundImageFix" result="shape"/>
<feColorMatrix in="SourceAlpha" type="matrix" values="0 0 0 0 0 0 0 0 0 0 0 0 0 0 0 0 0 0 127 0" result="hardAlpha"/>
<feOffset dy="4.98308"/>
<feGaussianBlur stdDeviation="2.49154"/>
<feComposite in2="hardAlpha" operator="arithmetic" k2="-1" k3="1"/>
<feColorMatrix type="matrix" values="0 0 0 0 0 0 0 0 0 0 0 0 0 0 0 0 0 0 0.16 0"/>
<feBlend mode="normal" in2="shape" result="effect1_innerShadow_6062_61016"/>
</filter>
<filter id="filter29_d_6062_61016" x="261.603" y="151.834" width="81.1205" height="81.1201" filterUnits="userSpaceOnUse" color-interpolation-filters="sRGB">
<feFlood flood-opacity="0" result="BackgroundImageFix"/>
<feColorMatrix in="SourceAlpha" type="matrix" values="0 0 0 0 0 0 0 0 0 0 0 0 0 0 0 0 0 0 127 0" result="hardAlpha"/>
<feOffset dy="7.47461"/>
<feGaussianBlur stdDeviation="7.47461"/>
<feComposite in2="hardAlpha" operator="out"/>
<feColorMatrix type="matrix" values="0 0 0 0 0.870588 0 0 0 0 0.6 0 0 0 0 0.34902 0 0 0 1 0"/>
<feBlend mode="normal" in2="BackgroundImageFix" result="effect1_dropShadow_6062_61016"/>
<feBlend mode="normal" in="SourceGraphic" in2="effect1_dropShadow_6062_61016" result="shape"/>
</filter>
<filter id="filter30_d_6062_61016" x="311.694" y="138.172" width="81.1205" height="81.1201" filterUnits="userSpaceOnUse" color-interpolation-filters="sRGB">
<feFlood flood-opacity="0" result="BackgroundImageFix"/>
<feColorMatrix in="SourceAlpha" type="matrix" values="0 0 0 0 0 0 0 0 0 0 0 0 0 0 0 0 0 0 127 0" result="hardAlpha"/>
<feOffset dy="7.47461"/>
<feGaussianBlur stdDeviation="7.47461"/>
<feComposite in2="hardAlpha" operator="out"/>
<feColorMatrix type="matrix" values="0 0 0 0 0.870588 0 0 0 0 0.6 0 0 0 0 0.34902 0 0 0 1 0"/>
<feBlend mode="normal" in2="BackgroundImageFix" result="effect1_dropShadow_6062_61016"/>
<feBlend mode="normal" in="SourceGraphic" in2="effect1_dropShadow_6062_61016" result="shape"/>
</filter>
<filter id="filter31_i_6062_61016" x="341.831" y="158.337" width="22.0424" height="29.9469" filterUnits="userSpaceOnUse" color-interpolation-filters="sRGB">
<feFlood flood-opacity="0" result="BackgroundImageFix"/>
<feBlend mode="normal" in="SourceGraphic" in2="BackgroundImageFix" result="shape"/>
<feColorMatrix in="SourceAlpha" type="matrix" values="0 0 0 0 0 0 0 0 0 0 0 0 0 0 0 0 0 0 127 0" result="hardAlpha"/>
<feOffset dy="4.98308"/>
<feGaussianBlur stdDeviation="2.49154"/>
<feComposite in2="hardAlpha" operator="arithmetic" k2="-1" k3="1"/>
<feColorMatrix type="matrix" values="0 0 0 0 0 0 0 0 0 0 0 0 0 0 0 0 0 0 0.16 0"/>
<feBlend mode="normal" in2="shape" result="effect1_innerShadow_6062_61016"/>
</filter>
<linearGradient id="paint0_linear_6062_61016" x1="337.63" y1="52.5538" x2="338.92" y2="47.7405" gradientUnits="userSpaceOnUse">
<stop stop-color="#633CA3"/>
<stop offset="1" stop-color="#633CA3" stop-opacity="0"/>
</linearGradient>
<linearGradient id="paint1_linear_6062_61016" x1="320.398" y1="35.0393" x2="325.255" y2="33.7612" gradientUnits="userSpaceOnUse">
<stop stop-color="#633CA3"/>
<stop offset="1" stop-color="#633CA3" stop-opacity="0"/>
</linearGradient>
<linearGradient id="paint2_linear_6062_61016" x1="359.785" y1="46.8828" x2="356.659" y2="44.1105" gradientUnits="userSpaceOnUse">
<stop stop-color="#633CA3"/>
<stop offset="1" stop-color="#633CA3" stop-opacity="0"/>
</linearGradient>
<linearGradient id="paint3_linear_6062_61016" x1="373.856" y1="90.6339" x2="375.146" y2="85.8206" gradientUnits="userSpaceOnUse">
<stop stop-color="#633CA3"/>
<stop offset="1" stop-color="#633CA3" stop-opacity="0"/>
</linearGradient>
<linearGradient id="paint4_linear_6062_61016" x1="356.624" y1="73.1194" x2="361.481" y2="71.8412" gradientUnits="userSpaceOnUse">
<stop stop-color="#633CA3"/>
<stop offset="1" stop-color="#633CA3" stop-opacity="0"/>
</linearGradient>
<linearGradient id="paint5_linear_6062_61016" x1="396.011" y1="84.9628" x2="392.885" y2="82.1906" gradientUnits="userSpaceOnUse">
<stop stop-color="#633CA3"/>
<stop offset="1" stop-color="#633CA3" stop-opacity="0"/>
</linearGradient>
<linearGradient id="paint6_linear_6062_61016" x1="410.405" y1="127.512" x2="411.695" y2="122.699" gradientUnits="userSpaceOnUse">
<stop stop-color="#633CA3"/>
<stop offset="1" stop-color="#633CA3" stop-opacity="0"/>
</linearGradient>
<linearGradient id="paint7_linear_6062_61016" x1="393.173" y1="109.997" x2="398.029" y2="108.719" gradientUnits="userSpaceOnUse">
<stop stop-color="#633CA3"/>
<stop offset="1" stop-color="#633CA3" stop-opacity="0"/>
</linearGradient>
<linearGradient id="paint8_linear_6062_61016" x1="432.56" y1="121.841" x2="429.434" y2="119.069" gradientUnits="userSpaceOnUse">
<stop stop-color="#633CA3"/>
<stop offset="1" stop-color="#633CA3" stop-opacity="0"/>
</linearGradient>
<linearGradient id="paint9_linear_6062_61016" x1="446.631" y1="165.592" x2="447.921" y2="160.779" gradientUnits="userSpaceOnUse">
<stop stop-color="#633CA3"/>
<stop offset="1" stop-color="#633CA3" stop-opacity="0"/>
</linearGradient>
<linearGradient id="paint10_linear_6062_61016" x1="429.399" y1="148.077" x2="434.256" y2="146.799" gradientUnits="userSpaceOnUse">
<stop stop-color="#633CA3"/>
<stop offset="1" stop-color="#633CA3" stop-opacity="0"/>
</linearGradient>
<linearGradient id="paint11_linear_6062_61016" x1="468.786" y1="159.921" x2="465.66" y2="157.149" gradientUnits="userSpaceOnUse">
<stop stop-color="#633CA3"/>
<stop offset="1" stop-color="#633CA3" stop-opacity="0"/>
</linearGradient>
<linearGradient id="paint12_linear_6062_61016" x1="287.218" y1="67.419" x2="288.507" y2="62.6057" gradientUnits="userSpaceOnUse">
<stop stop-color="#633CA3"/>
<stop offset="1" stop-color="#633CA3" stop-opacity="0"/>
</linearGradient>
<linearGradient id="paint13_linear_6062_61016" x1="269.985" y1="49.9045" x2="274.842" y2="48.6264" gradientUnits="userSpaceOnUse">
<stop stop-color="#633CA3"/>
<stop offset="1" stop-color="#633CA3" stop-opacity="0"/>
</linearGradient>
<linearGradient id="paint14_linear_6062_61016" x1="309.373" y1="61.748" x2="306.246" y2="58.9757" gradientUnits="userSpaceOnUse">
<stop stop-color="#633CA3"/>
<stop offset="1" stop-color="#633CA3" stop-opacity="0"/>
</linearGradient>
<linearGradient id="paint15_linear_6062_61016" x1="323.766" y1="104.297" x2="325.055" y2="99.4837" gradientUnits="userSpaceOnUse">
<stop stop-color="#633CA3"/>
<stop offset="1" stop-color="#633CA3" stop-opacity="0"/>
</linearGradient>
<linearGradient id="paint16_linear_6062_61016" x1="306.533" y1="86.7825" x2="311.39" y2="85.5043" gradientUnits="userSpaceOnUse">
<stop stop-color="#633CA3"/>
<stop offset="1" stop-color="#633CA3" stop-opacity="0"/>
</linearGradient>
<linearGradient id="paint17_linear_6062_61016" x1="345.921" y1="98.6259" x2="342.794" y2="95.8537" gradientUnits="userSpaceOnUse">
<stop stop-color="#633CA3"/>
<stop offset="1" stop-color="#633CA3" stop-opacity="0"/>
</linearGradient>
<linearGradient id="paint18_linear_6062_61016" x1="359.992" y1="142.377" x2="361.282" y2="137.564" gradientUnits="userSpaceOnUse">
<stop stop-color="#633CA3"/>
<stop offset="1" stop-color="#633CA3" stop-opacity="0"/>
</linearGradient>
<linearGradient id="paint19_linear_6062_61016" x1="342.76" y1="124.863" x2="347.617" y2="123.584" gradientUnits="userSpaceOnUse">
<stop stop-color="#633CA3"/>
<stop offset="1" stop-color="#633CA3" stop-opacity="0"/>
</linearGradient>
<linearGradient id="paint20_linear_6062_61016" x1="382.147" y1="136.706" x2="379.021" y2="133.934" gradientUnits="userSpaceOnUse">
<stop stop-color="#633CA3"/>
<stop offset="1" stop-color="#633CA3" stop-opacity="0"/>
</linearGradient>
<linearGradient id="paint21_linear_6062_61016" x1="309.901" y1="156.039" x2="311.191" y2="151.226" gradientUnits="userSpaceOnUse">
<stop stop-color="#633CA3"/>
<stop offset="1" stop-color="#633CA3" stop-opacity="0"/>
</linearGradient>
<linearGradient id="paint22_linear_6062_61016" x1="292.669" y1="138.525" x2="297.525" y2="137.247" gradientUnits="userSpaceOnUse">
<stop stop-color="#633CA3"/>
<stop offset="1" stop-color="#633CA3" stop-opacity="0"/>
</linearGradient>
<linearGradient id="paint23_linear_6062_61016" x1="332.056" y1="150.368" x2="328.93" y2="147.596" gradientUnits="userSpaceOnUse">
<stop stop-color="#633CA3"/>
<stop offset="1" stop-color="#633CA3" stop-opacity="0"/>
</linearGradient>
<linearGradient id="paint24_linear_6062_61016" x1="396.54" y1="179.254" x2="397.83" y2="174.441" gradientUnits="userSpaceOnUse">
<stop stop-color="#633CA3"/>
<stop offset="1" stop-color="#633CA3" stop-opacity="0"/>
</linearGradient>
<linearGradient id="paint25_linear_6062_61016" x1="379.308" y1="161.739" x2="384.165" y2="160.461" gradientUnits="userSpaceOnUse">
<stop stop-color="#633CA3"/>
<stop offset="1" stop-color="#633CA3" stop-opacity="0"/>
</linearGradient>
<linearGradient id="paint26_linear_6062_61016" x1="418.695" y1="173.583" x2="415.569" y2="170.811" gradientUnits="userSpaceOnUse">
<stop stop-color="#633CA3"/>
<stop offset="1" stop-color="#633CA3" stop-opacity="0"/>
</linearGradient>
<linearGradient id="paint27_linear_6062_61016" x1="259.489" y1="170.905" x2="260.779" y2="166.092" gradientUnits="userSpaceOnUse">
<stop stop-color="#633CA3"/>
<stop offset="1" stop-color="#633CA3" stop-opacity="0"/>
</linearGradient>
<linearGradient id="paint28_linear_6062_61016" x1="242.257" y1="153.391" x2="247.113" y2="152.113" gradientUnits="userSpaceOnUse">
<stop stop-color="#633CA3"/>
<stop offset="1" stop-color="#633CA3" stop-opacity="0"/>
</linearGradient>
<linearGradient id="paint29_linear_6062_61016" x1="281.644" y1="165.234" x2="278.518" y2="162.462" gradientUnits="userSpaceOnUse">
<stop stop-color="#633CA3"/>
<stop offset="1" stop-color="#633CA3" stop-opacity="0"/>
</linearGradient>
<linearGradient id="paint30_linear_6062_61016" x1="432.767" y1="217.335" x2="434.057" y2="212.522" gradientUnits="userSpaceOnUse">
<stop stop-color="#633CA3"/>
<stop offset="1" stop-color="#633CA3" stop-opacity="0"/>
</linearGradient>
<linearGradient id="paint31_linear_6062_61016" x1="415.535" y1="199.821" x2="420.391" y2="198.542" gradientUnits="userSpaceOnUse">
<stop stop-color="#633CA3"/>
<stop offset="1" stop-color="#633CA3" stop-opacity="0"/>
</linearGradient>
<linearGradient id="paint32_linear_6062_61016" x1="454.922" y1="211.664" x2="451.796" y2="208.892" gradientUnits="userSpaceOnUse">
<stop stop-color="#633CA3"/>
<stop offset="1" stop-color="#633CA3" stop-opacity="0"/>
</linearGradient>
<linearGradient id="paint33_linear_6062_61016" x1="279.479" y1="96.2988" x2="272.386" y2="122.772" gradientUnits="userSpaceOnUse">
<stop offset="0.258701" stop-color="#E7A262"/>
<stop offset="1" stop-color="#FFC657"/>
</linearGradient>
<linearGradient id="paint34_linear_6062_61016" x1="273.353" y1="119.162" x2="285.605" y2="73.436" gradientUnits="userSpaceOnUse">
<stop stop-color="#FFE27A"/>
<stop offset="0.524535" stop-color="#FFF27A"/>
<stop offset="1" stop-color="#FFF8B8"/>
</linearGradient>
<linearGradient id="paint35_linear_6062_61016" x1="273.353" y1="119.162" x2="274.643" y2="114.349" gradientUnits="userSpaceOnUse">
<stop stop-color="#AF7E34"/>
<stop offset="1" stop-color="#AF7E34" stop-opacity="0"/>
</linearGradient>
<linearGradient id="paint36_linear_6062_61016" x1="256.121" y1="101.648" x2="260.977" y2="100.37" gradientUnits="userSpaceOnUse">
<stop stop-color="#AF7E34"/>
<stop offset="1" stop-color="#AF7E34" stop-opacity="0"/>
</linearGradient>
<linearGradient id="paint37_linear_6062_61016" x1="295.508" y1="113.491" x2="292.381" y2="110.719" gradientUnits="userSpaceOnUse">
<stop stop-color="#AF7E34"/>
<stop offset="1" stop-color="#AF7E34" stop-opacity="0"/>
</linearGradient>
<linearGradient id="paint38_linear_6062_61016" x1="229.388" y1="109.961" x2="222.295" y2="136.434" gradientUnits="userSpaceOnUse">
<stop offset="0.258701" stop-color="#E7A262"/>
<stop offset="1" stop-color="#FFC657"/>
</linearGradient>
<linearGradient id="paint39_linear_6062_61016" x1="223.263" y1="132.824" x2="235.515" y2="87.0981" gradientUnits="userSpaceOnUse">
<stop stop-color="#FFE27A"/>
<stop offset="0.524535" stop-color="#FFF27A"/>
<stop offset="1" stop-color="#FFF8B8"/>
</linearGradient>
<linearGradient id="paint40_linear_6062_61016" x1="223.263" y1="132.824" x2="224.552" y2="128.011" gradientUnits="userSpaceOnUse">
<stop stop-color="#AF7E34"/>
<stop offset="1" stop-color="#AF7E34" stop-opacity="0"/>
</linearGradient>
<linearGradient id="paint41_linear_6062_61016" x1="206.03" y1="115.31" x2="210.887" y2="114.032" gradientUnits="userSpaceOnUse">
<stop stop-color="#AF7E34"/>
<stop offset="1" stop-color="#AF7E34" stop-opacity="0"/>
</linearGradient>
<linearGradient id="paint42_linear_6062_61016" x1="245.418" y1="127.153" x2="242.291" y2="124.381" gradientUnits="userSpaceOnUse">
<stop stop-color="#AF7E34"/>
<stop offset="1" stop-color="#AF7E34" stop-opacity="0"/>
</linearGradient>
<linearGradient id="paint43_linear_6062_61016" x1="215.524" y1="161.704" x2="208.431" y2="188.177" gradientUnits="userSpaceOnUse">
<stop offset="0.258701" stop-color="#E7A262"/>
<stop offset="1" stop-color="#FFC657"/>
</linearGradient>
<linearGradient id="paint44_linear_6062_61016" x1="209.398" y1="184.567" x2="221.65" y2="138.841" gradientUnits="userSpaceOnUse">
<stop stop-color="#FFE27A"/>
<stop offset="0.524535" stop-color="#FFF27A"/>
<stop offset="1" stop-color="#FFF8B8"/>
</linearGradient>
<linearGradient id="paint45_linear_6062_61016" x1="209.398" y1="184.567" x2="210.688" y2="179.754" gradientUnits="userSpaceOnUse">
<stop stop-color="#AF7E34"/>
<stop offset="1" stop-color="#AF7E34" stop-opacity="0"/>
</linearGradient>
<linearGradient id="paint46_linear_6062_61016" x1="192.166" y1="167.053" x2="197.022" y2="165.775" gradientUnits="userSpaceOnUse">
<stop stop-color="#AF7E34"/>
<stop offset="1" stop-color="#AF7E34" stop-opacity="0"/>
</linearGradient>
<linearGradient id="paint47_linear_6062_61016" x1="231.553" y1="178.896" x2="228.427" y2="176.124" gradientUnits="userSpaceOnUse">
<stop stop-color="#AF7E34"/>
<stop offset="1" stop-color="#AF7E34" stop-opacity="0"/>
</linearGradient>
<linearGradient id="paint48_linear_6062_61016" x1="296.037" y1="207.782" x2="308.29" y2="162.056" gradientUnits="userSpaceOnUse">
<stop stop-color="#FFE27A"/>
<stop offset="0.524535" stop-color="#FFF27A"/>
<stop offset="1" stop-color="#FFF8B8"/>
</linearGradient>
<linearGradient id="paint49_linear_6062_61016" x1="296.037" y1="207.782" x2="297.327" y2="202.969" gradientUnits="userSpaceOnUse">
<stop stop-color="#AF7E34"/>
<stop offset="1" stop-color="#AF7E34" stop-opacity="0"/>
</linearGradient>
<linearGradient id="paint50_linear_6062_61016" x1="278.805" y1="190.268" x2="283.662" y2="188.99" gradientUnits="userSpaceOnUse">
<stop stop-color="#AF7E34"/>
<stop offset="1" stop-color="#AF7E34" stop-opacity="0"/>
</linearGradient>
<linearGradient id="paint51_linear_6062_61016" x1="318.192" y1="202.111" x2="315.066" y2="199.339" gradientUnits="userSpaceOnUse">
<stop stop-color="#AF7E34"/>
<stop offset="1" stop-color="#AF7E34" stop-opacity="0"/>
</linearGradient>
<linearGradient id="paint52_linear_6062_61016" x1="346.128" y1="194.12" x2="358.38" y2="148.394" gradientUnits="userSpaceOnUse">
<stop stop-color="#FFE27A"/>
<stop offset="0.524535" stop-color="#FFF27A"/>
<stop offset="1" stop-color="#FFF8B8"/>
</linearGradient>
<linearGradient id="paint53_linear_6062_61016" x1="346.128" y1="194.12" x2="347.418" y2="189.307" gradientUnits="userSpaceOnUse">
<stop stop-color="#AF7E34"/>
<stop offset="1" stop-color="#AF7E34" stop-opacity="0"/>
</linearGradient>
<linearGradient id="paint54_linear_6062_61016" x1="328.896" y1="176.606" x2="333.752" y2="175.328" gradientUnits="userSpaceOnUse">
<stop stop-color="#AF7E34"/>
<stop offset="1" stop-color="#AF7E34" stop-opacity="0"/>
</linearGradient>
<linearGradient id="paint55_linear_6062_61016" x1="368.283" y1="188.449" x2="365.157" y2="185.677" gradientUnits="userSpaceOnUse">
<stop stop-color="#AF7E34"/>
<stop offset="1" stop-color="#AF7E34" stop-opacity="0"/>
</linearGradient>
</defs>
</svg>
