<svg width="294" height="60" viewBox="0 0 294 60" fill="none" xmlns="http://www.w3.org/2000/svg">
<mask id="mask0_1825_8772" style="mask-type:luminance" maskUnits="userSpaceOnUse" x="0" y="0" width="294" height="60">
<path d="M294 0H0V60H294V0Z" fill="white"/>
</mask>
<g mask="url(#mask0_1825_8772)">
<path d="M76.9373 20.9855H82.1733C84.0433 20.8766 85.9311 21.2394 87.6408 22.0193C88.9409 22.6904 89.7245 24.087 89.6711 25.5562C89.7245 27.2793 88.6025 28.821 86.964 29.2745V29.3289C89.0299 29.7461 90.4903 31.6324 90.4013 33.7727C90.4547 35.9855 89.0477 37.9625 86.964 38.5792C85.4502 39.1052 83.8652 39.341 82.2801 39.2866H76.9373V20.9673M82.9747 28.549C84.5954 28.549 85.7352 27.9504 85.7352 26.445C85.7708 25.792 85.4502 25.1753 84.8981 24.8488C84.0254 24.4861 83.0637 24.3228 82.1198 24.3954H80.9088V28.549H82.9925H82.9747ZM82.3513 35.8222C83.3487 35.8766 84.3638 35.7678 85.3256 35.4776C86.0557 35.1874 86.5188 34.4256 86.4475 33.6276C86.4475 32.0314 85.3612 31.3059 83.2418 31.3059H80.8732V35.8404H82.3513V35.8222Z" fill="white"/>
<path d="M92.0219 30.1455C91.9507 24.8674 96.1003 20.5325 101.283 20.4599C106.465 20.3874 110.722 24.6135 110.793 29.8916C110.864 35.1697 106.715 39.5046 101.532 39.5772C101.497 39.5772 101.443 39.5772 101.408 39.5772C96.3496 39.7042 92.1466 35.6413 92.0219 30.4901C92.0219 30.3813 92.0219 30.2543 92.0219 30.1455ZM106.857 30.1455C106.715 27.0802 104.186 24.7223 101.176 24.8493C98.1662 24.9944 95.851 27.5699 95.9756 30.6352C96.1003 33.5917 98.5046 35.9315 101.408 35.9315C104.435 35.9133 106.875 33.3922 106.857 30.3087C106.857 30.2543 106.857 30.1999 106.857 30.1455Z" fill="white"/>
<path d="M113.269 20.9854H117.223V28.0773H125.005V20.9854H128.959V39.3047H125.005V31.5779H117.223V39.2865H113.269V20.9673V20.9854Z" fill="white"/>
<path d="M132.218 20.9856H143.313V24.5043H136.171V28.0956H142.334V31.433H136.171V35.7861H143.598V39.3048H132.218V20.9856Z" fill="white"/>
<path d="M152.592 31.3064C151.701 30.0187 150.811 28.6765 149.956 27.3887L149.903 27.425C149.938 28.7309 149.956 30.454 149.956 31.9775V39.3052H146.163V21.0042H149.956L155.299 28.749L160.642 21.0042H164.382V39.3234H160.428V31.9775C160.428 30.454 160.464 28.7309 160.481 27.425L160.428 27.3887C159.573 28.6765 158.683 30.0187 157.792 31.3064L155.192 35.0791L152.592 31.3064Z" fill="white"/>
<path d="M171.613 20.9856H167.659V39.3048H171.613V20.9856Z" fill="white"/>
<path d="M180.624 20.9856H184.435L191.737 39.3048H187.516L186.074 35.4596H178.825L177.365 39.3048H173.322L180.624 20.9856ZM180.054 32.2855H184.898L184.15 30.2359C183.634 28.803 182.993 26.9711 182.512 25.5926H182.459C181.996 26.9892 181.337 28.803 180.767 30.3447L180.054 32.2855Z" fill="white"/>
<path d="M213.643 38.3619C212.005 39.1781 210.206 39.5953 208.372 39.5772C203.26 39.9036 198.861 35.9315 198.541 30.7259C198.22 25.5203 202.121 21.0403 207.232 20.7138C207.606 20.6957 207.998 20.6957 208.39 20.7138C210.117 20.7138 211.827 21.0947 213.376 21.8565V25.9375C211.898 24.9218 210.188 24.3776 208.407 24.3414C205.255 24.2688 202.637 26.8263 202.584 30.0366C202.512 33.247 205.024 35.9133 208.176 35.9677C208.301 35.9677 208.425 35.9677 208.55 35.9677C210.384 35.9496 212.147 35.351 213.643 34.2809V38.3801V38.3619Z" fill="white"/>
<path d="M222.014 20.9856H225.843L233.145 39.3048H228.924L227.481 35.4596H220.233L218.772 39.3048H214.729L222.031 20.9856H222.014ZM221.444 32.2855H226.288L225.54 30.2359C225.023 28.803 224.382 26.9711 223.901 25.5926H223.848C223.367 26.9892 222.726 28.803 222.156 30.3447L221.444 32.2855Z" fill="white"/>
<path d="M234.855 20.9854H240.501C242.442 20.8766 244.365 21.2938 246.093 22.2007C247.535 23.1257 248.372 24.7762 248.248 26.4993C248.319 28.8391 246.805 30.925 244.597 31.5598L249.655 39.3047H245.113L240.572 32.0677H238.809V39.3047H234.855V20.9854ZM240.786 29.0568C241.64 29.1112 242.477 28.9661 243.261 28.6215C243.938 28.2769 244.347 27.5513 244.276 26.7714C244.347 26.0096 243.938 25.2841 243.261 24.9758C242.317 24.5949 241.32 24.4316 240.305 24.5042H238.791V29.0568H240.786Z" fill="white"/>
<path d="M266.217 38.053C264.329 39.0506 262.227 39.5766 260.108 39.5766C254.338 39.5766 250.295 35.6044 250.295 30.2174C250.295 24.9756 254.445 20.6951 259.609 20.6951C259.787 20.6951 259.966 20.6951 260.144 20.6951C262.067 20.6951 263.973 21.1667 265.665 22.0917V26.1364C264.062 24.9937 262.174 24.3589 260.233 24.3226C257.116 24.1413 254.445 26.5717 254.284 29.7459C254.284 29.891 254.284 30.0361 254.284 30.1812C254.177 33.319 256.6 35.949 259.681 36.0578C259.859 36.0578 260.037 36.0578 260.215 36.0578C260.963 36.0578 261.729 35.9309 262.423 35.6588V32.9018H259.289V29.5645H266.252V38.053H266.217Z" fill="white"/>
<path d="M268.568 30.1455C268.497 24.8674 272.647 20.5325 277.829 20.4599C283.012 20.3874 287.268 24.6135 287.34 29.8916C287.411 35.1697 283.261 39.5046 278.079 39.5772C278.043 39.5772 277.99 39.5772 277.954 39.5772C272.896 39.7042 268.693 35.6413 268.568 30.4901C268.568 30.3813 268.568 30.2543 268.568 30.1455ZM283.404 30.1455C283.261 27.0802 280.732 24.7223 277.722 24.8493C274.713 24.9944 272.397 27.5699 272.522 30.6352C272.647 33.5917 275.051 35.9315 277.954 35.9315C280.982 35.9133 283.421 33.3922 283.404 30.3087C283.404 30.2543 283.404 30.1999 283.404 30.1455Z" fill="white"/>
<path d="M288.729 23.2894C288.729 21.8021 289.904 20.5869 291.347 20.5869C292.789 20.5869 294 21.784 294 23.2532C294 24.7405 292.825 25.9557 291.382 25.9557C289.975 26.0101 288.782 24.8856 288.746 23.4346C288.746 23.3801 288.746 23.3257 288.746 23.2713M293.608 23.2713C293.608 22.0198 292.611 21.0222 291.4 21.0222C290.189 21.0222 289.192 22.0379 289.192 23.2894C289.192 24.541 290.189 25.5385 291.4 25.5385C292.575 25.593 293.573 24.6498 293.608 23.4527C293.608 23.3983 293.608 23.3439 293.608 23.2894M291.4 23.6885H290.937V24.7405H290.438V21.8384H291.453C291.988 21.784 292.451 22.1649 292.522 22.6909C292.522 22.709 292.522 22.7453 292.522 22.7635C292.522 23.1625 292.273 23.5071 291.899 23.6159L292.593 24.7405H292.023L291.418 23.6885H291.4ZM291.4 23.235C291.756 23.235 291.988 23.0718 291.988 22.7635C291.988 22.4551 291.738 22.31 291.4 22.31H290.937V23.235H291.4Z" fill="white"/>
<path d="M63.7579 14.1475V46.052L31.9857 60L0.0175781 46.052V14.1475L31.9857 0L63.7579 14.1475Z" fill="white"/>
<path d="M32.0039 2.06763L2.24414 15.2538V44.9455L32.0039 57.9322L61.5677 44.9455V15.2538L32.0039 2.06763ZM31.9683 48.6275L11.7723 39.6674V19.4981L31.9683 10.5017L52.0218 19.5344V39.6492L31.9683 48.6456" fill="#3E6DB3"/>
</g>
<mask id="mask1_1825_8772" style="mask-type:luminance" maskUnits="userSpaceOnUse" x="2" y="15" width="10" height="30">
<path d="M2.24414 44.9456L11.7722 39.6675V19.48L2.24414 15.2539V44.9456Z" fill="white"/>
</mask>
<g mask="url(#mask1_1825_8772)">
<path d="M11.7283 14.6967L0.562256 15.3496L2.26608 45.4992L13.4321 44.8463L11.7283 14.6967Z" fill="url(#paint0_linear_1825_8772)"/>
</g>
<mask id="mask2_1825_8772" style="mask-type:luminance" maskUnits="userSpaceOnUse" x="0" y="0" width="294" height="60">
<path d="M294 0H0V60H294V0Z" fill="white"/>
</mask>
<g mask="url(#mask2_1825_8772)">
<path d="M61.5674 44.9456L52.0393 39.6312V19.5163L61.5674 15.2539V44.9456Z" fill="#1E396E"/>
<path d="M32.0039 2.06763L31.9683 10.4836L11.7722 19.48L2.24414 15.2538L32.0039 2.06763Z" fill="#3E6DB3"/>
<path d="M32.0039 57.9319L31.9683 48.6272L11.7722 39.6671L2.24414 44.9452L32.0039 57.9319Z" fill="#224E96"/>
<path d="M31.9681 44.7642L15.708 37.4728V21.2576L31.9859 28.422L31.9503 44.7642H31.9681Z" fill="#FFE26D"/>
<path d="M32.004 28.4218L15.7261 21.2574L31.9862 14.1111L48.0682 21.2574L32.004 28.4218Z" fill="#FFD31F"/>
<path d="M31.968 44.7642L48.05 37.5272V21.2576L31.9858 28.422V44.7642H31.968Z" fill="#C6A82A"/>
</g>
<mask id="mask3_1825_8772" style="mask-type:luminance" maskUnits="userSpaceOnUse" x="31" y="39" width="31" height="19">
<path d="M31.968 48.6277L31.9858 57.9324L61.5497 44.9457L52.0216 39.6313L31.968 48.6277Z" fill="white"/>
</mask>
<g mask="url(#mask3_1825_8772)">
<path d="M54.1189 26.5439L24.1772 44.2471L39.4339 71.0271L69.3756 53.324L54.1189 26.5439Z" fill="url(#paint1_linear_1825_8772)"/>
</g>
<mask id="mask4_1825_8772" style="mask-type:luminance" maskUnits="userSpaceOnUse" x="31" y="2" width="31" height="18">
<path d="M31.968 10.4836L52.0216 19.5162L61.5497 15.2538L31.9858 2.06763L31.968 10.4836Z" fill="white"/>
</mask>
<g mask="url(#mask4_1825_8772)">
<path d="M39.4192 -11.0193L24.5334 15.1202L54.1084 32.5996L68.9942 6.46012L39.4192 -11.0193Z" fill="url(#paint2_linear_1825_8772)"/>
</g>
<defs>
<linearGradient id="paint0_linear_1825_8772" x1="0.180837" y1="29.8888" x2="0.850872" y2="29.851" gradientUnits="userSpaceOnUse">
<stop stop-color="#224E96"/>
<stop offset="1" stop-color="#1E396E"/>
</linearGradient>
<linearGradient id="paint1_linear_1825_8772" x1="6.32976" y1="72.4306" x2="6.93415" y2="72.0862" gradientUnits="userSpaceOnUse">
<stop stop-color="#1E396E"/>
<stop offset="1" stop-color="#002948"/>
</linearGradient>
<linearGradient id="paint2_linear_1825_8772" x1="23.1373" y1="52.011" x2="23.4434" y2="51.4931" gradientUnits="userSpaceOnUse">
<stop stop-color="#3E6DB3"/>
<stop offset="1" stop-color="#002948"/>
</linearGradient>
</defs>
</svg>
