<svg width="48" height="48" viewBox="0 0 48 48" fill="none" xmlns="http://www.w3.org/2000/svg">
<rect width="48" height="48" rx="15" fill="url(#paint0_linear_5155_50325)"/>
<path fill-rule="evenodd" clip-rule="evenodd" d="M16.5 11.25C16.5 10.8358 16.8358 10.5 17.25 10.5C17.6642 10.5 18 10.8358 18 11.25V12H30V11.25C30 10.8358 30.3358 10.5 30.75 10.5C31.1642 10.5 31.5 10.8358 31.5 11.25V12H34.5C36.1569 12 37.5 13.3431 37.5 15V16.5H10.5V15C10.5 13.3431 11.8431 12 13.5 12H16.5V11.25ZM10.5 18H37.5V34.5C37.5 36.1569 36.1569 37.5 34.5 37.5H13.5C11.8431 37.5 10.5 36.1569 10.5 34.5V18ZM16.5 24.75C16.5 24.3358 16.8358 24 17.25 24H18.75C19.1642 24 19.5 24.3358 19.5 24.75V26.25C19.5 26.6642 19.1642 27 18.75 27H17.25C16.8358 27 16.5 26.6642 16.5 26.25V24.75ZM17.25 30C16.8358 30 16.5 30.3358 16.5 30.75V32.25C16.5 32.6642 16.8358 33 17.25 33H18.75C19.1642 33 19.5 32.6642 19.5 32.25V30.75C19.5 30.3358 19.1642 30 18.75 30H17.25ZM23.25 30C22.8358 30 22.5 30.3358 22.5 30.75V32.25C22.5 32.6642 22.8358 33 23.25 33H24.75C25.1642 33 25.5 32.6642 25.5 32.25V30.75C25.5 30.3358 25.1642 30 24.75 30H23.25ZM23.25 24C22.8358 24 22.5 24.3358 22.5 24.75V26.25C22.5 26.6642 22.8358 27 23.25 27H24.75C25.1642 27 25.5 26.6642 25.5 26.25V24.75C25.5 24.3358 25.1642 24 24.75 24H23.25ZM28.5 30.75C28.5 30.3358 28.8358 30 29.25 30H30.75C31.1642 30 31.5 30.3358 31.5 30.75V32.25C31.5 32.6642 31.1642 33 30.75 33H29.25C28.8358 33 28.5 32.6642 28.5 32.25V30.75ZM29.25 24C28.8358 24 28.5 24.3358 28.5 24.75V26.25C28.5 26.6642 28.8358 27 29.25 27H30.75C31.1642 27 31.5 26.6642 31.5 26.25V24.75C31.5 24.3358 31.1642 24 30.75 24H29.25Z" fill="white"/>
<defs>
<linearGradient id="paint0_linear_5155_50325" x1="0" y1="0" x2="0" y2="48" gradientUnits="userSpaceOnUse">
<stop stop-color="#FF708C"/>
<stop offset="1" stop-color="#FF7768"/>
</linearGradient>
</defs>
</svg>
