<svg width="134" height="150" viewBox="0 0 134 150" fill="none" xmlns="http://www.w3.org/2000/svg">
<path fill-rule="evenodd" clip-rule="evenodd" d="M69.1225 0.193498L69.1228 0.193561C69.6528 0.296815 70.1818 0.399895 70.7083 0.520473C74.1793 1.34355 77.444 2.7113 80.6663 4.18194C83.3153 5.37689 85.897 6.70625 88.4815 8.03704C88.9992 8.30364 89.5171 8.5703 90.0356 8.83594C90.3269 8.98119 90.6182 9.05987 90.9398 9.04776C91.5919 9.0304 92.2458 9.0401 92.8996 9.04981C94.2962 9.07054 95.6923 9.09126 97.0687 8.84805C100.206 8.29126 103.234 7.32294 106.092 5.91887C107.634 5.16237 109.175 4.98081 110.759 5.71915C111.796 6.19726 112.646 6.92351 113.283 7.85552C115.886 11.6743 119.315 14.6943 122.798 17.6658C123.553 18.3127 124.332 18.9318 125.112 19.5512C126.601 20.7339 128.092 21.918 129.418 23.3003C129.789 23.6876 130.147 24.0931 130.499 24.5046C131.166 25.2732 131.312 26.1387 131.045 27.1009C130.633 28.5571 130.038 29.9435 129.444 31.3289L129.444 31.3292C129.198 31.9014 128.953 32.4734 128.721 33.0501C127.671 35.6506 126.613 38.2463 125.553 40.8433C124.934 42.3621 124.314 43.8813 123.696 45.4022C123.693 45.409 123.69 45.4158 123.687 45.4226C123.682 45.4362 123.676 45.4498 123.67 45.4634C123.61 45.6005 123.55 45.7381 123.55 45.8803C123.556 46.4888 123.553 47.0984 123.549 47.7083C123.538 49.5857 123.528 51.4666 123.793 53.3304C124.273 56.6348 125.256 59.8363 126.251 63.0075C127.256 66.2333 128.523 69.3586 129.79 72.4852L129.791 72.4881C130.283 73.7013 130.774 74.9148 131.251 76.1344C132.568 79.5114 133.539 82.9852 133.897 86.6043C133.909 86.683 133.921 86.7496 134 86.7798V98.5813C133.812 99.1977 133.724 99.8304 133.636 100.461L133.636 100.461C133.583 100.845 133.53 101.229 133.454 101.607C132.362 106.885 130.875 112.041 128.041 116.695C124.03 123.298 118.405 128.067 111.372 131.183C106.517 133.344 101.401 134.567 96.0978 135.002C95.392 135.061 94.684 135.109 93.9758 135.157C91.9926 135.292 90.0069 135.427 88.0574 135.801C84.6834 136.437 81.6493 137.907 78.7244 139.596C74.2703 142.18 70.6597 145.72 67.4496 149.672C67.0795 150.126 66.8914 150.084 66.5455 149.697C66.3486 149.471 66.1526 149.245 65.9568 149.019C64.7406 147.616 63.5311 146.22 62.146 144.964C58.3594 141.532 54.2512 138.615 49.427 136.788C47.0239 135.874 44.5117 135.438 41.9691 135.305C36.0708 134.99 30.2878 134.167 24.7292 132.085C19.013 129.949 13.9885 126.784 9.88027 122.239C6.33036 118.305 3.90913 113.729 2.2525 108.731C1.28158 105.771 0.541258 102.751 0.0557987 99.6646C0.0193892 99.4407 0.013321 99.2167 0.013321 98.9989C0.013321 97.8044 0.00999191 96.6095 0.00666224 95.4143C-0.00190184 92.3404 -0.0104698 89.265 0.0375939 86.1928C0.0738248 84.1211 0.632826 82.1154 1.18841 80.1218L1.19663 80.0924C1.84975 77.7217 2.79889 75.4549 3.74634 73.1921C4.09292 72.3644 4.43927 71.5372 4.77082 70.7057C6.72479 65.7733 8.47851 60.7864 9.57079 55.5817C9.99557 53.5664 10.2504 51.5269 10.3839 49.4692C10.5174 47.4841 10.1412 45.6019 9.44336 43.7561C8.40394 40.9843 7.27944 38.2528 6.15418 35.5194C5.42688 33.7527 4.69926 31.9852 3.99408 30.2056C3.94857 30.09 3.90288 29.9745 3.85719 29.859C3.44594 28.8192 3.0347 27.7794 2.75616 26.6954C2.58018 25.9692 2.67728 25.3398 3.10205 24.6922C4.00622 23.3124 5.232 22.2654 6.4942 21.2607C9.24311 19.076 11.9677 16.8609 14.5892 14.5127C16.6221 12.6971 18.485 10.7484 20.0506 8.50913C20.4997 7.86157 20.9973 7.27452 21.5556 6.72984C23.1636 5.16237 25.0145 4.75688 27.0837 5.61627C27.5393 5.8045 27.9923 5.99665 28.4448 6.18864L28.4449 6.18868L28.445 6.18869C29.6802 6.7127 30.9125 7.23547 32.1871 7.67396C35.1241 8.68464 38.1158 9.10223 41.2288 9.05381C42.6791 9.02961 43.9656 8.76332 45.246 8.08549C49.3542 5.92492 53.4988 3.85513 57.8436 2.18478C60.3134 1.24066 62.8014 0.405485 65.4471 0.0907802C65.4774 0.0907802 65.5047 0.0630436 65.5332 0.0339609L65.5333 0.0338386C65.5447 0.0222057 65.5564 0.0103634 65.5685 0L68.2385 0.018156C68.5333 0.0786803 68.828 0.136116 69.1225 0.193498ZM1.60927 92.614C1.60927 97.6916 2.52557 103.036 4.15793 108.071C7.68357 118.94 14.8744 126.281 25.5727 130.264C30.7065 132.176 36.0465 133.005 41.5079 133.205C43.8988 133.296 46.2411 133.629 48.5228 134.361C53.6262 136.007 58.0803 138.761 62.0914 142.265C63.2343 143.268 64.2929 144.356 65.3515 145.444C65.5632 145.661 65.7749 145.879 65.9872 146.096C66.4271 146.544 66.6456 146.766 66.8663 146.768C67.084 146.771 67.304 146.559 67.7409 146.138C68.3781 145.515 69.0153 144.879 69.6403 144.256C72.0433 141.883 74.6405 139.765 77.5229 137.998C80.8058 135.971 84.2769 134.433 88.0877 133.689C90.0099 133.307 91.9652 133.197 93.9164 133.087C94.4722 133.056 95.0277 133.025 95.582 132.987C101.11 132.606 106.402 131.292 111.414 128.932C118.568 125.555 124.097 120.447 127.58 113.288C129.946 108.41 131.287 103.223 131.913 97.8429C132.75 90.6834 132.016 83.7115 129.437 76.9514C128.907 75.5705 128.343 74.2015 127.78 72.8324L127.779 72.8314C126.898 70.6905 126.017 68.5491 125.262 66.3604C123.441 61.0951 121.87 55.7693 121.463 50.1773C121.305 48.0409 121.421 45.9227 122.258 43.8832C122.827 42.5046 123.337 41.109 123.847 39.7107C123.946 39.4393 124.046 39.1678 124.145 38.8963C124.916 36.7928 125.802 34.7339 126.689 32.6731L126.689 32.6729C127.434 30.9392 128.181 29.204 128.86 27.4398C129.285 26.3384 129.073 25.5032 128.266 24.7225C127.95 24.4199 127.64 24.1294 127.319 23.8631C126.627 23.2881 125.932 22.7147 125.237 22.1412C124.543 21.5678 123.848 20.9944 123.156 20.4195L123.091 20.3657C120.085 17.866 117.075 15.3634 114.424 12.4672C113.808 11.7851 113.263 11.0497 112.719 10.3155C112.346 9.81194 111.973 9.30887 111.578 8.82384C110.115 7.03244 108.386 6.75405 106.396 7.93419C106.013 8.15812 105.613 8.36994 105.2 8.53334C101.784 9.96162 98.2642 10.9965 94.5504 11.1478C92.2263 11.2507 89.9507 11.1357 87.8389 9.95557C83.4941 7.5166 78.9732 5.45892 74.331 3.67357L74.0585 3.56934C72.1044 2.82146 70.1468 2.07221 67.9897 2.12426C67.6203 2.13306 67.25 2.1335 66.8798 2.13394C65.4681 2.13562 64.0562 2.13731 62.6861 2.60237C56.9334 4.52691 51.3991 6.94771 46.1076 9.89505C45.5494 10.2098 44.9911 10.476 44.3782 10.6637C42.315 11.2991 40.1911 11.3415 38.0794 11.051C34.226 10.5366 30.5183 9.55008 27.0716 7.68606C25.3603 6.7601 23.9768 7.0506 22.6357 8.45467C22.2109 8.90251 21.8347 9.38062 21.4949 9.88899C20.9609 10.6818 20.3783 11.4141 19.7412 12.1161C16.6949 15.4629 13.2785 18.3618 9.79532 21.1881C9.38912 21.5186 8.97508 21.8392 8.56117 22.1596L8.56104 22.1597C7.56518 22.9308 6.57014 23.7012 5.68712 24.6075C4.91646 25.4003 4.55843 26.2415 5.12884 27.3006C5.19102 27.4064 5.22674 27.5232 5.26259 27.6404C5.28621 27.7176 5.30989 27.795 5.34123 27.8695C6.82473 31.7868 8.41441 35.6715 10.0031 39.5537L10.0031 39.5538C10.351 40.4038 10.6988 41.2538 11.0454 42.1039C12.1619 44.8212 12.6656 47.6052 12.3986 50.5222C12.1619 53.2033 11.6704 55.848 11.015 58.4504C9.65575 63.8306 7.74425 69.0293 5.54148 74.1069C2.96248 80.0561 1.59106 86.1807 1.60927 92.614ZM127.04 26.5986C126.974 27.6222 126.611 28.5628 126.251 29.4967L126.239 29.5278C124.6 33.7582 122.889 37.9583 121.135 42.1463C119.764 45.4446 119.594 48.8156 120.019 52.2471C120.802 58.638 122.798 64.6961 125.153 70.6573C125.548 71.6598 125.962 72.6551 126.376 73.6507L126.376 73.651L126.376 73.6512C127.228 75.6968 128.079 77.7437 128.769 79.8564C130.177 84.1775 130.59 88.6318 130.547 93.1406C130.493 98.5208 129.643 103.774 127.78 108.833C125.771 114.292 122.798 119.104 118.235 122.82C114.114 126.185 109.424 128.43 104.32 129.858C100.722 130.863 97.0626 131.45 93.3307 131.541C85.1446 131.716 78.1783 134.936 71.9584 140.038C70.3745 141.339 68.9121 142.767 67.4679 144.214C67.0188 144.661 66.8186 144.601 66.4059 144.189C64.1607 141.938 61.8608 139.747 59.2151 137.944C55.5438 135.426 51.6237 133.447 47.2788 132.364C45.07 131.819 42.8005 131.637 40.537 131.529C34.5659 131.214 28.8011 130.094 23.3214 127.595C14.7349 123.685 9.04895 117.215 5.96022 108.386C3.70284 101.928 3.02319 95.289 3.44797 88.4987C3.76352 83.4876 5.24417 78.8094 7.23455 74.2341C9.46766 69.1201 11.3124 63.867 12.7081 58.4565C13.6547 54.8131 13.9703 51.1275 13.9157 47.3873C13.8914 45.7835 13.6365 44.3008 13.0419 42.812C12.5362 41.5569 12.0239 40.3049 11.5116 39.0529L11.5113 39.0522C10.1242 35.6622 8.73744 32.2731 7.48335 28.8258C7.24062 28.148 7.01609 27.458 6.92507 26.7318C6.84618 26.054 7.05857 25.5093 7.57437 25.0493C8.45527 24.2729 9.38036 23.556 10.3053 22.8391L10.3053 22.839C11.0243 22.2818 11.7431 21.7247 12.4411 21.1397C15.6997 18.4224 18.8613 15.6021 21.6223 12.3643C22.0774 11.8317 22.4961 11.2629 22.9148 10.694L22.9149 10.6939L22.9664 10.6267C23.2644 10.2377 23.5607 9.85076 23.9222 9.5017C24.7718 8.69073 25.0752 8.65442 26.1432 9.15674C29.7295 10.815 33.4372 12.1162 37.3755 12.6306C39.293 12.8727 41.2531 12.9211 43.1706 12.6669C44.6756 12.4672 46.0166 11.7652 47.3577 11.0631C52.3397 8.4547 57.3642 5.93101 62.7771 4.30302C66.1632 3.29233 69.4886 3.60099 72.7836 4.82349C77.6989 6.6512 82.4443 8.84203 87.0319 11.3597C89.1072 12.5096 91.3646 12.8727 93.7009 12.8424C97.5845 12.7879 101.238 11.6623 104.866 10.4035C105.704 10.113 106.529 9.76799 107.312 9.34435C107.67 9.14463 108.058 9.01149 108.465 8.95702C109.078 8.87834 109.618 8.99333 110.006 9.5017C110.283 9.85411 110.556 10.2097 110.828 10.5649L110.828 10.5661C111.313 11.1989 111.797 11.8308 112.306 12.443C114.752 15.3843 117.622 17.8898 120.504 20.3832C121.49 21.2375 122.508 22.0511 123.525 22.8636L123.526 22.8637L123.526 22.8639C124.469 23.617 125.41 24.3692 126.324 25.1522C126.773 25.5638 127.07 25.9874 127.04 26.5986ZM47.0244 67.6338L47.0201 67.6351C46.4999 67.7891 45.9912 67.9397 45.4826 68.0852C45.2399 68.1518 45.1246 68.2426 45.1792 68.5391C45.2794 69.034 45.342 69.5255 45.4054 70.0239C45.4265 70.1898 45.4478 70.3564 45.4705 70.5242C45.5069 70.736 45.5069 70.9115 45.3613 71.0931C44.6614 71.9642 43.9831 72.8515 43.3046 73.739L43.3045 73.7392L43.3044 73.7393C42.3709 74.9603 41.4369 76.1819 40.446 77.363C40.2882 77.5506 40.1244 77.6171 39.8877 77.6656C39.1595 77.7866 38.4374 77.835 37.7214 77.7745C35.8706 77.6292 34.402 78.3555 32.9214 79.4085C28.817 82.3421 24.6755 85.2117 20.532 88.0826L20.5319 88.0827L20.531 88.0833C19.1186 89.062 17.7059 90.0408 16.2944 91.0224C15.6937 91.4339 15.2568 91.9786 15.0019 92.6564C14.6317 93.6368 14.8684 94.3933 15.815 94.8412C16.7313 95.2769 17.4656 95.9124 18.1574 96.6144L18.2886 96.7489C20.2115 98.7186 22.1279 100.682 22.478 103.617C22.5568 104.264 23.2061 104.555 23.8372 104.373C24.6322 104.161 25.2876 103.75 25.8155 103.102C26.2385 102.582 26.6706 102.071 27.1022 101.559L27.1023 101.559C27.6055 100.963 28.108 100.367 28.5947 99.7615C28.8071 99.4952 28.9649 99.5073 29.2198 99.6586C30.573 100.482 31.999 101.141 33.4979 101.674C40.0758 103.992 46.6417 103.744 53.1954 101.607C57.8072 100.106 62.0064 97.8006 65.9265 94.9683C66.2299 94.7443 66.4181 94.7141 66.7275 94.9683C67.9533 96.0153 69.2519 96.9836 70.593 97.8975C75.3262 101.159 80.3871 103.78 85.9699 105.281C89.4409 106.219 92.9727 106.485 96.5347 106.092C100.133 105.692 103.404 104.379 106.359 102.315C106.663 102.104 106.839 102.104 107.106 102.352C107.53 102.732 107.971 103.097 108.411 103.462C108.535 103.565 108.659 103.668 108.782 103.771C108.834 103.814 108.886 103.857 108.938 103.901C109.6 104.446 110.146 104.422 110.734 103.792C111.281 103.199 111.675 102.503 112.021 101.777C112.658 100.427 113.404 99.1623 114.242 97.9338C115.104 96.6749 116.105 95.5856 117.513 94.9078C118.059 94.6415 118.471 94.2178 118.751 93.661C119.121 92.9166 119.005 92.3599 118.35 91.8454C118.102 91.6581 117.845 91.4846 117.587 91.3107L117.587 91.3107C117.428 91.2037 117.269 91.0966 117.112 90.986C111.25 86.9009 105.388 82.8037 99.5264 78.7004C99.1441 78.4342 98.7678 78.2768 98.3006 78.2526C97.4975 78.2244 96.6972 78.1749 95.896 78.1252C95.4923 78.1002 95.0884 78.0752 94.6839 78.0529C94.2591 78.0287 93.9375 77.8834 93.6341 77.5385C93.5009 77.3798 93.3678 77.2209 93.2346 77.062L93.2301 77.0567L93.23 77.0565C91.9934 75.5808 90.7525 74.1 89.4227 72.7029C88.5186 71.7648 88.1363 70.8207 88.4154 69.5316C88.6035 68.6844 88.5064 68.6602 87.6812 68.4544C87.5872 68.4328 87.496 68.4035 87.4048 68.3742L87.4047 68.3741C87.2661 68.3296 87.1272 68.285 86.9772 68.2668C86.5767 68.2123 86.6071 68.0428 86.7649 67.7523L86.7649 67.7522C87.1775 66.9837 87.5902 66.2151 87.9603 65.4223C89.2468 62.705 90.5272 59.9997 91.0976 57.0161C91.1481 56.7359 91.334 56.6477 91.5202 56.5593L91.5648 56.538C92.4598 56.0853 93.3524 55.629 94.2452 55.1725L94.246 55.1721L94.2465 55.1719C95.8959 54.3286 97.5457 53.4852 99.2108 52.6647C99.9815 52.2834 100.643 51.8174 101.153 51.1396C101.511 50.6615 101.99 50.3286 102.548 50.0684C106.948 48.053 111.347 46.0256 115.747 43.9982C115.853 43.948 115.975 43.9041 116.098 43.8604C116.388 43.7565 116.678 43.653 116.742 43.4656C116.81 43.2667 116.646 43.0607 116.476 42.8464C116.372 42.7151 116.266 42.5807 116.208 42.4428C116.032 42.0192 115.783 42.0192 115.383 42.1886C113.894 42.7998 112.405 43.4027 110.916 44.0059L110.915 44.0062C109.278 44.6692 107.641 45.3325 106.001 46.0075C105.546 46.1951 105.455 46.0075 105.4 45.6625C105.368 45.4306 105.524 45.3835 105.673 45.3388C105.718 45.3251 105.763 45.3117 105.801 45.2933C109.387 43.5867 112.98 41.8981 116.578 40.2278C116.991 40.0402 117.1 39.8405 117.033 39.4047L117.03 39.3864C116.944 38.8201 116.901 38.5363 116.748 38.4528C116.595 38.3689 116.331 38.487 115.802 38.7237L115.795 38.7269C115.474 38.8721 115.237 38.9387 114.921 38.624C113.313 37.0747 112.118 37.3773 111.396 39.4834C111.274 39.8526 111.074 40.0523 110.728 40.2096C102.309 43.9098 93.892 47.6018 85.4745 51.2939L85.47 51.2959C79.4192 53.95 73.3682 56.6041 67.3162 59.2614C66.9824 59.4066 66.7215 59.3522 66.4241 59.2251C52.1941 53.046 37.9702 46.879 23.7402 40.718C23.1819 40.4759 22.836 40.1975 22.6357 39.5621C22.1442 37.928 21.0641 37.5104 19.5288 38.2911C19.2861 38.4122 19.0494 38.4485 18.7824 38.4001C18.3745 38.3266 17.9614 38.2637 17.5528 38.2015L17.5528 38.2015L17.4656 38.1883C16.5861 38.0488 16.5843 38.0544 16.3388 38.8204L16.3066 38.9206C16.1488 39.4108 16.2702 39.6226 16.7192 39.8465C19.5889 41.2799 22.4512 42.7351 25.3176 44.1924L25.3182 44.1927L25.3261 44.1967C26.1482 44.6147 26.9707 45.0328 27.7937 45.4507C27.8506 45.4818 27.912 45.5074 27.9729 45.5328C28.1133 45.5914 28.2515 45.649 28.3277 45.7714C28.0911 46.3161 27.7331 46.2919 27.2658 46.0861C26.3041 45.6563 25.3361 45.2369 24.3667 44.8169L24.3664 44.8167L24.3653 44.8162C23.6837 44.5209 23.0014 44.2253 22.3202 43.9256C21.8063 43.7019 21.2928 43.4782 20.7787 43.2542L20.771 43.2508C19.5212 42.7063 18.2674 42.16 16.9923 41.6076C16.983 41.6709 16.9746 41.731 16.9666 41.7885C16.9378 41.9951 16.9136 42.1682 16.8709 42.3339C16.7131 42.9149 16.9134 43.1933 17.4838 43.4354C19.7079 44.4123 21.9261 45.4038 24.145 46.3956L24.1454 46.3958C26.4487 47.4253 28.7527 48.4551 31.0645 49.4692C31.7138 49.7597 32.2053 50.1349 32.4845 50.7825C32.7211 51.3151 33.1095 51.66 33.6435 51.9082C35.4792 52.7808 37.3077 53.6605 39.1349 54.5396L39.1368 54.5406C40.6673 55.2769 42.1969 56.0129 43.7289 56.7437C44.0505 56.9011 44.2083 57.0766 44.2751 57.4216C44.6877 59.2795 45.155 61.1314 45.7921 62.9349C46.3443 64.4843 47.024 65.9428 47.8735 67.3832C47.5859 67.4675 47.3035 67.5512 47.0244 67.6338ZM66.9642 114.165C55.7622 114.165 44.5663 114.165 33.3644 114.153C32.9093 114.153 32.7818 114.262 32.7818 114.734C32.8061 117.996 32.8061 121.27 32.7818 124.532C32.7818 124.968 32.891 125.077 33.3401 125.077C55.7076 125.065 78.0691 125.065 100.437 125.077C100.904 125.077 101.019 124.944 101.019 124.484C100.995 121.252 100.995 118.026 101.019 114.795C101.019 114.25 100.874 114.135 100.352 114.135C89.2225 114.165 78.0873 114.165 66.9642 114.165ZM18.5033 121.567C18.5908 121.68 18.674 121.675 18.7453 121.671C18.7581 121.67 18.7705 121.67 18.7824 121.67C22.8603 121.67 26.932 121.67 30.9978 121.682C31.3801 121.682 31.4529 121.561 31.4529 121.204C31.4483 120.255 31.4489 119.309 31.4495 118.363V118.362C31.4504 116.785 31.4514 115.21 31.4286 113.633C31.4286 113.118 31.5196 112.919 32.09 112.943C32.6608 112.974 33.2356 112.969 33.8098 112.964H33.8102C34.2249 112.961 34.6392 112.957 35.0513 112.967C35.3972 112.979 35.5065 112.858 35.4883 112.519C35.464 112.053 35.4458 111.581 35.4883 111.127C35.5429 110.607 35.3305 110.528 34.8632 110.528C29.6021 110.54 24.3348 110.54 19.0737 110.54C19.0356 110.54 18.9966 110.537 18.957 110.534C18.8139 110.522 18.6628 110.51 18.5154 110.643L21.5126 112.424C23.3951 113.543 25.2824 114.665 27.193 115.799C25.1416 117.166 23.1112 118.512 21.0869 119.854L21.0866 119.854C20.2247 120.425 19.364 120.996 18.5033 121.567ZM115.304 110.691C115.292 110.655 115.292 110.625 115.279 110.582H107.53C106.806 110.582 106.08 110.583 105.355 110.584H105.353C103.176 110.586 100.998 110.589 98.8224 110.57C98.4644 110.57 98.3309 110.649 98.3552 111.024C98.3916 111.539 98.3916 112.059 98.3552 112.586C98.3309 112.943 98.4644 113.021 98.8042 113.021C99.2704 113.01 99.7353 113.012 100.2 113.013C100.758 113.015 101.315 113.017 101.875 112.997C102.3 112.985 102.397 113.106 102.397 113.518C102.384 114.789 102.384 116.058 102.384 117.328C102.384 118.598 102.384 119.869 102.372 121.143C102.372 121.609 102.506 121.712 102.967 121.712C105.957 121.694 108.94 121.696 111.927 121.699C112.922 121.699 113.918 121.7 114.915 121.7H115.328L115.364 121.597C113.917 120.641 112.475 119.683 111.026 118.721L111.017 118.716L111.009 118.71C109.564 117.751 108.113 116.788 106.644 115.817C108.277 114.855 109.875 113.907 111.461 112.967L111.467 112.964C112.751 112.202 114.026 111.446 115.304 110.691ZM55.1857 27.1252C56.011 26.3989 56.2477 25.4548 56.1809 24.4078C56.0778 22.913 55.2768 22.0899 53.8022 22.0112C53.2721 21.983 52.7393 21.9816 52.2039 21.9803H52.2038C51.9363 21.9796 51.6681 21.9789 51.3992 21.9749C50.8465 21.9749 50.5704 21.9749 50.4324 22.113C50.2948 22.2508 50.2948 22.5261 50.2948 23.0764V32.4328C50.2948 32.4711 50.2922 32.5106 50.2896 32.5499C50.2759 32.7592 50.2626 32.9635 50.6406 32.9533C51.1054 32.9405 51.5716 32.9412 52.0383 32.942H52.0383C52.894 32.9433 53.7511 32.9447 54.6032 32.8625C54.9855 32.8262 55.3071 32.6628 55.5984 32.4086C56.7392 31.4342 57.1397 28.1238 55.1857 27.1252ZM39.4205 28.1056C40.3671 27.8514 40.9193 27.2341 41.1621 26.3445C41.4048 25.4851 41.4048 24.6196 41.1499 23.7603C40.8162 22.5922 40.2761 22.1323 39.0624 22.0233C38.3964 21.9583 37.7304 21.9666 37.0644 21.9748C36.6139 21.9804 36.1633 21.986 35.7128 21.9689C35.288 21.9446 35.1909 22.0899 35.1909 22.5014C35.2091 24.8663 35.2068 27.2345 35.2046 29.601V29.6018V29.6023C35.2038 30.3907 35.203 31.179 35.203 31.9668C35.203 32.4566 35.203 32.6959 35.3227 32.8169C35.4369 32.9325 35.6601 32.9404 36.0966 32.9557C36.1292 32.9568 36.1631 32.958 36.1982 32.9593C36.6534 32.9714 36.7565 32.8262 36.7444 32.4025C36.7305 31.7143 36.7325 31.0241 36.7345 30.3342V30.3341C36.736 29.8167 36.7374 29.2995 36.7322 28.7834C36.7322 28.4808 36.7869 28.3598 37.1206 28.3719C37.691 28.384 38.0794 28.5958 38.3282 29.1042C38.6011 29.6819 38.8741 30.2581 39.1471 30.8343L39.1481 30.8365C39.4209 31.4125 39.6938 31.9884 39.9666 32.5659C39.9762 32.5871 39.9855 32.6084 39.9946 32.6295L39.9947 32.6296C40.072 32.8079 40.1444 32.9749 40.4157 32.9533C40.77 32.9354 41.1243 32.9373 41.5301 32.9396H41.5304L41.5319 32.9396C41.6746 32.9403 41.8236 32.9412 41.9813 32.9412C41.6958 32.3978 41.4656 31.8365 41.2366 31.2781C40.7744 30.1512 40.3172 29.0364 39.4205 28.1056ZM62.1521 26.1871C62.1733 26.1811 62.1961 26.178 62.2188 26.175C62.2416 26.172 62.2643 26.169 62.2856 26.1629C62.3645 26.3203 62.4434 26.4837 62.5101 26.641C62.7981 27.3211 63.0843 28.0003 63.3704 28.6793L63.3708 28.6803L63.3713 28.6813C63.8385 29.7902 64.3056 30.8985 64.7796 32.0091C65.163 32.9351 65.1798 32.9353 66.1605 32.9468L66.1996 32.9472C66.588 32.9593 66.6911 32.8383 66.6911 32.457C66.6729 31.2325 66.6752 30.0113 66.6775 28.786V28.7846L66.6775 28.7738C66.6782 28.368 66.679 27.9618 66.679 27.5549C66.679 27.0701 66.677 26.5863 66.675 26.1031V26.1023C66.6701 24.8967 66.6651 23.6945 66.6911 22.4893C66.7033 22.0354 66.5455 21.8962 66.1329 21.9568C66.0418 21.9689 65.9447 21.9689 65.8537 21.9568C65.3986 21.8781 65.259 22.0657 65.259 22.5377C65.2772 23.9988 65.2749 25.4599 65.2727 26.921V26.9227C65.2719 27.4098 65.2712 27.8969 65.2712 28.384V28.9408C65.0629 28.7687 64.983 28.5908 64.9056 28.4185L64.901 28.4082C64.51 27.4801 64.122 26.5505 63.734 25.6209L63.733 25.6186L63.7318 25.6157C63.3438 24.686 62.9558 23.7564 62.5647 22.8282C62.2166 21.9926 62.207 21.9924 61.3365 21.9708L61.2601 21.9689C60.8353 21.9568 60.7382 22.0778 60.7382 22.4893C60.7564 24.868 60.7541 27.2501 60.7518 29.6254V29.6271C60.7511 30.418 60.7503 31.2081 60.7503 31.997C60.7503 32.4768 60.7503 32.7129 60.8684 32.829C60.9828 32.9416 61.2081 32.9415 61.6519 32.9412C61.6744 32.9412 61.6976 32.9412 61.7212 32.9412C62.0671 32.9412 62.1582 32.8322 62.1582 32.4933C62.146 30.8477 62.146 29.196 62.146 27.5383V27.5367C62.1521 27.1133 62.1521 26.6537 62.1521 26.188V26.1871ZM79.4405 28.1117C80.5146 27.8212 81.0607 27.0889 81.261 26.06C81.3945 25.4003 81.4066 24.7225 81.261 24.0689C80.9454 22.6346 80.3689 22.1081 78.9065 22.0173C78.3493 21.9807 77.7865 21.9843 77.2223 21.988H77.2222C76.7604 21.991 76.2976 21.994 75.836 21.9749C75.3808 21.9507 75.2413 22.0778 75.2413 22.5559C75.2595 24.893 75.2572 27.2302 75.2549 29.5699V29.5707C75.2542 30.351 75.2534 31.1314 75.2534 31.9123C75.2534 32.4545 75.2534 32.7238 75.388 32.8553C75.521 32.9852 75.7851 32.9808 76.3101 32.972L76.3457 32.9714C76.6673 32.9714 76.7583 32.8685 76.7462 32.5599L76.7461 32.5471C76.734 31.4137 76.722 30.2922 76.7462 29.1647C76.7462 29.0985 76.7342 29.0228 76.7221 28.9456L76.722 28.9455C76.6874 28.7264 76.6509 28.495 76.8797 28.4324C77.2802 28.3235 77.7414 28.3416 78.063 28.7229C78.1965 28.8803 78.3057 29.0437 78.3968 29.2373C78.6718 29.802 78.9414 30.3721 79.211 30.9422L79.2114 30.943C79.3462 31.228 79.481 31.513 79.6165 31.7973L79.6378 31.843C80.1989 33.0443 80.204 33.0552 81.5704 32.9775H81.6251C81.8496 33.0017 81.9588 32.9109 81.8496 32.687C81.6358 32.2415 81.4509 31.7821 81.266 31.3229C80.8055 30.1788 80.3455 29.0358 79.4405 28.1117ZM102.494 22.0233V21.981C102.344 21.981 102.195 21.9823 102.046 21.9837C101.748 21.9863 101.452 21.989 101.153 21.981C100.849 21.9689 100.728 22.0475 100.728 22.3804C100.74 25.7756 100.74 29.1647 100.728 32.5599C100.728 32.8746 100.807 32.9835 101.128 32.9714C101.679 32.9533 102.24 32.9555 102.801 32.9578C102.988 32.9586 103.175 32.9593 103.361 32.9593C105.079 32.9593 105.965 32.3481 106.535 30.7322C107.093 29.1708 107.069 27.567 106.917 25.9571C106.826 25.0312 106.596 24.1415 106.116 23.3306C105.661 22.562 105.024 22.0717 104.108 22.0415C103.688 22.018 103.272 22.02 102.854 22.0221H102.854C102.734 22.0227 102.614 22.0233 102.494 22.0233ZM82.4625 27.5488C82.4989 28.9771 82.6324 30.4659 83.5426 31.761C84.8352 33.6069 87.3292 33.6069 88.6339 31.7731C89.2286 30.9379 89.5138 29.9817 89.6169 28.9771C89.7929 27.2038 89.805 25.4488 89.004 23.7966C88.4215 22.6043 87.5173 21.8236 86.1034 21.8115C84.6713 21.7994 83.8036 22.5801 83.2028 23.7845C82.596 24.9525 82.511 26.1992 82.4625 27.5488ZM66.4605 41.8921V37.3289C66.4605 36.839 66.4605 36.5998 66.3409 36.4787C66.2267 36.3631 66.0034 36.3553 65.567 36.34C65.5343 36.3388 65.5005 36.3376 65.4653 36.3363C65.0406 36.3242 64.9313 36.4574 64.9435 36.8689C64.9574 37.5191 64.9554 38.1653 64.9534 38.811V38.8112C64.9519 39.2953 64.9504 39.7792 64.9556 40.2641C64.9556 40.5667 64.8889 40.6877 64.5672 40.6756C63.8391 40.6514 63.1169 40.6514 62.3887 40.6756C62.0671 40.6877 61.9882 40.5728 61.9882 40.2762C62.0064 39.5229 62.0042 38.7731 62.0019 38.0215C62.0011 37.7707 62.0004 37.5197 62.0004 37.2683C62.0004 36.8137 62.0004 36.5911 61.8891 36.4779C61.7822 36.3692 61.5728 36.3615 61.1623 36.3462C61.1294 36.345 61.0953 36.3438 61.0598 36.3424C60.5925 36.3182 60.4772 36.4755 60.4772 36.9355C60.4954 39.2726 60.4932 41.6097 60.4909 43.9493V43.9501C60.4901 44.7304 60.4894 45.511 60.4894 46.2919C60.4894 46.821 60.4894 47.0827 60.6203 47.2122C60.7484 47.339 61.002 47.339 61.504 47.3389H61.5392C61.8972 47.3389 62.0186 47.2602 62.0064 46.885C61.9926 46.1416 61.9946 45.4001 61.9965 44.6583V44.6582C61.998 44.1018 61.9995 43.5452 61.9943 42.9875C61.9943 42.6728 62.0307 42.5215 62.4069 42.5336C63.1109 42.5699 63.8269 42.5578 64.5308 42.5336C64.8767 42.5215 64.9799 42.6365 64.9678 42.9693C64.9496 43.8043 64.9518 44.6392 64.9541 45.4741V45.475C64.9549 45.7534 64.9556 46.0317 64.9556 46.3101C64.9556 46.821 64.9556 47.0737 65.0819 47.2001C65.2056 47.3238 65.4501 47.3267 65.9338 47.3324L65.969 47.3329C66.3513 47.345 66.4727 47.2421 66.4727 46.8426C66.4506 45.6364 66.4542 44.4365 66.4578 43.2384V43.2377C66.4592 42.789 66.4605 42.3405 66.4605 41.8921ZM68.2628 27.458C68.2628 27.8756 68.2636 28.2932 68.2643 28.7108C68.2666 29.9636 68.2689 31.2163 68.2507 32.4691C68.2507 32.8564 68.3599 32.9714 68.7543 32.9593C69.7013 32.9412 70.6552 32.9434 71.6056 32.9457H71.6068C71.9227 32.9465 72.2383 32.9472 72.553 32.9472C73.2616 32.9472 73.6136 32.9472 73.7884 32.7712C73.961 32.5975 73.9609 32.2524 73.9609 31.5667V31.531C73.9609 31.174 73.8699 31.0529 73.5058 31.065C72.8817 31.0789 72.2537 31.0769 71.6252 31.0749H71.625H71.6248C71.1533 31.0734 70.6814 31.072 70.2107 31.0771C69.9194 31.0771 69.7738 31.0348 69.7859 30.6898C69.8102 29.9454 69.8102 29.2071 69.7859 28.4627C69.7738 28.1722 69.877 28.0814 70.1682 28.0814C70.6554 28.0996 71.1459 28.0973 71.6348 28.095H71.6354C71.7979 28.0942 71.9602 28.0935 72.1222 28.0935C72.854 28.0935 73.2165 28.0935 73.3924 27.9123C73.565 27.7343 73.5576 27.3816 73.5429 26.6825L73.5422 26.6471C73.53 26.3142 73.4208 26.2476 73.1174 26.2597C72.7012 26.2649 72.2873 26.2634 71.8736 26.262C71.3223 26.26 70.7715 26.258 70.2168 26.2718C69.8587 26.2839 69.7677 26.169 69.7799 25.824C69.8041 25.2672 69.8041 24.7104 69.7799 24.1536C69.7677 23.8752 69.8709 23.8087 70.1258 23.8208C70.6319 23.8288 71.1434 23.8261 71.6532 23.8235C71.9073 23.8221 72.1611 23.8208 72.4135 23.8208C73.1351 23.8208 73.4947 23.8208 73.6686 23.6411C73.8413 23.4627 73.8309 23.107 73.8102 22.3983L73.8092 22.3622C73.797 22.0415 73.6999 21.9628 73.3965 21.9628C71.8309 21.9749 70.2714 21.9749 68.7058 21.9628C68.3356 21.9628 68.2385 22.0717 68.2385 22.4409C68.2677 23.7822 68.2657 25.1196 68.2638 26.4562C68.2633 26.7902 68.2628 27.1241 68.2628 27.458ZM77.2938 43.0727L77.2939 43.0845V43.0851C77.2961 44.337 77.2984 45.5872 77.2802 46.8305C77.2802 47.23 77.4016 47.3207 77.7839 47.3207C78.7299 47.3026 79.6759 47.3049 80.6271 47.3071C80.9449 47.3079 81.2634 47.3086 81.5826 47.3086C82.3013 47.3086 82.6562 47.3086 82.8316 47.1312C83.0026 46.958 83.0026 46.6158 83.0025 45.9397V45.9046C83.0025 45.5475 82.9237 45.4265 82.5474 45.4386C81.9094 45.4524 81.2714 45.4504 80.6333 45.4485H80.6325C80.1543 45.447 79.676 45.4455 79.1978 45.4507C78.9065 45.4507 78.8094 45.372 78.8155 45.0815C78.8397 44.3371 78.8397 43.5988 78.8155 42.8544C78.8033 42.5336 78.9247 42.4428 79.2402 42.4549C79.7274 42.4731 80.218 42.4708 80.7069 42.4685H80.7074C80.8699 42.4678 81.0323 42.467 81.1942 42.467C82.59 42.467 82.59 42.467 82.5663 41.075L82.5656 41.0388C82.5656 40.724 82.4746 40.6272 82.1651 40.6393C81.6797 40.6514 81.1973 40.6484 80.7148 40.6454C80.2324 40.6423 79.75 40.6393 79.2645 40.6514C78.9308 40.6635 78.7973 40.5728 78.8155 40.2278C78.8397 39.7134 78.8397 39.1929 78.8155 38.6664C78.7912 38.3093 78.8822 38.1762 79.2645 38.2004C79.7843 38.2263 80.3011 38.2214 80.8191 38.2164H80.8194C81.0269 38.2144 81.2347 38.2125 81.443 38.2125C82.1748 38.2125 82.5374 38.2125 82.7147 38.0312C82.8889 37.8533 82.8844 37.5005 82.8756 36.8015L82.8751 36.766C82.863 36.409 82.7416 36.3424 82.42 36.3424C80.8787 36.3545 79.3373 36.3666 77.7839 36.3424C77.3955 36.3303 77.2802 36.4453 77.2923 36.8326C77.3004 37.9372 77.2977 39.0472 77.295 40.159V40.1603C77.2937 40.7171 77.2923 41.2743 77.2923 41.8316C77.2923 42.2453 77.2931 42.6591 77.2938 43.0727ZM95.8389 25.1709C96.1003 25.1633 96.247 25.159 96.3174 25.0835C96.4074 24.987 96.3725 24.7741 96.2932 24.2889L96.2859 24.2444C96.2797 24.2164 96.2766 24.1884 96.2735 24.1596C96.2706 24.1324 96.2675 24.1044 96.2616 24.075C95.9825 22.9856 95.4364 22.102 94.2409 21.8841C93.1911 21.6965 92.1838 21.8055 91.4617 22.7314C90.1085 24.4441 90.7942 27.107 92.7785 27.9785C93.0212 28.0839 93.2653 28.1812 93.5082 28.2781C93.7814 28.3871 94.0532 28.4954 94.3198 28.614C94.7446 28.7895 95.0116 29.0921 95.0541 29.5702C95.1329 30.4054 94.7082 31.0711 93.9921 31.2284C93.1001 31.4161 92.4629 31.0045 92.1595 30.0362C92.0325 29.6198 91.9687 29.4111 91.8285 29.3198C91.6875 29.2281 91.469 29.2553 91.0308 29.3099L91.0031 29.3143C90.9359 29.3248 90.8758 29.3342 90.8063 29.3342C90.606 29.3584 90.515 29.4431 90.5514 29.667C90.6546 30.5809 90.8548 31.4584 91.4435 32.1968C92.6025 33.6311 95.1754 33.4193 96.0796 31.8094C97.3539 29.5581 96.4619 27.0889 94.071 26.1871C94.0333 26.1729 93.9955 26.1588 93.9576 26.1447C93.9225 26.1318 93.8874 26.1188 93.8523 26.1059C93.4724 25.9659 93.0881 25.8243 92.7421 25.6061C92.3294 25.3519 92.1838 24.9707 92.2505 24.5168C92.3173 24.081 92.6086 23.851 93.0091 23.7179C93.8465 23.4516 94.5261 23.7724 94.7264 24.6196C94.8356 25.122 95.0237 25.3217 95.4364 25.1885C95.5936 25.1781 95.7268 25.1742 95.8389 25.1709ZM108.303 28.6936L108.303 28.7042V28.7047C108.305 29.9707 108.307 31.2307 108.289 32.4873C108.289 32.8564 108.392 32.9533 108.756 32.9533C109.721 32.9351 110.682 32.9374 111.645 32.9396L111.649 32.9397C111.969 32.9404 112.289 32.9412 112.609 32.9412C114.017 32.9412 114.017 32.9412 113.994 31.543L113.993 31.5068C113.993 31.1619 113.89 31.059 113.544 31.0711C112.906 31.0849 112.268 31.0829 111.63 31.081C111.151 31.0795 110.673 31.078 110.194 31.0832C109.891 31.0832 109.77 31.0166 109.782 30.6838C109.806 29.9575 109.818 29.2373 109.782 28.5111C109.77 28.1419 109.915 28.0753 110.237 28.0874C110.724 28.1056 111.215 28.1033 111.703 28.1011H111.704C111.867 28.1003 112.029 28.0995 112.191 28.0995C113.599 28.0995 113.599 28.0995 113.563 26.7014L113.562 26.6652C113.55 26.3445 113.459 26.2658 113.15 26.2658C112.588 26.2796 112.027 26.2776 111.463 26.2757C111.04 26.2742 110.615 26.2727 110.188 26.2779C109.873 26.2779 109.763 26.1992 109.776 25.8785C109.8 25.3217 109.8 24.7649 109.776 24.2081C109.763 23.9176 109.854 23.8268 110.158 23.8268C110.745 23.845 111.333 23.8427 111.918 23.8404C112.112 23.8397 112.306 23.8389 112.5 23.8389C113.166 23.8389 113.499 23.8389 113.664 23.6728C113.829 23.5075 113.829 23.1776 113.829 22.5194V22.4833C113.829 22.102 113.738 21.9689 113.338 21.981C111.821 22.0052 110.291 22.0052 108.762 21.981C108.35 21.9689 108.283 22.1262 108.283 22.4954C108.306 23.7758 108.304 25.0563 108.302 26.3367C108.302 26.7024 108.301 27.0681 108.301 27.4338C108.301 27.8545 108.302 28.2743 108.303 28.6936ZM34.4081 32.9593C34.3929 32.8985 34.3808 32.8472 34.3702 32.8019L34.3701 32.8018C34.3554 32.739 34.3433 32.6878 34.3292 32.6386C33.8894 31.0232 33.4511 29.4093 33.0128 27.7954L33.0122 27.7932C32.5738 26.179 32.1355 24.5649 31.6956 22.9493C31.4456 22.0114 31.4292 22.0109 30.4781 21.9827L30.4213 21.981C29.9662 21.9568 29.7963 22.0899 29.6749 22.5498C29.0698 24.8994 28.447 27.2419 27.8255 29.5801C27.6305 30.3135 27.4357 31.0465 27.2415 31.7792L27.2389 31.7888C27.0732 32.408 26.9912 32.7142 27.1086 32.8603C27.2234 33.0033 27.529 32.993 28.1336 32.9726L28.17 32.9714C28.437 32.9593 28.5583 32.8806 28.619 32.6143C28.6751 32.3461 28.744 32.0804 28.8128 31.8155L28.8128 31.8154L28.8128 31.8154C28.893 31.5066 28.9729 31.199 29.0317 30.8895C29.0984 30.5748 29.2076 30.4417 29.5475 30.4538C30.2756 30.478 30.9978 30.478 31.726 30.4538C32.0597 30.4417 32.175 30.5748 32.2478 30.8774C32.3146 31.174 32.395 31.469 32.4754 31.764L32.4754 31.764C32.5558 32.0591 32.6362 32.3541 32.7029 32.6507C32.7575 32.8927 32.8728 32.9835 33.1156 32.9714C33.4275 32.9534 33.7361 32.9555 34.064 32.9578C34.1761 32.9585 34.2905 32.9593 34.4081 32.9593ZM49.4816 32.923L49.4815 32.9226L49.4815 32.9224C49.4269 32.6987 49.3723 32.475 49.3117 32.2633C48.8933 30.7271 48.4748 29.194 48.0564 27.6608C47.6374 26.1256 47.2184 24.5904 46.7994 23.0522L46.7926 23.0277C46.647 22.5047 46.5737 22.2414 46.4004 22.1075C46.2249 21.9718 45.9467 21.969 45.3866 21.9632L45.3491 21.9628C45.0033 21.9628 44.8697 22.0717 44.7909 22.3985C44.2751 24.3897 43.7532 26.3747 43.2192 28.3537C42.8187 29.8667 42.4182 31.3797 41.9995 32.9412H42.6124C43.1045 32.9412 43.3441 32.9412 43.4935 32.825C43.6354 32.7147 43.6958 32.4997 43.8137 32.0806C43.8197 32.0593 43.8258 32.0375 43.8321 32.0152C43.8776 31.8543 43.9012 31.6763 43.9247 31.4986C43.9765 31.1083 44.0279 30.72 44.3115 30.5204C44.5933 30.3159 44.9924 30.3603 45.3903 30.4045C45.5577 30.4231 45.725 30.4417 45.8831 30.4417C47.1846 30.4296 47.1878 30.4416 47.5191 31.6792L47.5216 31.6884L47.5216 31.6884C47.6934 32.3256 47.7798 32.6464 47.9891 32.8033C48.2012 32.9625 48.5395 32.9534 49.2207 32.9351C49.2775 32.9525 49.328 32.9449 49.395 32.9347H49.395C49.421 32.9307 49.4494 32.9264 49.4816 32.923ZM21.4646 27.4701C21.4646 27.3594 21.4619 27.2487 21.4592 27.1377V27.1377C21.4538 26.9151 21.4484 26.6917 21.4646 26.4655C21.507 25.83 21.5981 25.2067 21.9136 24.6378C22.2292 24.0689 22.6479 23.6695 23.3639 23.6997C24.0557 23.736 24.4016 24.202 24.6565 24.7709C24.7128 24.892 24.7444 25.0224 24.7756 25.151C24.788 25.2024 24.8004 25.2534 24.8142 25.3035C24.8506 25.473 24.9174 25.4911 25.0934 25.4609C26.3434 25.2248 26.5012 24.9707 26.0339 23.8026C25.9308 23.5605 25.8216 23.3245 25.6881 23.1127C24.6625 21.521 22.5811 21.3394 21.3007 22.7314C20.8638 23.1974 20.5665 23.7542 20.3541 24.3594C19.8504 25.8542 19.8079 27.3794 19.9657 28.9226C20.0749 29.9817 20.3541 30.9924 21.0034 31.876C21.4949 32.5417 22.1078 33.0259 22.9695 33.0985C24.4562 33.2317 25.4696 32.4994 26.0521 30.8472L26.0582 30.8299C26.2728 30.2236 26.3792 29.9231 26.2878 29.7058C26.198 29.4922 25.9174 29.3588 25.361 29.0944L25.3179 29.0739C24.9477 28.9045 24.881 29.0316 24.8264 29.3402C24.7596 29.7639 24.6261 30.1633 24.3895 30.5325C23.8069 31.4342 22.7692 31.4705 22.1199 30.6111C21.9075 30.3327 21.7619 30.012 21.6709 29.667C21.4767 28.9468 21.4403 28.2145 21.4646 27.4701ZM54.2391 41.6924L54.2441 41.562V41.5619C54.2551 41.2728 54.2692 40.9023 54.3059 40.5364C54.3726 39.9433 54.4818 39.3684 54.8095 38.854C55.1311 38.3517 55.5559 38.043 56.1809 38.0733C56.7938 38.1096 57.1519 38.4969 57.4007 38.9992C57.5038 39.1989 57.5706 39.4108 57.6252 39.6226L57.6283 39.6351C57.6684 39.7956 57.6854 39.8636 57.9043 39.8223C59.1544 39.5439 59.3 39.3079 58.8206 38.1398C58.7114 37.8736 58.5779 37.5952 58.408 37.3591C57.3703 35.8885 55.4163 35.7432 54.1541 37.0384C53.699 37.5044 53.3713 38.0733 53.159 38.6966C52.6128 40.2762 52.6007 41.8921 52.7888 43.5322C52.9223 44.6337 53.2682 45.6564 54.0146 46.5158C54.494 47.0726 55.0887 47.4297 55.835 47.472C57.2672 47.5628 58.2684 46.8245 58.8388 45.257C59.2939 44.0103 59.2515 43.9437 58.0378 43.4293C57.7708 43.3204 57.6798 43.3506 57.6373 43.629C57.5706 44.0829 57.4249 44.5308 57.1701 44.9181C56.5996 45.7896 55.5741 45.832 54.937 45.0089C54.7246 44.7426 54.5911 44.44 54.4879 44.1192C54.2731 43.3813 54.2578 42.62 54.24 41.7374L54.2391 41.6924ZM70.9525 43.1015V43.1032C70.9548 44.3436 70.9571 45.5892 70.9389 46.8245C70.9389 47.2118 71.0481 47.3268 71.4426 47.3268C72.28 47.3086 73.1174 47.3109 73.9548 47.3132C74.2339 47.3139 74.5131 47.3147 74.7922 47.3147C76.2426 47.3147 76.2426 47.3147 76.2248 45.9037L76.2243 45.8683C76.2243 45.4991 76.103 45.4446 75.7692 45.4446C75.3714 45.455 74.9724 45.452 74.5733 45.4491H74.5732H74.573C74.0408 45.4451 73.5083 45.4412 72.9778 45.4688C72.553 45.4809 72.462 45.3599 72.462 44.9484C72.4802 43.0692 72.478 41.1901 72.4757 39.3109C72.4749 38.6845 72.4742 38.0581 72.4742 37.4318C72.4742 36.9349 72.4742 36.6867 72.3501 36.5613C72.2263 36.4362 71.979 36.4333 71.4849 36.4275L71.4486 36.4271C71.0663 36.415 70.945 36.5179 70.945 36.9173C70.958 38.0971 70.9555 39.2768 70.953 40.4543V40.4567V40.4578C70.952 40.9282 70.951 41.3983 70.951 41.8679C70.951 42.2782 70.9518 42.6896 70.9525 43.1015ZM59.3061 27.5246V22.9614C59.3061 22.4777 59.3061 22.2416 59.1881 22.122C59.0756 22.008 58.856 21.9997 58.427 21.9835C58.4051 21.9827 58.3825 21.9818 58.3594 21.981C57.9043 21.9689 57.7647 22.0899 57.7647 22.562C57.7829 24.899 57.7807 27.2361 57.7784 29.5758V29.5766C57.7776 30.3569 57.7769 31.1374 57.7769 31.9184C57.7769 32.4495 57.7769 32.7112 57.9077 32.8417C58.0349 32.9685 58.2856 32.9714 58.7797 32.9771L58.8146 32.9775C59.2029 32.9896 59.3182 32.8746 59.3061 32.4873C59.298 31.3768 59.3007 30.2718 59.3034 29.1703C59.3047 28.6209 59.3061 28.0724 59.3061 27.5246ZM69.4764 41.88V37.3168C69.4764 36.833 69.4764 36.597 69.3584 36.4774C69.246 36.3634 69.0263 36.3551 68.5974 36.3389C68.5754 36.3381 68.5529 36.3372 68.5298 36.3363C68.0929 36.3242 67.9715 36.4453 67.9715 36.8931C67.9897 39.2564 67.9875 41.6164 67.9852 43.9831V43.9853L67.9852 44.0066C67.9844 44.7897 67.9837 45.5735 67.9837 46.3585C67.9837 46.8402 67.9837 47.0763 68.1017 47.1964C68.2151 47.3118 68.4376 47.3201 68.874 47.3363C68.8962 47.3372 68.9191 47.338 68.9424 47.3389C69.3915 47.351 69.5007 47.2179 69.4886 46.7821C69.4704 45.5511 69.4727 44.3201 69.4749 43.0968V43.0943C69.4757 42.6886 69.4764 42.2837 69.4764 41.88ZM97.1235 102.697C99.6843 102.328 102.039 101.45 104.205 99.9673C104.047 99.7737 103.914 99.6102 103.75 99.4347C102.64 98.1361 101.53 96.8384 100.419 95.5407C97.6425 92.2968 94.8661 89.0528 92.1051 85.7935C91.6318 85.2367 91.1767 84.8373 90.3939 84.9462C90.207 84.9674 90.0143 84.9323 89.8197 84.8968C89.7362 84.8816 89.6524 84.8663 89.5686 84.8554C87.3233 84.5528 85.9155 83.2516 85.8366 81.2666C85.8002 80.5767 85.5089 80.1409 85.1206 79.6628C84.8536 79.342 84.7019 79.3541 84.3863 79.6083C83.3486 80.4738 82.2078 81.3089 80.8485 81.3332C79.7441 81.3574 79.2283 81.9142 78.7064 82.6585C78.6943 82.6767 78.6837 82.6903 78.673 82.704C78.6624 82.7176 78.6518 82.7312 78.6397 82.7493L78.5647 82.8438C75.865 86.244 73.1599 89.651 69.865 92.5173C69.5579 92.7859 69.71 92.8924 69.8967 93.023C69.9202 93.0395 69.9444 93.0564 69.9682 93.0741C74.4526 96.3906 79.2768 99.1079 84.538 100.99C88.6037 102.455 92.7665 103.308 97.1235 102.697ZM31.2589 97.256C34.4811 99.4105 38.0553 100.33 42.1878 100.355C42.6657 100.384 43.3232 100.321 44.0164 100.253C44.1683 100.238 44.3218 100.224 44.4755 100.209C45.0884 100.155 45.6952 100.064 46.296 99.9552C52.3339 98.8719 57.7407 96.2695 62.8441 92.9712C63.1657 92.7594 63.0686 92.6565 62.8441 92.4689C62.7643 92.4017 62.6846 92.335 62.6051 92.2684C62.1396 91.8786 61.68 91.4938 61.2602 91.0648C58.5842 88.3353 56.1387 85.382 53.8024 82.3559C53.3473 81.7568 52.9104 81.2303 52.0608 81.3997C51.9787 81.4107 51.8916 81.3871 51.8085 81.3646C51.7995 81.3622 51.7906 81.3597 51.7817 81.3574C50.4224 81.1153 49.3058 80.4132 48.256 79.5539C48.2346 79.5339 48.212 79.5047 48.188 79.4737C48.1031 79.3642 48.0001 79.2314 47.8677 79.3965C47.7778 79.5037 47.6795 79.6049 47.5812 79.7059C47.2412 80.0555 46.9022 80.4041 46.921 81.0003C46.9756 82.6343 46.12 83.7298 44.6879 84.4076C43.8201 84.8312 42.8674 84.9523 41.9208 84.9523C41.4717 84.9523 41.2047 85.1157 40.9377 85.4304C37.7702 89.0754 34.5737 92.7146 31.3822 96.348L31.18 96.5782C30.9009 96.8989 30.9009 97.0139 31.2589 97.256ZM74.3798 76.9031C74.1613 75.965 74.1613 75.027 74.2706 74.0828C74.3009 73.8408 74.313 73.641 74.0157 73.4655C71.6491 72.1522 69.2885 70.8148 66.9341 69.4773C66.752 69.3744 66.6064 69.3502 66.4183 69.4531C65.859 69.7402 65.299 70.0265 64.7387 70.313C62.6298 71.3912 60.5167 72.4715 58.4264 73.6047C58.2383 73.7197 58.1837 73.8045 58.2383 74.0405C58.7419 76.0558 58.3172 77.8593 57.0003 79.451C56.7212 79.7959 56.6787 80.0864 56.9579 80.4314C57.0033 80.4937 57.0421 80.5613 57.0811 80.6292C57.1254 80.7065 57.17 80.7842 57.2249 80.855C59.7614 84.456 63.0079 87.3731 66.3272 90.2115C66.5335 90.387 66.6731 90.3204 66.8491 90.1751C70.5022 87.2218 73.506 83.7116 75.8058 79.6265C75.9515 79.3723 75.909 79.2634 75.6966 79.0939C74.9745 78.5371 74.58 77.7746 74.3798 76.9031ZM85.1691 64.672C85.9701 62.9592 86.6619 61.2102 87.0199 59.2372C84.5567 60.5725 82.1926 61.9482 79.8189 63.3295C79.4384 63.551 79.0576 63.7725 78.6761 63.9941C79.3375 64.442 79.9868 64.6538 80.6543 64.0728C81.0245 63.746 81.3158 63.867 81.6374 64.1817C82.2624 64.7567 82.8874 65.3377 83.4032 66.0276C83.8098 66.5662 84.2649 66.4997 84.5562 65.9187C84.7686 65.5071 84.9688 65.0956 85.1691 64.672ZM48.6285 59.8419C48.2692 59.6413 47.9084 59.4399 47.546 59.2372C47.5595 59.3142 47.5706 59.3829 47.5806 59.4452C47.607 59.608 47.6262 59.7269 47.6613 59.8364C48.1407 61.9909 48.9903 63.9941 50.0037 65.9308C50.3071 66.4997 50.4102 66.536 50.9442 66.1668C51.0595 66.0881 51.1688 65.9731 51.2598 65.8642C51.6405 65.3532 52.1013 64.9258 52.5661 64.4947C52.7014 64.3692 52.837 64.2434 52.971 64.1152C53.2805 63.8126 53.5536 63.7823 53.8752 64.0486C54.5306 64.5933 55.1677 64.4843 55.817 63.982C53.4817 62.5508 51.0909 61.2163 48.6285 59.8419ZM78.359 74.848C77.9359 74.6694 77.5118 74.4903 77.0923 74.3068C76.9466 74.2765 76.892 74.3612 76.8617 74.4702C76.5037 75.6866 76.8617 77.2965 78.0875 77.8896C78.3545 78.0227 78.5001 78.0045 78.6336 77.702C78.937 76.9999 79.1494 76.2737 79.2586 75.5293C79.2616 75.5158 79.2653 75.5016 79.269 75.487C79.2958 75.3829 79.3287 75.2548 79.1798 75.1964C78.9075 75.0797 78.6335 74.964 78.359 74.848ZM56.078 76.4552C56.2661 75.735 56.2115 75.0209 56.0234 74.2523C55.8497 74.3257 55.6796 74.3976 55.512 74.4683C54.9475 74.7067 54.4119 74.9328 53.8691 75.1662C53.7235 75.2267 53.6143 75.2811 53.6567 75.4809C53.6972 75.6409 53.7345 75.802 53.772 75.9634C53.9085 76.5527 54.0458 77.1448 54.3364 77.6959C54.4699 77.9622 54.6398 78.0409 54.9068 77.8714C55.4651 77.5325 55.9081 77.1149 56.078 76.4552ZM82.3202 77.1209C82.0482 76.8888 81.7717 76.6528 81.4796 76.4129C81.3667 76.643 81.2617 76.8603 81.1599 77.071C81.0099 77.3813 80.8668 77.6776 80.715 77.9803C80.7071 77.9995 80.6957 78.0211 80.6837 78.0437C80.6312 78.1428 80.5686 78.261 80.7514 78.2708C80.8489 78.2749 80.9467 78.2804 81.0447 78.2859C81.6842 78.3219 82.3284 78.3582 82.9178 77.9803C83.0998 77.8714 83.0998 77.7806 82.9421 77.6475C82.7341 77.4742 82.5285 77.2987 82.3202 77.1209ZM51.7695 77.0134C51.675 76.8121 51.5779 76.6055 51.4783 76.3887C51.0744 76.7416 50.6991 77.0603 50.325 77.3781C50.1538 77.5235 49.9828 77.6687 49.8095 77.8169C50.4497 78.3526 51.1674 78.3223 51.8717 78.2925C51.9552 78.289 52.0385 78.2855 52.1215 78.2829C52.3448 78.2709 52.2799 78.1271 52.2255 78.0064L52.2246 78.0045C52.0801 77.6745 51.9284 77.3516 51.7695 77.0134ZM60.6695 119.439C60.6675 119.744 60.6656 120.05 60.6656 120.357C60.6485 120.357 60.6296 120.36 60.6076 120.365C60.5905 120.368 60.5716 120.372 60.5503 120.375C60.5002 120.302 60.4501 120.219 60.4 120.136C60.3833 120.109 60.3667 120.081 60.35 120.054C60.0528 119.537 59.7571 119.024 59.4615 118.511C59.1655 117.998 58.8695 117.485 58.572 116.967C58.352 116.586 58.0303 116.64 57.7226 116.692C57.6399 116.706 57.5582 116.72 57.4797 116.725C57.2392 116.735 57.2737 116.944 57.3037 117.127C57.313 117.183 57.322 117.238 57.322 117.282C57.3098 118.072 57.3098 118.86 57.3098 119.648C57.3098 120.437 57.3098 121.225 57.2977 122.015C57.2916 122.426 57.3887 122.547 57.8135 122.547C58.2504 122.547 58.3718 122.426 58.3596 121.991C58.3336 121.273 58.3386 120.552 58.3435 119.832C58.3455 119.545 58.3475 119.257 58.3475 118.971C58.5174 119.037 58.572 119.122 58.6266 119.213C58.7803 119.474 58.9344 119.734 59.0883 119.994C59.5298 120.738 59.9695 121.48 60.3925 122.239C60.6046 122.625 60.9114 122.578 61.2036 122.533C61.2959 122.519 61.3867 122.505 61.4726 122.505C61.7694 122.505 61.7295 122.289 61.6942 122.099C61.6833 122.04 61.6729 121.983 61.6729 121.936C61.685 121.134 61.685 120.335 61.685 119.538C61.685 118.741 61.685 117.945 61.6972 117.149C61.7093 116.707 61.5212 116.683 61.1753 116.683L61.1726 116.683C60.8405 116.695 60.6413 116.702 60.6534 117.149C60.6794 117.914 60.6745 118.676 60.6695 119.439ZM45.5508 121.75C45.169 121.086 44.8052 120.453 44.1903 119.975C44.2874 119.933 44.342 119.897 44.4148 119.842C45.2765 119.521 45.677 118.886 45.5557 118.051C45.4222 117.173 44.9064 116.731 43.9354 116.695C43.5167 116.683 43.098 116.683 42.6793 116.683C42.2606 116.683 41.8419 116.683 41.4232 116.671C41.144 116.671 41.0348 116.75 41.0348 117.052C41.047 118.765 41.047 120.465 41.0348 122.172C41.0348 122.574 41.2529 122.544 41.4624 122.516C41.5367 122.506 41.61 122.496 41.672 122.505L41.6955 122.508C41.938 122.538 42.1988 122.57 42.1635 122.148C42.1375 121.806 42.1425 121.458 42.1474 121.112C42.1494 120.975 42.1514 120.838 42.1514 120.702C42.1514 120.042 42.4366 119.872 43.0313 120.187C43.2437 120.296 43.365 120.478 43.4864 120.665C43.6532 120.922 43.8185 121.181 43.9839 121.44C44.1493 121.698 44.3147 121.957 44.4816 122.215C44.4883 122.225 44.4949 122.235 44.5015 122.245C44.5964 122.392 44.6851 122.528 44.9064 122.517C45.1134 122.509 45.3255 122.512 45.5701 122.514C45.7055 122.516 45.8508 122.517 46.0108 122.517C45.8448 122.261 45.6965 122.003 45.5508 121.75ZM43.3176 119.156C43.2161 119.162 43.1146 119.168 43.0131 119.176C42.0543 119.176 42.0421 119.152 42.1392 118.002C42.1574 117.76 42.2363 117.669 42.473 117.682C42.6854 117.688 42.9008 117.691 43.1162 117.694C43.3316 117.697 43.5471 117.7 43.7595 117.706C44.1721 117.718 44.3723 117.96 44.3966 118.341C44.4209 118.729 44.2874 119.043 43.8505 119.11C43.6729 119.137 43.4952 119.147 43.3176 119.156ZM90.7767 121.692C90.4226 121.07 90.0669 120.444 89.4411 119.975C89.5686 119.921 89.6353 119.884 89.6899 119.848C90.5577 119.527 90.9157 118.904 90.7822 117.978C90.673 117.21 90.1511 116.743 89.2773 116.707C88.7952 116.687 88.3093 116.686 87.8227 116.684C87.4336 116.683 87.0441 116.682 86.6558 116.671C86.3888 116.671 86.3099 116.75 86.3099 117.016C86.3221 118.747 86.3221 120.472 86.3099 122.196C86.3099 122.594 86.5273 122.559 86.7227 122.527C86.7649 122.52 86.8062 122.513 86.8439 122.511C86.8929 122.51 86.9493 122.518 87.0075 122.527C87.2158 122.558 87.4455 122.593 87.4265 122.19C87.4184 121.86 87.4211 121.526 87.4238 121.192C87.4251 121.025 87.4265 120.857 87.4265 120.689C87.4265 120.054 87.6814 119.909 88.2639 120.187C88.4763 120.284 88.6098 120.465 88.7312 120.653C88.7922 120.747 88.853 120.839 88.9133 120.931C89.0988 121.214 89.2808 121.491 89.4594 121.779C89.9994 122.614 90.2118 122.693 91.2252 122.438C91.064 122.197 90.9205 121.945 90.7767 121.692ZM87.552 117.789C87.6717 117.674 87.9114 117.685 88.3913 117.706C88.4752 117.706 88.5609 117.704 88.6477 117.702C88.7809 117.699 88.9169 117.696 89.0528 117.7C89.4229 117.724 89.6232 117.936 89.6657 118.293C89.7081 118.65 89.605 118.965 89.2166 119.074C88.8397 119.187 88.4534 119.178 88.0666 119.168C87.9178 119.165 87.769 119.161 87.6207 119.164C87.475 119.164 87.4326 119.074 87.4326 118.952V118.62C87.4326 118.142 87.4326 117.903 87.552 117.789ZM34.8458 119.429C34.842 119.506 34.838 119.585 34.8331 119.667C34.8345 119.706 34.8357 119.749 34.8368 119.794C34.8406 119.938 34.845 120.109 34.8634 120.284C35.0151 121.615 35.98 122.553 37.2725 122.62C38.7107 122.687 39.7484 121.948 40.0639 120.593C40.2095 119.969 40.2095 119.334 40.0882 118.71C39.8454 117.452 38.8927 116.635 37.6548 116.592C36.2166 116.55 35.2882 117.228 34.9423 118.565C34.8746 118.85 34.8609 119.126 34.8458 119.429ZM38.9838 119.031C39.008 119.225 39.008 119.412 39.008 119.467C39.008 119.921 38.9838 120.254 38.8867 120.58C38.6803 121.216 38.1524 121.603 37.5274 121.615C36.8902 121.627 36.3198 121.204 36.1195 120.556C35.9496 120.024 35.9314 119.467 36.0528 118.91C36.2409 117.984 36.7628 117.554 37.6245 117.597C38.3709 117.639 38.8745 118.16 38.9838 119.031ZM46.6009 118.974C46.6002 119.188 46.5994 119.403 46.5994 119.618C46.5994 119.804 46.6 119.99 46.6006 120.175C46.6027 120.824 46.6048 121.473 46.5812 122.118C46.569 122.426 46.6601 122.541 46.9817 122.529C47.3458 122.509 47.7117 122.511 48.0775 122.513C48.3822 122.515 48.6869 122.516 48.9903 122.505C49.943 122.487 50.6105 122.027 50.9564 121.137C51.3083 120.236 51.3083 119.322 51.0656 118.408C50.7683 117.246 50.119 116.744 48.9235 116.701C48.5989 116.689 48.2727 116.689 47.9465 116.689C47.6204 116.689 47.2942 116.689 46.9696 116.677C46.6783 116.671 46.5751 116.768 46.5873 117.058C46.6054 117.698 46.6032 118.334 46.6009 118.974ZM47.7038 120.496V119.552V117.996C47.7038 117.988 47.7038 117.98 47.7037 117.972C47.7032 117.827 47.7027 117.715 47.9041 117.663C49.1541 117.331 50.0097 117.954 50.0462 119.243C50.0583 119.667 50.0704 120.102 49.9915 120.514C49.8702 121.24 49.5425 121.482 48.8082 121.519C48.2513 121.546 47.9752 121.56 47.8383 121.428C47.7038 121.299 47.7038 121.03 47.7038 120.496ZM52.1716 118.974C52.1708 119.183 52.17 119.391 52.17 119.6C52.17 119.809 52.1708 120.017 52.1715 120.226C52.1738 120.853 52.1761 121.483 52.1579 122.124C52.1579 122.402 52.1943 122.559 52.5402 122.547C53.6992 122.523 54.8461 122.523 55.9991 122.547C56.3863 122.547 56.3843 122.356 56.3818 122.117C56.3816 122.097 56.3814 122.077 56.3814 122.057C56.3814 122.037 56.3816 122.017 56.3817 121.997C56.3841 121.736 56.3862 121.503 55.9687 121.537C55.6206 121.571 55.2695 121.563 54.9175 121.555C54.7664 121.552 54.6151 121.549 54.4638 121.549C53.8484 121.549 53.5435 121.549 53.3955 121.396C53.2471 121.244 53.2562 120.938 53.2684 120.326C53.2805 120.036 53.3594 119.945 53.6507 119.957C53.9277 119.962 54.2047 119.959 54.4809 119.956C54.8945 119.952 55.3064 119.947 55.7139 119.969C56.0794 119.984 56.071 119.802 56.0618 119.604C56.0597 119.558 56.0575 119.512 56.0598 119.467C56.0598 119.436 56.0607 119.405 56.0616 119.375C56.0685 119.148 56.0747 118.943 55.6896 118.965C55.34 118.984 54.9885 118.979 54.6372 118.974C54.3362 118.97 54.0353 118.966 53.7356 118.977C53.3897 118.983 53.2016 118.916 53.2684 118.529C53.2927 118.408 53.2927 118.263 53.2684 118.142C53.2259 117.797 53.3351 117.663 53.7174 117.676C54.0535 117.687 54.3884 117.682 54.7231 117.678C55.1135 117.673 55.5038 117.668 55.8959 117.688C56.2849 117.699 56.2821 117.492 56.2788 117.252C56.2785 117.23 56.2782 117.208 56.2782 117.185C56.2782 117.158 56.2788 117.131 56.2794 117.105C56.2844 116.875 56.2888 116.672 55.9081 116.683C54.7915 116.707 53.675 116.707 52.5584 116.683C52.2368 116.683 52.1458 116.78 52.1579 117.095C52.1761 117.721 52.1738 118.347 52.1716 118.974ZM95.4972 116.986C94.8358 118.807 94.1683 120.623 93.4644 122.529C93.5459 122.529 93.6217 122.527 93.6937 122.526C93.8793 122.521 94.0403 122.517 94.2108 122.547C94.5385 122.596 94.6962 122.469 94.8055 122.148C95.1111 121.21 95.1267 121.21 96.0852 121.21H96.1223H96.4014C96.8565 121.21 97.0826 121.21 97.235 121.316C97.3875 121.422 97.4664 121.634 97.6272 122.057C97.6421 122.099 97.6522 122.146 97.6624 122.194C97.698 122.36 97.7355 122.535 97.9852 122.535H98.9986C98.7902 121.98 98.5838 121.433 98.3795 120.891C97.8819 119.572 97.3965 118.285 96.9233 116.998C96.8012 116.667 96.5731 116.688 96.3496 116.709C96.2952 116.714 96.2412 116.719 96.189 116.719C96.1477 116.717 96.1055 116.713 96.063 116.708C95.8436 116.685 95.6193 116.661 95.4972 116.986ZM95.8686 118.934C95.949 118.673 96.0311 118.407 96.2072 118.142C96.4317 118.753 96.6259 119.322 96.8201 119.891C96.9051 120.121 96.8383 120.187 96.5835 120.211C95.985 120.257 95.6876 120.283 95.5894 120.155C95.4924 120.029 95.5895 119.754 95.7824 119.201C95.8135 119.112 95.8409 119.023 95.8686 118.934ZM76.7235 120.67C76.498 121.285 76.2709 121.904 76.0425 122.529C76.1584 122.529 76.2669 122.528 76.371 122.526C76.5666 122.524 76.7462 122.521 76.9284 122.529C77.153 122.541 77.2379 122.463 77.3289 122.251C77.7416 121.192 77.7537 121.192 78.8946 121.192C78.9395 121.192 78.9845 121.194 79.029 121.197C79.1166 121.203 79.2024 121.208 79.2829 121.192C79.7502 121.101 79.9626 121.313 80.0961 121.761C80.3447 122.599 80.3797 122.596 81.1929 122.534L81.2551 122.529C81.4675 122.505 81.5585 122.481 81.4675 122.239C81.3671 121.974 81.2667 121.709 81.1664 121.445C80.5994 119.949 80.033 118.456 79.471 116.949C79.3625 116.642 79.142 116.669 78.9231 116.696C78.8361 116.707 78.7494 116.718 78.67 116.707C78.6584 116.706 78.6467 116.705 78.6351 116.704C78.4104 116.68 78.1907 116.656 78.0753 116.961C77.6323 118.194 77.1811 119.423 76.7235 120.67ZM78.4636 120.208C78.3266 120.21 78.1841 120.211 78.0329 120.211C78.2756 119.485 78.5001 118.831 78.7671 118.063C78.9057 118.447 79.0292 118.794 79.146 119.122C79.2389 119.383 79.3277 119.632 79.4164 119.878C79.4953 120.078 79.4953 120.223 79.204 120.211C78.962 120.203 78.7225 120.206 78.4636 120.208ZM72.0414 118.902C72.0394 119.141 72.0374 119.38 72.0374 119.618C72.0374 119.871 72.0391 120.126 72.0407 120.381C72.0445 120.98 72.0484 121.584 72.0314 122.19C72.0119 122.593 72.2298 122.564 72.4389 122.537C72.491 122.53 72.5425 122.523 72.5897 122.523C72.6377 122.523 72.6913 122.531 72.7458 122.538C72.9599 122.568 73.1891 122.6 73.1601 122.19C73.1489 121.995 73.1532 121.797 73.1575 121.599C73.1625 121.367 73.1675 121.135 73.1479 120.907C73.1054 120.459 73.2147 120.272 73.7062 120.314C74.0764 120.357 74.4526 120.32 74.8228 120.278C75.7269 120.181 76.3034 119.412 76.2609 118.408C76.2124 117.391 75.6359 116.762 74.6953 116.725C74.3221 116.707 73.9505 116.707 73.5788 116.707C73.2071 116.707 72.8354 116.707 72.4622 116.689C72.1345 116.677 72.0132 116.756 72.0253 117.113C72.0513 117.709 72.0464 118.306 72.0414 118.902ZM73.1672 118.828C73.1894 118.698 73.2111 118.572 73.154 118.486C73.1639 118.394 73.1576 118.298 73.1514 118.204C73.1313 117.899 73.1136 117.629 73.6759 117.676C74.7378 117.73 75.108 117.887 75.108 118.499C75.108 119.11 74.7378 119.297 73.6334 119.334C73.0774 119.35 73.1233 119.083 73.1672 118.828ZM65.4935 116.71C65.2767 116.602 64.9813 116.652 64.3672 116.756C64.481 116.946 64.5879 117.137 64.6939 117.327C64.8876 117.674 65.0782 118.014 65.3017 118.335C66.127 119.449 66.5396 120.665 66.3272 122.057C66.2483 122.523 66.5032 122.547 66.8612 122.535L66.8862 122.535C67.2444 122.536 67.5209 122.536 67.4438 122.033C67.2314 120.641 67.6683 119.425 68.4815 118.311C68.7299 117.974 68.939 117.603 69.1536 117.223C69.2431 117.064 69.3335 116.904 69.4281 116.743C68.2266 116.604 68.2266 116.604 67.7108 117.542C67.5724 117.801 67.428 118.058 67.2823 118.317C67.1724 118.513 67.0618 118.71 66.9523 118.91C66.9186 118.882 66.8915 118.864 66.8706 118.851C66.8426 118.833 66.8257 118.822 66.8188 118.801L66.0845 117.5C65.8276 117.046 65.6943 116.81 65.4935 116.71ZM82.8435 119.621C82.8442 119.788 82.845 119.954 82.845 120.121C82.845 120.317 82.8486 120.513 82.8522 120.709C82.861 121.181 82.8697 121.649 82.8268 122.112C82.801 122.543 83.0287 122.53 83.2689 122.516C83.3117 122.514 83.3549 122.511 83.3972 122.511C83.4408 122.511 83.4854 122.514 83.5294 122.517C83.7667 122.532 83.9881 122.546 83.9676 122.112C83.9416 121.312 83.9465 120.502 83.9515 119.695C83.9535 119.372 83.9555 119.05 83.9555 118.729C83.9555 118.201 83.9555 117.94 84.0863 117.81C84.2154 117.682 84.4718 117.682 84.981 117.682C85.0111 117.682 85.0419 117.68 85.0729 117.679C85.1356 117.676 85.1992 117.673 85.2601 117.682C85.6027 117.697 85.5856 117.487 85.5699 117.294C85.5667 117.254 85.5635 117.215 85.5635 117.179C85.5635 117.141 85.5675 117.1 85.5715 117.059C85.5895 116.872 85.6083 116.679 85.2601 116.689C84.0161 116.701 82.7661 116.701 81.5282 116.689C81.249 116.689 81.2065 116.792 81.1823 117.046C81.1398 117.524 81.2733 117.772 81.8073 117.682C81.9152 117.662 82.0266 117.667 82.1377 117.672C82.2329 117.676 82.3278 117.681 82.4202 117.669C82.7782 117.627 82.8692 117.784 82.8571 118.117C82.8389 118.617 82.8412 119.12 82.8435 119.621ZM92.9299 120.382C92.9332 120.131 92.9364 119.881 92.9364 119.63C92.9364 119.415 92.9353 119.2 92.9342 118.986C92.9307 118.349 92.9274 117.72 92.9547 117.095C92.976 116.668 92.7436 116.688 92.5138 116.707C92.4825 116.709 92.4512 116.712 92.4206 116.713C92.3753 116.713 92.3283 116.71 92.2815 116.706C92.0463 116.689 91.8158 116.672 91.826 117.101C91.8502 118.777 91.8502 120.472 91.826 122.154C91.8166 122.569 92.0268 122.549 92.2404 122.529C92.3041 122.524 92.3681 122.518 92.4267 122.523C92.4559 122.525 92.4853 122.527 92.5144 122.529C92.7512 122.546 92.9702 122.562 92.9486 122.136C92.9146 121.551 92.9222 120.967 92.9299 120.382ZM51.787 29.0869C51.8059 29.2423 51.8242 29.3925 51.812 29.5158C51.812 29.6741 51.8171 29.8198 51.8219 29.9568C51.8299 30.1865 51.8371 30.3922 51.8181 30.5931C51.7695 30.9743 51.8727 31.1317 52.2853 31.0954C52.6883 31.0536 53.0958 31.0659 53.4922 31.0778C53.5554 31.0797 53.6184 31.0816 53.681 31.0833C54.2575 31.1075 54.7066 30.932 54.9068 30.351C55.1313 29.7155 54.9736 28.8259 54.5731 28.4809C54.2276 28.1872 53.8081 28.1887 53.3886 28.1902C53.3586 28.1903 53.3287 28.1904 53.2987 28.1904C53.1566 28.1904 53.0038 28.1718 52.8509 28.1532C52.4882 28.109 52.125 28.0647 51.903 28.2691C51.709 28.4465 51.7492 28.7769 51.787 29.0869ZM51.9625 23.9688C51.812 24.1184 51.812 24.4195 51.812 25.0191C51.812 25.1138 51.8143 25.2102 51.8166 25.3069C51.8218 25.5254 51.827 25.7456 51.8059 25.9512C51.7877 26.2296 51.8727 26.3566 52.1761 26.3324C52.5348 26.3164 52.8962 26.311 53.2549 26.3056C53.4363 26.3029 53.617 26.3002 53.7963 26.2961C54.1665 26.284 54.4213 26.0843 54.5791 25.7635C55.0828 24.7529 54.5366 23.8511 53.4201 23.8269H53.0317C52.4193 23.8208 52.1144 23.8178 51.9625 23.9688ZM36.7324 24.6833C36.756 24.8561 36.7792 25.0262 36.7506 25.1644C36.7506 25.6183 36.7506 25.9875 36.7385 26.3687C36.7385 26.5443 36.781 26.6471 36.9812 26.635C37.2026 26.6268 37.4233 26.6291 37.6438 26.6314C38.0699 26.6358 38.4952 26.6403 38.9231 26.5685C39.3054 26.5019 39.5178 26.2901 39.6513 25.9572C40.1428 24.7408 39.5481 23.8753 38.2434 23.8632C38.1103 23.8598 37.9683 23.8435 37.826 23.8273C37.4688 23.7865 37.1098 23.7455 36.8841 23.9056C36.6482 24.0676 36.6909 24.3796 36.7324 24.6833ZM76.718 24.7831C76.7269 24.9334 76.7357 25.0834 76.7282 25.2189L76.7464 25.2128C76.7464 25.341 76.7478 25.4672 76.7491 25.5923C76.7518 25.839 76.7544 26.0814 76.7464 26.3264C76.7464 26.5261 76.7889 26.6411 77.0255 26.629C77.2294 26.6229 77.4325 26.6189 77.6355 26.6149C78.0427 26.6068 78.4491 26.5988 78.8581 26.5745C79.38 26.5382 79.647 26.2053 79.7502 25.7272C79.8291 25.3823 79.8291 25.0252 79.7502 24.6802C79.6288 24.1779 79.3254 23.8693 78.7793 23.8572L78.7616 23.8562C78.5557 23.8444 78.361 23.8333 78.1664 23.8451C78.0175 23.853 77.8524 23.833 77.6882 23.8132C77.3506 23.7725 77.0171 23.7322 76.8374 23.9358C76.6785 24.1152 76.6983 24.4498 76.718 24.7831ZM102.278 26.3701C102.277 26.7285 102.275 27.0869 102.275 27.446C102.275 28.2509 102.275 29.0377 102.288 29.8426C102.288 31.1135 102.288 31.1135 103.55 31.0893C104.587 31.0651 104.982 30.7565 105.249 29.7518C105.546 28.6383 105.492 27.5005 105.437 26.3748C105.334 24.3655 104.697 23.7906 102.7 23.833H102.646C102.33 23.7906 102.275 23.9358 102.275 24.2142C102.284 24.9364 102.281 25.6533 102.278 26.3701ZM87.7663 29.8971C88.1061 29.1164 88.1607 28.2812 88.1486 27.446C88.1486 26.6108 88.1122 25.7757 87.7724 24.9889C87.4629 24.2748 87.0078 23.718 86.1339 23.7059C85.2359 23.6998 84.714 24.2324 84.4348 24.9889C83.8341 26.629 83.8462 28.2993 84.447 29.9334C84.7261 30.6778 85.2419 31.2467 86.1461 31.2225C87.0199 31.1983 87.4629 30.6112 87.7663 29.8971ZM30.9519 25.8915C30.8605 25.5264 30.769 25.1611 30.6763 24.7952C30.6339 24.7952 30.5975 24.7952 30.555 24.7771C30.3473 25.6298 30.1369 26.4771 29.9238 27.3354C29.8193 27.7563 29.7142 28.1799 29.6083 28.608C29.7579 28.608 29.9044 28.6072 30.0484 28.6064C30.4711 28.6042 30.8727 28.602 31.271 28.6201C31.6048 28.6383 31.6291 28.5293 31.5502 28.2388C31.3433 27.4549 31.1477 26.6737 30.9519 25.8915ZM46.6419 28.2933C46.3324 27.1253 46.0411 25.9633 45.7498 24.7952C45.7195 24.7952 45.671 24.7952 45.6224 24.8073C45.5089 25.2737 45.392 25.7333 45.2742 26.1963C45.2346 26.3521 45.1949 26.5083 45.1551 26.6653C45.1034 26.882 45.0524 27.1001 45.0009 27.3203C44.9013 27.7459 44.7999 28.1794 44.6879 28.6262C44.8914 28.6262 45.09 28.6248 45.2854 28.6234C45.6669 28.6207 46.036 28.6181 46.4052 28.6262C46.6965 28.6383 46.6965 28.5293 46.6419 28.2933Z" fill="white"/>
</svg>
