<svg width="48" height="48" viewBox="0 0 48 48" fill="none" xmlns="http://www.w3.org/2000/svg">
<rect width="48" height="48" rx="15" fill="url(#paint0_linear_6248_64899)"/>
<path fill-rule="evenodd" clip-rule="evenodd" d="M17.25 31L17.2502 30.9858C17.1264 30.9952 17.0013 31 16.875 31C14.1826 31 12 28.8174 12 26.125C12 24.0883 13.249 22.3433 15.0229 21.6141C15.0074 21.4949 15 21.3733 15 21.25C15 19.5931 16.3431 18.25 18 18.25C18.6276 18.25 19.2102 18.4427 19.6918 18.7722C20.7572 17.1052 22.6245 16 24.75 16C28.0637 16 30.75 18.6863 30.75 22C30.75 22.0853 30.7482 22.1702 30.7447 22.2546C32.4951 22.8703 33.75 24.5386 33.75 26.5C33.75 28.9853 33.9853 31 31.5 31C29.0147 31 17.25 31 17.25 31Z" fill="#4C80FF"/>
<path d="M24.75 28C28.0637 28 30.75 25.3137 30.75 22C30.75 18.6863 28.0637 16 24.75 16C21.4363 16 18.75 18.6863 18.75 22C18.75 25.3137 21.4363 28 24.75 28Z" fill="#55B7FF"/>
<path d="M31.5 31C33.9853 31 36 28.9853 36 26.5C36 24.0147 33.9853 22 31.5 22C29.0147 22 27 24.0147 27 26.5C27 28.9853 29.0147 31 31.5 31Z" fill="#4C80FF"/>
<path d="M18 24.25C19.6569 24.25 21 22.9069 21 21.25C21 19.5931 19.6569 18.25 18 18.25C16.3431 18.25 15 19.5931 15 21.25C15 22.9069 16.3431 24.25 18 24.25Z" fill="#555AFF"/>
<defs>
<linearGradient id="paint0_linear_6248_64899" x1="72" y1="24" x2="24" y2="-24" gradientUnits="userSpaceOnUse">
<stop stop-color="#EDF3F7"/>
<stop offset="1" stop-color="white"/>
</linearGradient>
</defs>
</svg>
