<svg width="48" height="48" viewBox="0 0 48 48" fill="none" xmlns="http://www.w3.org/2000/svg">
<g id="collaborative editing">
<g id="box">
<rect id="background_2" width="48" height="48" rx="15" fill="url(#paint0_linear_6248_64855)"/>
<g id="collaboration_2">
<path id="Fill-1" d="M29.9536 19.5261V19.4738C29.9536 17.7279 29.1906 16.1705 27.9937 15.0783C26.9284 14.1074 25.5235 13.5 23.969 13.5C22.4145 13.5 21.0111 14.1074 19.9458 15.0783C18.7489 16.1705 17.9844 17.7279 17.9844 19.4738V19.5261C18.0023 21.2092 19.5329 22.608 21.2101 22.4375C21.5602 22.4016 21.9103 22.3148 22.2514 22.1742C23.3137 21.7358 24.542 21.7014 25.6881 22.1742C26.0277 22.3148 26.3793 22.4016 26.7279 22.4375C28.4051 22.608 29.9372 21.2092 29.9536 19.5261Z" fill="#3DD8B4"/>
<path id="Fill-4" d="M21.9239 28.5582C21.0008 27.8775 20.335 26.8452 20.1495 25.6229C20.0941 25.2579 19.9879 24.9138 19.8383 24.5981C19.1186 23.0751 17.1272 22.4887 15.6745 23.3444C15.6595 23.3534 15.6445 23.3609 15.6296 23.3713C14.1304 24.2735 13.1894 25.7291 12.8707 27.3164C12.5879 28.7272 12.7914 30.2412 13.5948 31.5697C14.3982 32.8997 15.6445 33.7854 17.027 34.1938C18.583 34.6531 20.3126 34.502 21.8102 33.5999C21.8267 33.5909 21.8401 33.5819 21.8551 33.573C23.2899 32.6888 23.6999 30.6571 22.687 29.3122C22.476 29.0324 22.2217 28.7766 21.9239 28.5582Z" fill="#FF7C70"/>
<path id="Fill-7" d="M35.0718 27.3091C34.7532 25.7218 33.8121 24.2646 32.3129 23.3625C32.298 23.3535 32.2845 23.346 32.268 23.3356C30.8153 22.4813 28.8239 23.0678 28.1042 24.5908C27.9546 24.9064 27.8484 25.2505 27.793 25.6156C27.6075 26.8379 26.9417 27.8701 26.0186 28.5508C25.7209 28.7708 25.4665 29.0236 25.2555 29.3034C24.2427 30.6498 24.6526 32.6815 26.0874 33.5656C26.1024 33.5746 26.1173 33.5836 26.1323 33.5926C27.63 34.4947 29.361 34.6458 30.917 34.1865C32.298 33.7781 33.5443 32.8909 34.3492 31.5624C35.1511 30.2339 35.3546 28.7199 35.0718 27.3091Z" fill="#FFCB0C"/>
</g>
</g>
</g>
<defs>
<linearGradient id="paint0_linear_6248_64855" x1="72" y1="24" x2="24" y2="-24" gradientUnits="userSpaceOnUse">
<stop stop-color="#EDF3F7"/>
<stop offset="1" stop-color="white"/>
</linearGradient>
</defs>
</svg>
