<svg width="48" height="48" viewBox="0 0 48 48" fill="none" xmlns="http://www.w3.org/2000/svg">
<rect width="48" height="48" rx="15" fill="url(#paint0_linear_7766_2267)"/>
<path d="M21.811 28.1776C20.8238 27.4464 20.1117 26.3375 19.9133 25.0245C19.8541 24.6323 19.7405 24.2627 19.5805 23.9236C18.8109 22.2876 16.6812 21.6576 15.1276 22.5769C15.1116 22.5865 15.0956 22.5945 15.0796 22.6058C13.4763 23.5749 12.4699 25.1386 12.1291 26.8437C11.8266 28.3592 12.0442 29.9856 12.9035 31.4127C13.7627 32.8414 15.0956 33.7928 16.574 34.2315C18.2381 34.7249 20.0877 34.5626 21.6894 33.5935C21.707 33.5838 21.7214 33.5742 21.7374 33.5646C23.2718 32.6148 23.7103 30.4323 22.627 28.9876C22.4014 28.687 22.1294 28.4122 21.811 28.1776Z" fill="white"/>
<path d="M35.8706 26.8344C35.5297 25.1293 34.5233 23.564 32.92 22.5949C32.904 22.5853 32.8896 22.5773 32.872 22.566C31.3184 21.6484 29.1887 22.2783 28.4191 23.9144C28.2591 24.2535 28.1455 24.6231 28.0863 25.0152C27.8879 26.3282 27.1758 27.4371 26.1886 28.1683C25.8702 28.4046 25.5982 28.6762 25.3726 28.9767C24.2893 30.4231 24.7278 32.6055 26.2622 33.5553C26.2782 33.565 26.2942 33.5746 26.3102 33.5842C27.9119 34.5533 29.7631 34.7156 31.4272 34.2223C32.904 33.7835 34.2369 32.8305 35.0977 31.4034C35.9554 29.9763 36.173 28.3499 35.8706 26.8344Z" fill="#FFDC22"/>
<path d="M30.3981 18.4734V18.4171C30.3981 16.5417 29.5821 14.8687 28.302 13.6955C27.1628 12.6525 25.6603 12 23.9979 12C22.3354 12 20.8346 12.6525 19.6953 13.6955C18.4153 14.8687 17.5977 16.5417 17.5977 18.4171V18.4734C17.6169 20.2814 19.2537 21.784 21.0474 21.6008C21.4218 21.5622 21.7962 21.469 22.161 21.3179C23.2971 20.8471 24.6107 20.8101 25.8364 21.3179C26.1996 21.469 26.5756 21.5622 26.9484 21.6008C28.7421 21.784 30.3805 20.2814 30.3981 18.4734Z" fill="white"/>
<defs>
<linearGradient id="paint0_linear_7766_2267" x1="24" y1="-6.29107" x2="24" y2="48" gradientUnits="userSpaceOnUse">
<stop stop-color="#FF76EC"/>
<stop offset="1" stop-color="#8A87E9"/>
</linearGradient>
</defs>
</svg>
