<svg width="48" height="48" viewBox="0 0 48 48" fill="none" xmlns="http://www.w3.org/2000/svg">
<rect width="48" height="48" rx="15" fill="url(#paint0_linear_6248_64773)"/>
<path d="M12 24.7864C12 24.3694 12.2588 23.9961 12.6494 23.8499L19.4545 21.3023L22.1031 17.9622C23.0861 16.7227 24.5814 16 26.1634 16H27.4091H31.1591C33.8327 16 36 18.1674 36 20.8409V21.3023V27.1603C36 27.6241 35.6241 28 35.1603 28C34.7359 28 34.3273 27.8393 34.0165 27.5502L33.5433 27.1101C32.3917 26.0388 30.6083 26.0388 29.4567 27.1101L29.0758 27.4644C28.7057 27.8086 28.219 28 27.7136 28H24H22.2864C21.781 28 21.2943 27.8086 20.9242 27.4644L20.5433 27.1101C19.3917 26.0388 17.6083 26.0388 16.4567 27.1101L16.0758 27.4644C15.7057 27.8086 15.219 28 14.7136 28H13C12.4477 28 12 27.5523 12 27V24.7864Z" fill="#FF6C4C"/>
<circle cx="18.5" cy="29.5" r="2.5" fill="#333333"/>
<circle cx="31.5" cy="29.5" r="2.5" fill="#333333"/>
<defs>
<linearGradient id="paint0_linear_6248_64773" x1="72" y1="24" x2="24" y2="-24" gradientUnits="userSpaceOnUse">
<stop stop-color="#EDF3F7"/>
<stop offset="1" stop-color="white"/>
</linearGradient>
</defs>
</svg>
