<svg width="32" height="32" viewBox="0 0 32 32" fill="none" xmlns="http://www.w3.org/2000/svg">
<rect width="32" height="32" rx="10" fill="url(#paint0_linear_4_1090)"/>
<path fill-rule="evenodd" clip-rule="evenodd" d="M7 11.6364C7 10.7326 7.73262 10 8.63636 10H19.3636C20.2674 10 21 10.7326 21 11.6364V20.3636C21 21.2674 20.2674 22 19.3636 22H8.63636C7.73263 22 7 21.2674 7 20.3636V11.6364ZM11 15C10.4477 15 10 15.4477 10 16C10 16.5523 10.4477 17 11 17C11.5523 17 12 16.5523 12 16C12 15.4477 11.5523 15 11 15ZM13 16C13 15.4477 13.4477 15 14 15C14.5523 15 15 15.4477 15 16C15 16.5523 14.5523 17 14 17C13.4477 17 13 16.5523 13 16ZM16 16C16 15.4477 16.4477 15 17 15C17.5523 15 18 15.4477 18 16C18 16.5523 17.5523 17 17 17C16.4477 17 16 16.5523 16 16ZM23.9117 20.2745L22 19V13L23.9117 11.7255C24.3769 11.4154 25 11.7489 25 12.308V19.692C25 20.2511 24.3769 20.5846 23.9117 20.2745Z" fill="white"/>
<defs>
<linearGradient id="paint0_linear_4_1090" x1="0" y1="0" x2="0" y2="32" gradientUnits="userSpaceOnUse">
<stop stop-color="#4ADCE5"/>
<stop offset="1" stop-color="#3DD8B4"/>
</linearGradient>
</defs>
</svg>
