<svg width="185" height="64" viewBox="0 0 185 64" fill="none" xmlns="http://www.w3.org/2000/svg">
<path d="M13.7413 19.3245C13.2208 19.3245 12.7263 19.2308 12.2579 19.0433C11.7894 18.829 11.373 18.521 11.0087 18.1193C10.6443 17.7175 10.358 17.222 10.1498 16.6328C9.94162 16.0167 9.83752 15.2936 9.83752 14.4633C9.83752 13.7133 10.0457 12.8295 10.4621 11.8117C10.9046 10.7671 11.4381 9.7761 12.0627 8.83867C12.6873 7.87445 13.3379 7.07094 14.0146 6.42812C14.7172 5.75853 15.3158 5.42373 15.8103 5.42373C16.1486 5.42373 16.4609 5.51747 16.7472 5.70496C17.0335 5.86566 17.2807 6.07993 17.4889 6.34777C17.6971 6.58883 17.8533 6.87006 17.9574 7.19146C18.0875 7.48609 18.1526 7.75392 18.1526 7.99498C18.1526 8.20925 18.1005 8.34317 17.9964 8.39674C17.8923 8.42352 17.7492 8.47709 17.567 8.55744C17.2807 8.63779 16.8643 8.98598 16.3178 9.60201C15.7973 10.218 15.2638 10.9144 14.7172 11.6911C15.55 11.9054 16.2397 12.3474 16.7862 13.0169C17.3588 13.6865 17.6451 14.4767 17.6451 15.3873C17.6451 15.9498 17.541 16.4721 17.3328 16.9542C17.1246 17.4095 16.8383 17.8246 16.4739 18.1996C16.1096 18.5478 15.6932 18.829 15.2247 19.0433C14.7563 19.2308 14.2618 19.3245 13.7413 19.3245ZM3.90378 19.3245C3.38327 19.3245 2.8888 19.2308 2.42034 19.0433C1.95189 18.829 1.53549 18.521 1.17113 18.1193C0.806781 17.7175 0.520504 17.222 0.312302 16.6328C0.104101 16.0167 0 15.2936 0 14.4633C0 13.7133 0.208201 12.8295 0.624604 11.8117C1.06703 10.7671 1.60055 9.7761 2.22515 8.83867C2.84976 7.87445 3.50039 7.07094 4.17704 6.42812C4.87972 5.75853 5.4783 5.42373 5.97278 5.42373C6.31111 5.42373 6.62341 5.51747 6.90969 5.70496C7.19596 5.86566 7.4432 6.07993 7.6514 6.34777C7.8596 6.58883 8.01576 6.87006 8.11986 7.19146C8.24998 7.48609 8.31505 7.75392 8.31505 7.99498C8.31505 8.20925 8.26299 8.34317 8.15889 8.39674C8.05479 8.42352 7.91165 8.47709 7.72948 8.55744C7.4432 8.63779 7.0268 8.98598 6.48027 9.60201C5.95977 10.218 5.42625 10.9144 4.87972 11.6911C5.71253 11.9054 6.41521 12.3474 6.98776 13.0169C7.56032 13.6865 7.84659 14.4767 7.84659 15.3873C7.84659 15.9498 7.72948 16.4721 7.49525 16.9542C7.28705 17.4095 7.00077 17.8246 6.63642 18.1996C6.27207 18.5478 5.85567 18.829 5.38721 19.0433C4.91876 19.2308 4.42428 19.3245 3.90378 19.3245Z" fill="white"/>
<path d="M52.1935 36.8814H64.6465V8.79849C64.6465 5.87905 65.0499 3.68278 65.8567 2.20967C66.6895 0.736556 67.6785 0 68.8236 0C69.3961 0 69.9297 0.174095 70.4241 0.522285C70.9446 0.870475 71.4001 1.28562 71.7905 1.76773C72.1808 2.22306 72.4801 2.70517 72.6883 3.21406C72.9226 3.69617 73.0397 4.08454 73.0397 4.37916C73.0397 4.67378 72.9226 4.84788 72.6883 4.90144C72.4801 4.92823 72.2329 5.07554 71.9466 5.34338C71.6864 5.58443 71.4391 6.07993 71.2049 6.82988C70.9967 7.57983 70.8926 8.81189 70.8926 10.5261V62.1117C70.8926 62.8081 70.6584 63.2902 70.1899 63.5581C69.7475 63.8527 69.227 64 68.6284 64C68.16 64 67.6915 63.933 67.223 63.7991C66.7546 63.6652 66.3252 63.4911 65.9348 63.2768C65.5704 63.0626 65.2581 62.8081 64.9979 62.5135C64.7637 62.2457 64.6465 61.951 64.6465 61.6296V42.6265H52.1935V62.1117C52.1935 62.8081 51.9593 63.2902 51.4908 63.5581C51.0484 63.8527 50.5279 64 49.9293 64C49.4609 64 48.9924 63.933 48.5239 63.7991C48.0555 63.6652 47.6261 63.4911 47.2357 63.2768C46.8713 63.0626 46.559 62.8081 46.2988 62.5135C46.0646 62.2457 45.9475 61.951 45.9475 61.6296V42.6265H40.2479C39.8315 42.6265 39.4412 42.4926 39.0768 42.2247C38.7385 41.9569 38.4392 41.6221 38.1789 41.2203C37.9447 40.7918 37.7495 40.3365 37.5934 39.8544C37.4632 39.3723 37.3982 38.9169 37.3982 38.4884C37.3982 38.0331 37.4893 37.6581 37.6714 37.3635C37.8797 37.0421 38.1789 36.8814 38.5693 36.8814H45.9475V10.285C43.4751 10.285 41.1979 10.7135 39.1158 11.5706C37.0599 12.4009 35.2771 13.6062 33.7677 15.1864C32.2842 16.7399 31.1131 18.6282 30.2543 20.8512C29.4215 23.0743 29.0051 25.5652 29.0051 28.3239C29.0051 30.0649 29.1742 31.6317 29.5126 33.0245C29.8509 34.4172 30.2543 35.6091 30.7227 36.6001C31.1912 37.5643 31.6596 38.3143 32.1281 38.85C32.5965 39.3856 32.9609 39.6535 33.2211 39.6535C33.4554 39.6535 33.6245 39.5865 33.7286 39.4526C33.8327 39.3187 33.9889 39.2517 34.1971 39.2517C34.4053 39.2517 34.5354 39.399 34.5875 39.6937C34.6395 39.9883 34.6655 40.2829 34.6655 40.5775C34.6655 41.4346 34.4964 42.2515 34.1581 43.0283C33.8197 43.7782 33.3903 44.3942 32.8698 44.8763C32.3753 45.3317 31.8158 45.6129 31.1912 45.72C30.5666 45.8272 29.968 45.6665 29.3954 45.2379C28.6928 44.729 27.938 44.0059 27.1313 43.0684C26.3505 42.1042 25.6218 40.9257 24.9451 39.533C24.2945 38.1402 23.748 36.5332 23.3055 34.7119C22.8891 32.8638 22.6809 30.8148 22.6809 28.565C22.6809 25.6455 23.0453 23.0207 23.774 20.6905C24.5287 18.3335 25.5307 16.2578 26.7799 14.4633C28.0551 12.642 29.5516 11.0885 31.2693 9.80289C32.9869 8.49048 34.8087 7.41913 36.7345 6.58883C38.6864 5.73174 40.7034 5.10232 42.7854 4.70057C44.8934 4.29881 46.9624 4.09793 48.9924 4.09793C49.4088 4.09793 49.8122 4.19167 50.2026 4.37916C50.593 4.53986 50.9313 4.78092 51.2176 5.10232C51.5038 5.39694 51.7381 5.75853 51.9202 6.18707C52.1024 6.61561 52.1935 7.07094 52.1935 7.55304V36.8814Z" fill="white"/>
<path d="M96.6966 37.7652C96.6966 39.2919 96.4363 40.8588 95.9158 42.4658C95.4213 44.0728 94.6666 45.5995 93.6516 47.0458C92.6627 48.4654 91.4265 49.751 89.943 50.9027C88.4856 52.0276 86.794 52.8847 84.8681 53.4739C85.1284 54.1703 85.4667 54.8399 85.8831 55.4827C86.3255 56.0988 86.846 56.6344 87.4446 57.0898C88.0432 57.5451 88.7329 57.9067 89.5136 58.1745C90.3204 58.4424 91.2443 58.5763 92.2853 58.5763C93.8468 58.5763 95.1871 58.2817 96.3062 57.6924C97.4253 57.0764 98.3622 56.2729 99.1169 55.2819C99.8977 54.2909 100.522 53.1793 100.991 51.9473C101.459 50.7152 101.811 49.4698 102.045 48.2109C102.227 47.3003 102.591 46.6976 103.138 46.403C103.71 46.0816 104.283 46.0013 104.855 46.162C105.454 46.3227 105.962 46.6709 106.378 47.2065C106.82 47.7154 107.003 48.3315 106.924 49.0546C106.82 49.8849 106.638 50.8357 106.378 51.9071C106.144 52.9785 105.779 54.0632 105.285 55.1613C104.79 56.2595 104.153 57.3442 103.372 58.4156C102.617 59.4601 101.68 60.3976 100.561 61.2279C99.4422 62.0582 98.1279 62.7278 96.6185 63.2367C95.109 63.7456 93.3783 64 91.4265 64C89.6047 64 87.835 63.625 86.1173 62.8751C84.4257 62.1519 82.9162 61.1073 81.5889 59.7414C80.2877 58.3486 79.2337 56.6478 78.4269 54.639C77.6461 52.6035 77.2558 50.3001 77.2558 47.7288C77.2558 45.1308 77.6071 42.7202 78.3098 40.4972C79.0125 38.2473 79.9363 36.3055 81.0815 34.6717C82.2266 33.0379 83.5278 31.7656 84.9852 30.855C86.4426 29.9176 87.9391 29.4488 89.4746 29.4488C90.5937 29.4488 91.5956 29.6497 92.4805 30.0515C93.3914 30.4532 94.1591 31.0291 94.7837 31.779C95.4083 32.5022 95.8768 33.3727 96.1891 34.3905C96.5274 35.4082 96.6966 36.5332 96.6966 37.7652ZM83.8141 47.4878C83.8141 47.7288 83.8271 47.9699 83.8531 48.2109C83.8792 48.452 83.8922 48.7064 83.8922 48.9743C84.8811 48.4922 85.779 47.8761 86.5858 47.1262C87.3926 46.3762 88.0822 45.5191 88.6548 44.5549C89.2273 43.5907 89.6698 42.5461 89.9821 41.4212C90.2944 40.2695 90.4505 39.0776 90.4505 37.8456C90.4505 36.9349 90.2944 36.2252 89.9821 35.7163C89.6958 35.2074 89.2924 34.9529 88.7719 34.9529C88.1213 34.9529 87.5357 35.1806 87.0152 35.6359C86.5207 36.0912 86.0783 36.6939 85.6879 37.4438C85.3236 38.167 85.0113 38.9973 84.751 39.9347C84.5168 40.8454 84.3216 41.7694 84.1654 42.7068C84.0093 43.6443 83.9052 44.5415 83.8531 45.3986C83.8011 46.2289 83.7881 46.9253 83.8141 47.4878Z" fill="white"/>
<path d="M108.096 37.3635C108.382 36.801 108.655 36.0511 108.915 35.1136C109.202 34.1494 109.462 33.0914 109.696 31.9397C109.956 30.788 110.191 29.5828 110.399 28.3239C110.607 27.0651 110.789 25.833 110.945 24.6277C111.101 23.4225 111.219 22.2976 111.297 21.253C111.401 20.1816 111.453 19.271 111.453 18.521C111.453 15.7891 111.258 13.7937 110.867 12.5348C110.477 11.2492 109.956 10.6064 109.306 10.6064C109.098 10.6064 108.915 10.7135 108.759 10.9278C108.603 11.1421 108.473 11.4233 108.369 11.7715C108.265 12.0929 108.187 12.4545 108.135 12.8562C108.109 13.2312 108.096 13.5794 108.096 13.9008V37.3635ZM119.456 49.7778C119.612 48.9743 119.846 48.3984 120.158 48.0502C120.497 47.6752 120.848 47.4744 121.212 47.4476C121.603 47.394 121.993 47.4878 122.383 47.7288C122.774 47.9431 123.112 48.2377 123.398 48.6127C123.685 48.9877 123.893 49.4162 124.023 49.8983C124.179 50.3536 124.205 50.809 124.101 51.2643C123.737 52.3624 123.216 53.648 122.54 55.1212C121.863 56.5943 121.004 57.987 119.963 59.2994C118.922 60.6118 117.699 61.7234 116.294 62.634C114.888 63.5447 113.275 64 111.453 64C109.917 64 108.564 63.7322 107.393 63.1965C106.222 62.6876 105.233 61.9644 104.426 61.027C103.645 60.0628 103.047 58.9245 102.63 57.6121C102.24 56.2729 102.045 54.7864 102.045 53.1525V15.7087C102.045 14.182 102.227 12.7759 102.591 11.4903C102.982 10.1779 103.502 9.06633 104.153 8.15568C104.829 7.21825 105.61 6.49508 106.495 5.98619C107.38 5.45051 108.317 5.18267 109.306 5.18267C110.477 5.18267 111.466 5.41034 112.273 5.86566C113.079 6.2942 113.743 6.87006 114.264 7.59322C114.784 8.31638 115.187 9.14668 115.474 10.0841C115.786 11.0216 116.007 11.9858 116.137 12.9768C116.267 13.941 116.346 14.9052 116.372 15.8694C116.398 16.8069 116.411 17.6639 116.411 18.4407C116.411 20.4495 116.228 22.5654 115.864 24.7885C115.5 26.9847 115.031 29.1542 114.459 31.2969C113.912 33.4396 113.301 35.502 112.624 37.484C111.973 39.4392 111.336 41.1802 110.711 42.7068C110.113 44.2335 109.566 45.479 109.072 46.4432C108.603 47.4074 108.278 47.9699 108.096 48.1306V52.9115C108.096 54.5721 108.434 55.9381 109.111 57.0094C109.787 58.054 110.867 58.5763 112.351 58.5763C113.262 58.5763 114.107 58.295 114.888 57.7326C115.695 57.1433 116.398 56.4202 116.996 55.5631C117.621 54.6792 118.141 53.7284 118.558 52.7106C118.974 51.666 119.273 50.6884 119.456 49.7778Z" fill="white"/>
<path d="M125.741 37.3635C126.027 36.801 126.3 36.0511 126.56 35.1136C126.847 34.1494 127.107 33.0914 127.341 31.9397C127.601 30.788 127.836 29.5828 128.044 28.3239C128.252 27.0651 128.434 25.833 128.59 24.6277C128.747 23.4225 128.864 22.2976 128.942 21.253C129.046 20.1816 129.098 19.271 129.098 18.521C129.098 15.7891 128.903 13.7937 128.512 12.5348C128.122 11.2492 127.601 10.6064 126.951 10.6064C126.743 10.6064 126.56 10.7135 126.404 10.9278C126.248 11.1421 126.118 11.4233 126.014 11.7715C125.91 12.0929 125.832 12.4545 125.78 12.8562C125.754 13.2312 125.741 13.5794 125.741 13.9008V37.3635ZM137.101 49.7778C137.257 48.9743 137.491 48.3984 137.803 48.0502C138.142 47.6752 138.493 47.4744 138.857 47.4476C139.248 47.394 139.638 47.4878 140.028 47.7288C140.419 47.9431 140.757 48.2377 141.043 48.6127C141.33 48.9877 141.538 49.4162 141.668 49.8983C141.824 50.3536 141.85 50.809 141.746 51.2643C141.382 52.3624 140.861 53.648 140.185 55.1212C139.508 56.5943 138.649 57.987 137.608 59.2994C136.567 60.6118 135.344 61.7234 133.939 62.634C132.533 63.5447 130.92 64 129.098 64C127.562 64 126.209 63.7322 125.038 63.1965C123.867 62.6876 122.878 61.9644 122.071 61.027C121.29 60.0628 120.692 58.9245 120.275 57.6121C119.885 56.2729 119.69 54.7864 119.69 53.1525V15.7087C119.69 14.182 119.872 12.7759 120.236 11.4903C120.627 10.1779 121.147 9.06633 121.798 8.15568C122.475 7.21825 123.255 6.49508 124.14 5.98619C125.025 5.45051 125.962 5.18267 126.951 5.18267C128.122 5.18267 129.111 5.41034 129.918 5.86566C130.724 6.2942 131.388 6.87006 131.909 7.59322C132.429 8.31638 132.833 9.14668 133.119 10.0841C133.431 11.0216 133.652 11.9858 133.782 12.9768C133.913 13.941 133.991 14.9052 134.017 15.8694C134.043 16.8069 134.056 17.6639 134.056 18.4407C134.056 20.4495 133.874 22.5654 133.509 24.7885C133.145 26.9847 132.676 29.1542 132.104 31.2969C131.557 33.4396 130.946 35.502 130.269 37.484C129.618 39.4392 128.981 41.1802 128.356 42.7068C127.758 44.2335 127.211 45.479 126.717 46.4432C126.248 47.4074 125.923 47.9699 125.741 48.1306V52.9115C125.741 54.5721 126.079 55.9381 126.756 57.0094C127.432 58.054 128.512 58.5763 129.996 58.5763C130.907 58.5763 131.752 58.295 132.533 57.7326C133.34 57.1433 134.043 56.4202 134.641 55.5631C135.266 54.6792 135.786 53.7284 136.203 52.7106C136.619 51.666 136.918 50.6884 137.101 49.7778Z" fill="white"/>
<path d="M166.574 48.1306C166.626 47.8092 166.795 47.5413 167.082 47.3271C167.394 47.1128 167.745 46.9655 168.136 46.8851C168.526 46.8048 168.929 46.8048 169.346 46.8851C169.788 46.9655 170.166 47.153 170.478 47.4476C170.816 47.7154 171.051 48.1038 171.181 48.6127C171.337 49.0948 171.324 49.7242 171.142 50.5009C170.907 51.6259 170.517 52.6838 169.97 53.6748C169.45 54.639 168.786 55.4961 167.98 56.2461C167.173 56.996 166.223 57.5853 165.13 58.0138C164.037 58.4424 162.814 58.6566 161.46 58.6566C160.732 58.6566 160.042 58.6164 159.391 58.5361C158.767 58.4557 158.155 58.3084 157.556 58.0942C156.567 59.8619 155.292 61.2814 153.731 62.3528C152.169 63.4509 150.243 64 147.953 64C145.923 64 144.18 63.5849 142.722 62.7546C141.265 61.951 140.055 60.8529 139.092 59.4601C138.129 58.0406 137.413 56.4068 136.945 54.5587C136.502 52.7106 136.281 50.7554 136.281 48.693C136.281 45.6665 136.619 42.9613 137.296 40.5775C137.999 38.167 138.805 36.1314 139.716 34.4708C140.627 32.7834 141.525 31.4978 142.41 30.6139C143.321 29.7301 143.997 29.2881 144.44 29.2881C144.96 29.2881 145.429 29.5292 145.845 30.0113C146.288 30.4666 146.6 31.0157 146.782 31.6585C146.99 32.2745 147.042 32.904 146.938 33.5468C146.86 34.1896 146.561 34.6851 146.04 35.0333C145.728 35.5422 145.351 36.1314 144.908 36.801C144.492 37.4706 144.088 38.3143 143.698 39.3321C143.334 40.3231 143.021 41.5417 142.761 42.9881C142.501 44.4344 142.371 46.1754 142.371 48.2109C142.371 49.9519 142.514 51.4652 142.8 52.7508C143.112 54.0364 143.529 55.1212 144.049 56.005C144.596 56.8621 145.207 57.5049 145.884 57.9335C146.587 58.362 147.329 58.5763 148.109 58.5763C149.254 58.5763 150.191 58.295 150.92 57.7326C151.675 57.1433 152.312 56.38 152.833 55.4426C150.959 53.782 149.528 51.6794 148.539 49.135C147.576 46.5637 147.094 43.7916 147.094 40.8186C147.094 39.533 147.224 38.3143 147.485 37.1626C147.771 35.9841 148.174 34.9529 148.695 34.0691C149.241 33.1852 149.918 32.4888 150.725 31.9799C151.532 31.4442 152.469 31.1764 153.536 31.1764C154.472 31.1764 155.357 31.5246 156.19 32.221C157.023 32.9173 157.752 33.8816 158.376 35.1136C159.001 36.3457 159.482 37.8054 159.821 39.4928C160.185 41.1802 160.367 43.0149 160.367 44.9969C160.367 46.5235 160.276 48.0368 160.094 49.5367C159.912 51.0366 159.625 52.4829 159.235 53.8757C159.521 53.9828 159.782 54.0498 160.016 54.0766C160.276 54.0766 160.549 54.0766 160.836 54.0766C161.694 54.0766 162.449 53.9159 163.1 53.5945C163.776 53.2731 164.349 52.8445 164.817 52.3089C165.286 51.7732 165.663 51.1438 165.95 50.4206C166.236 49.6974 166.444 48.9341 166.574 48.1306ZM151.31 40.4972C151.31 42.3453 151.584 44.0996 152.13 45.7602C152.703 47.4208 153.444 48.8671 154.355 50.0992C154.512 48.7868 154.59 47.5279 154.59 46.3227C154.59 44.9299 154.564 43.6443 154.512 42.4658C154.485 41.2605 154.394 40.2293 154.238 39.3723C154.108 38.5152 153.913 37.8456 153.653 37.3635C153.418 36.8546 153.093 36.6001 152.677 36.6001C151.766 36.6001 151.31 37.8991 151.31 40.4972Z" fill="white"/>
<path d="M171.22 5.34338C171.74 5.34338 172.235 5.45051 172.703 5.66478C173.198 5.85227 173.627 6.14689 173.991 6.54865C174.356 6.95041 174.642 7.4593 174.85 8.07533C175.058 8.66457 175.162 9.37435 175.162 10.2046C175.162 10.9814 174.941 11.892 174.499 12.9366C174.056 13.9544 173.523 14.932 172.898 15.8694C172.274 16.8069 171.61 17.6104 170.907 18.28C170.231 18.9228 169.645 19.2442 169.151 19.2442C168.812 19.2442 168.5 19.1638 168.214 19.0031C167.927 18.8157 167.68 18.6014 167.472 18.3603C167.29 18.0925 167.134 17.8113 167.004 17.5166C166.899 17.222 166.847 16.9542 166.847 16.7131C166.847 16.4988 166.899 16.3783 167.004 16.3515C167.108 16.298 167.238 16.2176 167.394 16.1105C167.68 16.0301 168.084 15.6953 168.604 15.1061C169.151 14.4901 169.71 13.7937 170.283 13.0169C169.45 12.8027 168.747 12.3607 168.175 11.6911C167.602 10.9948 167.316 10.1913 167.316 9.2806C167.316 8.71814 167.42 8.20925 167.628 7.75392C167.836 7.27181 168.123 6.85666 168.487 6.50847C168.851 6.1335 169.268 5.85227 169.736 5.66478C170.205 5.45051 170.699 5.34338 171.22 5.34338ZM181.057 5.34338C181.578 5.34338 182.072 5.45051 182.541 5.66478C183.035 5.85227 183.465 6.14689 183.829 6.54865C184.193 6.95041 184.479 7.4593 184.688 8.07533C184.896 8.66457 185 9.37435 185 10.2046C185 10.9814 184.779 11.892 184.336 12.9366C183.894 13.9544 183.36 14.932 182.736 15.8694C182.111 16.8069 181.448 17.6104 180.745 18.28C180.068 18.9228 179.483 19.2442 178.988 19.2442C178.65 19.2442 178.338 19.1638 178.051 19.0031C177.765 18.8157 177.518 18.6014 177.31 18.3603C177.127 18.0925 176.971 17.8113 176.841 17.5166C176.737 17.222 176.685 16.9542 176.685 16.7131C176.685 16.4988 176.737 16.3783 176.841 16.3515C176.945 16.298 177.075 16.2176 177.231 16.1105C177.518 16.0301 177.921 15.6953 178.442 15.1061C178.988 14.4901 179.548 13.7937 180.12 13.0169C179.287 12.8027 178.585 12.3607 178.012 11.6911C177.44 10.9948 177.153 10.1913 177.153 9.2806C177.153 8.71814 177.258 8.20925 177.466 7.75392C177.674 7.27181 177.96 6.85666 178.325 6.50847C178.689 6.1335 179.105 5.85227 179.574 5.66478C180.042 5.45051 180.537 5.34338 181.057 5.34338Z" fill="white"/>
</svg>
