<svg width="48" height="48" viewBox="0 0 48 48" fill="none" xmlns="http://www.w3.org/2000/svg">
<rect width="48" height="48" rx="15" fill="url(#paint0_linear_6248_64907)"/>
<path d="M25.2273 15.4091H30.1364C31.492 15.4091 32.5909 16.508 32.5909 17.8636V22.7727H33.8182C35.8516 22.7727 37.5 24.4211 37.5 26.4545C37.5 28.488 35.8516 30.1364 33.8182 30.1364H32.5909V35.0455C32.5909 36.4011 31.492 37.5 30.1364 37.5H12.9545C11.5989 37.5 10.5 36.4011 10.5 35.0455V30.1364H14.1818C16.3295 30.1364 17.8636 28.6023 17.8636 26.4545C17.8636 24.3068 16.3295 22.7727 14.1818 22.7727H10.5V17.8636C10.5 16.508 11.5989 15.4091 12.9545 15.4091H17.8636V14.1818C17.8636 12.1484 19.512 10.5 21.5455 10.5C23.5789 10.5 25.2273 12.1484 25.2273 14.1818V15.4091Z" fill="url(#paint1_linear_6248_64907)"/>
<defs>
<linearGradient id="paint0_linear_6248_64907" x1="72" y1="24" x2="24" y2="-24" gradientUnits="userSpaceOnUse">
<stop stop-color="#EDF3F7"/>
<stop offset="1" stop-color="white"/>
</linearGradient>
<linearGradient id="paint1_linear_6248_64907" x1="24" y1="9.48113" x2="24" y2="38.0094" gradientUnits="userSpaceOnUse">
<stop stop-color="#FFB347"/>
<stop offset="1" stop-color="#FF7283"/>
</linearGradient>
</defs>
</svg>
