<svg width="24" height="24" viewBox="0 0 24 24" fill="none" xmlns="http://www.w3.org/2000/svg">
<rect width="24" height="24" rx="7.5" fill="url(#paint0_linear_6136_67060)"/>
<path fill-rule="evenodd" clip-rule="evenodd" d="M9 6.75C9 6.33525 8.664 6 8.25 6H7.5C6.672 6 6 6.672 6 7.5V8.25C6 8.66475 6.336 9 6.75 9H8.25C8.664 9 9 8.66475 9 8.25V6.75ZM8.25 10.5C8.664 10.5 9 10.8352 9 11.25V12.75C9 13.1648 8.664 13.5 8.25 13.5H6.75C6.336 13.5 6 13.1648 6 12.75V11.25C6 10.8352 6.336 10.5 6.75 10.5H8.25ZM8.25 15C8.664 15 9 15.3352 9 15.75V17.25C9 17.6648 8.664 18 8.25 18H7.5C6.672 18 6 17.328 6 16.5V15.75C6 15.3352 6.336 15 6.75 15H8.25ZM12.75 15C13.1648 15 13.5 15.3352 13.5 15.75V17.25C13.5 17.6648 13.1648 18 12.75 18H11.25C10.836 18 10.5 17.6648 10.5 17.25V15.75C10.5 15.3352 10.836 15 11.25 15H12.75ZM18 15.75C18 15.3352 17.6648 15 17.25 15H15.75C15.3352 15 15 15.3352 15 15.75V17.25C15 17.6648 15.3352 18 15.75 18H16.5C17.328 18 18 17.328 18 16.5V15.75ZM13.5 11.25C13.5 10.8352 13.1648 10.5 12.75 10.5H11.25C10.836 10.5 10.5 10.8352 10.5 11.25V12.75C10.5 13.1648 10.836 13.5 11.25 13.5H12.75C13.1648 13.5 13.5 13.1648 13.5 12.75V11.25ZM17.25 10.5C17.6648 10.5 18 10.8352 18 11.25V12.75C18 13.1648 17.6648 13.5 17.25 13.5H15.75C15.3352 13.5 15 13.1648 15 12.75V11.25C15 10.8352 15.3352 10.5 15.75 10.5H17.25ZM12.75 6C13.1648 6 13.5 6.33525 13.5 6.75V8.25C13.5 8.66475 13.1648 9 12.75 9H11.25C10.836 9 10.5 8.66475 10.5 8.25V6.75C10.5 6.33525 10.836 6 11.25 6H12.75ZM18 7.5C18 6.672 17.328 6 16.5 6H15.75C15.3352 6 15 6.33525 15 6.75V8.25C15 8.66475 15.3352 9 15.75 9H17.25C17.6648 9 18 8.66475 18 8.25V7.5Z" fill="white"/>
<defs>
<linearGradient id="paint0_linear_6136_67060" x1="12" y1="-12" x2="-12" y2="12" gradientUnits="userSpaceOnUse">
<stop stop-color="#7575FF"/>
<stop offset="1" stop-color="#A440FF"/>
</linearGradient>
</defs>
</svg>
