<svg width="303" height="251" viewBox="0 0 303 251" fill="none" xmlns="http://www.w3.org/2000/svg">
<rect x="118" y="110" width="24" height="28" rx="4" fill="#6FBF88"/>
<path fill-rule="evenodd" clip-rule="evenodd" d="M131 116H136V120H131V116ZM129 120L129 116H124V120H129ZM124 122H129L129 126H124V122ZM122 122V120V116C122 114.895 122.895 114 124 114H129H131H136C137.105 114 138 114.895 138 116V120V122V126V128V132C138 133.105 137.105 134 136 134H131H129H124C122.895 134 122 133.105 122 132V128V126V122ZM136 122V126H131V122H136ZM131 128H136V132H131V128ZM129 128H124V132H129L129 128Z" fill="#EEFFF3"/>
<rect x="133" y="106" width="15" height="15" rx="4" fill="#203976"/>
<rect x="133" y="106" width="15" height="15" rx="4" fill="url(#paint0_linear_6143_70695)"/>
<path d="M143 115.233C143 115.935 142.75 116.489 142.25 116.893C141.753 117.298 141.061 117.5 140.172 117.5C139.354 117.5 138.63 117.344 138 117.032V115.499C138.518 115.733 138.955 115.898 139.312 115.994C139.672 116.089 140.001 116.137 140.298 116.137C140.655 116.137 140.928 116.068 141.116 115.93C141.309 115.791 141.405 115.586 141.405 115.312C141.405 115.16 141.363 115.025 141.279 114.908C141.195 114.787 141.071 114.672 140.907 114.562C140.746 114.452 140.415 114.276 139.915 114.035C139.446 113.811 139.095 113.597 138.86 113.391C138.626 113.185 138.439 112.946 138.299 112.672C138.159 112.399 138.089 112.08 138.089 111.714C138.089 111.026 138.318 110.485 138.776 110.091C139.238 109.697 139.875 109.5 140.686 109.5C141.085 109.5 141.464 109.548 141.825 109.644C142.189 109.74 142.568 109.874 142.963 110.048L142.439 111.331C142.029 111.161 141.69 111.042 141.421 110.974C141.155 110.907 140.893 110.873 140.634 110.873C140.326 110.873 140.09 110.946 139.925 111.091C139.761 111.237 139.679 111.427 139.679 111.661C139.679 111.806 139.712 111.934 139.779 112.044C139.845 112.151 139.95 112.255 140.093 112.358C140.24 112.458 140.585 112.639 141.127 112.901C141.844 113.249 142.335 113.598 142.601 113.95C142.867 114.298 143 114.725 143 115.233Z" fill="white"/>
<g opacity="0.5">
<rect x="157.211" y="215.123" width="24" height="28" rx="4" transform="rotate(15 157.211 215.123)" fill="#FF7D75"/>
<rect x="159.781" y="220.986" width="16" height="18" rx="1" transform="rotate(15 159.781 220.986)" fill="#FDBCB9" stroke="#FFF2F2" stroke-width="2"/>
<path fill-rule="evenodd" clip-rule="evenodd" d="M160.411 234.097L164.047 230.361L165.169 233.198L166.846 232.561L168.138 236.168L160.411 234.097ZM165.769 229.554C165.944 228.901 166.637 228.519 167.316 228.701C167.995 228.883 168.403 229.56 168.228 230.213C168.053 230.867 167.361 231.249 166.682 231.067C166.003 230.885 165.594 230.208 165.769 229.554Z" fill="white"/>
<rect x="172.736" y="215.141" width="15" height="15" rx="4" transform="rotate(15 172.736 215.141)" fill="url(#paint1_linear_6143_70695)"/>
<path d="M177.316 223.89L177.853 224.034C178.354 224.168 178.756 224.17 179.058 224.039C179.361 223.905 179.563 223.648 179.665 223.267C179.768 222.883 179.739 222.571 179.577 222.332C179.42 222.093 179.118 221.914 178.673 221.795L177.931 221.596L177.316 223.89ZM181.327 223.65C181.104 224.482 180.674 225.048 180.037 225.35C179.404 225.652 178.61 225.675 177.656 225.42L176.957 225.232L176.22 227.981L174.59 227.544L176.66 219.816L179.117 220.475C180.049 220.725 180.703 221.117 181.079 221.652C181.459 222.184 181.541 222.85 181.327 223.65Z" fill="white"/>
</g>
<g clip-path="url(#clip0_6143_70695)">
<rect x="215" y="31" width="32" height="32" rx="10" transform="rotate(-30 215 31)" fill="url(#paint2_linear_6143_70695)"/>
<path fill-rule="evenodd" clip-rule="evenodd" d="M227.134 38.0174L232.062 46.5533C232.339 47.0315 232.95 47.1954 233.429 46.9193L247.285 38.9193C247.763 38.6431 247.927 38.0315 247.651 37.5533L242.723 29.0174C242.717 29.0269 242.712 29.0364 242.706 29.0458L237.429 37.8478L227.167 38.0171C227.156 38.0173 227.145 38.0174 227.134 38.0174ZM241.857 27.5174L241.651 27.1609C241.375 26.6827 240.763 26.5188 240.285 26.7949L226.429 34.7949C225.95 35.0711 225.786 35.6827 226.063 36.1609L226.268 36.5174C226.45 36.8319 226.788 37.0233 227.151 37.0173L236.857 36.8571L241.848 28.5316C242.035 28.2201 242.038 27.8319 241.857 27.5174Z" fill="white"/>
</g>
<g opacity="0.75">
<rect x="263" y="128.281" width="32" height="32" rx="10" transform="rotate(-15 263 128.281)" fill="url(#paint3_linear_6143_70695)"/>
<mask id="mask0_6143_70695" style="mask-type:alpha" maskUnits="userSpaceOnUse" x="265" y="122" width="35" height="35">
<rect x="263" y="128.281" width="32" height="32" rx="10" transform="rotate(-15 263 128.281)" fill="white"/>
</mask>
<g mask="url(#mask0_6143_70695)">
<rect x="287.305" y="145.58" width="3" height="13" rx="1.5" transform="rotate(75 287.305 145.58)" fill="#FFFAF2"/>
<rect x="286.012" y="140.75" width="3" height="13" rx="1.5" transform="rotate(75 286.012 140.75)" fill="#FFFAF2"/>
<rect x="278.922" y="137.475" width="3" height="7" rx="1.5" transform="rotate(75 278.922 137.475)" fill="#FFFAF2"/>
<rect x="288.113" y="121.553" width="32" height="1" transform="rotate(75 288.113 121.553)" fill="#F59E37"/>
<path d="M268.795 126.729L276.522 124.658L278.852 133.351L274.47 132.455L271.124 135.422L268.795 126.729Z" fill="#E77730"/>
<path d="M268.277 124.797L276.005 122.726L278.593 132.386L274.212 131.489L270.866 134.456L268.277 124.797Z" fill="#FF9552"/>
<path d="M268.277 124.797L276.005 122.726L278.593 132.386L274.212 131.489L270.866 134.456L268.277 124.797Z" fill="url(#paint4_linear_6143_70695)"/>
</g>
</g>
<g clip-path="url(#clip1_6143_70695)">
<path d="M47.5882 199.941C46.1588 194.606 49.3246 189.122 54.6593 187.693L66.2504 184.587C71.585 183.158 77.0684 186.324 78.4978 191.658L81.6036 203.249C83.0331 208.584 79.8672 214.067 74.5326 215.497L62.9415 218.603C57.6068 220.032 52.1234 216.866 50.694 211.532L47.5882 199.941Z" fill="#93D2F6"/>
<path d="M52.0808 193.525C51.9428 193.01 52.2486 192.48 52.7639 192.342L70.2163 187.666C70.7316 187.528 71.2613 187.833 71.3993 188.349L73.4875 196.142C73.6256 196.657 73.3198 197.187 72.8045 197.325L55.352 202.001C54.8367 202.139 54.3071 201.834 54.169 201.318L52.0808 193.525Z" fill="#C8EBFF"/>
<path d="M50.9343 196.973C50.7913 196.44 51.1079 195.892 51.6414 195.749L72.8917 190.055C73.4252 189.912 73.9735 190.228 74.1165 190.762L76.187 198.489C76.33 199.023 76.0134 199.571 75.4799 199.714L54.2296 205.408C53.6961 205.551 53.1477 205.234 53.0048 204.701L50.9343 196.973Z" fill="white"/>
<path d="M47.847 200.906L56.6152 198.557C57.7889 198.243 59.042 198.479 60.0208 199.199L62.0814 200.715C63.0602 201.435 64.3133 201.671 65.487 201.356L80.0507 197.454L81.6036 203.249C83.0331 208.584 79.8672 214.067 74.5326 215.497L62.9415 218.603C57.6068 220.032 52.1234 216.866 50.694 211.532L47.847 200.906Z" fill="url(#paint5_linear_6143_70695)"/>
</g>
<g opacity="0.5">
<rect x="91" y="8.28125" width="32" height="32" rx="10" transform="rotate(-15 91 8.28125)" fill="url(#paint6_linear_6143_70695)"/>
<mask id="mask1_6143_70695" style="mask-type:alpha" maskUnits="userSpaceOnUse" x="93" y="2" width="35" height="35">
<rect x="91" y="8.28125" width="32" height="32" rx="10" transform="rotate(-15 91 8.28125)" fill="white"/>
</mask>
<g mask="url(#mask1_6143_70695)">
<rect x="100.867" y="18.0605" width="3" height="8" rx="1.5" transform="rotate(-15 100.867 18.0605)" fill="white"/>
<rect x="104.662" y="12.9023" width="3" height="16" rx="1.5" transform="rotate(-15 104.662 12.9023)" fill="#FFCF6B"/>
<rect x="110.527" y="15.4727" width="3" height="8" rx="1.5" transform="rotate(-15 110.527 15.4727)" fill="white"/>
<rect x="115.873" y="16.1113" width="3" height="4" rx="1.5" transform="rotate(-15 115.873 16.1113)" fill="white"/>
</g>
</g>
<g opacity="0.2" clip-path="url(#clip2_6143_70695)">
<rect y="84.2812" width="32" height="32" rx="10" transform="rotate(-15 0 84.2812)" fill="url(#paint7_linear_6143_70695)"/>
<path fill-rule="evenodd" clip-rule="evenodd" d="M28.047 93.3298C29.2977 97.9977 26.5276 102.796 21.8598 104.046C17.1919 105.297 12.394 102.527 11.1433 97.8592C9.89251 93.1913 12.6626 88.3934 17.3304 87.1427C21.9983 85.8919 26.7962 88.662 28.047 93.3298ZM29.2544 93.0063C30.6838 98.341 27.518 103.824 22.1833 105.254C16.8486 106.683 11.3653 103.517 9.93585 98.1827C8.50643 92.848 11.6723 87.3647 17.0069 85.9352C22.3416 84.5058 27.8249 87.6717 29.2544 93.0063ZM21.407 102.356C25.1412 101.355 27.3572 97.5169 26.3566 93.7827C25.3561 90.0485 21.5177 87.8324 17.7835 88.833C14.0493 89.8336 11.8333 93.6719 12.8338 97.4061C13.8344 101.14 17.6727 103.356 21.407 102.356Z" fill="#FF1717"/>
</g>
<defs>
<linearGradient id="paint0_linear_6143_70695" x1="140.5" y1="106" x2="140.5" y2="121" gradientUnits="userSpaceOnUse">
<stop stop-color="#37794C"/>
<stop offset="1" stop-color="#1F5330"/>
</linearGradient>
<linearGradient id="paint1_linear_6143_70695" x1="180.236" y1="215.141" x2="180.236" y2="230.141" gradientUnits="userSpaceOnUse">
<stop stop-color="#B94E48"/>
<stop offset="1" stop-color="#A42D27"/>
</linearGradient>
<linearGradient id="paint2_linear_6143_70695" x1="215" y1="31" x2="215" y2="63" gradientUnits="userSpaceOnUse">
<stop stop-color="#64F6FF"/>
<stop offset="1" stop-color="#648AFF"/>
</linearGradient>
<linearGradient id="paint3_linear_6143_70695" x1="279" y1="128.281" x2="279" y2="160.281" gradientUnits="userSpaceOnUse">
<stop stop-color="#FFCF6B"/>
<stop offset="1" stop-color="#FFBB6B"/>
</linearGradient>
<linearGradient id="paint4_linear_6143_70695" x1="272.716" y1="125.908" x2="274.729" y2="133.421" gradientUnits="userSpaceOnUse">
<stop stop-color="#FFB053"/>
<stop offset="1" stop-color="#FF9552"/>
</linearGradient>
<linearGradient id="paint5_linear_6143_70695" x1="63.3018" y1="196.765" x2="68.737" y2="217.05" gradientUnits="userSpaceOnUse">
<stop stop-color="#01B1FF"/>
<stop offset="1" stop-color="#0192FF"/>
</linearGradient>
<linearGradient id="paint6_linear_6143_70695" x1="107" y1="8.28125" x2="107" y2="40.2812" gradientUnits="userSpaceOnUse">
<stop stop-color="#906DF5"/>
<stop offset="1" stop-color="#6E3DFA"/>
</linearGradient>
<linearGradient id="paint7_linear_6143_70695" x1="16" y1="84.2812" x2="16" y2="116.281" gradientUnits="userSpaceOnUse">
<stop stop-color="#FFE1E1"/>
<stop offset="1" stop-color="#FFBFBF"/>
</linearGradient>
<clipPath id="clip0_6143_70695">
<rect width="32" height="32" fill="white" transform="translate(215 31) rotate(-30)"/>
</clipPath>
<clipPath id="clip1_6143_70695">
<rect width="32" height="32" fill="white" transform="translate(45 190.281) rotate(-15)"/>
</clipPath>
<clipPath id="clip2_6143_70695">
<rect width="32" height="32" fill="white" transform="translate(0 84.2812) rotate(-15)"/>
</clipPath>
</defs>
</svg>
