<svg width="229" height="278" viewBox="0 0 229 278" fill="none" xmlns="http://www.w3.org/2000/svg">
<g opacity="0.5">
<rect x="69" y="4" width="24" height="28" rx="4" fill="#5586FF"/>
<rect x="73" y="12" width="8" height="3" rx="1.5" fill="#E7EEFF"/>
<rect x="73" y="18" width="16" height="3" rx="1.5" fill="#E7EEFF"/>
<rect x="73" y="24" width="16" height="3" rx="1.5" fill="#E7EEFF"/>
<rect x="84" width="15" height="15" rx="4" fill="#203976"/>
<rect x="84" width="15" height="15" rx="4" fill="url(#paint0_linear_6143_70685)"/>
<path d="M95 7.42339C95 8.74031 94.6037 9.74897 93.8112 10.4494C93.0225 11.1498 91.8818 11.5 90.3891 11.5H88V3.5H90.6488C92.0261 3.5 93.0956 3.84473 93.8574 4.5342C94.6191 5.22367 95 6.18673 95 7.42339ZM93.1418 7.46717C93.1418 5.74897 92.3416 4.88988 90.7411 4.88988H89.789V10.0992H90.5565C92.28 10.0992 93.1418 9.22184 93.1418 7.46717Z" fill="white"/>
</g>
<g opacity="0.75">
<rect x="173" y="24" width="32" height="32" rx="10" fill="url(#paint1_linear_6143_70685)"/>
<path fill-rule="evenodd" clip-rule="evenodd" d="M184 31.5C184 31.2239 184.224 31 184.5 31C184.776 31 185 31.2239 185 31.5V32H193V31.5C193 31.2239 193.224 31 193.5 31C193.776 31 194 31.2239 194 31.5V32H196C197.105 32 198 32.8954 198 34V35H180V34C180 32.8954 180.895 32 182 32H184V31.5ZM180 36H198V47C198 48.1046 197.105 49 196 49H182C180.895 49 180 48.1046 180 47V36ZM184 40.5C184 40.2239 184.224 40 184.5 40H185.5C185.776 40 186 40.2239 186 40.5V41.5C186 41.7761 185.776 42 185.5 42H184.5C184.224 42 184 41.7761 184 41.5V40.5ZM184.5 44C184.224 44 184 44.2239 184 44.5V45.5C184 45.7761 184.224 46 184.5 46H185.5C185.776 46 186 45.7761 186 45.5V44.5C186 44.2239 185.776 44 185.5 44H184.5ZM188.5 44C188.224 44 188 44.2239 188 44.5V45.5C188 45.7761 188.224 46 188.5 46H189.5C189.776 46 190 45.7761 190 45.5V44.5C190 44.2239 189.776 44 189.5 44H188.5ZM188.5 40C188.224 40 188 40.2239 188 40.5V41.5C188 41.7761 188.224 42 188.5 42H189.5C189.776 42 190 41.7761 190 41.5V40.5C190 40.2239 189.776 40 189.5 40H188.5ZM192 44.5C192 44.2239 192.224 44 192.5 44H193.5C193.776 44 194 44.2239 194 44.5V45.5C194 45.7761 193.776 46 193.5 46H192.5C192.224 46 192 45.7761 192 45.5V44.5ZM192.5 40C192.224 40 192 40.2239 192 40.5V41.5C192 41.7761 192.224 42 192.5 42H193.5C193.776 42 194 41.7761 194 41.5V40.5C194 40.2239 193.776 40 193.5 40H192.5Z" fill="white"/>
</g>
<g clip-path="url(#clip0_6143_70685)">
<rect x="20.2812" y="105" width="32" height="32" rx="10" transform="rotate(15 20.2812 105)" fill="url(#paint2_linear_6143_70685)"/>
<path fill-rule="evenodd" clip-rule="evenodd" d="M38.1387 127.83C39.2492 127.446 40.0921 126.541 40.3887 125.413C40.8884 123.548 39.8058 121.637 37.9708 121.146C36.1359 120.654 34.2428 121.768 33.7433 123.632C33.4422 124.737 33.704 125.922 34.445 126.806C32.9446 126.963 31.7968 127.389 31.0526 128.059C30.4438 127.014 29.4465 126.137 28.5695 125.511C29.9697 125.109 31.0518 124.009 31.423 122.612C32.0131 120.409 30.7345 118.153 28.5671 117.573C26.3996 116.992 24.1663 118.307 23.5762 120.509C23.1961 121.912 23.5882 123.413 24.609 124.462C21.7218 124.714 19.892 125.774 19.4178 127.544L20.6195 127.866C21.0162 126.385 23.1231 125.581 26.4011 125.659L26.4151 125.659C27.7895 126.369 30.8449 128.436 30.3025 130.46L31.5054 130.783C31.5754 130.508 31.608 130.225 31.6023 129.941C31.6032 129.746 31.5865 129.552 31.5523 129.36C32.1419 128.433 33.7679 127.941 36.1377 127.993C36.8179 128.384 40.0652 130.409 39.4716 132.857C39.4689 132.867 39.469 132.876 39.4691 132.886L39.4691 132.886C39.4692 132.896 39.4693 132.906 39.4666 132.916L40.668 133.238C41.3066 130.855 39.5454 128.934 38.1387 127.83ZM37.6429 122.367C38.8119 122.68 39.505 123.903 39.1864 125.092C38.8678 126.281 37.6565 126.994 36.4866 126.68C35.3167 126.367 34.624 125.144 34.9426 123.955C35.2612 122.766 36.4732 122.054 37.6429 122.367ZM30.2225 122.29C30.6314 120.764 29.7423 119.195 28.2405 118.793C26.7389 118.39 25.1844 119.305 24.7755 120.831C24.3666 122.357 25.255 123.926 26.7572 124.328C28.2593 124.731 29.8135 123.816 30.2225 122.29Z" fill="white"/>
</g>
<g opacity="0.5">
<rect x="122.281" y="103" width="32" height="32" rx="10" transform="rotate(15 122.281 103)" fill="url(#paint3_linear_6143_70685)"/>
<path fill-rule="evenodd" clip-rule="evenodd" d="M135.866 117.501C136.04 116.779 136.109 116.156 135.979 115.668C135.912 115.42 135.793 115.205 135.61 115.033C135.428 114.861 135.191 114.74 134.901 114.665C134.607 114.589 134.342 114.591 134.108 114.675C133.873 114.76 133.686 114.922 133.537 115.133C133.244 115.546 133.075 116.178 132.951 116.909C132.839 117.585 132.847 118.349 132.882 118.938C132.9 119.234 132.924 119.488 132.944 119.669C132.954 119.759 132.963 119.831 132.97 119.881L132.971 119.892L132.965 119.901C132.938 119.943 132.899 120.004 132.848 120.082C132.746 120.238 132.599 120.461 132.418 120.727C132.056 121.259 131.56 121.965 131.023 122.658L131.022 122.658C130.488 123.354 130.056 123.876 129.757 124.224C129.608 124.398 129.492 124.529 129.414 124.615C129.384 124.648 129.36 124.674 129.342 124.694L129.303 124.697C129.234 124.703 129.134 124.712 129.01 124.725C128.762 124.751 128.419 124.793 128.038 124.855C127.283 124.979 126.352 125.189 125.724 125.533C125.121 125.864 124.647 126.193 124.367 126.561C124.225 126.747 124.129 126.948 124.094 127.166C124.059 127.385 124.087 127.611 124.173 127.844L124.174 127.846C124.344 128.289 124.858 128.632 125.541 128.679C126.231 128.726 127.108 128.475 128.061 127.724C128.987 126.989 129.683 126.376 130.147 125.946C130.379 125.731 130.553 125.561 130.67 125.446C130.723 125.393 130.765 125.351 130.794 125.321L131.079 125.318C131.299 125.315 131.6 125.312 131.922 125.31C132.567 125.305 133.294 125.302 133.633 125.311C133.97 125.319 134.342 125.344 134.631 125.366C134.775 125.378 134.898 125.388 134.985 125.396L135.032 125.401L135.05 125.431C135.092 125.501 135.154 125.601 135.235 125.722C135.395 125.963 135.628 126.29 135.92 126.631C136.5 127.306 137.335 128.063 138.317 128.284C139.274 128.5 139.847 128.339 140.185 128.062C140.516 127.791 140.58 127.443 140.592 127.374L140.593 127.374L140.593 127.373C140.606 127.3 140.681 126.888 140.432 126.415C140.178 125.935 139.612 125.433 138.42 125.144C137.263 124.863 136.532 124.721 136.087 124.649C135.865 124.613 135.714 124.595 135.617 124.585C135.603 124.584 135.591 124.583 135.579 124.582L135.573 124.57C135.539 124.506 135.49 124.414 135.431 124.298C135.312 124.065 135.151 123.74 134.982 123.366C134.652 122.637 134.299 121.741 134.166 121.004L134.188 120.97C134.227 120.91 134.282 120.822 134.349 120.713C134.484 120.495 134.667 120.188 134.862 119.837C135.248 119.138 135.687 118.244 135.866 117.501ZM131.644 124.541L131.606 124.546L132.075 123.956C132.454 123.479 132.862 122.906 133.175 122.454C133.294 122.281 133.4 122.126 133.485 122C133.654 122.61 133.9 123.25 134.116 123.765C134.249 124.08 134.371 124.351 134.461 124.543L134.466 124.553C134.44 124.55 134.413 124.548 134.385 124.545C134.104 124.52 133.672 124.493 133.058 124.486C132.441 124.475 131.967 124.506 131.644 124.541ZM133.828 116.578C133.976 116.026 134.15 115.725 134.301 115.572C134.446 115.426 134.561 115.422 134.628 115.439C134.733 115.468 134.812 115.514 134.856 115.629C134.908 115.763 134.925 116.019 134.801 116.498C134.681 116.963 134.348 117.629 134.036 118.191C133.903 118.43 133.777 118.646 133.675 118.815C133.655 118.649 133.641 118.445 133.639 118.218C133.633 117.719 133.683 117.12 133.828 116.578ZM137.933 127.079C137.338 126.792 136.669 126.22 136.172 125.513C136.241 125.521 136.317 125.531 136.4 125.542C136.756 125.591 137.225 125.669 137.681 125.786C138.141 125.905 138.571 126.059 138.862 126.253C139.007 126.35 139.105 126.449 139.16 126.548C139.212 126.642 139.228 126.742 139.197 126.858C139.16 126.993 139.104 127.085 139.038 127.147C138.972 127.208 138.889 127.249 138.785 127.267C138.57 127.304 138.275 127.244 137.933 127.079ZM127.737 125.814C127.932 125.765 128.11 125.728 128.262 125.703C128.219 125.747 128.172 125.795 128.122 125.846C127.846 126.122 127.469 126.479 127.063 126.802C126.654 127.127 126.228 127.408 125.851 127.546C125.471 127.686 125.201 127.66 125.025 127.476C124.938 127.384 124.925 127.311 124.936 127.248C124.949 127.173 125.004 127.077 125.122 126.963C125.357 126.735 125.775 126.504 126.264 126.299C126.748 126.096 127.283 125.926 127.737 125.814Z" fill="white"/>
</g>
<g clip-path="url(#clip1_6143_70685)">
<rect x="106" y="246.281" width="32" height="32" rx="10" transform="rotate(-15 106 246.281)" fill="url(#paint4_linear_6143_70685)"/>
<path fill-rule="evenodd" clip-rule="evenodd" d="M115.773 255.71C115.539 254.837 116.057 253.939 116.93 253.705L127.292 250.929C128.165 250.695 129.062 251.213 129.296 252.086L131.555 260.516C131.789 261.389 131.271 262.286 130.398 262.52L120.036 265.296C119.163 265.53 118.266 265.012 118.032 264.139L115.773 255.71ZM120.507 257.923C119.974 258.066 119.657 258.615 119.8 259.148C119.943 259.681 120.492 259.998 121.025 259.855C121.559 259.712 121.875 259.164 121.732 258.63C121.589 258.097 121.041 257.78 120.507 257.923ZM122.698 258.372C122.555 257.838 122.872 257.29 123.405 257.147C123.939 257.004 124.487 257.32 124.63 257.854C124.773 258.387 124.456 258.936 123.923 259.079C123.389 259.222 122.841 258.905 122.698 258.372ZM125.596 257.595C125.453 257.062 125.769 256.513 126.303 256.37C126.836 256.227 127.385 256.544 127.528 257.077C127.671 257.611 127.354 258.159 126.821 258.302C126.287 258.445 125.739 258.129 125.596 257.595ZM134.344 259.676L132.168 258.94L130.615 253.144L132.132 251.419C132.501 250.999 133.189 251.159 133.334 251.699L135.245 258.832C135.389 259.372 134.874 259.855 134.344 259.676Z" fill="white"/>
</g>
<g opacity="0.75">
<rect x="204.742" y="201.525" width="32" height="32" rx="10" transform="rotate(3.97131 204.742 201.525)" fill="url(#paint5_linear_6143_70685)"/>
<path d="M223.227 216.842C223.214 217.025 223.303 217.202 223.46 217.3C223.616 217.398 223.813 217.402 223.973 217.31L226.953 215.609C227.052 215.636 227.135 215.683 227.194 215.737C227.271 215.809 227.302 215.889 227.296 215.978L226.861 222.249C226.855 222.339 226.812 222.413 226.726 222.474C226.661 222.52 226.572 222.555 226.47 222.567L223.754 220.471C223.608 220.358 223.412 220.335 223.244 220.41C223.075 220.486 222.962 220.648 222.95 220.832L222.904 221.494L222.904 221.495L222.903 221.496L222.903 221.497L222.903 221.498L222.903 221.5L222.903 221.501L222.903 221.502L222.903 221.503L222.903 221.504L222.903 221.506L222.903 221.507L222.903 221.508L222.903 221.509L222.902 221.511L222.902 221.512L222.902 221.513L222.902 221.515L222.902 221.516L222.902 221.517L222.902 221.519L222.902 221.52L222.902 221.521L222.902 221.522L222.902 221.524L222.901 221.525L222.901 221.527L222.901 221.528L222.901 221.529L222.901 221.531L222.901 221.532L222.901 221.533L222.901 221.535L222.901 221.536L222.901 221.538L222.9 221.539L222.9 221.541L222.9 221.542L222.9 221.543L222.9 221.545L222.9 221.546L222.9 221.548L222.9 221.549L222.9 221.551L222.9 221.552L222.899 221.554L222.899 221.555L222.899 221.557L222.899 221.558L222.899 221.56L222.899 221.561L222.899 221.563L222.899 221.564L222.899 221.566L222.899 221.568L222.898 221.569L222.898 221.571L222.898 221.572L222.898 221.574L222.898 221.576L222.898 221.577L222.898 221.579L222.898 221.58L222.898 221.582L222.897 221.584L222.897 221.585L222.897 221.587L222.897 221.589L222.897 221.59L222.897 221.592L222.897 221.594L222.897 221.595L222.896 221.597L222.896 221.599L222.896 221.6L222.896 221.602L222.896 221.604L222.896 221.606L222.896 221.607L222.896 221.609L222.896 221.611L222.895 221.612L222.895 221.614L222.895 221.616L222.895 221.618L222.895 221.62L222.895 221.621L222.895 221.623L222.895 221.625L222.894 221.627L222.894 221.629L222.894 221.63L222.894 221.632L222.894 221.634L222.894 221.636L222.894 221.638L222.894 221.64L222.893 221.641L222.893 221.643L222.893 221.645L222.893 221.647L222.893 221.649L222.893 221.651L222.893 221.653L222.892 221.655L222.892 221.657L222.892 221.659L222.892 221.66L222.892 221.662L222.892 221.664L222.892 221.666L222.892 221.668L222.891 221.67L222.891 221.672L222.891 221.674L222.891 221.676L222.891 221.678L222.891 221.68L222.891 221.682L222.89 221.684L222.89 221.686L222.89 221.688L222.89 221.69L222.89 221.692L222.89 221.694L222.89 221.696L222.889 221.698L222.889 221.7L222.889 221.702L222.889 221.704L222.889 221.707L222.889 221.709L222.889 221.711L222.888 221.713L222.888 221.715L222.888 221.717L222.888 221.719L222.888 221.721L222.888 221.723L222.888 221.725L222.887 221.728L222.887 221.73L222.887 221.732L222.887 221.734L222.887 221.736L222.887 221.738L222.887 221.741L222.886 221.743L222.886 221.745L222.886 221.747L222.886 221.749L222.886 221.751L222.886 221.754L222.885 221.756L222.885 221.758L222.885 221.76L222.885 221.763L222.885 221.765L222.885 221.767L222.885 221.769L222.884 221.772L222.884 221.774L222.884 221.776L222.884 221.778L222.884 221.781L222.884 221.783L222.883 221.785L222.883 221.787L222.883 221.79L222.883 221.792L222.883 221.794L222.883 221.797L222.882 221.799L222.882 221.801L222.882 221.804L222.882 221.806L222.882 221.808L222.882 221.811L222.881 221.813L222.881 221.815L222.881 221.818L222.881 221.82L222.881 221.823L222.881 221.825L222.88 221.827L222.88 221.83L222.88 221.832L222.88 221.834L222.88 221.837L222.88 221.839L222.879 221.842L222.879 221.844L222.879 221.847L222.879 221.849L222.879 221.851L222.879 221.854L222.878 221.856L222.878 221.859L222.878 221.861L222.878 221.864L222.878 221.866L222.878 221.869L222.877 221.871L222.877 221.874L222.877 221.876L222.877 221.879L222.877 221.881L222.877 221.884L222.876 221.886L222.876 221.889L222.876 221.891L222.876 221.894L222.876 221.896L222.876 221.899L222.875 221.901L222.875 221.904L222.875 221.906L222.875 221.909L222.875 221.912L222.874 221.914L222.874 221.917L222.874 221.919L222.874 221.922L222.874 221.925L222.874 221.927L222.873 221.93L222.873 221.932L222.873 221.935L222.873 221.938L222.873 221.94L222.872 221.943L222.872 221.945L222.872 221.948L222.872 221.951L222.872 221.953L222.872 221.956L222.871 221.959L222.871 221.961L222.871 221.964L222.871 221.967L222.871 221.969L222.87 221.972L222.87 221.975L222.87 221.977L222.87 221.98L222.87 221.983L222.87 221.985L222.869 221.988L222.869 221.991L222.869 221.994L222.869 221.996L222.869 221.999L222.868 222.002L222.868 222.004L222.868 222.007L222.868 222.01L222.868 222.013L222.867 222.015L222.867 222.018L222.867 222.021L222.867 222.024L222.867 222.026L222.866 222.029L222.866 222.032L222.866 222.035L222.866 222.038L222.866 222.04L222.865 222.043L222.865 222.046L222.865 222.049L222.865 222.052L222.865 222.054L222.865 222.057L222.864 222.06L222.864 222.063L222.864 222.066L222.864 222.069L222.864 222.071L222.863 222.074L222.863 222.077L222.863 222.08L222.863 222.083L222.863 222.086L222.862 222.089L222.862 222.091L222.862 222.094L222.862 222.097L222.862 222.1L222.861 222.103L222.861 222.106L222.861 222.109L222.861 222.112L222.861 222.114L222.86 222.117L222.86 222.12L222.86 222.123L222.86 222.126L222.86 222.129L222.859 222.132L222.859 222.135L222.859 222.138L222.859 222.141L222.859 222.144L222.858 222.147L222.858 222.15L222.858 222.153L222.858 222.155L222.857 222.158L222.857 222.161L222.857 222.164L222.857 222.167L222.857 222.17L222.856 222.173L222.856 222.176L222.856 222.179L222.856 222.182L222.856 222.185L222.855 222.188L222.855 222.191L222.855 222.194L222.855 222.197L222.855 222.2L222.854 222.203L222.854 222.206L222.854 222.209L222.854 222.212L222.854 222.215L222.853 222.218L222.853 222.221L222.853 222.225L222.853 222.228L222.852 222.231L222.852 222.234L222.852 222.237L222.852 222.24L222.852 222.243L222.851 222.246L222.851 222.249L222.851 222.252L222.851 222.255L222.851 222.258L222.85 222.261L222.85 222.264L222.85 222.267L222.85 222.271L222.849 222.274L222.849 222.277L222.849 222.28L222.849 222.283L222.849 222.286L222.848 222.289L222.848 222.292L222.848 222.295L222.848 222.299L222.848 222.302L222.847 222.305L222.847 222.308L222.847 222.311L222.847 222.314L222.846 222.317L222.846 222.32L222.846 222.324L222.846 222.327L222.846 222.33L222.845 222.333L222.845 222.336L222.845 222.339L222.845 222.343L222.844 222.346L222.844 222.349L222.844 222.352L222.844 222.355L222.844 222.358L222.843 222.362L222.843 222.365L222.843 222.368L222.843 222.371L222.842 222.374L222.842 222.378L222.842 222.381L222.842 222.384L222.842 222.387L222.841 222.39L222.841 222.394L222.841 222.397L222.841 222.4L222.84 222.403L222.84 222.406L222.84 222.41L222.84 222.413L222.84 222.416L222.839 222.419L222.839 222.423L222.839 222.426L222.839 222.429L222.838 222.432L222.838 222.436L222.838 222.439L222.838 222.442L222.838 222.445L222.837 222.449L222.837 222.452L222.837 222.455L222.837 222.458L222.836 222.462L222.836 222.465L222.836 222.468L222.836 222.472L222.836 222.475L222.835 222.478L222.835 222.481L222.835 222.485L222.835 222.488L222.834 222.491L222.834 222.495L222.834 222.498L222.834 222.501L222.833 222.504L222.833 222.508L222.833 222.511L222.833 222.514L222.833 222.518L222.832 222.521L222.832 222.524L222.832 222.528L222.832 222.531L222.831 222.534L222.831 222.538L222.831 222.541L222.831 222.544L222.83 222.548L222.83 222.551L222.83 222.554L222.83 222.558L222.83 222.561L222.829 222.564L222.829 222.568L222.829 222.571L222.829 222.574L222.828 222.578L222.828 222.581L222.828 222.584L222.828 222.588L222.827 222.591L222.827 222.594L222.827 222.598L222.827 222.601L222.827 222.604L222.826 222.608L222.826 222.611L222.826 222.615L222.826 222.618L222.825 222.621L222.825 222.625L222.825 222.628L222.825 222.631L222.824 222.635L222.824 222.638L222.824 222.642L222.824 222.645L222.823 222.648L222.823 222.652L222.823 222.655L222.823 222.659L222.823 222.662L222.822 222.665L222.822 222.669L222.822 222.672L222.822 222.676L222.821 222.679L222.821 222.682L222.821 222.686L222.821 222.689L222.82 222.693L222.82 222.696L222.82 222.7L222.82 222.703L222.819 222.706L222.819 222.71L222.819 222.713L222.819 222.717L222.819 222.72L222.818 222.723L222.818 222.727L222.818 222.73L222.818 222.734L222.817 222.737L222.817 222.741L222.817 222.744L222.817 222.747L222.816 222.751L222.816 222.754L222.816 222.758L222.816 222.761L222.815 222.765L222.815 222.768L222.815 222.772L222.815 222.775L222.814 222.778L222.814 222.782L222.814 222.785L222.814 222.789L222.813 222.792L222.813 222.796L222.813 222.799L222.813 222.803L222.813 222.806L222.812 222.81L222.812 222.813L222.812 222.817L222.812 222.82L222.811 222.823L222.811 222.827C222.754 223.653 222.037 224.277 221.211 224.22L213.23 223.666C212.404 223.608 211.78 222.892 211.837 222.065L211.838 222.054L211.839 222.044L211.84 222.033L211.841 222.022L211.841 222.011L211.842 222L211.843 221.989L211.844 221.978L211.844 221.967L211.845 221.955L211.846 221.944L211.847 221.933L211.847 221.922L211.848 221.911L211.849 221.9L211.85 221.889L211.851 221.878L211.851 221.866L211.852 221.855L211.853 221.844L211.854 221.833L211.854 221.822L211.855 221.81L211.856 221.799L211.857 221.788L211.858 221.777L211.858 221.765L211.859 221.754L211.86 221.743L211.861 221.731L211.861 221.72L211.862 221.709L211.863 221.697L211.864 221.686L211.865 221.675L211.865 221.663L211.866 221.652L211.867 221.641L211.868 221.629L211.869 221.618L211.869 221.606L211.87 221.595L211.871 221.583L211.872 221.572L211.873 221.56L211.873 221.549L211.874 221.537L211.875 221.526L211.876 221.514L211.877 221.503L211.877 221.491L211.878 221.48L211.879 221.468L211.88 221.457L211.881 221.445L211.881 221.434L211.882 221.422L211.883 221.41L211.884 221.399L211.885 221.387L211.885 221.375L211.886 221.364L211.887 221.352L211.888 221.341L211.889 221.329L211.889 221.317L211.89 221.306L211.891 221.294L211.892 221.282L211.893 221.271L211.893 221.259L211.894 221.247L211.895 221.236L211.896 221.224L211.897 221.212L211.898 221.2L211.898 221.189L211.899 221.177L211.9 221.165L211.901 221.153L211.902 221.142L211.902 221.13L211.903 221.118L211.904 221.106L211.905 221.095L211.906 221.083L211.906 221.071L211.907 221.059L211.908 221.048L211.909 221.036L211.91 221.024L211.911 221.012L211.911 221L211.912 220.989L211.913 220.977L211.914 220.965L211.915 220.953L211.916 220.941L211.916 220.93L211.917 220.918L211.918 220.906L211.919 220.894L211.92 220.882L211.92 220.87L211.921 220.859L211.922 220.847L211.923 220.835L211.924 220.823L211.925 220.811L211.925 220.799L211.926 220.788L211.927 220.776L211.928 220.764L211.929 220.752L211.929 220.74L211.93 220.728L211.931 220.716L211.932 220.705L211.933 220.693L211.934 220.681L211.934 220.669L211.935 220.657L211.936 220.645L211.937 220.634L211.938 220.622L211.939 220.61L211.939 220.598L211.94 220.586L211.941 220.574L211.942 220.563L211.943 220.551L211.943 220.539L211.944 220.527L211.945 220.515L211.946 220.503L211.947 220.492L211.948 220.48L211.948 220.468L211.949 220.456L211.95 220.444L211.951 220.432L211.952 220.421L211.952 220.409L211.953 220.397L211.954 220.385L211.955 220.373L211.956 220.362L211.957 220.35L211.957 220.338L211.958 220.326L211.959 220.314L211.96 220.303L211.961 220.291L211.961 220.279L211.962 220.267L211.963 220.256L211.964 220.244L211.965 220.232L211.966 220.22L211.966 220.209L211.967 220.197L211.968 220.185L211.969 220.173L211.97 220.162L211.97 220.15L211.971 220.138L211.972 220.126L211.973 220.115L211.974 220.103L211.975 220.091L211.975 220.08L211.976 220.068L211.977 220.056L211.978 220.045L211.979 220.033L211.979 220.021L211.98 220.01L211.981 219.998L211.982 219.987L211.983 219.975L211.983 219.963L211.984 219.952L211.985 219.94L211.986 219.929L211.987 219.917L211.987 219.905L211.988 219.894L211.989 219.882L211.99 219.871L211.991 219.859L211.991 219.848L211.992 219.836L211.993 219.825L211.994 219.813L211.995 219.802L211.995 219.79L211.996 219.779L211.997 219.767L211.998 219.756L211.999 219.744L211.999 219.733L212 219.722L212.001 219.71L212.002 219.699L212.003 219.687L212.003 219.676L212.004 219.665L212.005 219.653L212.006 219.642L212.007 219.631L212.007 219.619L212.008 219.608L212.009 219.597L212.01 219.585L212.01 219.574L212.011 219.563L212.012 219.552L212.013 219.541L212.014 219.529L212.014 219.518L212.015 219.507L212.016 219.496L212.017 219.485L212.017 219.473L212.018 219.462L212.019 219.451L212.02 219.44L212.021 219.429L212.021 219.418L212.022 219.407L212.023 219.396L212.024 219.385L212.024 219.374L212.025 219.363L212.026 219.352L212.027 219.341L212.027 219.33L212.028 219.319L212.029 219.308L212.03 219.297L212.03 219.286L212.031 219.275L212.032 219.264L212.033 219.253L212.033 219.243L212.034 219.232L212.035 219.221L212.036 219.21L212.036 219.199L212.037 219.189L212.038 219.178L212.039 219.167L212.039 219.157L212.04 219.146L212.041 219.135L212.042 219.124L212.042 219.114L212.043 219.103L212.044 219.093L212.045 219.082L212.045 219.072L212.046 219.061L212.047 219.05L212.048 219.04L212.048 219.029L212.049 219.019L212.05 219.009L212.05 218.998L212.051 218.988L212.052 218.977L212.053 218.967L212.053 218.957L212.054 218.946L212.055 218.936L212.055 218.926L212.056 218.915L212.057 218.905L212.058 218.895L212.058 218.885L212.059 218.874L212.06 218.864L212.06 218.854L212.061 218.844L212.062 218.834L212.063 218.824L212.063 218.814L212.064 218.804L212.065 218.794L212.065 218.784L212.066 218.774L212.067 218.764L212.067 218.754L212.068 218.744L212.069 218.734L212.069 218.724L212.07 218.714L212.071 218.704L212.071 218.695L212.072 218.685L212.073 218.675L212.074 218.665L212.074 218.656L212.075 218.646L212.076 218.636L212.076 218.627L212.077 218.617L212.078 218.607L212.078 218.598L212.079 218.588L212.08 218.579L212.08 218.569L212.081 218.56L212.081 218.55L212.082 218.541L212.083 218.532L212.083 218.522L212.084 218.513L212.085 218.504L212.085 218.494L212.086 218.485L212.087 218.476L212.087 218.467L212.088 218.457L212.089 218.448L212.089 218.439L212.09 218.43L212.09 218.421L212.091 218.412L212.092 218.403L212.092 218.394L212.093 218.385L212.094 218.376L212.094 218.367L212.095 218.358L212.095 218.349L212.096 218.341L212.097 218.332L212.097 218.323L212.098 218.314L212.098 218.306L212.099 218.297L212.1 218.288L212.1 218.28L212.101 218.271L212.101 218.262L212.102 218.254L212.103 218.245L212.103 218.237L212.104 218.228L212.104 218.22L212.105 218.212L212.106 218.203L212.106 218.195L212.107 218.187L212.107 218.178L212.108 218.17L212.108 218.162L212.109 218.154L212.11 218.145L212.11 218.137L212.111 218.129L212.111 218.121L212.112 218.113L212.112 218.105L212.113 218.097L212.114 218.089L212.114 218.081L212.115 218.073L212.115 218.066L212.116 218.058L212.116 218.05L212.117 218.042L212.117 218.035L212.118 218.027L212.118 218.019L212.119 218.012L212.119 218.004L212.12 217.997L212.12 217.989L212.121 217.982L212.122 217.974L212.122 217.967L212.123 217.959L212.123 217.952L212.124 217.945L212.124 217.937L212.125 217.93L212.125 217.923L212.126 217.916L212.126 217.909L212.127 217.902L212.127 217.895L212.128 217.888L212.128 217.881L212.128 217.874L212.129 217.867L212.129 217.86L212.13 217.853L212.13 217.846L212.131 217.839L212.131 217.833L212.132 217.826L212.132 217.819L212.133 217.813L212.133 217.806L212.134 217.799L212.134 217.793L212.135 217.786L212.135 217.78L212.135 217.774L212.136 217.767L212.136 217.761L212.137 217.755L212.137 217.748L212.138 217.742L212.138 217.736L212.138 217.73L212.139 217.724L212.139 217.718L212.14 217.712L212.14 217.706L212.141 217.7L212.141 217.694L212.141 217.688L212.142 217.682L212.142 217.676L212.143 217.671L212.143 217.665L212.143 217.659L212.144 217.654L212.144 217.648L212.145 217.642L212.145 217.637L212.145 217.631L212.146 217.626L212.146 217.621L212.146 217.615L212.147 217.61L212.147 217.605L212.148 217.599L212.148 217.594L212.148 217.589L212.149 217.584L212.149 217.579L212.149 217.574L212.15 217.569L212.15 217.564L212.15 217.559L212.151 217.554L212.151 217.55L212.151 217.545L212.152 217.54L212.152 217.535L212.152 217.531L212.153 217.526L212.153 217.522L212.153 217.517L212.154 217.513L212.154 217.508L212.154 217.504L212.154 217.5L212.155 217.495L212.155 217.491L212.155 217.487L212.156 217.483L212.156 217.479L212.156 217.475L212.156 217.471L212.157 217.467L212.157 217.463L212.157 217.459L212.158 217.455L212.158 217.451L212.158 217.447L212.158 217.444L212.159 217.44L212.159 217.437L212.159 217.433L212.159 217.429L212.16 217.426L212.16 217.423L212.16 217.419L212.16 217.416L212.16 217.413L212.161 217.409L212.161 217.406L212.161 217.403L212.161 217.4L212.162 217.397L212.162 217.394L212.162 217.391L212.162 217.388L212.162 217.385L212.163 217.382L212.163 217.38L212.163 217.377L212.163 217.374L212.163 217.372L212.163 217.369L212.164 217.367L212.164 217.364L212.164 217.362L212.164 217.36L212.164 217.357L212.164 217.355L212.165 217.353L212.165 217.351L212.165 217.348L212.165 217.346L212.165 217.344L212.165 217.342L212.165 217.341L212.165 217.341L212.394 214.083C212.452 213.257 213.168 212.635 213.994 212.692L217.136 212.91L221.973 213.246C222.799 213.303 223.422 214.02 223.365 214.847L223.365 214.85L223.365 214.853L223.364 214.857L223.364 214.86L223.364 214.864L223.364 214.867L223.363 214.87L223.363 214.874L223.363 214.877L223.363 214.881L223.362 214.884L223.362 214.888L223.362 214.891L223.362 214.894L223.362 214.898L223.361 214.901L223.361 214.905L223.361 214.908L223.361 214.911L223.36 214.915L223.36 214.918L223.36 214.922L223.36 214.925L223.359 214.928L223.359 214.932L223.359 214.935L223.359 214.939L223.358 214.942L223.358 214.945L223.358 214.949L223.358 214.952L223.358 214.955L223.357 214.959L223.357 214.962L223.357 214.966L223.357 214.969L223.356 214.972L223.356 214.976L223.356 214.979L223.356 214.982L223.355 214.986L223.355 214.989L223.355 214.993L223.355 214.996L223.355 214.999L223.354 215.003L223.354 215.006L223.354 215.009L223.354 215.013L223.353 215.016L223.353 215.019L223.353 215.023L223.353 215.026L223.352 215.029L223.352 215.033L223.352 215.036L223.352 215.04L223.351 215.043L223.351 215.046L223.351 215.05L223.351 215.053L223.351 215.056L223.35 215.06L223.35 215.063L223.35 215.066L223.35 215.069L223.349 215.073L223.349 215.076L223.349 215.079L223.349 215.083L223.348 215.086L223.348 215.089L223.348 215.093L223.348 215.096L223.348 215.099L223.347 215.103L223.347 215.106L223.347 215.109L223.347 215.113L223.346 215.116L223.346 215.119L223.346 215.122L223.346 215.126L223.346 215.129L223.345 215.132L223.345 215.136L223.345 215.139L223.345 215.142L223.344 215.145L223.344 215.149L223.344 215.152L223.344 215.155L223.343 215.158L223.343 215.162L223.343 215.165L223.343 215.168L223.343 215.171L223.342 215.175L223.342 215.178L223.342 215.181L223.342 215.184L223.341 215.188L223.341 215.191L223.341 215.194L223.341 215.197L223.341 215.201L223.34 215.204L223.34 215.207L223.34 215.21L223.34 215.214L223.339 215.217L223.339 215.22L223.339 215.223L223.339 215.226L223.339 215.23L223.338 215.233L223.338 215.236L223.338 215.239L223.338 215.243L223.337 215.246L223.337 215.249L223.337 215.252L223.337 215.255L223.337 215.258L223.336 215.262L223.336 215.265L223.336 215.268L223.336 215.271L223.335 215.274L223.335 215.278L223.335 215.281L223.335 215.284L223.335 215.287L223.334 215.29L223.334 215.293L223.334 215.297L223.334 215.3L223.333 215.303L223.333 215.306L223.333 215.309L223.333 215.312L223.333 215.315L223.332 215.319L223.332 215.322L223.332 215.325L223.332 215.328L223.331 215.331L223.331 215.334L223.331 215.337L223.331 215.34L223.331 215.343L223.33 215.347L223.33 215.35L223.33 215.353L223.33 215.356L223.33 215.359L223.329 215.362L223.329 215.365L223.329 215.368L223.329 215.371L223.328 215.374L223.328 215.378L223.328 215.381L223.328 215.384L223.328 215.387L223.327 215.39L223.327 215.393L223.327 215.396L223.327 215.399L223.327 215.402L223.326 215.405L223.326 215.408L223.326 215.411L223.326 215.414L223.325 215.417L223.325 215.42L223.325 215.423L223.325 215.426L223.325 215.429L223.324 215.432L223.324 215.435L223.324 215.438L223.324 215.441L223.324 215.444L223.323 215.447L223.323 215.45L223.323 215.453L223.323 215.456L223.323 215.459L223.322 215.462L223.322 215.465L223.322 215.468L223.322 215.471L223.322 215.474L223.321 215.477L223.321 215.48L223.321 215.483L223.321 215.486L223.321 215.489L223.32 215.492L223.32 215.495L223.32 215.498L223.32 215.501L223.319 215.504L223.319 215.507L223.319 215.509L223.319 215.512L223.319 215.515L223.318 215.518L223.318 215.521L223.318 215.524L223.318 215.527L223.318 215.53L223.317 215.533L223.317 215.536L223.317 215.538L223.317 215.541L223.317 215.544L223.316 215.547L223.316 215.55L223.316 215.553L223.316 215.556L223.316 215.559L223.315 215.561L223.315 215.564L223.315 215.567L223.315 215.57L223.315 215.573L223.314 215.576L223.314 215.578L223.314 215.581L223.314 215.584L223.314 215.587L223.314 215.59L223.313 215.593L223.313 215.595L223.313 215.598L223.313 215.601L223.313 215.604L223.312 215.607L223.312 215.609L223.312 215.612L223.312 215.615L223.312 215.618L223.311 215.62L223.311 215.623L223.311 215.626L223.311 215.629L223.311 215.631L223.31 215.634L223.31 215.637L223.31 215.64L223.31 215.642L223.31 215.645L223.309 215.648L223.309 215.651L223.309 215.653L223.309 215.656L223.309 215.659L223.309 215.661L223.308 215.664L223.308 215.667L223.308 215.669L223.308 215.672L223.308 215.675L223.307 215.677L223.307 215.68L223.307 215.683L223.307 215.685L223.307 215.688L223.307 215.691L223.306 215.693L223.306 215.696L223.306 215.699L223.306 215.701L223.306 215.704L223.305 215.707L223.305 215.709L223.305 215.712L223.305 215.714L223.305 215.717L223.304 215.72L223.304 215.722L223.304 215.725L223.304 215.727L223.304 215.73L223.304 215.732L223.303 215.735L223.303 215.738L223.303 215.74L223.303 215.743L223.303 215.745L223.303 215.748L223.302 215.75L223.302 215.753L223.302 215.755L223.302 215.758L223.302 215.76L223.301 215.763L223.301 215.766L223.301 215.768L223.301 215.771L223.301 215.773L223.301 215.776L223.3 215.778L223.3 215.78L223.3 215.783L223.3 215.785L223.3 215.788L223.3 215.79L223.299 215.793L223.299 215.795L223.299 215.798L223.299 215.8L223.299 215.803L223.299 215.805L223.298 215.807L223.298 215.81L223.298 215.812L223.298 215.815L223.298 215.817L223.298 215.819L223.297 215.822L223.297 215.824L223.297 215.827L223.297 215.829L223.297 215.831L223.297 215.834L223.296 215.836L223.296 215.838L223.296 215.841L223.296 215.843L223.296 215.846L223.296 215.848L223.295 215.85L223.295 215.852L223.295 215.855L223.295 215.857L223.295 215.859L223.295 215.862L223.294 215.864L223.294 215.866L223.294 215.869L223.294 215.871L223.294 215.873L223.294 215.875L223.294 215.878L223.293 215.88L223.293 215.882L223.293 215.884L223.293 215.887L223.293 215.889L223.293 215.891L223.292 215.893L223.292 215.896L223.292 215.898L223.292 215.9L223.292 215.902L223.292 215.904L223.292 215.907L223.291 215.909L223.291 215.911L223.291 215.913L223.291 215.915L223.291 215.917L223.291 215.92L223.29 215.922L223.29 215.924L223.29 215.926L223.29 215.928L223.29 215.93L223.29 215.932L223.29 215.934L223.289 215.937L223.289 215.939L223.289 215.941L223.289 215.943L223.289 215.945L223.289 215.947L223.289 215.949L223.288 215.951L223.288 215.953L223.288 215.955L223.288 215.957L223.288 215.959L223.288 215.961L223.288 215.963L223.287 215.965L223.287 215.967L223.287 215.969L223.287 215.971L223.287 215.973L223.287 215.975L223.287 215.977L223.286 215.979L223.286 215.981L223.286 215.983L223.286 215.985L223.286 215.987L223.286 215.989L223.286 215.991L223.286 215.993L223.285 215.995L223.285 215.997L223.285 215.999L223.285 216.001L223.285 216.003L223.285 216.005L223.285 216.006L223.284 216.008L223.284 216.01L223.284 216.012L223.284 216.014L223.284 216.016L223.284 216.018L223.284 216.02L223.284 216.021L223.283 216.023L223.283 216.025L223.283 216.027L223.283 216.029L223.283 216.03L223.283 216.032L223.283 216.034L223.283 216.036L223.282 216.038L223.282 216.039L223.282 216.041L223.282 216.043L223.282 216.045L223.282 216.046L223.282 216.048L223.282 216.05L223.281 216.052L223.281 216.053L223.281 216.055L223.281 216.057L223.281 216.058L223.281 216.06L223.281 216.062L223.281 216.064L223.281 216.065L223.28 216.067L223.28 216.069L223.28 216.07L223.28 216.072L223.28 216.073L223.28 216.075L223.28 216.077L223.28 216.078L223.279 216.08L223.279 216.082L223.279 216.083L223.279 216.085L223.279 216.086L223.279 216.088L223.279 216.089L223.279 216.091L223.279 216.093L223.278 216.094L223.278 216.096L223.278 216.097L223.278 216.099L223.278 216.1L223.278 216.102L223.278 216.103L223.278 216.105L223.278 216.106L223.278 216.108L223.277 216.109L223.277 216.111L223.277 216.112L223.277 216.114L223.277 216.115L223.277 216.116L223.277 216.118L223.277 216.119L223.277 216.121L223.277 216.122L223.276 216.124L223.276 216.125L223.276 216.126L223.276 216.128L223.276 216.129L223.276 216.131L223.276 216.132L223.276 216.133L223.276 216.135L223.276 216.136L223.276 216.137L223.275 216.139L223.275 216.14L223.275 216.141L223.275 216.142L223.275 216.144L223.275 216.145L223.275 216.146L223.275 216.148L223.275 216.149L223.275 216.15L223.275 216.151L223.274 216.153L223.274 216.154L223.274 216.155L223.274 216.156L223.274 216.157L223.274 216.159L223.274 216.16L223.274 216.161L223.274 216.162L223.274 216.163L223.274 216.165L223.227 216.842Z" fill="white" stroke="white" stroke-linejoin="round"/>
</g>
<g opacity="0.5" clip-path="url(#clip2_6143_70685)">
<path d="M2.58819 247.941C1.15877 242.606 4.3246 237.122 9.65926 235.693L21.2504 232.587C26.585 231.158 32.0684 234.324 33.4978 239.658L36.6036 251.249C38.0331 256.584 34.8672 262.067 29.5326 263.497L17.9415 266.603C12.6068 268.032 7.12344 264.866 5.69402 259.532L2.58819 247.941Z" fill="white"/>
<mask id="mask0_6143_70685" style="mask-type:alpha" maskUnits="userSpaceOnUse" x="2" y="232" width="35" height="35">
<rect y="238.281" width="32" height="32" rx="10" transform="rotate(-15 0 238.281)" fill="white"/>
</mask>
<g mask="url(#mask0_6143_70685)">
<path fill-rule="evenodd" clip-rule="evenodd" d="M5.69384 259.531C7.12326 264.866 12.6066 268.031 17.9413 266.602L29.5324 263.496C34.8671 262.067 38.0329 256.583 36.6035 251.249L33.2388 238.692L22.8764 241.468C20.1477 242.2 17.3097 242.434 14.498 242.16C11.6863 241.887 8.84834 242.121 6.11964 242.852L1.55273 244.076L5.69384 259.531Z" fill="url(#paint6_linear_6143_70685)"/>
<path d="M15.4548 234.139L8.69336 235.951L10.0844 241.142C11.5824 241.012 13.0923 241.019 14.595 241.165C15.5167 241.255 16.4413 241.287 17.3637 241.263L15.4548 234.139Z" fill="#FFD16E"/>
<path d="M7.72741 236.211L0 238.281L1.2941 243.111L5.86101 241.887C6.92004 241.603 7.99486 241.391 9.07817 241.252L7.72741 236.211Z" fill="#FF7D75"/>
<path d="M23.1814 232.069L16.4199 233.881L18.3848 241.214C19.8067 241.112 21.2187 240.876 22.6014 240.507L25.252 239.797L23.1814 232.069Z" fill="#83CB9A"/>
<path d="M30.9099 229.999L24.1484 231.811L26.219 239.538L32.9805 237.726L30.9099 229.999Z" fill="#5586FF"/>
<path d="M28.4576 247.893C27.7991 247.528 27.0707 247.294 26.3138 247.204C25.557 247.114 24.7866 247.17 24.0466 247.368C23.3067 247.566 22.6116 247.903 22.0012 248.36C21.3908 248.816 20.8769 249.383 20.4889 250.028L16.9974 255.832C18.3273 256.569 19.914 256.757 21.4084 256.357C22.9028 255.957 24.1826 255 24.9661 253.697L28.4576 247.893Z" fill="url(#paint7_linear_6143_70685)"/>
<path d="M11.0712 252.551C11.4591 251.906 11.973 251.339 12.5834 250.883C13.1939 250.427 13.8889 250.09 14.6289 249.891C15.3688 249.693 16.1392 249.637 16.8961 249.727C17.6529 249.817 18.3814 250.051 19.0399 250.416L24.9659 253.697C24.1824 255 22.9026 255.957 21.4082 256.357C19.9138 256.758 18.3271 256.569 16.9972 255.832L11.0712 252.551Z" fill="url(#paint8_linear_6143_70685)"/>
</g>
</g>
<defs>
<linearGradient id="paint0_linear_6143_70685" x1="91.5" y1="0" x2="91.5" y2="15" gradientUnits="userSpaceOnUse">
<stop stop-color="#2F56B8"/>
<stop offset="1" stop-color="#203976"/>
</linearGradient>
<linearGradient id="paint1_linear_6143_70685" x1="173" y1="24" x2="173" y2="56" gradientUnits="userSpaceOnUse">
<stop stop-color="#FF708C"/>
<stop offset="1" stop-color="#FF7768"/>
</linearGradient>
<linearGradient id="paint2_linear_6143_70685" x1="52.2812" y1="137" x2="52.2812" y2="105" gradientUnits="userSpaceOnUse">
<stop stop-color="#0090FF"/>
<stop offset="1" stop-color="#29DBFF"/>
</linearGradient>
<linearGradient id="paint3_linear_6143_70685" x1="138.281" y1="103" x2="138.281" y2="135" gradientUnits="userSpaceOnUse">
<stop stop-color="#EA1C0F"/>
<stop offset="1" stop-color="#DA342A"/>
</linearGradient>
<linearGradient id="paint4_linear_6143_70685" x1="106" y1="246.281" x2="106" y2="278.281" gradientUnits="userSpaceOnUse">
<stop stop-color="#4ADCE5"/>
<stop offset="1" stop-color="#3DD8B4"/>
</linearGradient>
<linearGradient id="paint5_linear_6143_70685" x1="220.742" y1="201.525" x2="220.742" y2="233.525" gradientUnits="userSpaceOnUse">
<stop stop-color="#65B7FF"/>
<stop offset="0.0001" stop-color="#65DFFF"/>
<stop offset="1" stop-color="#8C72FB"/>
</linearGradient>
<linearGradient id="paint6_linear_6143_70685" x1="17.0075" y1="239.935" x2="23.7368" y2="265.049" gradientUnits="userSpaceOnUse">
<stop stop-color="#5BA7FF"/>
<stop offset="1" stop-color="#9664FF"/>
</linearGradient>
<linearGradient id="paint7_linear_6143_70685" x1="25.9504" y1="246.504" x2="19.8967" y2="257.438" gradientUnits="userSpaceOnUse">
<stop offset="0.33751" stop-color="white"/>
<stop offset="0.794463" stop-color="white" stop-opacity="0"/>
</linearGradient>
<linearGradient id="paint8_linear_6143_70685" x1="12.5483" y1="250.095" x2="23.2577" y2="256.537" gradientUnits="userSpaceOnUse">
<stop stop-color="white"/>
<stop offset="1" stop-color="white"/>
</linearGradient>
<clipPath id="clip0_6143_70685">
<rect width="32" height="32" fill="white" transform="translate(20.2812 105) rotate(15)"/>
</clipPath>
<clipPath id="clip1_6143_70685">
<rect width="32" height="32" fill="white" transform="translate(106 246.281) rotate(-15)"/>
</clipPath>
<clipPath id="clip2_6143_70685">
<rect width="32" height="32" fill="white" transform="translate(0 238.281) rotate(-15)"/>
</clipPath>
</defs>
</svg>
