<svg width="48" height="48" viewBox="0 0 48 48" fill="none" xmlns="http://www.w3.org/2000/svg">
<rect width="48" height="48" rx="15" fill="url(#paint0_linear_6248_64924)"/>
<path fill-rule="evenodd" clip-rule="evenodd" d="M37.5769 9.59961H30.9908C30.7248 9.59959 30.4615 9.65281 30.2157 9.75623C29.97 9.85964 29.7468 10.0112 29.5587 10.2023L14.1206 25.8852H14.1207L11.8451 28.197C11.4653 28.5828 11.252 29.1061 11.252 29.6518V36.3425C11.252 37.4785 12.1585 38.3995 13.2768 38.3996H19.8632C20.4003 38.3996 20.9155 38.1828 21.2952 37.7969L23.5709 35.4851V35.4854L39.0089 19.8022C39.3886 19.4164 39.6019 18.8931 39.6019 18.3475V11.6568C39.6019 10.5207 38.6954 9.59974 37.577 9.59961H37.5769Z" fill="#28A8EA"/>
<path fill-rule="evenodd" clip-rule="evenodd" d="M13.277 9.59961H19.8632C20.4002 9.59961 20.9153 9.81634 21.2951 10.2021L25.4269 14.3996V20.3276C25.4269 22.3556 23.8086 23.9996 21.8123 23.9996H15.977L11.845 19.8022C11.4653 19.4164 11.252 18.8931 11.252 18.3475V11.6568C11.252 10.5206 12.1586 9.59961 13.277 9.59961Z" fill="#50D9FF"/>
<path fill-rule="evenodd" clip-rule="evenodd" d="M37.5758 38.402H30.9895C30.7236 38.402 30.4603 38.3488 30.2146 38.2454C29.9689 38.142 29.7457 37.9905 29.5576 37.7994L25.4258 33.6019V27.674C25.4258 25.646 27.0441 24.002 29.0404 24.002H34.8758L39.0077 28.1994C39.1957 28.3904 39.3449 28.6172 39.4466 28.8668C39.5484 29.1164 39.6008 29.3839 39.6008 29.654V36.3448C39.6008 37.481 38.6942 38.402 37.5758 38.402Z" fill="#0078D4"/>
<path fill-rule="evenodd" clip-rule="evenodd" d="M24.077 14.7441H11.252V34.287H24.077C24.8216 34.2848 25.4248 33.672 25.427 32.9155V16.1155C25.4248 15.359 24.8216 14.7464 24.0769 14.7441H24.077Z" fill="black" fill-opacity="0.1"/>
<path fill-rule="evenodd" clip-rule="evenodd" d="M23.0645 15.7715H11.252V35.3143H23.0645C23.8091 35.3121 24.4123 34.6994 24.4145 33.9429V17.1429C24.4123 16.3863 23.8091 15.7737 23.0644 15.7715H23.0645Z" fill="black" fill-opacity="0.2"/>
<path fill-rule="evenodd" clip-rule="evenodd" d="M23.0645 15.7715H11.252V33.2572H23.0645C23.8091 33.255 24.4123 32.6422 24.4145 31.8857V17.1429C24.4123 16.3863 23.8091 15.7737 23.0644 15.7715H23.0645Z" fill="black" fill-opacity="0.2"/>
<path fill-rule="evenodd" clip-rule="evenodd" d="M22.052 15.7715H11.252V33.2572H22.052C22.7966 33.255 23.3998 32.6422 23.402 31.8857V17.1429C23.3998 16.3863 22.7966 15.7737 22.0519 15.7715H22.052Z" fill="black" fill-opacity="0.2"/>
<path fill-rule="evenodd" clip-rule="evenodd" d="M8.55115 15.7715H22.0512C22.7968 15.7715 23.4012 16.3855 23.4012 17.1429V30.8572C23.4012 31.6146 22.7968 32.2286 22.0512 32.2286H8.55115C7.80555 32.2286 7.20117 31.6146 7.20117 30.8572V17.1429C7.20117 16.3855 7.80555 15.7715 8.55115 15.7715Z" fill="#0078D4"/>
<path fill-rule="evenodd" clip-rule="evenodd" d="M18.3625 20.5288H13.9918V23.1252H18.0942V24.7893H13.9918V27.4861H18.5954V29.1431H12.0078V18.8574H18.3625V20.5289V20.5288Z" fill="white"/>
<defs>
<linearGradient id="paint0_linear_6248_64924" x1="72" y1="24" x2="24" y2="-24" gradientUnits="userSpaceOnUse">
<stop stop-color="#EDF3F7"/>
<stop offset="1" stop-color="white"/>
</linearGradient>
</defs>
</svg>
