<svg width="9" height="16" viewBox="0 0 9 16" fill="none" xmlns="http://www.w3.org/2000/svg">
<path fill-rule="evenodd" clip-rule="evenodd" d="M7.82257 0.00332907L5.87287 0C3.68245 0 2.2669 1.54552 2.2669 3.93762V5.75313H0.306571C0.137175 5.75313 0 5.89927 0 6.07954V8.71001C0 8.89028 0.137331 9.03626 0.306571 9.03626H2.2669V15.6738C2.2669 15.854 2.40408 16 2.57348 16H5.13115C5.30055 16 5.43772 15.8539 5.43772 15.6738V9.03626H7.72981C7.89921 9.03626 8.03638 8.89028 8.03638 8.71001L8.03732 6.07954C8.03732 5.99299 8.00494 5.91009 7.94754 5.84884C7.89014 5.78758 7.81193 5.75313 7.73059 5.75313H5.43772V4.2141C5.43772 3.47438 5.60337 3.09886 6.50885 3.09886L7.82225 3.09836C7.99149 3.09836 8.12867 2.95222 8.12867 2.77211V0.329578C8.12867 0.149642 7.99165 0.00366198 7.82257 0.00332907Z" fill="#301356"/>
</svg>
