<svg width="48" height="48" viewBox="0 0 48 48" fill="none" xmlns="http://www.w3.org/2000/svg">
<rect width="48" height="48" rx="15" fill="url(#paint0_linear_6248_64780)"/>
<rect x="12" y="12" width="24" height="24" rx="7.5" fill="#93D2F6"/>
<g filter="url(#filter0_d_6248_64780)">
<rect x="17.791" y="13.4512" width="17.25" height="7.5" transform="rotate(15 17.791 13.4512)" fill="white"/>
</g>
<g filter="url(#filter1_d_6248_64780)">
<rect x="15.541" y="16.4512" width="18.75" height="7.5" transform="rotate(15 15.541 16.4512)" fill="white"/>
</g>
<path fill-rule="evenodd" clip-rule="evenodd" d="M12 28.4932C12 32.6342 15.356 35.9915 19.4969 35.9932L28.4969 35.9969C32.6403 35.9986 36 32.6403 36 28.4969V21L19.7545 20.9876C19.7545 20.9876 19.5087 20.0702 18.7974 19.4559C18.7014 19.3729 18.5663 19.2501 18.4306 19.1594C18.2313 19.0263 18.0516 18.9407 18.0516 18.9407C17.8925 18.8354 17.4491 18.75 17.4491 18.75H16.7156H15.4581H12V28.4932Z" fill="url(#paint1_linear_6248_64780)"/>
<path fill-rule="evenodd" clip-rule="evenodd" d="M20.4415 31.88L21.7819 28.4007V24.75H20.25V31.4679C20.25 31.664 20.3146 31.7476 20.4415 31.88ZM25.5161 24.75L24.4629 27.8513V31.5181C24.4629 31.7072 24.4982 31.739 24.6086 31.8383C24.6226 31.8509 24.6378 31.8647 24.6544 31.88L25.9948 28.4064V25.4817C25.9951 25.1839 25.7733 24.8682 25.5161 24.75ZM27.9099 24.75H29.2503L26.7425 31.4591C26.6131 31.8684 26.2198 32.2498 25.8035 32.2498H25.229L27.9099 24.75ZM24.2714 24.75C23.8548 24.75 23.4615 25.1158 23.3318 25.5258L21.0161 32.2498C21.026 32.2503 21.5906 32.2498 21.5906 32.2498C22.0072 32.2498 22.4657 31.8684 22.5953 31.4591L24.8459 24.75H24.2714Z" fill="white"/>
<defs>
<filter id="filter0_d_6248_64780" x="14.3496" y="11.9512" width="21.6035" height="14.709" filterUnits="userSpaceOnUse" color-interpolation-filters="sRGB">
<feFlood flood-opacity="0" result="BackgroundImageFix"/>
<feColorMatrix in="SourceAlpha" type="matrix" values="0 0 0 0 0 0 0 0 0 0 0 0 0 0 0 0 0 0 127 0" result="hardAlpha"/>
<feOffset/>
<feGaussianBlur stdDeviation="0.75"/>
<feColorMatrix type="matrix" values="0 0 0 0 0 0 0 0 0 0 0 0 0 0 0 0 0 0 0.16 0"/>
<feBlend mode="normal" in2="BackgroundImageFix" result="effect1_dropShadow_6248_64780"/>
<feBlend mode="normal" in="SourceGraphic" in2="effect1_dropShadow_6248_64780" result="shape"/>
</filter>
<filter id="filter1_d_6248_64780" x="12.0996" y="14.9512" width="23.0527" height="15.0972" filterUnits="userSpaceOnUse" color-interpolation-filters="sRGB">
<feFlood flood-opacity="0" result="BackgroundImageFix"/>
<feColorMatrix in="SourceAlpha" type="matrix" values="0 0 0 0 0 0 0 0 0 0 0 0 0 0 0 0 0 0 127 0" result="hardAlpha"/>
<feOffset/>
<feGaussianBlur stdDeviation="0.75"/>
<feColorMatrix type="matrix" values="0 0 0 0 0 0 0 0 0 0 0 0 0 0 0 0 0 0 0.16 0"/>
<feBlend mode="normal" in2="BackgroundImageFix" result="effect1_dropShadow_6248_64780"/>
<feBlend mode="normal" in="SourceGraphic" in2="effect1_dropShadow_6248_64780" result="shape"/>
</filter>
<linearGradient id="paint0_linear_6248_64780" x1="72" y1="24" x2="24" y2="-24" gradientUnits="userSpaceOnUse">
<stop stop-color="#EDF3F7"/>
<stop offset="1" stop-color="white"/>
</linearGradient>
<linearGradient id="paint1_linear_6248_64780" x1="36" y1="36" x2="36" y2="18.75" gradientUnits="userSpaceOnUse">
<stop stop-color="#00B2FF"/>
<stop stop-color="#00A4FF"/>
<stop stop-color="#0099FF"/>
<stop stop-color="#0092FF"/>
<stop stop-color="#0090FF"/>
<stop offset="0.06" stop-color="#0095FF"/>
<stop offset="0.32" stop-color="#00A5FF"/>
<stop offset="0.61" stop-color="#00AFFF"/>
<stop offset="1" stop-color="#00B2FF"/>
</linearGradient>
</defs>
</svg>
