<svg width="24" height="24" viewBox="0 0 24 24" fill="none" xmlns="http://www.w3.org/2000/svg">
<path d="M0 7.5C0 3.35786 3.35786 0 7.5 0H16.5C20.6421 0 24 3.35786 24 7.5V16.5C24 20.6421 20.6421 24 16.5 24H7.5C3.35786 24 0 20.6421 0 16.5V7.5Z" fill="#93D2F6"/>
<path d="M4.5 3.72445C4.5 3.32435 4.82435 3 5.22445 3H18.7756C19.1757 3 19.5 3.32435 19.5 3.72445V9.77555C19.5 10.1757 19.1757 10.5 18.7756 10.5H5.22445C4.82435 10.5 4.5 10.1757 4.5 9.77555V3.72445Z" fill="#C8EBFF"/>
<path d="M3 6C3 5.58579 3.33579 5.25 3.75 5.25H20.25C20.6642 5.25 21 5.58579 21 6V12C21 12.4142 20.6642 12.75 20.25 12.75H3.75C3.33579 12.75 3 12.4142 3 12V6Z" fill="white"/>
<path d="M0 8.25H6.80813C7.71948 8.25 8.58142 8.66427 9.15073 9.37591L10.3493 10.8741C10.9186 11.5857 11.7805 12 12.6919 12H24V16.5C24 20.6421 20.6421 24 16.5 24H7.5C3.35786 24 0 20.6421 0 16.5V8.25Z" fill="url(#paint0_linear_7584_2410)"/>
<defs>
<linearGradient id="paint0_linear_7584_2410" x1="12" y1="8.25" x2="12" y2="24" gradientUnits="userSpaceOnUse">
<stop stop-color="#01B1FF"/>
<stop offset="1" stop-color="#0192FF"/>
</linearGradient>
</defs>
</svg>
