<svg width="48" height="48" viewBox="0 0 48 48" fill="none" xmlns="http://www.w3.org/2000/svg">
<g id="free guest accounts">
<g id="box">
<rect id="background_2" width="48" height="48" rx="15" fill="url(#paint0_linear_6248_64732)"/>
<g id="ico_32px_Free_guest_accounts">
<path id="Path" d="M24.405 13.5C26.51 13.5 28.4662 14.4482 29.8154 16.0631C30.1379 16.4491 30.4213 16.8684 30.6608 17.3145C30.8567 17.6795 30.7197 18.1341 30.3548 18.3301C29.9898 18.526 29.5351 18.389 29.3392 18.024C29.1478 17.6676 28.9215 17.3327 28.6643 17.0249C27.5953 15.7454 26.0576 15 24.405 15C21.2887 15 18.75 17.6424 18.75 20.9167C18.75 21.3309 18.4142 21.6667 18 21.6667C17.5858 21.6667 17.25 21.3309 17.25 20.9167C17.25 16.8271 20.4465 13.5 24.405 13.5Z" fill="#F48F51"/>
<rect id="Rectangle" x="14.25" y="21" width="19.5" height="13.5" rx="1.5" fill="#7E5FF1"/>
</g>
</g>
</g>
<defs>
<linearGradient id="paint0_linear_6248_64732" x1="72" y1="24" x2="24" y2="-24" gradientUnits="userSpaceOnUse">
<stop stop-color="#EDF3F7"/>
<stop offset="1" stop-color="white"/>
</linearGradient>
</defs>
</svg>
