<?xml version="1.0" encoding="utf-8"?>
<!-- Generator: Adobe Illustrator 24.2.1, SVG Export Plug-In . SVG Version: 6.00 Build 0)  -->
<svg version="1.1" id="Layer_1" xmlns="http://www.w3.org/2000/svg" xmlns:xlink="http://www.w3.org/1999/xlink" x="0px" y="0px"
	 viewBox="0 0 1000 1000" style="enable-background:new 0 0 1000 1000;" xml:space="preserve">
<style type="text/css">
	.st0{fill:none;}
	.st1{fill:#A41B1E;}
	.st2{fill:#939393;}
	.st3{fill:#FAC02B;}
</style>
<rect y="0" class="st0" width="1000" height="1000"/>
<rect x="0" y="0" class="st0" width="1000" height="1000"/>
<g>
	<g>
		<rect x="466.4" y="377.62" class="st1" width="300.87" height="110.59"/>
		<path class="st1" d="M649.62,377.62c20.89,56.43,9.58,121.19-34.48,165.24l79.81,79.81c66.62-66.62,91.9-158.93,75.86-245.05
			H649.62z"/>
		<path class="st2" d="M306.03,233.75l79.81,79.81c11.61-11.61,24.67-20.94,38.63-28.01c-0.2-2.23-0.3-4.47-0.3-6.72
			c0-42.08,34.23-76.31,76.31-76.31s76.31,34.23,76.31,76.31c0,3.99-0.35,7.95-0.97,11.87c12.57,7.21,24.46,16.16,35.24,26.94
			l83.89-83.89C587.55,126.35,413.42,126.35,306.03,233.75z"/>
		<path class="st2" d="M500.48,224.51c-29.94,0-54.31,24.36-54.31,54.31c0,6.46,1.14,12.64,3.2,18.39
			c7.55,20.92,27.62,35.91,51.11,35.91c23.49,0,43.56-15,51.11-35.91c2.06-5.75,3.2-11.94,3.2-18.39
			C554.79,248.88,530.43,224.51,500.48,224.51z"/>
		<path class="st1" d="M615.14,542.86C615.14,542.86,615.14,542.86,615.14,542.86c-11.62,11.62-24.68,20.94-38.64,28.02
			c0.19,2.22,0.3,4.46,0.3,6.72c0,42.08-34.23,76.31-76.31,76.31s-76.31-34.23-76.31-76.31c0-4.01,0.35-7.97,0.97-11.88
			c-12.57-7.21-24.45-16.16-35.22-26.93l-83.89,83.89c107.4,107.4,281.52,107.4,388.92,0L615.14,542.86z"/>
		<path class="st1" d="M500.48,631.9c29.95,0,54.31-24.36,54.31-54.31c0-6.43-1.12-12.62-3.2-18.37
			c-7.55-20.94-27.59-35.94-51.11-35.94c-23.51,0-43.56,15-51.11,35.94c-2.09,5.75-3.2,11.94-3.2,18.37
			C446.17,607.54,470.54,631.9,500.48,631.9z"/>
		<path class="st3" d="M346.26,504.52c-42.08,0-76.31-34.23-76.31-76.31s34.23-76.31,76.31-76.31c3.82,0,7.58,0.3,11.29,0.85
			c7.11-14.17,16.51-27.42,28.28-39.19l-79.81-79.81c-107.4,107.4-107.4,281.52,0,388.92l83.89-83.89c-11-11-20.09-23.14-27.37-36
			C357.24,503.94,351.8,504.52,346.26,504.52z"/>
		<path class="st3" d="M346.26,373.9c-29.94,0-54.31,24.36-54.31,54.31c0,29.94,24.36,54.31,54.31,54.31
			c8.03,0,15.68-1.75,22.54-4.9c18.71-8.57,31.77-27.49,31.77-49.41c0-21.91-13.06-40.84-31.77-49.41
			C361.94,375.64,354.3,373.9,346.26,373.9z"/>
	</g>
	<g>
		<path d="M315.13,791.71c3.8,2.75,6.41,6.48,7.83,11.19h-5.01c-1.24-3.25-3.33-5.88-6.28-7.89c-2.95-2.01-6.44-3.02-10.47-3.02
			c-3.48,0-6.63,0.82-9.44,2.47c-2.81,1.65-5.02,4.01-6.63,7.07c-1.6,3.07-2.4,6.64-2.4,10.71c0,4.16,0.81,7.78,2.44,10.85
			c1.62,3.07,3.87,5.42,6.73,7.07s6.12,2.47,9.78,2.47c3.25,0,6.22-0.72,8.92-2.16c2.7-1.44,4.88-3.54,6.56-6.28
			c1.67-2.75,2.64-5.97,2.92-9.68h-20.11v-3.64h24.3v4.26c-0.32,4.12-1.48,7.83-3.47,11.12c-1.99,3.29-4.67,5.89-8.03,7.79
			c-3.36,1.9-7.2,2.85-11.5,2.85c-4.58,0-8.65-1.04-12.22-3.12c-3.57-2.08-6.34-5-8.31-8.75c-1.97-3.75-2.95-8.01-2.95-12.77
			c0-4.76,0.98-9.01,2.95-12.77c1.97-3.75,4.72-6.67,8.27-8.75c3.55-2.08,7.61-3.12,12.19-3.12
			C306.69,787.6,311.33,788.97,315.13,791.71z"/>
		<path d="M376.09,824.6h-22.04l-4.39,11.81h-5.15l17.85-47.3h5.42l17.85,47.3h-5.22L376.09,824.6z M374.65,820.75l-9.54-26.09
			l-9.68,26.09H374.65z"/>
		<path d="M433.41,836.4l-13.25-20.18h-7.83v20.18h-4.87v-48.4h14.83c5.45,0,9.51,1.28,12.18,3.84c2.68,2.56,4.02,6.02,4.02,10.37
			c0,4.03-1.13,7.23-3.4,9.61c-2.27,2.38-5.55,3.8-9.85,4.26l13.66,20.32H433.41z M412.34,812.58h9.61
			c7.78,0,11.67-3.36,11.67-10.09c0-6.87-3.89-10.3-11.67-10.3h-9.61V812.58z"/>
		<path d="M489.56,824.6h-22.04l-4.39,11.81h-5.15l17.85-47.3h5.42l17.85,47.3h-5.22L489.56,824.6z M488.12,820.75l-9.54-26.09
			l-9.68,26.09H488.12z"/>
		<path d="M542.9,788.01v36.73c0,3.66-1.09,6.6-3.26,8.82c-2.17,2.22-5.16,3.33-8.96,3.33c-4.16,0-7.41-1.24-9.75-3.71
			c-2.33-2.47-3.5-5.93-3.5-10.37h4.81c0,2.93,0.66,5.28,1.99,7.04c1.33,1.76,3.41,2.64,6.25,2.64c2.7,0,4.63-0.74,5.8-2.23
			c1.17-1.49,1.75-3.33,1.75-5.53v-36.73H542.9z"/>
		<path d="M608.7,816.63c4.83-5.4,7.24-10.46,7.24-15.17c0-2.97-0.78-5.39-2.33-7.24s-4.07-2.78-7.55-2.78
			c-3.57,0-6.28,1.11-8.14,3.33c-1.85,2.22-2.89,5.23-3.12,9.03h-4.74c0.32-5.26,1.95-9.32,4.87-12.18
			c2.93-2.86,6.75-4.29,11.46-4.29c4.3,0,7.78,1.17,10.43,3.5c2.65,2.33,3.98,5.74,3.98,10.23c0,3.8-1.26,7.68-3.78,11.63
			c-2.52,3.96-5.65,7.62-9.4,10.98c-3.75,3.36-7.57,6.21-11.46,8.55h26.02v3.98h-32.88v-3.43
			C597.41,827.41,603.87,822.03,608.7,816.63z"/>
		<path d="M627.06,824.73v-3.98l25.54-32.95h5.15v32.68h7.55v4.26h-7.55v11.67h-4.87v-11.67H627.06z M653.22,793.77l-21.01,26.7
			h21.01V793.77z"/>
		<path class="st3" d="M691.32,771.88l-18.88,75.99h-4.67l18.81-75.99H691.32z"/>
		<path d="M724.54,791.58l-18.6,44.83h-5.08l18.81-44.35h-26.64v-4.19h31.51V791.58z"/>
	</g>
</g>
</svg>
