<svg width="24" height="24" viewBox="0 0 24 24" fill="none" xmlns="http://www.w3.org/2000/svg">
<path fill-rule="evenodd" clip-rule="evenodd" d="M18.0002 18C16.5002 18 15.2537 16.8945 15.0332 15.4545L18.0002 11.5005L20.9672 15.4545C20.7467 16.8945 19.5002 18 18.0002 18ZM6.00024 21C4.50024 21 3.25374 19.8945 3.03474 18.4545L6.00024 14.5005L8.96574 18.4545C8.74674 19.8945 7.50024 21 6.00024 21ZM18.7502 10.0005V4.9335C18.7502 4.5885 18.5822 4.266 18.2972 4.0695C18.0137 3.8745 17.6552 3.828 17.3312 3.9495L12.7502 5.667V2.25C12.7502 1.836 12.4142 1.5 12.0002 1.5C11.5862 1.5 11.2502 1.836 11.2502 2.25V6.2295L5.93124 8.2245C5.52474 8.3775 5.25024 8.7735 5.25024 9.2085V13.0005L1.50024 18C1.50024 20.4855 3.51474 22.5 6.00024 22.5C8.48574 22.5 10.5002 20.4855 10.5002 18L6.75024 13.0005V9.519L17.2502 5.583V10.0005L13.5002 15C13.5002 17.4855 15.5147 19.5 18.0002 19.5C20.4857 19.5 22.5002 17.4855 22.5002 15L18.7502 10.0005Z" fill="#7E5FF1"/>
</svg>
