<svg width="24" height="24" viewBox="0 0 24 24" fill="none" xmlns="http://www.w3.org/2000/svg">
<g id="Icons/16/Storage">
<path id="Inbox" fill-rule="evenodd" clip-rule="evenodd" d="M21 21H3V15H6.33C7.14 16.77 9.345 18 12 18C14.655 18 16.86 16.77 17.67 15H21V21ZM5.7 3H18.3L20.625 13.5H17.661C17.0985 13.5 16.548 13.7985 16.329 14.3175C16.2255 14.5605 16.0815 14.79 15.9 15C15.12 15.9 13.665 16.5 12 16.5C10.335 16.5 8.88 15.9 8.1 15C7.9185 14.79 7.7745 14.5605 7.671 14.3175C7.452 13.7985 6.9015 13.5 6.339 13.5H3.375L5.7 3ZM22.365 14.385L19.755 2.67C19.605 1.995 19.005 1.5 18.3 1.5H5.7C4.995 1.5 4.395 1.995 4.245 2.67L1.635 14.385L1.5 15V21C1.5 21.825 2.175 22.5 3 22.5H21C21.825 22.5 22.5 21.825 22.5 21V15L22.365 14.385Z" fill="#c1171a"/>
</g>
</svg>
