<svg width="24" height="24" viewBox="0 0 24 24" fill="none" xmlns="http://www.w3.org/2000/svg">
<g id="Icons/16/Users">
<path id="Users" d="M12.8205 13.5C14.8515 13.5 16.5 15.1485 16.5 17.1795V19.5C16.5 20.3295 15.8295 21 15 21H3C2.1705 21 1.5 20.3295 1.5 19.5V17.1795C1.5 15.1485 3.1485 13.5 5.1795 13.5H12.8205ZM12.8205 15H5.1795C3.978 15 3 15.978 3 17.1795V19.5H15V17.1795C15 15.978 14.022 15 12.8205 15ZM20.3204 10.5C22.3514 10.5 23.9999 12.1485 23.9999 14.1795V15C23.9999 15.8295 23.3294 16.5 22.4999 16.5H17.9999V15H22.4999V14.1795C22.4999 12.978 21.5234 12 20.3204 12H14.9999V10.5H20.3204ZM9 3C11.4855 3 13.5 5.0145 13.5 7.5C13.5 9.9855 11.4855 12 9 12C6.5145 12 4.5 9.9855 4.5 7.5C4.5 5.0145 6.5145 3 9 3ZM9 4.5C7.3455 4.5 6 5.8455 6 7.5C6 9.1545 7.3455 10.5 9 10.5C10.6545 10.5 12 9.1545 12 7.5C12 5.8455 10.6545 4.5 9 4.5ZM18 3C19.656 3 21 4.344 21 6C21 7.656 19.656 9 18 9C16.344 9 15 7.656 15 6C15 4.344 16.344 3 18 3ZM18 4.5C17.172 4.5 16.5 5.172 16.5 6C16.5 6.828 17.172 7.5 18 7.5C18.828 7.5 19.5 6.828 19.5 6C19.5 5.172 18.828 4.5 18 4.5Z" fill="#c1171a"/>
</g>
</svg>
