<svg width="32" height="32" viewBox="0 0 32 32" fill="none" xmlns="http://www.w3.org/2000/svg">
<g id="Icons/32/Micro/IM">
<g id="TeamChat_32px_ico">
<rect id="background" width="32" height="32" rx="10" fill="url(#paint0_linear_11603_38273)"/>
<path id="border" d="M22 32C27.5228 32 32 27.5228 32 22L32 21C32 26.5228 27.5228 31 22 31L10 31C4.47718 31 6.20088e-06 26.5228 6.6837e-06 21L6.59627e-06 22C6.11345e-06 27.5228 4.47718 32 10 32L22 32Z" fill="black" fill-opacity="0.16"/>
</g>
<g id="Icons/16/Bar/Chat">
<path id="Chat" d="M7.90887 9.99122C8.67766 9.048 9.83048 8.50132 11.0473 8.50293L21.0153 8.51619C22.206 8.51777 23.3337 9.05105 24.0905 9.97034C24.6785 10.6846 25 11.581 25 12.5062V17.3089C25 18.2397 24.6777 19.1418 24.0879 19.8618C23.3227 20.7961 22.1788 21.3378 20.9712 21.3378H14.7929C14.2832 21.3378 13.792 21.5287 13.416 21.8729L11.6503 23.4895C11.0183 24.0681 10 23.6197 10 22.7629C10 22.5353 9.9212 22.3147 9.77698 22.1386L8.5 20.5796C7.53002 19.3954 7 17.9119 7 16.3811V12.5449C7 11.6144 7.32102 10.7125 7.90887 9.99122Z" fill="white"/>
</g>
</g>
<defs>
<linearGradient id="paint0_linear_11603_38273" x1="32" y1="32" x2="32" y2="0" gradientUnits="userSpaceOnUse">
<stop stop-color="#0090FF"/>
<stop offset="1" stop-color="#29DBFF"/>
</linearGradient>
</defs>
</svg>
