<svg width="17" height="16" viewBox="0 0 17 16" fill="none" xmlns="http://www.w3.org/2000/svg">
<path fill-rule="evenodd" clip-rule="evenodd" d="M16.6809 9.80951V15.9999H13.1964V10.2241C13.1964 8.77318 12.6924 7.78297 11.4312 7.78297C10.4684 7.78297 9.8954 8.4503 9.64333 9.09582C9.5514 9.32659 9.52774 9.6478 9.52774 9.97084V15.9999H6.04211C6.04211 15.9999 6.08906 6.21759 6.04211 5.20406H9.5274V6.73433C9.52033 6.74578 9.51115 6.75812 9.5045 6.76921H9.5274V6.73433C9.99046 5.99978 10.8174 4.95044 12.6684 4.95044C14.9617 4.9504 16.6809 6.49344 16.6809 9.80951ZM2.39604 0C1.20386 0 0.424072 0.805554 0.424072 1.86489C0.424072 2.90113 1.1813 3.73113 2.34978 3.73113H2.37306C3.58833 3.73113 4.34412 2.90129 4.34412 1.86489C4.32122 0.805554 3.58833 0 2.39604 0ZM0.631104 16H4.11475V5.20413H0.631104V16Z" fill="#301356"/>
</svg>
