<svg width="318" height="113" viewBox="0 0 318 113" fill="none" xmlns="http://www.w3.org/2000/svg">
<path fill-rule="evenodd" clip-rule="evenodd" d="M255.615 18.1787H239.062L242.515 25.1865L231.826 66.246H240.947L243.601 56.2168H256.242L258.75 66.246H268.593L255.615 18.1787ZM245.674 48.2607L250.017 28.0957H250.113L254.119 48.2607H245.674Z" fill="white"/>
<path d="M236.343 18.3115L204.363 18.2148L208.986 26.6884L215.974 26.5371V66.3779H224.951V26.5371H232.414L236.343 18.3115Z" fill="white"/>
<path d="M188.246 45.415H202.189V37.3173H188.246V26.8584H203.011V18.3115H174.531L179.269 24.7587V66.3779H203.541V57.2197H188.246V45.415Z" fill="white"/>
<path fill-rule="evenodd" clip-rule="evenodd" d="M154.235 18.3115H137.239L141.981 25.1552V66.3779H154.235C165.718 66.3779 174.164 60.1123 174.164 42.1376C174.164 23.5439 165.959 18.3115 154.235 18.3115ZM154.428 57.3388H151.186V26.6806H154.428C161.175 26.7568 164.898 32.7724 164.898 42.3457C164.898 51.9169 161.133 57.3388 154.428 57.3388Z" fill="white"/>
<path fill-rule="evenodd" clip-rule="evenodd" d="M108.935 18.3115L112.388 25.1767L101.695 66.3779H110.817L113.47 56.3486H126.112L128.619 66.3779H138.463L125.484 18.3115H108.935ZM115.545 48.1103L119.887 28.2275H119.983L123.989 48.1103H115.545Z" fill="white"/>
<path d="M77.0607 18.3115L81.1262 24.9736L77.3283 50.2646H77.2307L71.4787 18.1621H53.0627L57.8576 25.2001L53.1769 66.5283H63.3459L65.9631 30.9931L72.0314 66.3779H82.2482L88.3078 30.747L90.5568 66.3779H100.379L95.6408 18.3115H77.0607Z" fill="white"/>
<path fill-rule="evenodd" clip-rule="evenodd" d="M261.791 4.81708e-05C286.691 -0.0322518 291.644 16.1845 287.533 32.0439C286.75 36.7939 275.324 82.8701 275.324 82.8701L43.715 82.7841C43.715 82.7841 31.8967 37.6259 30.4201 31.0888C25.2072 14.5283 33.881 -0.0283518 54.3654 0.0126482L261.791 4.81708e-05ZM46.4085 79.4345L272.461 79.3896C272.461 79.3896 283.029 36.8056 283.791 32.4571C288.396 13.8134 280.529 3.01565 259.965 3.62015L57.9612 3.63185C36.8577 3.35443 28.9983 13.621 34.4319 31.831C35.8655 37.8154 46.4085 79.4345 46.4085 79.4345Z" fill="white"/>
<path d="M291.069 39.0388C291.785 34.1025 292.327 30.3657 291.738 27.7764C308.469 30.2334 318.441 35.087 317.459 44.2159L289.951 112.624C280.383 102.581 248.187 94.3487 211.556 90.2647L281.545 90.2842L290.582 42.4727C290.746 41.2696 290.912 40.1251 291.069 39.0388Z" fill="white"/>
<path d="M27.6335 41.4904C27.7259 41.9361 27.8175 42.3775 27.9065 42.8135L36.9554 90.3545L104.841 90.2364C67.7386 94.2051 39.2073 102.226 28.3245 112.657L0.192666 46.5489C-1.62473 35.8057 9.59207 30.3204 26.3694 28.3633C25.7129 32.2338 26.7159 37.068 27.6335 41.4904Z" fill="white"/>
</svg>
