<svg width="24" height="24" viewBox="0 0 24 24" fill="none" xmlns="http://www.w3.org/2000/svg">
<rect width="24" height="24" rx="7.5" fill="#7E5FF1" fill-opacity="0.08"/>
<path fill-rule="evenodd" clip-rule="evenodd" d="M19 5.69289C18.9993 4.87401 18.3348 4.21021 17.5147 4.20899L17.5146 4.20902H6.48519C5.66513 4.21024 5.00066 4.87398 4.99994 5.69298V14.6958V14.696V14.6996C4.99994 15.5201 5.66412 16.1857 6.48531 16.1897H8.99997V17.7104L12.8073 16.1897L17.5148 16.1888C18.3357 16.1852 19 15.5196 19 14.6991V14.696V5.69289ZM6.48534 3.21051H17.5147L17.5147 3.21054C18.8873 3.21079 20 4.32194 20 5.69254V5.69298V14.6959V14.696V14.6978C20 16.07 18.8883 17.1828 17.5147 17.1874L13 17.1882L8.00003 19.1853V17.1882H6.48487C5.11166 17.1832 4 16.0702 4 14.6979V14.696V5.69301V5.69298V5.69251C4 4.32188 5.11269 3.21076 6.48534 3.21051ZM16.7833 9.73545C16.7833 10.3226 16.5286 10.8505 16.1218 11.2164H16.1219L16.1416 11.2227C17.1551 11.5905 17.8994 12.5183 18.0001 13.6423V13.8131H17.0006V13.6423C16.9675 12.4775 15.3035 11.926 14.7882 11.7835C13.724 12.0464 13.0053 12.4571 12.8148 12.911C12.8464 12.9871 12.8742 13.0662 12.9012 13.1613L12.898 13.1484C12.9443 13.3049 12.9702 13.4701 12.9723 13.6423V13.813H11.9719V13.6423C11.9719 12.7815 10.4921 12.1409 9.49452 11.9201C7.93287 12.2985 6.99962 12.9419 6.99962 13.6423V13.813H6.00012V13.6423C6.00012 12.6856 6.7064 11.8909 8.04296 11.3423L8.03828 11.3387C7.5044 10.9136 7.16228 10.2585 7.16228 9.52361C7.16228 8.2421 8.20271 7.20321 9.48621 7.20321C10.7697 7.20321 11.8101 8.2421 11.8101 9.52361V9.53082V9.53117V9.53722C11.8101 10.2663 11.4703 10.9161 10.9354 11.3409L10.9665 11.3522C11.4088 11.5343 11.8171 11.7821 12.1716 12.0772L12.1747 12.0735C12.5091 11.6936 12.9303 11.3916 13.4292 11.1906L13.4281 11.1895C13.0391 10.8263 12.796 10.3092 12.796 9.73545C12.796 8.63606 13.6886 7.74482 14.7896 7.74482C15.8907 7.74482 16.7833 8.63606 16.7833 9.73545ZM14.7896 10.7223C15.3377 10.7223 15.7821 10.2795 15.7838 9.73251H15.7838C15.7838 9.18391 15.3393 8.73893 14.7901 8.73697H14.7896C14.2406 8.73697 13.7955 9.18139 13.7955 9.72961C13.7955 10.2778 14.2406 10.7223 14.7896 10.7223ZM9.48568 10.8482C10.2151 10.8482 10.8068 10.2592 10.8096 9.53117V9.53113V9.52998C10.8096 8.79919 10.2173 8.20646 9.48568 8.20437C8.75449 8.20437 8.16174 8.79622 8.16174 9.5263C8.16174 10.2564 8.75449 10.8482 9.48568 10.8482Z" fill="#7E5FF1"/>
</svg>
