<svg width="24" height="24" viewBox="0 0 24 24" fill="none" xmlns="http://www.w3.org/2000/svg">
<rect width="24" height="24" rx="7.5" fill="#7E5FF1" fill-opacity="0.08"/>
<path fill-rule="evenodd" clip-rule="evenodd" d="M7.80189 10.9717C7.70273 10.9858 7.6036 11 7.5 11C6.119 11 5 9.881 5 8.5C5 7.119 6.119 6 7.5 6C8.70976 6 9.71847 6.8587 9.95002 8L14.05 8C14.2815 6.8587 15.2902 6 16.5 6C17.881 6 19 7.119 19 8.5C19 9.881 17.881 11 16.5 11C16.3968 11 16.2966 10.9857 16.1969 10.9715C16.1816 10.9693 16.1663 10.9671 16.151 10.965L13.89 14.881C14.265 15.318 14.5 15.879 14.5 16.5C14.5 17.881 13.381 19 12 19C10.619 19 9.5 17.881 9.5 16.5C9.5 15.879 9.735 15.318 10.11 14.881L7.849 10.965C7.83328 10.9672 7.81759 10.9694 7.80189 10.9717ZM9 8.5C9 7.673 8.327 7 7.5 7C6.673 7 6 7.673 6 8.5C6 9.327 6.673 10 7.5 10C8.327 10 9 9.327 9 8.5ZM12 18C12.827 18 13.5 17.327 13.5 16.5C13.5 15.673 12.827 15 12 15C11.173 15 10.5 15.673 10.5 16.5C10.5 17.327 11.173 18 12 18ZM15 8.5C15 9.327 15.673 10 16.5 10C17.327 10 18 9.327 18 8.5C18 7.673 17.327 7 16.5 7C15.673 7 15 7.673 15 8.5ZM14.0505 9C14.1914 9.68585 14.616 10.2668 15.194 10.623L13.093 14.262C12.762 14.1 12.394 14 12 14C11.606 14 11.238 14.1 10.907 14.262L8.806 10.623C9.384 10.2668 9.80865 9.68585 9.94945 9L14.0505 9Z" fill="#7E5FF1"/>
</svg>
