<svg width="24" height="24" viewBox="0 0 24 24" fill="none" xmlns="http://www.w3.org/2000/svg">
<rect width="24" height="24" rx="7.5" fill="#7E5FF1" fill-opacity="0.08"/>
<path d="M7 10.2597C7.553 10.2597 8 10.706 8 11.2582C8 11.8103 7.553 12.2566 7 12.2566C6.447 12.2566 6 11.8103 6 11.2582C6 10.706 6.447 10.2597 7 10.2597ZM13 10.2597C13.553 10.2597 14 10.706 14 11.2582C14 11.8103 13.553 12.2566 13 12.2566C12.447 12.2566 12 11.8103 12 11.2582C12 10.706 12.447 10.2597 13 10.2597ZM10 10.2597C10.553 10.2597 11 10.706 11 11.2582C11 11.8103 10.553 12.2566 10 12.2566C9.447 12.2566 9 11.8103 9 11.2582C9 10.706 9.447 10.2597 10 10.2597ZM19 8.44544L16 10.076V12.4404L19 14.0709V8.44544ZM5 15.2521H15V7.26424H5V15.2521ZM15 6.26576C15.553 6.26576 16 6.71208 16 7.26424V8.93869L18.521 7.56878C19.007 7.30518 19.614 7.48391 19.878 7.96817C19.958 8.11495 20 8.2787 20 8.44544V14.0709C20 14.622 19.553 15.0694 19 15.0694C18.833 15.0694 18.669 15.0274 18.521 14.9475L16 13.5766V15.2521C16 15.8042 15.553 16.2506 15 16.2506H5C4.447 16.2506 4 15.8042 4 15.2521V7.26424C4 6.71208 4.447 6.26576 5 6.26576H15Z" fill="#7E5FF1"/>
</svg>
