<svg width="24" height="24" viewBox="0 0 24 24" fill="none" xmlns="http://www.w3.org/2000/svg">
<rect width="24" height="24" rx="7.5" fill="#7E5FF1" fill-opacity="0.08"/>
<path d="M11.547 12.135C12.901 12.135 14 13.2323 14 14.5843V16.1289C14 16.6811 13.553 17.1274 13 17.1274H5C4.447 17.1274 4 16.6811 4 16.1289V14.5843C4 13.2323 5.099 12.135 6.453 12.135H11.547ZM11.547 13.1335H6.453C5.652 13.1335 5 13.7845 5 14.5843V16.1289H13V14.5843C13 13.7845 12.348 13.1335 11.547 13.1335ZM16.5469 10.138C17.9009 10.138 18.9999 11.2354 18.9999 12.5873V13.1335C18.9999 13.6856 18.5529 14.132 17.9999 14.132H14.9999V13.1335H17.9999V12.5873C17.9999 11.7875 17.3489 11.1365 16.5469 11.1365H12.9999V10.138H16.5469ZM9 5.14565C10.657 5.14565 12 6.4866 12 8.14108C12 9.79557 10.657 11.1365 9 11.1365C7.343 11.1365 6 9.79557 6 8.14108C6 6.4866 7.343 5.14565 9 5.14565ZM9 6.14412C7.897 6.14412 7 7.03976 7 8.14108C7 9.24241 7.897 10.138 9 10.138C10.103 10.138 11 9.24241 11 8.14108C11 7.03976 10.103 6.14412 9 6.14412ZM15 5.14565C16.104 5.14565 17 6.04028 17 7.1426C17 8.24493 16.104 9.13956 15 9.13956C13.896 9.13956 13 8.24493 13 7.1426C13 6.04028 13.896 5.14565 15 5.14565ZM15 6.14412C14.448 6.14412 14 6.59144 14 7.1426C14 7.69377 14.448 8.14108 15 8.14108C15.552 8.14108 16 7.69377 16 7.1426C16 6.59144 15.552 6.14412 15 6.14412Z" fill="#7E5FF1"/>
</svg>
