<svg width="48" height="48" viewBox="0 0 48 48" fill="none" xmlns="http://www.w3.org/2000/svg">
<rect width="48" height="48" rx="15" fill="url(#paint0_linear_6248_64784)"/>
<path d="M36 31.2933V16.7059C36 16.316 35.6418 16 35.2 16H24.8C24.3582 16 24 16.316 24 16.7059L24 19.999H28.94C28.9878 19.999 29.0351 20.0014 29.0817 20.006C29.7954 20.0766 30.3529 20.6786 30.3529 21.4109V22.1168C31.1326 22.1168 31.7647 22.7489 31.7647 23.5285V31.9991H35.2C35.6418 31.9991 36 31.6831 36 31.2933Z" fill="#7E5FF1"/>
<path d="M28.9407 20.7051H14.8231C14.4332 20.7051 14.1172 21.0211 14.1172 21.411V30.5874H12V31.2933L12.1253 31.4025C12.5958 31.7873 13.1863 31.9992 13.7976 31.9992H25.4118L25.4113 23.5286C25.4113 22.7489 26.0434 22.1168 26.8231 22.1168H29.6466V21.411C29.6466 21.0211 29.3306 20.7051 28.9407 20.7051Z" fill="#E95E40"/>
<path fill-rule="evenodd" clip-rule="evenodd" d="M31.0584 23.5286V31.2933C31.0584 31.6832 30.7423 31.9992 30.3525 31.9992H26.8231C26.4332 31.9992 26.1172 31.6832 26.1172 31.2933V23.5286C26.1172 23.1388 26.4332 22.8228 26.8231 22.8228H30.3525C30.7423 22.8228 31.0584 23.1388 31.0584 23.5286Z" fill="#F4BD51"/>
<defs>
<linearGradient id="paint0_linear_6248_64784" x1="72" y1="24" x2="24" y2="-24" gradientUnits="userSpaceOnUse">
<stop stop-color="#EDF3F7"/>
<stop offset="1" stop-color="white"/>
</linearGradient>
</defs>
</svg>
