<svg width="32" height="32" viewBox="0 0 32 32" fill="none" xmlns="http://www.w3.org/2000/svg">
<rect width="32" height="32" rx="10" fill="url(#paint0_linear_1994_13318)"/>
<mask id="mask0_1994_13318" style="mask-type:alpha" maskUnits="userSpaceOnUse" x="0" y="0" width="32" height="32">
<rect width="32" height="32" rx="10" fill="white"/>
</mask>
<g mask="url(#mask0_1994_13318)">
<rect x="19" y="23" width="3" height="13" rx="1.5" transform="rotate(90 19 23)" fill="#FFFAF2"/>
<rect x="19" y="18" width="3" height="13" rx="1.5" transform="rotate(90 19 18)" fill="#FFFAF2"/>
<rect x="13" y="13" width="3" height="7" rx="1.5" transform="rotate(90 13 13)" fill="#FFFAF2"/>
<rect x="26" width="32" height="1" transform="rotate(90 26 0)" fill="#F59E37"/>
<path d="M6 0H14V9L10 7L6 9L6 0Z" fill="#E77730"/>
<path d="M6 -2H14V8L10 6L6 8L6 -2Z" fill="#FF9552"/>
<path d="M6 -2H14V8L10 6L6 8L6 -2Z" fill="url(#paint1_linear_1994_13318)"/>
</g>
<defs>
<linearGradient id="paint0_linear_1994_13318" x1="16" y1="0" x2="16" y2="32" gradientUnits="userSpaceOnUse">
<stop stop-color="#FFCF6B"/>
<stop offset="1" stop-color="#FFBB6B"/>
</linearGradient>
<linearGradient id="paint1_linear_1994_13318" x1="10" y1="0.222222" x2="10" y2="8" gradientUnits="userSpaceOnUse">
<stop stop-color="#FFB053"/>
<stop offset="1" stop-color="#FF9552"/>
</linearGradient>
</defs>
</svg>
