<svg width="80" height="80" viewBox="0 0 80 80" fill="none" xmlns="http://www.w3.org/2000/svg">
<rect x="2.5" y="10" width="60" height="70" rx="10" fill="#FF7D75"/>
<rect x="12.5" y="22.5" width="40" height="45" rx="2.5" fill="#FDBCB9" stroke="#FFF2F2" stroke-width="5"/>
<path fill-rule="evenodd" clip-rule="evenodd" d="M22.5 53.75L28.8636 42.375L33.4091 48.5L37.0455 45.875L42.5 53.75H22.5ZM32.5 39.3125C32.5 37.6211 33.9245 36.25 35.6818 36.25C37.4391 36.25 38.8636 37.6211 38.8636 39.3125C38.8636 41.0039 37.4391 42.375 35.6818 42.375C33.9245 42.375 32.5 41.0039 32.5 39.3125Z" fill="white"/>
<rect x="40" width="37.5" height="37.5" rx="10" fill="url(#paint0_linear_863_15671)"/>
<path d="M56.7203 18.1618H58.1089C59.4068 18.1618 60.3779 17.9064 61.0223 17.3957C61.6667 16.8759 61.9889 16.1235 61.9889 15.1385C61.9889 14.1444 61.7166 13.4103 61.172 12.936C60.6366 12.4618 59.7925 12.2247 58.6399 12.2247H56.7203V18.1618ZM66.25 14.988C66.25 17.1403 65.5784 18.7865 64.2351 19.9265C62.901 21.0665 60.9996 21.6365 58.5309 21.6365H56.7203V28.75H52.5V8.75H58.8577C61.2719 8.75 63.1052 9.2744 64.3577 10.3232C65.6192 11.3629 66.25 12.9178 66.25 14.988Z" fill="white"/>
<defs>
<linearGradient id="paint0_linear_863_15671" x1="58.75" y1="0" x2="58.75" y2="37.5" gradientUnits="userSpaceOnUse">
<stop stop-color="#B94E48"/>
<stop offset="1" stop-color="#A42D27"/>
</linearGradient>
</defs>
</svg>
