<svg width="48" height="48" viewBox="0 0 48 48" fill="none" xmlns="http://www.w3.org/2000/svg">
<rect width="48" height="48" rx="15" fill="url(#paint0_linear_6248_64796)"/>
<path d="M24 36C17.2257 32.873 12.6912 26.219 12.1962 18.6791L12 15.6897C19.2666 10.7701 28.7334 10.7701 36 15.6897L35.8038 18.6791C35.3088 26.219 30.7743 32.873 24 36Z" fill="url(#paint1_linear_6248_64796)"/>
<path fill-rule="evenodd" clip-rule="evenodd" d="M25 22C25 23.1046 24.1046 24 23 24C21.8954 24 21 23.1046 21 22C21 20.8954 21.8954 20 23 20C24.1046 20 25 20.8954 25 22ZM25.032 25.4462C24.4365 25.7981 23.7418 26 23 26C20.7909 26 19 24.2091 19 22C19 19.7909 20.7909 18 23 18C25.2091 18 27 19.7909 27 22C27 22.7418 26.7981 23.4365 26.4462 24.032L28.7072 26.293C29.0977 26.6835 29.0977 27.3167 28.7072 27.7072C28.3167 28.0977 27.6835 28.0977 27.293 27.7072L25.032 25.4462Z" fill="white"/>
<defs>
<linearGradient id="paint0_linear_6248_64796" x1="72" y1="24" x2="24" y2="-24" gradientUnits="userSpaceOnUse">
<stop stop-color="#EDF3F7"/>
<stop offset="1" stop-color="white"/>
</linearGradient>
<linearGradient id="paint1_linear_6248_64796" x1="24" y1="8.85447" x2="24" y2="43.2716" gradientUnits="userSpaceOnUse">
<stop stop-color="#FF76EC"/>
<stop offset="1" stop-color="#8A87E9"/>
</linearGradient>
</defs>
</svg>
