<svg width="48" height="48" viewBox="0 0 48 48" fill="none" xmlns="http://www.w3.org/2000/svg">
<rect width="48" height="48" rx="15" fill="url(#paint0_linear_6248_64790)"/>
<path d="M28.5 12H19.5C15.3579 12 12 15.3579 12 19.5V28.5C12 32.6421 15.3579 36 19.5 36H28.5C32.6421 36 36 32.6421 36 28.5V19.5C36 15.3579 32.6421 12 28.5 12Z" fill="url(#paint1_linear_6248_64790)"/>
<path d="M26.9315 19.5392C26.8936 19.4537 26.8399 19.3735 26.7705 19.3033L24 16.5L21.2295 19.3033C21.1148 19.4194 21.043 19.5626 21.0143 19.7125C20.9928 19.8251 20.9955 19.9415 21.0225 20.0531C21.0554 20.1892 21.1244 20.3183 21.2295 20.4246C21.5355 20.7343 22.0317 20.7343 22.3377 20.4246L23.2163 19.5356V24.7071C23.2163 25.145 23.5671 25.5 23.9999 25.5C24.4327 25.5 24.7835 25.145 24.7835 24.7071V19.5355L25.6623 20.4246C25.9683 20.7343 26.4645 20.7343 26.7705 20.4246C26.847 20.3472 26.9044 20.2578 26.9426 20.1623C27.0227 19.9626 27.019 19.7365 26.9315 19.5392Z" fill="white"/>
<path d="M22.4663 22.5H19.5C19.0858 22.5 18.75 22.8358 18.75 23.25V29.25C18.75 29.6642 19.0858 30 19.5 30H28.5C28.9142 30 29.25 29.6642 29.25 29.25V23.25C29.25 22.8358 28.9142 22.5 28.5 22.5H25.5335V24.7071C25.5335 25.5509 24.8552 26.25 23.9999 26.25C23.1446 26.25 22.4663 25.5509 22.4663 24.7071V22.5Z" fill="white"/>
<defs>
<linearGradient id="paint0_linear_6248_64790" x1="72" y1="24" x2="24" y2="-24" gradientUnits="userSpaceOnUse">
<stop stop-color="#EDF3F7"/>
<stop offset="1" stop-color="white"/>
</linearGradient>
<linearGradient id="paint1_linear_6248_64790" x1="24" y1="12" x2="24" y2="36" gradientUnits="userSpaceOnUse">
<stop stop-color="#FFCF6B"/>
<stop offset="1" stop-color="#FF9552"/>
</linearGradient>
</defs>
</svg>
