<svg width="48" height="48" viewBox="0 0 48 48" fill="none" xmlns="http://www.w3.org/2000/svg">
<g id="share without limits">
<g id="box">
<rect id="background_2" width="48" height="48" rx="15" fill="url(#paint0_linear_6248_64862)"/>
<g id="chat panel_ico">
<path id="Rectangle" d="M21.75 21.75H35.25V31.5C35.25 33.5711 33.5711 35.25 31.5 35.25H21.75V21.75Z" fill="#3DD8B4"/>
<path id="Rectangle Copy" d="M12.75 16.5C12.75 14.4289 14.4289 12.75 16.5 12.75H21.75V21.75H12.75V16.5Z" fill="#FFCB0C"/>
<path id="Rectangle Copy 3" d="M21.75 12.75H31.5C33.5711 12.75 35.25 14.4289 35.25 16.5V21.75H21.75V12.75Z" fill="#FF645C"/>
<path id="Rectangle Copy 2" d="M12.75 21.75H21.75V35.25H16.5C14.4289 35.25 12.75 33.5711 12.75 31.5V21.75Z" fill="#FFB347"/>
<path id="Fill 1" fill-rule="evenodd" clip-rule="evenodd" d="M29.25 15.75L24.75 21.75H27.75V27.75H21.75V24.75L15.75 29.25L21.75 33.75V30.75H29.25C30.078 30.75 30.75 30.078 30.75 29.25V21.75H33.75L29.25 15.75Z" fill="white"/>
</g>
</g>
</g>
<defs>
<linearGradient id="paint0_linear_6248_64862" x1="72" y1="24" x2="24" y2="-24" gradientUnits="userSpaceOnUse">
<stop stop-color="#EDF3F7"/>
<stop offset="1" stop-color="white"/>
</linearGradient>
</defs>
</svg>
