<svg width="48" height="48" viewBox="0 0 48 48" fill="none" xmlns="http://www.w3.org/2000/svg">
<rect width="48" height="48" rx="15" fill="url(#paint0_linear_6248_65012)"/>
<path d="M24.9821 25.6434L21.0471 29.4392C20.302 30.1573 20.3025 31.3267 21.0476 32.0453C21.7932 32.7644 23.0045 32.7639 23.7491 32.0453L27.3039 28.6167L26.5578 27.8971L23.003 31.3257C22.6691 31.6462 22.1276 31.6467 21.7937 31.3257C21.4598 31.0037 21.4598 30.4804 21.7932 30.1588L25.7282 26.363C26.7 25.4257 28.2818 25.4257 29.2536 26.363C30.2254 27.3003 30.2254 28.826 29.2536 29.7632L25.0625 33.8055C24.2757 34.5644 23.2297 34.9823 22.1168 34.9823C21.0038 34.9823 19.9578 34.5644 19.171 33.8055C17.5469 32.2391 17.5469 29.6902 19.171 28.1233L23.8258 23.6337L23.0798 22.9141L18.4249 27.4036C16.3896 29.3672 16.3896 32.5621 18.4249 34.5251C19.4111 35.4763 20.7219 36.0001 22.1168 36.0001C23.5116 36.0001 24.8224 35.4763 25.8086 34.5251L29.9997 30.4828C31.3832 29.1485 31.3832 26.9778 29.9997 25.6434C28.6173 24.3096 26.3656 24.3096 24.9821 25.6434Z" fill="#0063F9"/>
<path d="M32.605 19.0455C32.815 18.4234 32.895 17.7772 32.855 17.1165C32.675 14.3147 30.09 12.0193 27.09 12H27.045C24.625 12 22.465 13.4225 21.615 15.4914C20.725 14.8114 19.58 14.4835 18.41 14.5848C16.75 14.7343 15.305 15.8049 14.72 17.3094C14.4665 17.9709 14.4017 18.6515 14.5236 19.3321C14.2937 19.4465 14.0763 19.5797 13.8707 19.7281C12.7256 20.5023 12 21.7468 12 23.1059C12 23.1351 12.0059 23.1622 12.0066 23.1911C12.0054 23.2335 12 23.275 12 23.3178C12 23.3178 12.0001 23.3186 12.0001 23.319C12.0001 23.3194 12 23.3198 12 23.3202C12 23.4692 12.0085 23.6163 12.0233 23.7614C12.0273 23.8009 12.0351 23.8393 12.0402 23.8785C12.0538 23.9835 12.0686 24.088 12.0896 24.1905C12.0996 24.2397 12.1133 24.2875 12.125 24.3362C12.1468 24.4264 12.1692 24.5164 12.1966 24.6045C12.213 24.6573 12.2322 24.7087 12.2505 24.7608C12.2791 24.8417 12.3085 24.922 12.3417 25.0008C12.3646 25.0555 12.3897 25.1089 12.4148 25.1624C12.4489 25.2349 12.4841 25.3066 12.522 25.3769C12.5521 25.4329 12.5835 25.4878 12.616 25.5424C12.6538 25.606 12.6932 25.6685 12.7341 25.73C12.7722 25.7874 12.8109 25.8439 12.8515 25.8993C12.891 25.9531 12.9322 26.0053 12.9739 26.0573C13.0213 26.1164 13.0689 26.175 13.1192 26.2316C13.1569 26.2739 13.1965 26.3143 13.2357 26.3552C13.2948 26.4169 13.3539 26.4785 13.4165 26.537C13.4456 26.5641 13.4765 26.5893 13.5064 26.6157C14.1807 27.2141 15.0371 27.6212 15.9879 27.7523C15.9918 27.7529 15.9955 27.7539 15.9994 27.7544L15.9992 27.754C16.2125 27.7829 16.4288 27.803 16.6504 27.803C16.6767 27.803 16.7021 27.7996 16.7282 27.7992C16.7289 27.8004 16.7271 27.8017 16.7279 27.803H16.7722C17.0248 27.4055 17.3229 27.0277 17.6793 26.6839L23.0803 21.4747L25.6784 23.9805L25.6863 23.9773C26.2494 23.7463 26.8609 23.6251 27.492 23.6251C28.7229 23.6251 29.8787 24.0863 30.7464 24.9236C31.5362 25.6854 31.9776 26.6575 32.0722 27.6547C34.6129 27.0495 36 24.731 36 23.1059C36 21.1481 34.58 19.4988 32.605 19.0455Z" fill="#0063F9"/>
<defs>
<linearGradient id="paint0_linear_6248_65012" x1="72" y1="24" x2="24" y2="-24" gradientUnits="userSpaceOnUse">
<stop stop-color="#EDF3F7"/>
<stop offset="1" stop-color="white"/>
</linearGradient>
</defs>
</svg>
