<svg width="48" height="48" viewBox="0 0 48 48" fill="none" xmlns="http://www.w3.org/2000/svg">
<rect width="48" height="48" rx="15" fill="url(#paint0_linear_6248_65026)"/>
<path fill-rule="evenodd" clip-rule="evenodd" d="M21.3826 15.2471L20.0039 12L18.3387 12.673L19.7174 15.9201L21.3826 15.2471ZM24.0031 16.6719C23.4408 16.6719 22.8623 16.7351 22.2748 16.8669C19.7192 17.4468 17.6394 19.4516 17.0158 21.9379C16.3562 24.5683 17.2231 27.0054 18.9154 28.643C19.903 29.6006 20.3986 30.9395 20.3986 32.2978V32.4858H20.4148C20.5014 34.162 21.6908 35.6802 23.3975 35.9525C23.603 35.9842 23.8049 36 24.0031 36C25.9946 36 27.6076 34.4256 27.6076 32.4858V32.296C27.6076 30.9132 28.1482 29.5778 29.1449 28.592C30.4209 27.3322 31.212 25.6138 31.212 23.7003C31.212 19.8189 27.9842 16.6719 24.0031 16.6719ZM24.0017 34.2427C23.899 34.2427 23.7927 34.2339 23.6863 34.2164C22.9096 34.0951 22.313 33.3484 22.2319 32.4856H25.804C25.804 33.4555 24.9966 34.2427 24.0017 34.2427ZM29.6595 12.673L27.9942 12L26.6155 15.2471L28.279 15.9201L29.6595 12.673ZM36.0012 19.8044L35.3109 18.1809L31.9822 19.5251L32.6707 21.1486L36.0012 19.8044ZM31.9784 27.8737L35.3089 29.2196L35.9974 27.5961L32.6686 26.2501L31.9784 27.8737ZM12 27.5961L12.6903 29.2196L16.019 27.8737L15.3305 26.2501L12 27.5961ZM12 19.8044L15.3305 21.1486L16.019 19.5251L12.6903 18.1809L12 19.8044ZM23.6465 24.0606C23.8417 23.8654 24.1583 23.8654 24.3536 24.0606L24.9394 24.6464C25.5252 25.2322 26.4749 25.2322 27.0607 24.6464L27.3536 24.3535L26.6465 23.6464L26.3536 23.9393C26.1583 24.1346 25.8417 24.1346 25.6465 23.9393L25.0607 23.3535C24.4749 22.7677 23.5252 22.7677 22.9394 23.3535L22.3536 23.9393C22.1583 24.1346 21.8417 24.1346 21.6465 23.9393L21.3536 23.6464L20.6465 24.3535L20.9394 24.6464C21.5252 25.2322 22.4749 25.2322 23.0607 24.6464L23.6465 24.0606Z" fill="url(#paint1_linear_6248_65026)"/>
<defs>
<linearGradient id="paint0_linear_6248_65026" x1="72" y1="24" x2="24" y2="-24" gradientUnits="userSpaceOnUse">
<stop stop-color="#EDF3F7"/>
<stop offset="1" stop-color="white"/>
</linearGradient>
<linearGradient id="paint1_linear_6248_65026" x1="24.0006" y1="11.0943" x2="24.0006" y2="36.4528" gradientUnits="userSpaceOnUse">
<stop stop-color="#FFB347"/>
<stop offset="1" stop-color="#FF7283"/>
</linearGradient>
</defs>
</svg>
