<svg width="80" height="80" viewBox="0 0 80 80" fill="none" xmlns="http://www.w3.org/2000/svg">
<rect x="2.5" y="10" width="60" height="70" rx="10" fill="#6FBF88"/>
<path fill-rule="evenodd" clip-rule="evenodd" d="M35 25H47.5V35L35 35V25ZM30 35V25H17.5V35L30 35ZM17.5 40H30V50H17.5V40ZM12.5 40V35V25C12.5 22.2386 14.7386 20 17.5 20H30H35H47.5C50.2614 20 52.5 22.2386 52.5 25V35V40V50V55V65C52.5 67.7614 50.2614 70 47.5 70H35H30H17.5C14.7386 70 12.5 67.7614 12.5 65V55V50V40ZM47.5 40V50H35V40H47.5ZM35 55H47.5V65H35V55ZM30 55H17.5V65H30V55Z" fill="#EEFFF3"/>
<rect x="40" width="37.5" height="37.5" rx="10" fill="#203976"/>
<rect x="40" width="37.5" height="37.5" rx="10" fill="url(#paint0_linear_863_15670)"/>
<path d="M65 23.0813C65 24.8378 64.3748 26.2217 63.1243 27.233C61.8827 28.2443 60.1513 28.75 57.9302 28.75C55.8841 28.75 54.074 28.3597 52.5 27.579V23.7467C53.7942 24.3322 54.8872 24.7447 55.7791 24.9842C56.6798 25.2237 57.5017 25.3435 58.245 25.3435C59.1369 25.3435 59.819 25.1705 60.2912 24.8245C60.7721 24.4785 61.0126 23.964 61.0126 23.2809C61.0126 22.8995 60.9077 22.5624 60.6978 22.2696C60.4879 21.968 60.1775 21.6797 59.7665 21.4047C59.3643 21.1297 58.538 20.6906 57.2875 20.0873C56.1158 19.5284 55.237 18.9917 54.6511 18.4772C54.0652 17.9627 53.5974 17.3639 53.2476 16.6808C52.8979 15.9977 52.723 15.1993 52.723 14.2856C52.723 12.5646 53.2957 11.2117 54.4412 10.227C55.5955 9.24235 57.187 8.75 59.2156 8.75C60.2125 8.75 61.1612 8.86976 62.0619 9.10928C62.9713 9.3488 63.9201 9.68591 64.9082 10.1206L63.5965 13.3275C62.5735 12.9017 61.7253 12.6045 61.0519 12.436C60.3874 12.2674 59.7315 12.1831 59.0845 12.1831C58.315 12.1831 57.7247 12.365 57.3137 12.7287C56.9028 13.0924 56.6973 13.567 56.6973 14.1525C56.6973 14.5162 56.7803 14.8356 56.9465 15.1106C57.1126 15.3767 57.375 15.6384 57.7335 15.8957C58.1007 16.1441 58.962 16.5965 60.3174 17.253C62.11 18.1224 63.3386 18.9962 64.0031 19.8744C64.6677 20.7438 65 21.8128 65 23.0813Z" fill="white"/>
<defs>
<linearGradient id="paint0_linear_863_15670" x1="58.75" y1="0" x2="58.75" y2="37.5" gradientUnits="userSpaceOnUse">
<stop stop-color="#37794C"/>
<stop offset="1" stop-color="#1F5330"/>
</linearGradient>
</defs>
</svg>
