<svg width="48" height="48" viewBox="0 0 48 48" fill="none" xmlns="http://www.w3.org/2000/svg">
<g id="support word, excel">
<rect id="background_2" width="48" height="48" rx="15" fill="url(#paint0_linear_6248_64849)"/>
<g id="support">
<path id="Union" d="M24 12C29.5556 12 32.8889 14.8928 34 20.6784C33.7405 20.5965 33.4768 20.534 33.2112 20.4906L28.0982 24.9534C28.0189 25.021 27.8973 25.0142 27.8267 24.9383C27.7561 24.8624 27.7632 24.746 27.8425 24.6784L32.7082 20.4315C31.5194 20.3452 30.32 20.6341 29.3074 21.2733L29 21.4673C28.9854 21.4627 28.9709 21.4581 28.9563 21.4536L26.4722 24.9072C26.4191 24.9952 26.3015 25.0254 26.2095 24.9745C26.1176 24.9236 26.0861 24.8111 26.1392 24.723L28.5695 21.3442C27.1334 20.9754 25.6145 20.9975 24.1883 21.4103V24.8145C24.1883 24.9162 24.1022 24.9986 23.996 24.9986C23.8898 24.9986 23.8037 24.9162 23.8037 24.8145V21.408C22.3782 20.9969 20.8604 20.9761 19.4255 21.3455L21.8548 24.723C21.908 24.8111 21.8765 24.9236 21.7845 24.9745C21.6926 25.0254 21.575 24.9952 21.5218 24.9072L19.0388 21.4551C19.0259 21.4592 19.0129 21.4632 19 21.4673L18.6926 21.2733C17.6784 20.6332 16.4769 20.3443 15.2863 20.4319L20.1515 24.6784C20.2308 24.746 20.2379 24.8624 20.1673 24.9383C20.0967 25.0142 19.9751 25.021 19.8958 24.9534L14.7838 20.4915C14.5198 20.5348 14.2579 20.597 14 20.6784C15.1111 14.8928 18.4444 12 24 12Z" fill="url(#paint1_linear_6248_64849)"/>
<path id="Rectangle" d="M28.2857 24H19.7143C18.7675 24 18 24.7675 18 25.7143V34.2857C18 35.2325 18.7675 36 19.7143 36H28.2857C29.2325 36 30 35.2325 30 34.2857V25.7143C30 24.7675 29.2325 24 28.2857 24Z" fill="#7E5FF1"/>
<path id="Combined Shape" fill-rule="evenodd" clip-rule="evenodd" d="M24 27C24.4142 27 24.75 27.3358 24.75 27.75V29.25H26.25C26.6642 29.25 27 29.5858 27 30C27 30.4142 26.6642 30.75 26.25 30.75H24.75V32.25C24.75 32.6642 24.4142 33 24 33C23.5858 33 23.25 32.6642 23.25 32.25V30.75H21.75C21.3358 30.75 21 30.4142 21 30C21 29.5858 21.3358 29.25 21.75 29.25L23.25 29.2492V27.75C23.25 27.3358 23.5858 27 24 27Z" fill="white"/>
</g>
</g>
<defs>
<linearGradient id="paint0_linear_6248_64849" x1="72" y1="24" x2="24" y2="-24" gradientUnits="userSpaceOnUse">
<stop stop-color="#EDF3F7"/>
<stop offset="1" stop-color="white"/>
</linearGradient>
<linearGradient id="paint1_linear_6248_64849" x1="24" y1="12" x2="24" y2="25" gradientUnits="userSpaceOnUse">
<stop stop-color="#5AFEFE"/>
<stop offset="1" stop-color="#3090FF"/>
</linearGradient>
</defs>
</svg>
