<svg width="48" height="48" viewBox="0 0 48 48" fill="none" xmlns="http://www.w3.org/2000/svg">
<rect width="48" height="48" rx="15" fill="url(#paint0_linear_7584_1154)"/>
<path fill-rule="evenodd" clip-rule="evenodd" d="M34.7358 26.1461C36.1957 25.159 37.0654 23.5195 37.0573 21.77C37.0573 18.874 34.7469 16.5261 31.8974 16.5261C29.0479 16.5261 26.7375 18.8754 26.7375 21.77C26.7303 23.4884 27.5694 25.1026 28.9864 26.0964C26.8735 26.9066 25.3756 27.9684 24.5576 29.2287C23.2697 27.9505 21.4846 27.0679 19.9709 26.5017C21.8433 25.3745 22.9842 23.3613 22.9796 21.1929C22.9796 17.7726 20.2512 15 16.8853 15C13.5194 15 10.7942 17.7726 10.7942 21.1929C10.7878 23.372 11.9387 25.3944 13.8253 26.5192C9.73958 28.0044 7.5 30.2504 7.5 32.9991H9.36616C9.36616 30.7 12.1067 28.7174 16.8862 27.5566L16.9067 27.552C19.1737 28.0472 24.403 29.8552 24.403 32.9991H26.271C26.2659 32.5739 26.2032 32.1512 26.0848 31.7425C26.0106 31.4599 25.9108 31.1846 25.7868 30.9197C26.2812 29.348 28.4459 28.003 31.8997 27.1591C33.0372 27.4617 38.5281 29.1343 38.6185 32.9116C38.6185 32.9272 38.6224 32.9413 38.6263 32.9555C38.6303 32.9697 38.6343 32.9841 38.6343 33H40.5C40.5 29.2988 37.2026 27.1996 34.7358 26.1461ZM31.8957 18.423C33.7111 18.4235 35.1898 19.9254 35.1898 21.7718C35.1898 23.6185 33.7115 25.1212 31.8947 25.1212C30.0779 25.1212 28.5996 23.6185 28.5996 21.7718C28.5996 19.9254 30.0793 18.4235 31.8957 18.423ZM21.115 21.1928C21.115 18.8228 19.2176 16.8946 16.8854 16.8946C14.5536 16.8946 12.6562 18.8228 12.6562 21.1928C12.6562 23.5628 14.5527 25.4911 16.8854 25.4911C19.2181 25.4911 21.115 23.5628 21.115 21.1928Z" fill="white"/>
<defs>
<linearGradient id="paint0_linear_7584_1154" x1="48" y1="48" x2="48" y2="0" gradientUnits="userSpaceOnUse">
<stop stop-color="#0090FF"/>
<stop offset="1" stop-color="#29DBFF"/>
</linearGradient>
</defs>
</svg>
