<svg width="48" height="48" viewBox="0 0 48 48" fill="none" xmlns="http://www.w3.org/2000/svg">
<g clip-path="url(#clip0_5247_54237)">
<rect width="48" height="48" rx="15" fill="url(#paint0_linear_5247_54237)"/>
<path fill-rule="evenodd" clip-rule="evenodd" d="M24 33.7767C24 34.1698 23.6949 34.4981 23.3018 34.4999L23.25 34.5C17.0368 34.5 12 29.4632 12 23.25C12 17.0368 17.0368 12 23.25 12C29.4632 12 34.5 17.0368 34.5 23.25L34.4999 23.3018C34.4981 23.6949 34.1698 24 33.7767 24H33.7223C33.3172 24 33 23.6551 33 23.25C33 18.9119 30.1669 15.2355 26.2499 13.9702V15.1287C26.2499 15.7254 26.0129 16.2977 25.5909 16.7197L23.7947 18.5159C23.5665 18.7441 23.5099 19.0928 23.6542 19.3816L24.2562 20.5854C24.3832 20.8395 24.6429 21 24.927 21H25.3229C26.1751 21 26.9542 21.4815 27.3353 22.2438L27.6707 22.9146C27.856 23.2851 27.7058 23.7356 27.3353 23.9208C26.9649 24.1061 26.5143 23.9559 26.3291 23.5854L25.9937 22.9146C25.8667 22.6605 25.607 22.5 25.3229 22.5H24.927C24.0747 22.5 23.2956 22.0185 22.9145 21.2562L22.3126 20.0524C21.8795 19.1862 22.0493 18.14 22.7341 17.4552L24.5303 15.659C24.6709 15.5184 24.7499 15.3276 24.7499 15.1287V13.6147C24.261 13.5392 23.7601 13.5 23.25 13.5C20.4927 13.5 18.0027 14.6446 16.2293 16.4845L18.0239 17.8305C18.4373 18.1405 18.7314 18.5834 18.8567 19.0848L19.3166 20.9244C19.4703 21.5394 19.3575 22.1907 19.0059 22.7181L18.1259 24.0381C18.0438 24.1613 17.9999 24.3061 17.9999 24.4542V24.4845C17.9999 24.7911 18.1866 25.0669 18.4714 25.1808L20.0628 25.8174C21.1075 26.2352 21.6829 27.3606 21.41 28.4521L21.0783 29.7788C20.9794 30.1745 20.7748 30.5358 20.4865 30.8241L19.1924 32.1182C20.4279 32.6844 21.8021 33 23.25 33C23.6551 33 24 33.3172 24 33.7223V33.7767ZM17.832 31.3573L19.4258 29.7635C19.5219 29.6673 19.5901 29.5469 19.6231 29.415L19.9548 28.0883C20.0457 27.7245 19.8539 27.3494 19.5057 27.2101L17.9143 26.5735C17.0601 26.2318 16.4999 25.4045 16.4999 24.4845V24.4542C16.4999 24.01 16.6314 23.5757 16.8778 23.2061L17.7578 21.8861C17.875 21.7103 17.9126 21.4932 17.8614 21.2882L17.4015 19.4486C17.3597 19.2815 17.2617 19.1338 17.1239 19.0305L15.273 17.6423C14.156 19.2284 13.5 21.1626 13.5 23.25C13.5 26.6299 15.2198 29.6081 17.832 31.3573Z" fill="white"/>
<path fill-rule="evenodd" clip-rule="evenodd" d="M32.6074 33.6681C31.8718 34.1919 30.9719 34.5 30 34.5C27.5147 34.5 25.5 32.4853 25.5 30C25.5 27.5147 27.5147 25.5 30 25.5C32.4853 25.5 34.5 27.5147 34.5 30C34.5 30.9719 34.1919 31.8718 33.6681 32.6074L35.7804 34.7197C36.0733 35.0126 36.0733 35.4875 35.7804 35.7804C35.4875 36.0733 35.0126 36.0733 34.7197 35.7804L32.6074 33.6681ZM31.524 32.5846C31.0773 32.8486 30.5564 33 30 33C28.3431 33 27 31.6569 27 30C27 28.3431 28.3431 27 30 27C31.6569 27 33 28.3431 33 30C33 31.0355 32.4753 31.9485 31.6773 32.4876C31.6273 32.5215 31.5761 32.5538 31.524 32.5846Z" fill="white"/>
</g>
<defs>
<linearGradient id="paint0_linear_5247_54237" x1="24" y1="0" x2="24" y2="48" gradientUnits="userSpaceOnUse">
<stop stop-color="#FF9C65"/>
<stop offset="1" stop-color="#FF6464"/>
</linearGradient>
<clipPath id="clip0_5247_54237">
<rect width="48" height="48" rx="15" fill="white"/>
</clipPath>
</defs>
</svg>
