<svg width="24" height="24" viewBox="0 0 24 24" fill="none" xmlns="http://www.w3.org/2000/svg">
<rect width="24" height="24" rx="7.5" fill="url(#paint0_linear_7584_2564)"/>
<path fill-rule="evenodd" clip-rule="evenodd" d="M5.25 8.72727C5.25 8.04947 5.79947 7.5 6.47727 7.5H14.5227C15.2005 7.5 15.75 8.04947 15.75 8.72727V15.2727C15.75 15.9505 15.2005 16.5 14.5227 16.5H6.47727C5.79947 16.5 5.25 15.9505 5.25 15.2727V8.72727ZM8.25 11.25C7.83579 11.25 7.5 11.5858 7.5 12C7.5 12.4142 7.83579 12.75 8.25 12.75C8.66421 12.75 9 12.4142 9 12C9 11.5858 8.66421 11.25 8.25 11.25ZM9.75 12C9.75 11.5858 10.0858 11.25 10.5 11.25C10.9142 11.25 11.25 11.5858 11.25 12C11.25 12.4142 10.9142 12.75 10.5 12.75C10.0858 12.75 9.75 12.4142 9.75 12ZM12 12C12 11.5858 12.3358 11.25 12.75 11.25C13.1642 11.25 13.5 11.5858 13.5 12C13.5 12.4142 13.1642 12.75 12.75 12.75C12.3358 12.75 12 12.4142 12 12ZM17.9338 15.2059L16.5 14.25V9.75L17.9338 8.79415C18.2827 8.56155 18.75 8.81166 18.75 9.23097V14.769C18.75 15.1883 18.2827 15.4384 17.9338 15.2059Z" fill="white"/>
<defs>
<linearGradient id="paint0_linear_7584_2564" x1="0" y1="0" x2="0" y2="24" gradientUnits="userSpaceOnUse">
<stop stop-color="#4ADCE5"/>
<stop offset="1" stop-color="#3DD8B4"/>
</linearGradient>
</defs>
</svg>
